%TF.GenerationSoftware,KiCad,Pcbnew,5.1.9*%
%TF.CreationDate,2021-02-24T23:37:06+01:00*%
%TF.ProjectId,qr_reader,71725f72-6561-4646-9572-2e6b69636164,rev?*%
%TF.SameCoordinates,Original*%
%TF.FileFunction,Copper,L1,Top*%
%TF.FilePolarity,Positive*%
%FSLAX46Y46*%
G04 Gerber Fmt 4.6, Leading zero omitted, Abs format (unit mm)*
G04 Created by KiCad (PCBNEW 5.1.9) date 2021-02-24 23:37:06*
%MOMM*%
%LPD*%
G01*
G04 APERTURE LIST*
%TA.AperFunction,SMDPad,CuDef*%
%ADD10R,5.400000X2.900000*%
%TD*%
%TA.AperFunction,ComponentPad*%
%ADD11C,1.600000*%
%TD*%
%TA.AperFunction,ComponentPad*%
%ADD12R,1.600000X1.600000*%
%TD*%
%TA.AperFunction,ComponentPad*%
%ADD13C,1.500000*%
%TD*%
%TA.AperFunction,ComponentPad*%
%ADD14C,3.000000*%
%TD*%
%TA.AperFunction,ComponentPad*%
%ADD15R,1.500000X1.500000*%
%TD*%
%TA.AperFunction,ComponentPad*%
%ADD16C,2.000000*%
%TD*%
%TA.AperFunction,SMDPad,CuDef*%
%ADD17R,2.700000X1.500000*%
%TD*%
%TA.AperFunction,ComponentPad*%
%ADD18R,1.700000X1.700000*%
%TD*%
%TA.AperFunction,ComponentPad*%
%ADD19O,1.700000X1.700000*%
%TD*%
%TA.AperFunction,ComponentPad*%
%ADD20R,2.000000X2.000000*%
%TD*%
%TA.AperFunction,ViaPad*%
%ADD21C,0.800000*%
%TD*%
%TA.AperFunction,Conductor*%
%ADD22C,0.250000*%
%TD*%
%TA.AperFunction,Conductor*%
%ADD23C,0.254000*%
%TD*%
%TA.AperFunction,Conductor*%
%ADD24C,0.100000*%
%TD*%
G04 APERTURE END LIST*
D10*
%TO.P,L1,2*%
%TO.N,Net-(C2-Pad1)*%
X122936000Y-56004000D03*
%TO.P,L1,1*%
%TO.N,Net-(D3-Pad1)*%
X122936000Y-46104000D03*
%TD*%
D11*
%TO.P,J2,9*%
%TO.N,Net-(J2-Pad9)*%
X133105000Y-54356000D03*
%TO.P,J2,8*%
%TO.N,Net-(J2-Pad8)*%
X135875000Y-54356000D03*
%TO.P,J2,7*%
%TO.N,Net-(J2-Pad7)*%
X138645000Y-54356000D03*
%TO.P,J2,6*%
%TO.N,+5V*%
X141415000Y-54356000D03*
%TO.P,J2,5*%
%TO.N,GND*%
X131720000Y-51816000D03*
%TO.P,J2,4*%
%TO.N,Net-(J2-Pad4)*%
X134490000Y-51816000D03*
%TO.P,J2,3*%
%TO.N,Net-(J1-Pad3)*%
X137260000Y-51816000D03*
%TO.P,J2,2*%
%TO.N,Net-(J1-Pad6)*%
X140030000Y-51816000D03*
D12*
%TO.P,J2,1*%
%TO.N,Net-(J2-Pad1)*%
X142800000Y-51816000D03*
%TD*%
D13*
%TO.P,J1,6*%
%TO.N,Net-(J1-Pad6)*%
X162540000Y-34850000D03*
%TO.P,J1,8*%
%TO.N,Net-(F1-Pad2)*%
X162540000Y-37390000D03*
D14*
%TO.P,J1,SH*%
%TO.N,GND*%
X150600000Y-25175000D03*
D13*
%TO.P,J1,2*%
%TO.N,Net-(J1-Pad2)*%
X162540000Y-29770000D03*
D15*
%TO.P,J1,1*%
%TO.N,Net-(J1-Pad1)*%
X160000000Y-28500000D03*
D13*
%TO.P,J1,7*%
%TO.N,Net-(J1-Pad7)*%
X160000000Y-36120000D03*
%TO.P,J1,4*%
%TO.N,GND*%
X162540000Y-32310000D03*
%TO.P,J1,5*%
X160000000Y-33580000D03*
%TO.P,J1,3*%
%TO.N,Net-(J1-Pad3)*%
X160000000Y-31040000D03*
D14*
%TO.P,J1,SH*%
%TO.N,GND*%
X150600000Y-40715000D03*
%TD*%
D16*
%TO.P,F2,2*%
%TO.N,Net-(C2-Pad1)*%
X149760000Y-56170000D03*
%TO.P,F2,1*%
%TO.N,+5V*%
X149750000Y-61250000D03*
%TD*%
%TO.P,F1,2*%
%TO.N,Net-(F1-Pad2)*%
X162260000Y-44170000D03*
%TO.P,F1,1*%
%TO.N,+12V*%
X162250000Y-49250000D03*
%TD*%
D17*
%TO.P,D3,2*%
%TO.N,GND*%
X141478000Y-44082000D03*
%TO.P,D3,1*%
%TO.N,Net-(D3-Pad1)*%
X141478000Y-48882000D03*
%TD*%
D18*
%TO.P,D1,1*%
%TO.N,Net-(D1-Pad1)*%
X131572000Y-43434000D03*
D19*
%TO.P,D1,2*%
%TO.N,Net-(D1-Pad2)*%
X131572000Y-45974000D03*
%TO.P,D1,3*%
%TO.N,GND*%
X131572000Y-48514000D03*
%TD*%
%TO.P,C2,2*%
%TO.N,GND*%
%TA.AperFunction,SMDPad,CuDef*%
G36*
G01*
X148025000Y-45125000D02*
X145975000Y-45125000D01*
G75*
G02*
X145725000Y-44875000I0J250000D01*
G01*
X145725000Y-43300000D01*
G75*
G02*
X145975000Y-43050000I250000J0D01*
G01*
X148025000Y-43050000D01*
G75*
G02*
X148275000Y-43300000I0J-250000D01*
G01*
X148275000Y-44875000D01*
G75*
G02*
X148025000Y-45125000I-250000J0D01*
G01*
G37*
%TD.AperFunction*%
%TO.P,C2,1*%
%TO.N,Net-(C2-Pad1)*%
%TA.AperFunction,SMDPad,CuDef*%
G36*
G01*
X148025000Y-51350000D02*
X145975000Y-51350000D01*
G75*
G02*
X145725000Y-51100000I0J250000D01*
G01*
X145725000Y-49525000D01*
G75*
G02*
X145975000Y-49275000I250000J0D01*
G01*
X148025000Y-49275000D01*
G75*
G02*
X148275000Y-49525000I0J-250000D01*
G01*
X148275000Y-51100000D01*
G75*
G02*
X148025000Y-51350000I-250000J0D01*
G01*
G37*
%TD.AperFunction*%
%TD*%
%TO.P,C1,2*%
%TO.N,GND*%
%TA.AperFunction,SMDPad,CuDef*%
G36*
G01*
X153450000Y-46450000D02*
X153450000Y-47550000D01*
G75*
G02*
X153200000Y-47800000I-250000J0D01*
G01*
X150200000Y-47800000D01*
G75*
G02*
X149950000Y-47550000I0J250000D01*
G01*
X149950000Y-46450000D01*
G75*
G02*
X150200000Y-46200000I250000J0D01*
G01*
X153200000Y-46200000D01*
G75*
G02*
X153450000Y-46450000I0J-250000D01*
G01*
G37*
%TD.AperFunction*%
%TO.P,C1,1*%
%TO.N,+12V*%
%TA.AperFunction,SMDPad,CuDef*%
G36*
G01*
X158850000Y-46450000D02*
X158850000Y-47550000D01*
G75*
G02*
X158600000Y-47800000I-250000J0D01*
G01*
X155600000Y-47800000D01*
G75*
G02*
X155350000Y-47550000I0J250000D01*
G01*
X155350000Y-46450000D01*
G75*
G02*
X155600000Y-46200000I250000J0D01*
G01*
X158600000Y-46200000D01*
G75*
G02*
X158850000Y-46450000I0J-250000D01*
G01*
G37*
%TD.AperFunction*%
%TD*%
D16*
%TO.P,BZ1,2*%
%TO.N,Net-(BZ1-Pad2)*%
X162100000Y-57500000D03*
D20*
%TO.P,BZ1,1*%
%TO.N,+12V*%
X154500000Y-57500000D03*
%TD*%
D21*
%TO.N,GND*%
X139000000Y-34750000D03*
X141000000Y-38000000D03*
X141000000Y-36250000D03*
X137000000Y-38000000D03*
X137000000Y-36500000D03*
X134250000Y-36500000D03*
X134250000Y-39250000D03*
X134750000Y-41000000D03*
X138000000Y-41750000D03*
X140750000Y-41750000D03*
X143750000Y-41750000D03*
X143750000Y-39000000D03*
X143750000Y-36250000D03*
X143750000Y-34000000D03*
X140750000Y-34000000D03*
X137000000Y-34000000D03*
X134250000Y-34000000D03*
%TO.N,+12V*%
X157500000Y-48500000D03*
%TO.N,Net-(C2-Pad1)*%
X146125000Y-52125000D03*
X126411000Y-51989000D03*
%TO.N,Net-(D3-Pad1)*%
X144000000Y-49000000D03*
%TO.N,+5V*%
X122500000Y-50000000D03*
%TO.N,Net-(J1-Pad6)*%
X144000000Y-45250000D03*
%TO.N,Net-(J1-Pad2)*%
X129000000Y-58000000D03*
%TO.N,Net-(J1-Pad1)*%
X130000000Y-56750000D03*
%TO.N,Net-(J1-Pad7)*%
X128000000Y-58500000D03*
%TO.N,Net-(J1-Pad3)*%
X157750000Y-42250000D03*
%TD*%
D22*
%TO.N,+12V*%
X157500000Y-47400000D02*
X157100000Y-47000000D01*
X157500000Y-48500000D02*
X157500000Y-47400000D01*
%TO.N,GND*%
X150600000Y-40715000D02*
X150600000Y-25175000D01*
X148787500Y-44087500D02*
X151700000Y-47000000D01*
X147000000Y-44087500D02*
X148787500Y-44087500D01*
X160000000Y-33580000D02*
X158420000Y-33580000D01*
X158420000Y-33580000D02*
X156000000Y-36000000D01*
X156000000Y-36000000D02*
X156000000Y-40000000D01*
X151700000Y-44300000D02*
X151700000Y-47000000D01*
X156000000Y-40000000D02*
X151700000Y-44300000D01*
X146994500Y-44082000D02*
X147000000Y-44087500D01*
X141478000Y-44082000D02*
X146994500Y-44082000D01*
X131572000Y-51668000D02*
X131720000Y-51816000D01*
X131572000Y-48514000D02*
X131572000Y-51668000D01*
%TO.N,Net-(C2-Pad1)*%
X147000000Y-51250000D02*
X146125000Y-52125000D01*
X147000000Y-50312500D02*
X147000000Y-51250000D01*
X122936000Y-55464000D02*
X126411000Y-51989000D01*
X122936000Y-56004000D02*
X122936000Y-55464000D01*
%TO.N,Net-(D3-Pad1)*%
X122936000Y-46104000D02*
X128648000Y-46104000D01*
X128648000Y-46104000D02*
X129794000Y-44958000D01*
X129794000Y-44958000D02*
X129794000Y-42418000D01*
X129794000Y-42418000D02*
X130048000Y-42164000D01*
X130048000Y-42164000D02*
X137160000Y-42164000D01*
X137160000Y-42164000D02*
X139192000Y-44196000D01*
X139192000Y-44196000D02*
X139192000Y-48260000D01*
X139814000Y-48882000D02*
X141478000Y-48882000D01*
X139192000Y-48260000D02*
X139814000Y-48882000D01*
X143882000Y-48882000D02*
X144000000Y-49000000D01*
X141478000Y-48882000D02*
X143882000Y-48882000D01*
%TO.N,Net-(F1-Pad2)*%
X162540000Y-43890000D02*
X162260000Y-44170000D01*
X162540000Y-37390000D02*
X162540000Y-43890000D01*
%TO.N,+5V*%
X141415000Y-54440000D02*
X140289999Y-55565001D01*
X140289999Y-55565001D02*
X128971001Y-55565001D01*
X128971001Y-55565001D02*
X127762000Y-54356000D01*
X127762000Y-54356000D02*
X127762000Y-51308000D01*
X126454000Y-50000000D02*
X122500000Y-50000000D01*
X127762000Y-51308000D02*
X126454000Y-50000000D01*
%TO.N,Net-(J1-Pad6)*%
X140030000Y-51600000D02*
X140240002Y-51600000D01*
X140030000Y-51600000D02*
X141380000Y-50250000D01*
X141380000Y-50250000D02*
X144250000Y-50250000D01*
X144725001Y-49774999D02*
X144725001Y-45975001D01*
X144250000Y-50250000D02*
X144725001Y-49774999D01*
X144725001Y-45975001D02*
X144000000Y-45250000D01*
X144000000Y-45250000D02*
X144000000Y-45250000D01*
%TO.N,Net-(J1-Pad2)*%
X152414998Y-51000000D02*
X145914998Y-57500000D01*
X163500000Y-51000000D02*
X152414998Y-51000000D01*
X164000000Y-50500000D02*
X163500000Y-51000000D01*
X164000000Y-31230000D02*
X164000000Y-50500000D01*
X162540000Y-29770000D02*
X164000000Y-31230000D01*
X130000000Y-57500000D02*
X129500000Y-57500000D01*
X145914998Y-57500000D02*
X130000000Y-57500000D01*
X129000000Y-58000000D02*
X129500000Y-57500000D01*
%TO.N,Net-(J1-Pad1)*%
X160500000Y-38900002D02*
X161075001Y-38325001D01*
X160184999Y-45815001D02*
X160500000Y-45500000D01*
X160184999Y-49201411D02*
X160184999Y-45815001D01*
X161075001Y-38325001D02*
X161075001Y-29575001D01*
X158836420Y-50549990D02*
X160184999Y-49201411D01*
X161075001Y-29575001D02*
X160000000Y-28500000D01*
X152228598Y-50549990D02*
X158836420Y-50549990D01*
X146028588Y-56750000D02*
X152228598Y-50549990D01*
X160500000Y-45500000D02*
X160500000Y-38900002D01*
X130000000Y-56750000D02*
X146028588Y-56750000D01*
%TO.N,Net-(J1-Pad7)*%
X128000000Y-56926998D02*
X128000000Y-58500000D01*
X128911987Y-56015011D02*
X128000000Y-56926998D01*
X151930042Y-50099980D02*
X146015011Y-56015011D01*
X158650020Y-50099980D02*
X151930042Y-50099980D01*
X146015011Y-56015011D02*
X128911987Y-56015011D01*
X159734989Y-49015011D02*
X158650020Y-50099980D01*
X159734989Y-45628601D02*
X159734989Y-49015011D01*
X160000000Y-45363590D02*
X159734989Y-45628601D01*
X160000000Y-36120000D02*
X160000000Y-45363590D01*
%TO.N,Net-(J1-Pad3)*%
X138660000Y-53000000D02*
X137260000Y-51600000D01*
X148393612Y-53000000D02*
X138660000Y-53000000D01*
X151743642Y-49649970D02*
X148393612Y-53000000D01*
X158463620Y-49649970D02*
X151743642Y-49649970D01*
X159284979Y-48828611D02*
X158463620Y-49649970D01*
X159284979Y-45465021D02*
X159284979Y-48828611D01*
X157750000Y-43930042D02*
X159284979Y-45465021D01*
X157750000Y-42250000D02*
X157750000Y-42250000D01*
X157750000Y-42250000D02*
X157750000Y-43930042D01*
%TD*%
D23*
%TO.N,GND*%
X148993653Y-23748261D02*
X149108345Y-23862953D01*
X148792786Y-24018962D01*
X148601980Y-24393745D01*
X148487956Y-24798551D01*
X148455098Y-25217824D01*
X148504666Y-25635451D01*
X148634757Y-26035383D01*
X148792786Y-26331038D01*
X149108347Y-26487048D01*
X150420395Y-25175000D01*
X150406253Y-25160858D01*
X150585858Y-24981253D01*
X150600000Y-24995395D01*
X150614143Y-24981253D01*
X150793748Y-25160858D01*
X150779605Y-25175000D01*
X150793748Y-25189143D01*
X150614143Y-25368748D01*
X150600000Y-25354605D01*
X149287952Y-26666653D01*
X149443962Y-26982214D01*
X149818745Y-27173020D01*
X150223551Y-27287044D01*
X150642824Y-27319902D01*
X151060451Y-27270334D01*
X151390000Y-27163137D01*
X151390000Y-27452591D01*
X151476851Y-27889218D01*
X151647214Y-28300511D01*
X151894544Y-28670666D01*
X152209334Y-28985456D01*
X152579489Y-29232786D01*
X152990782Y-29403149D01*
X153427409Y-29490000D01*
X153872591Y-29490000D01*
X154309218Y-29403149D01*
X154720511Y-29232786D01*
X155090666Y-28985456D01*
X155405456Y-28670666D01*
X155652786Y-28300511D01*
X155823149Y-27889218D01*
X155910000Y-27452591D01*
X155910000Y-27007409D01*
X155823149Y-26570782D01*
X155652786Y-26159489D01*
X155405456Y-25789334D01*
X155090666Y-25474544D01*
X154720511Y-25227214D01*
X154309218Y-25056851D01*
X153872591Y-24970000D01*
X153427409Y-24970000D01*
X152990782Y-25056851D01*
X152742754Y-25159588D01*
X152744902Y-25132176D01*
X152695334Y-24714549D01*
X152565243Y-24314617D01*
X152407214Y-24018962D01*
X152091655Y-23862953D01*
X152206347Y-23748261D01*
X152118086Y-23660000D01*
X163840001Y-23660000D01*
X163840000Y-24532418D01*
X163840001Y-24532428D01*
X163840001Y-29289301D01*
X163767371Y-29113957D01*
X163615799Y-28887114D01*
X163422886Y-28694201D01*
X163196043Y-28542629D01*
X162943989Y-28438225D01*
X162676411Y-28385000D01*
X162403589Y-28385000D01*
X162136011Y-28438225D01*
X161883957Y-28542629D01*
X161657114Y-28694201D01*
X161464201Y-28887114D01*
X161463286Y-28888484D01*
X161388072Y-28813270D01*
X161388072Y-27750000D01*
X161375812Y-27625518D01*
X161339502Y-27505820D01*
X161280537Y-27395506D01*
X161201185Y-27298815D01*
X161104494Y-27219463D01*
X160994180Y-27160498D01*
X160874482Y-27124188D01*
X160750000Y-27111928D01*
X159250000Y-27111928D01*
X159125518Y-27124188D01*
X159005820Y-27160498D01*
X158895506Y-27219463D01*
X158798815Y-27298815D01*
X158719463Y-27395506D01*
X158660498Y-27505820D01*
X158624188Y-27625518D01*
X158611928Y-27750000D01*
X158611928Y-29250000D01*
X158624188Y-29374482D01*
X158660498Y-29494180D01*
X158719463Y-29604494D01*
X158798815Y-29701185D01*
X158895506Y-29780537D01*
X159005820Y-29839502D01*
X159125518Y-29875812D01*
X159233483Y-29886445D01*
X159117114Y-29964201D01*
X158924201Y-30157114D01*
X158772629Y-30383957D01*
X158668225Y-30636011D01*
X158615000Y-30903589D01*
X158615000Y-31176411D01*
X158668225Y-31443989D01*
X158772629Y-31696043D01*
X158924201Y-31922886D01*
X159117114Y-32115799D01*
X159343957Y-32267371D01*
X159443279Y-32308511D01*
X159401168Y-32323723D01*
X159288137Y-32384140D01*
X159222612Y-32623007D01*
X160000000Y-33400395D01*
X160014143Y-33386253D01*
X160193748Y-33565858D01*
X160179605Y-33580000D01*
X160193748Y-33594143D01*
X160014143Y-33773748D01*
X160000000Y-33759605D01*
X159222612Y-34536993D01*
X159288137Y-34775860D01*
X159446477Y-34850164D01*
X159343957Y-34892629D01*
X159117114Y-35044201D01*
X158924201Y-35237114D01*
X158772629Y-35463957D01*
X158668225Y-35716011D01*
X158615000Y-35983589D01*
X158615000Y-36256411D01*
X158668225Y-36523989D01*
X158772629Y-36776043D01*
X158924201Y-37002886D01*
X159117114Y-37195799D01*
X159240000Y-37277909D01*
X159240001Y-44345241D01*
X158510000Y-43615241D01*
X158510000Y-42953711D01*
X158553937Y-42909774D01*
X158667205Y-42740256D01*
X158745226Y-42551898D01*
X158785000Y-42351939D01*
X158785000Y-42148061D01*
X158745226Y-41948102D01*
X158667205Y-41759744D01*
X158553937Y-41590226D01*
X158409774Y-41446063D01*
X158240256Y-41332795D01*
X158051898Y-41254774D01*
X157851939Y-41215000D01*
X157648061Y-41215000D01*
X157448102Y-41254774D01*
X157259744Y-41332795D01*
X157090226Y-41446063D01*
X156946063Y-41590226D01*
X156832795Y-41759744D01*
X156754774Y-41948102D01*
X156715000Y-42148061D01*
X156715000Y-42351939D01*
X156754774Y-42551898D01*
X156832795Y-42740256D01*
X156946063Y-42909774D01*
X156990000Y-42953711D01*
X156990001Y-43892710D01*
X156986324Y-43930042D01*
X157000998Y-44079027D01*
X157044454Y-44222288D01*
X157115026Y-44354318D01*
X157177138Y-44430001D01*
X157210000Y-44470043D01*
X157238998Y-44493841D01*
X158307084Y-45561928D01*
X155600000Y-45561928D01*
X155426746Y-45578992D01*
X155260150Y-45629528D01*
X155106614Y-45711595D01*
X154972038Y-45822038D01*
X154861595Y-45956614D01*
X154779528Y-46110150D01*
X154728992Y-46276746D01*
X154711928Y-46450000D01*
X154711928Y-47550000D01*
X154728992Y-47723254D01*
X154779528Y-47889850D01*
X154861595Y-48043386D01*
X154972038Y-48177962D01*
X155106614Y-48288405D01*
X155260150Y-48370472D01*
X155426746Y-48421008D01*
X155600000Y-48438072D01*
X156465000Y-48438072D01*
X156465000Y-48601939D01*
X156504774Y-48801898D01*
X156541255Y-48889970D01*
X151780965Y-48889970D01*
X151743642Y-48886294D01*
X151706319Y-48889970D01*
X151706309Y-48889970D01*
X151594656Y-48900967D01*
X151451395Y-48944424D01*
X151319366Y-49014996D01*
X151203641Y-49109969D01*
X151179843Y-49138967D01*
X148807017Y-51511793D01*
X148845472Y-51439850D01*
X148896008Y-51273254D01*
X148913072Y-51100000D01*
X148913072Y-49525000D01*
X148896008Y-49351746D01*
X148845472Y-49185150D01*
X148763405Y-49031614D01*
X148652962Y-48897038D01*
X148518386Y-48786595D01*
X148364850Y-48704528D01*
X148198254Y-48653992D01*
X148025000Y-48636928D01*
X145975000Y-48636928D01*
X145801746Y-48653992D01*
X145635150Y-48704528D01*
X145485001Y-48784785D01*
X145485001Y-47800000D01*
X149311928Y-47800000D01*
X149324188Y-47924482D01*
X149360498Y-48044180D01*
X149419463Y-48154494D01*
X149498815Y-48251185D01*
X149595506Y-48330537D01*
X149705820Y-48389502D01*
X149825518Y-48425812D01*
X149950000Y-48438072D01*
X151414250Y-48435000D01*
X151573000Y-48276250D01*
X151573000Y-47127000D01*
X151827000Y-47127000D01*
X151827000Y-48276250D01*
X151985750Y-48435000D01*
X153450000Y-48438072D01*
X153574482Y-48425812D01*
X153694180Y-48389502D01*
X153804494Y-48330537D01*
X153901185Y-48251185D01*
X153980537Y-48154494D01*
X154039502Y-48044180D01*
X154075812Y-47924482D01*
X154088072Y-47800000D01*
X154085000Y-47285750D01*
X153926250Y-47127000D01*
X151827000Y-47127000D01*
X151573000Y-47127000D01*
X149473750Y-47127000D01*
X149315000Y-47285750D01*
X149311928Y-47800000D01*
X145485001Y-47800000D01*
X145485001Y-46200000D01*
X149311928Y-46200000D01*
X149315000Y-46714250D01*
X149473750Y-46873000D01*
X151573000Y-46873000D01*
X151573000Y-45723750D01*
X151827000Y-45723750D01*
X151827000Y-46873000D01*
X153926250Y-46873000D01*
X154085000Y-46714250D01*
X154088072Y-46200000D01*
X154075812Y-46075518D01*
X154039502Y-45955820D01*
X153980537Y-45845506D01*
X153901185Y-45748815D01*
X153804494Y-45669463D01*
X153694180Y-45610498D01*
X153574482Y-45574188D01*
X153450000Y-45561928D01*
X151985750Y-45565000D01*
X151827000Y-45723750D01*
X151573000Y-45723750D01*
X151414250Y-45565000D01*
X149950000Y-45561928D01*
X149825518Y-45574188D01*
X149705820Y-45610498D01*
X149595506Y-45669463D01*
X149498815Y-45748815D01*
X149419463Y-45845506D01*
X149360498Y-45955820D01*
X149324188Y-46075518D01*
X149311928Y-46200000D01*
X145485001Y-46200000D01*
X145485001Y-46012323D01*
X145488677Y-45975000D01*
X145485001Y-45937677D01*
X145485001Y-45937668D01*
X145474004Y-45826015D01*
X145432312Y-45688574D01*
X145480820Y-45714502D01*
X145600518Y-45750812D01*
X145725000Y-45763072D01*
X146714250Y-45760000D01*
X146873000Y-45601250D01*
X146873000Y-44214500D01*
X147127000Y-44214500D01*
X147127000Y-45601250D01*
X147285750Y-45760000D01*
X148275000Y-45763072D01*
X148399482Y-45750812D01*
X148519180Y-45714502D01*
X148629494Y-45655537D01*
X148726185Y-45576185D01*
X148805537Y-45479494D01*
X148864502Y-45369180D01*
X148900812Y-45249482D01*
X148913072Y-45125000D01*
X148910000Y-44373250D01*
X148751250Y-44214500D01*
X147127000Y-44214500D01*
X146873000Y-44214500D01*
X145248750Y-44214500D01*
X145090000Y-44373250D01*
X145086928Y-45125000D01*
X145099188Y-45249482D01*
X145110032Y-45285230D01*
X145035000Y-45210198D01*
X145035000Y-45148061D01*
X144995226Y-44948102D01*
X144917205Y-44759744D01*
X144803937Y-44590226D01*
X144659774Y-44446063D01*
X144490256Y-44332795D01*
X144301898Y-44254774D01*
X144101939Y-44215000D01*
X143898061Y-44215000D01*
X143698102Y-44254774D01*
X143509744Y-44332795D01*
X143460769Y-44365519D01*
X143304250Y-44209000D01*
X141605000Y-44209000D01*
X141605000Y-45308250D01*
X141763750Y-45467000D01*
X142828000Y-45470072D01*
X142952482Y-45457812D01*
X142984149Y-45448206D01*
X143004774Y-45551898D01*
X143082795Y-45740256D01*
X143196063Y-45909774D01*
X143340226Y-46053937D01*
X143509744Y-46167205D01*
X143698102Y-46245226D01*
X143898061Y-46285000D01*
X143960198Y-46285000D01*
X143965002Y-46289804D01*
X143965001Y-47965000D01*
X143898061Y-47965000D01*
X143698102Y-48004774D01*
X143509744Y-48082795D01*
X143464222Y-48113212D01*
X143453812Y-48007518D01*
X143417502Y-47887820D01*
X143358537Y-47777506D01*
X143279185Y-47680815D01*
X143182494Y-47601463D01*
X143072180Y-47542498D01*
X142952482Y-47506188D01*
X142828000Y-47493928D01*
X140128000Y-47493928D01*
X140003518Y-47506188D01*
X139952000Y-47521816D01*
X139952000Y-45442184D01*
X140003518Y-45457812D01*
X140128000Y-45470072D01*
X141192250Y-45467000D01*
X141351000Y-45308250D01*
X141351000Y-44209000D01*
X141331000Y-44209000D01*
X141331000Y-43955000D01*
X141351000Y-43955000D01*
X141351000Y-42855750D01*
X141605000Y-42855750D01*
X141605000Y-43955000D01*
X143304250Y-43955000D01*
X143463000Y-43796250D01*
X143466072Y-43332000D01*
X143453812Y-43207518D01*
X143417502Y-43087820D01*
X143397287Y-43050000D01*
X145086928Y-43050000D01*
X145090000Y-43801750D01*
X145248750Y-43960500D01*
X146873000Y-43960500D01*
X146873000Y-42573750D01*
X147127000Y-42573750D01*
X147127000Y-43960500D01*
X148751250Y-43960500D01*
X148910000Y-43801750D01*
X148913072Y-43050000D01*
X148900812Y-42925518D01*
X148864502Y-42805820D01*
X148805537Y-42695506D01*
X148726185Y-42598815D01*
X148629494Y-42519463D01*
X148519180Y-42460498D01*
X148399482Y-42424188D01*
X148275000Y-42411928D01*
X147285750Y-42415000D01*
X147127000Y-42573750D01*
X146873000Y-42573750D01*
X146714250Y-42415000D01*
X145725000Y-42411928D01*
X145600518Y-42424188D01*
X145480820Y-42460498D01*
X145370506Y-42519463D01*
X145273815Y-42598815D01*
X145194463Y-42695506D01*
X145135498Y-42805820D01*
X145099188Y-42925518D01*
X145086928Y-43050000D01*
X143397287Y-43050000D01*
X143358537Y-42977506D01*
X143279185Y-42880815D01*
X143182494Y-42801463D01*
X143072180Y-42742498D01*
X142952482Y-42706188D01*
X142828000Y-42693928D01*
X141763750Y-42697000D01*
X141605000Y-42855750D01*
X141351000Y-42855750D01*
X141192250Y-42697000D01*
X140128000Y-42693928D01*
X140003518Y-42706188D01*
X139883820Y-42742498D01*
X139773506Y-42801463D01*
X139676815Y-42880815D01*
X139597463Y-42977506D01*
X139538498Y-43087820D01*
X139502188Y-43207518D01*
X139489928Y-43332000D01*
X139490508Y-43419706D01*
X138277455Y-42206653D01*
X149287952Y-42206653D01*
X149443962Y-42522214D01*
X149818745Y-42713020D01*
X150223551Y-42827044D01*
X150642824Y-42859902D01*
X151060451Y-42810334D01*
X151460383Y-42680243D01*
X151756038Y-42522214D01*
X151912048Y-42206653D01*
X150600000Y-40894605D01*
X149287952Y-42206653D01*
X138277455Y-42206653D01*
X137723804Y-41653003D01*
X137700001Y-41623999D01*
X137584276Y-41529026D01*
X137452247Y-41458454D01*
X137308986Y-41414997D01*
X137197333Y-41404000D01*
X137197322Y-41404000D01*
X137160000Y-41400324D01*
X137122678Y-41404000D01*
X130085322Y-41404000D01*
X130047999Y-41400324D01*
X130010676Y-41404000D01*
X130010667Y-41404000D01*
X129899014Y-41414997D01*
X129755753Y-41458454D01*
X129623724Y-41529026D01*
X129507999Y-41623999D01*
X129484196Y-41653003D01*
X129282998Y-41854201D01*
X129254000Y-41877999D01*
X129230202Y-41906997D01*
X129230201Y-41906998D01*
X129159026Y-41993724D01*
X129088454Y-42125754D01*
X129063915Y-42206653D01*
X129044998Y-42269014D01*
X129034001Y-42380667D01*
X129030324Y-42418000D01*
X129034001Y-42455332D01*
X129034000Y-44643198D01*
X128333199Y-45344000D01*
X126274072Y-45344000D01*
X126274072Y-44654000D01*
X126261812Y-44529518D01*
X126225502Y-44409820D01*
X126166537Y-44299506D01*
X126087185Y-44202815D01*
X125990494Y-44123463D01*
X125880180Y-44064498D01*
X125760482Y-44028188D01*
X125636000Y-44015928D01*
X120236000Y-44015928D01*
X120111518Y-44028188D01*
X119991820Y-44064498D01*
X119881506Y-44123463D01*
X119784815Y-44202815D01*
X119705463Y-44299506D01*
X119646498Y-44409820D01*
X119610188Y-44529518D01*
X119597928Y-44654000D01*
X119597928Y-47554000D01*
X119610188Y-47678482D01*
X119646498Y-47798180D01*
X119705463Y-47908494D01*
X119784815Y-48005185D01*
X119881506Y-48084537D01*
X119991820Y-48143502D01*
X120111518Y-48179812D01*
X120236000Y-48192072D01*
X125636000Y-48192072D01*
X125760482Y-48179812D01*
X125880180Y-48143502D01*
X125990494Y-48084537D01*
X126087185Y-48005185D01*
X126166537Y-47908494D01*
X126225502Y-47798180D01*
X126261812Y-47678482D01*
X126274072Y-47554000D01*
X126274072Y-46864000D01*
X128610678Y-46864000D01*
X128648000Y-46867676D01*
X128685322Y-46864000D01*
X128685333Y-46864000D01*
X128796986Y-46853003D01*
X128940247Y-46809546D01*
X129072276Y-46738974D01*
X129188001Y-46644001D01*
X129211804Y-46614998D01*
X130108836Y-45717966D01*
X130087000Y-45827740D01*
X130087000Y-46120260D01*
X130144068Y-46407158D01*
X130256010Y-46677411D01*
X130418525Y-46920632D01*
X130625368Y-47127475D01*
X130807534Y-47249195D01*
X130690645Y-47318822D01*
X130474412Y-47513731D01*
X130300359Y-47747080D01*
X130175175Y-48009901D01*
X130130524Y-48157110D01*
X130251845Y-48387000D01*
X131445000Y-48387000D01*
X131445000Y-48367000D01*
X131699000Y-48367000D01*
X131699000Y-48387000D01*
X132892155Y-48387000D01*
X133013476Y-48157110D01*
X132968825Y-48009901D01*
X132843641Y-47747080D01*
X132669588Y-47513731D01*
X132453355Y-47318822D01*
X132336466Y-47249195D01*
X132518632Y-47127475D01*
X132725475Y-46920632D01*
X132887990Y-46677411D01*
X132999932Y-46407158D01*
X133057000Y-46120260D01*
X133057000Y-45827740D01*
X132999932Y-45540842D01*
X132887990Y-45270589D01*
X132725475Y-45027368D01*
X132593620Y-44895513D01*
X132666180Y-44873502D01*
X132776494Y-44814537D01*
X132873185Y-44735185D01*
X132952537Y-44638494D01*
X133011502Y-44528180D01*
X133047812Y-44408482D01*
X133060072Y-44284000D01*
X133060072Y-42924000D01*
X136845199Y-42924000D01*
X138432000Y-44510802D01*
X138432001Y-48222668D01*
X138428324Y-48260000D01*
X138442998Y-48408985D01*
X138486454Y-48552246D01*
X138557026Y-48684276D01*
X138597025Y-48733014D01*
X138652000Y-48800001D01*
X138680998Y-48823799D01*
X139250200Y-49393002D01*
X139273999Y-49422001D01*
X139389724Y-49516974D01*
X139489928Y-49570535D01*
X139489928Y-49632000D01*
X139502188Y-49756482D01*
X139538498Y-49876180D01*
X139597463Y-49986494D01*
X139676815Y-50083185D01*
X139773506Y-50162537D01*
X139883820Y-50221502D01*
X140003518Y-50257812D01*
X140128000Y-50270072D01*
X140285126Y-50270072D01*
X140173723Y-50381475D01*
X140171335Y-50381000D01*
X139888665Y-50381000D01*
X139611426Y-50436147D01*
X139350273Y-50544320D01*
X139115241Y-50701363D01*
X138915363Y-50901241D01*
X138758320Y-51136273D01*
X138650147Y-51397426D01*
X138645000Y-51423301D01*
X138639853Y-51397426D01*
X138531680Y-51136273D01*
X138374637Y-50901241D01*
X138174759Y-50701363D01*
X137939727Y-50544320D01*
X137678574Y-50436147D01*
X137401335Y-50381000D01*
X137118665Y-50381000D01*
X136841426Y-50436147D01*
X136580273Y-50544320D01*
X136345241Y-50701363D01*
X136145363Y-50901241D01*
X135988320Y-51136273D01*
X135880147Y-51397426D01*
X135875000Y-51423301D01*
X135869853Y-51397426D01*
X135761680Y-51136273D01*
X135604637Y-50901241D01*
X135404759Y-50701363D01*
X135169727Y-50544320D01*
X134908574Y-50436147D01*
X134631335Y-50381000D01*
X134348665Y-50381000D01*
X134071426Y-50436147D01*
X133810273Y-50544320D01*
X133575241Y-50701363D01*
X133375363Y-50901241D01*
X133218320Y-51136273D01*
X133110147Y-51397426D01*
X133104487Y-51425882D01*
X133023603Y-51199708D01*
X132956671Y-51074486D01*
X132712702Y-51002903D01*
X131899605Y-51816000D01*
X132712702Y-52629097D01*
X132956671Y-52557514D01*
X133077571Y-52302004D01*
X133103212Y-52199711D01*
X133110147Y-52234574D01*
X133218320Y-52495727D01*
X133375363Y-52730759D01*
X133575241Y-52930637D01*
X133810273Y-53087680D01*
X134071426Y-53195853D01*
X134348665Y-53251000D01*
X134631335Y-53251000D01*
X134908574Y-53195853D01*
X135169727Y-53087680D01*
X135404759Y-52930637D01*
X135604637Y-52730759D01*
X135761680Y-52495727D01*
X135869853Y-52234574D01*
X135875000Y-52208699D01*
X135880147Y-52234574D01*
X135988320Y-52495727D01*
X136145363Y-52730759D01*
X136345241Y-52930637D01*
X136580273Y-53087680D01*
X136841426Y-53195853D01*
X137118665Y-53251000D01*
X137401335Y-53251000D01*
X137678574Y-53195853D01*
X137751036Y-53165838D01*
X137787981Y-53202783D01*
X137730241Y-53241363D01*
X137530363Y-53441241D01*
X137373320Y-53676273D01*
X137265147Y-53937426D01*
X137260000Y-53963301D01*
X137254853Y-53937426D01*
X137146680Y-53676273D01*
X136989637Y-53441241D01*
X136789759Y-53241363D01*
X136554727Y-53084320D01*
X136293574Y-52976147D01*
X136016335Y-52921000D01*
X135733665Y-52921000D01*
X135456426Y-52976147D01*
X135195273Y-53084320D01*
X134960241Y-53241363D01*
X134760363Y-53441241D01*
X134603320Y-53676273D01*
X134495147Y-53937426D01*
X134490000Y-53963301D01*
X134484853Y-53937426D01*
X134376680Y-53676273D01*
X134219637Y-53441241D01*
X134019759Y-53241363D01*
X133784727Y-53084320D01*
X133523574Y-52976147D01*
X133246335Y-52921000D01*
X132963665Y-52921000D01*
X132686426Y-52976147D01*
X132425273Y-53084320D01*
X132190241Y-53241363D01*
X131990363Y-53441241D01*
X131833320Y-53676273D01*
X131725147Y-53937426D01*
X131670000Y-54214665D01*
X131670000Y-54497335D01*
X131725147Y-54774574D01*
X131737750Y-54805001D01*
X129285803Y-54805001D01*
X128522000Y-54041199D01*
X128522000Y-52808702D01*
X130906903Y-52808702D01*
X130978486Y-53052671D01*
X131233996Y-53173571D01*
X131508184Y-53242300D01*
X131790512Y-53256217D01*
X132070130Y-53214787D01*
X132336292Y-53119603D01*
X132461514Y-53052671D01*
X132533097Y-52808702D01*
X131720000Y-51995605D01*
X130906903Y-52808702D01*
X128522000Y-52808702D01*
X128522000Y-51886512D01*
X130279783Y-51886512D01*
X130321213Y-52166130D01*
X130416397Y-52432292D01*
X130483329Y-52557514D01*
X130727298Y-52629097D01*
X131540395Y-51816000D01*
X130727298Y-51002903D01*
X130483329Y-51074486D01*
X130362429Y-51329996D01*
X130293700Y-51604184D01*
X130279783Y-51886512D01*
X128522000Y-51886512D01*
X128522000Y-51345322D01*
X128525676Y-51307999D01*
X128522000Y-51270676D01*
X128522000Y-51270667D01*
X128511003Y-51159014D01*
X128467546Y-51015753D01*
X128396974Y-50883724D01*
X128347384Y-50823298D01*
X130906903Y-50823298D01*
X131720000Y-51636395D01*
X132533097Y-50823298D01*
X132461514Y-50579329D01*
X132206004Y-50458429D01*
X131931816Y-50389700D01*
X131649488Y-50375783D01*
X131369870Y-50417213D01*
X131103708Y-50512397D01*
X130978486Y-50579329D01*
X130906903Y-50823298D01*
X128347384Y-50823298D01*
X128302001Y-50767999D01*
X128273003Y-50744201D01*
X127017804Y-49489003D01*
X126994001Y-49459999D01*
X126878276Y-49365026D01*
X126746247Y-49294454D01*
X126602986Y-49250997D01*
X126491333Y-49240000D01*
X126491322Y-49240000D01*
X126454000Y-49236324D01*
X126416678Y-49240000D01*
X123203711Y-49240000D01*
X123159774Y-49196063D01*
X122990256Y-49082795D01*
X122801898Y-49004774D01*
X122601939Y-48965000D01*
X122398061Y-48965000D01*
X122198102Y-49004774D01*
X122009744Y-49082795D01*
X121840226Y-49196063D01*
X121696063Y-49340226D01*
X121582795Y-49509744D01*
X121504774Y-49698102D01*
X121465000Y-49898061D01*
X121465000Y-50101939D01*
X121504774Y-50301898D01*
X121582795Y-50490256D01*
X121696063Y-50659774D01*
X121840226Y-50803937D01*
X122009744Y-50917205D01*
X122198102Y-50995226D01*
X122398061Y-51035000D01*
X122601939Y-51035000D01*
X122801898Y-50995226D01*
X122990256Y-50917205D01*
X123159774Y-50803937D01*
X123203711Y-50760000D01*
X126139199Y-50760000D01*
X126333199Y-50954000D01*
X126309061Y-50954000D01*
X126109102Y-50993774D01*
X125920744Y-51071795D01*
X125751226Y-51185063D01*
X125607063Y-51329226D01*
X125493795Y-51498744D01*
X125415774Y-51687102D01*
X125376000Y-51887061D01*
X125376000Y-51949198D01*
X123409271Y-53915928D01*
X120236000Y-53915928D01*
X120111518Y-53928188D01*
X119991820Y-53964498D01*
X119881506Y-54023463D01*
X119784815Y-54102815D01*
X119705463Y-54199506D01*
X119646498Y-54309820D01*
X119610188Y-54429518D01*
X119597928Y-54554000D01*
X119597928Y-57454000D01*
X119610188Y-57578482D01*
X119646498Y-57698180D01*
X119705463Y-57808494D01*
X119784815Y-57905185D01*
X119881506Y-57984537D01*
X119991820Y-58043502D01*
X120111518Y-58079812D01*
X120236000Y-58092072D01*
X125636000Y-58092072D01*
X125760482Y-58079812D01*
X125880180Y-58043502D01*
X125990494Y-57984537D01*
X126087185Y-57905185D01*
X126166537Y-57808494D01*
X126225502Y-57698180D01*
X126261812Y-57578482D01*
X126274072Y-57454000D01*
X126274072Y-54554000D01*
X126261812Y-54429518D01*
X126225502Y-54309820D01*
X126166537Y-54199506D01*
X126087185Y-54102815D01*
X125990494Y-54023463D01*
X125880180Y-53964498D01*
X125760482Y-53928188D01*
X125636000Y-53915928D01*
X125558874Y-53915928D01*
X126450802Y-53024000D01*
X126512939Y-53024000D01*
X126712898Y-52984226D01*
X126901256Y-52906205D01*
X127002000Y-52838890D01*
X127002000Y-54318677D01*
X126998324Y-54356000D01*
X127002000Y-54393322D01*
X127002000Y-54393332D01*
X127012997Y-54504985D01*
X127056454Y-54648246D01*
X127127026Y-54780276D01*
X127147318Y-54805001D01*
X127221999Y-54896001D01*
X127251003Y-54919804D01*
X128091697Y-55760499D01*
X127489002Y-56363195D01*
X127459999Y-56386997D01*
X127409852Y-56448102D01*
X127365026Y-56502722D01*
X127312487Y-56601015D01*
X127294454Y-56634752D01*
X127250997Y-56778013D01*
X127240000Y-56889666D01*
X127240000Y-56889676D01*
X127236324Y-56926998D01*
X127240000Y-56964321D01*
X127240001Y-57796288D01*
X127196063Y-57840226D01*
X127082795Y-58009744D01*
X127004774Y-58198102D01*
X126965000Y-58398061D01*
X126965000Y-58601939D01*
X127004774Y-58801898D01*
X127082795Y-58990256D01*
X127196063Y-59159774D01*
X127340226Y-59303937D01*
X127509744Y-59417205D01*
X127698102Y-59495226D01*
X127898061Y-59535000D01*
X128101939Y-59535000D01*
X128301898Y-59495226D01*
X128490256Y-59417205D01*
X128659774Y-59303937D01*
X128803937Y-59159774D01*
X128888570Y-59033112D01*
X128898061Y-59035000D01*
X129101939Y-59035000D01*
X129301898Y-58995226D01*
X129490256Y-58917205D01*
X129659774Y-58803937D01*
X129803937Y-58659774D01*
X129917205Y-58490256D01*
X129995226Y-58301898D01*
X130003560Y-58260000D01*
X145877676Y-58260000D01*
X145914998Y-58263676D01*
X145952320Y-58260000D01*
X145952331Y-58260000D01*
X146063984Y-58249003D01*
X146207245Y-58205546D01*
X146339274Y-58134974D01*
X146454999Y-58040001D01*
X146478802Y-58010997D01*
X148130602Y-56359197D01*
X148187832Y-56646912D01*
X148311082Y-56944463D01*
X148490013Y-57212252D01*
X148717748Y-57439987D01*
X148985537Y-57618918D01*
X149283088Y-57742168D01*
X149598967Y-57805000D01*
X149921033Y-57805000D01*
X150236912Y-57742168D01*
X150534463Y-57618918D01*
X150802252Y-57439987D01*
X151029987Y-57212252D01*
X151208918Y-56944463D01*
X151332168Y-56646912D01*
X151361390Y-56500000D01*
X152861928Y-56500000D01*
X152861928Y-58500000D01*
X152874188Y-58624482D01*
X152910498Y-58744180D01*
X152969463Y-58854494D01*
X153048815Y-58951185D01*
X153145506Y-59030537D01*
X153255820Y-59089502D01*
X153375518Y-59125812D01*
X153500000Y-59138072D01*
X155500000Y-59138072D01*
X155624482Y-59125812D01*
X155744180Y-59089502D01*
X155854494Y-59030537D01*
X155951185Y-58951185D01*
X156030537Y-58854494D01*
X156089502Y-58744180D01*
X156125812Y-58624482D01*
X156138072Y-58500000D01*
X156138072Y-57338967D01*
X160465000Y-57338967D01*
X160465000Y-57661033D01*
X160527832Y-57976912D01*
X160651082Y-58274463D01*
X160830013Y-58542252D01*
X161057748Y-58769987D01*
X161325537Y-58948918D01*
X161623088Y-59072168D01*
X161938967Y-59135000D01*
X162261033Y-59135000D01*
X162576912Y-59072168D01*
X162874463Y-58948918D01*
X163142252Y-58769987D01*
X163369987Y-58542252D01*
X163548918Y-58274463D01*
X163672168Y-57976912D01*
X163735000Y-57661033D01*
X163735000Y-57338967D01*
X163672168Y-57023088D01*
X163548918Y-56725537D01*
X163369987Y-56457748D01*
X163142252Y-56230013D01*
X162874463Y-56051082D01*
X162576912Y-55927832D01*
X162261033Y-55865000D01*
X161938967Y-55865000D01*
X161623088Y-55927832D01*
X161325537Y-56051082D01*
X161057748Y-56230013D01*
X160830013Y-56457748D01*
X160651082Y-56725537D01*
X160527832Y-57023088D01*
X160465000Y-57338967D01*
X156138072Y-57338967D01*
X156138072Y-56500000D01*
X156125812Y-56375518D01*
X156089502Y-56255820D01*
X156030537Y-56145506D01*
X155951185Y-56048815D01*
X155854494Y-55969463D01*
X155744180Y-55910498D01*
X155624482Y-55874188D01*
X155500000Y-55861928D01*
X153500000Y-55861928D01*
X153375518Y-55874188D01*
X153255820Y-55910498D01*
X153145506Y-55969463D01*
X153048815Y-56048815D01*
X152969463Y-56145506D01*
X152910498Y-56255820D01*
X152874188Y-56375518D01*
X152861928Y-56500000D01*
X151361390Y-56500000D01*
X151395000Y-56331033D01*
X151395000Y-56008967D01*
X151332168Y-55693088D01*
X151208918Y-55395537D01*
X151029987Y-55127748D01*
X150802252Y-54900013D01*
X150534463Y-54721082D01*
X150236912Y-54597832D01*
X149949197Y-54540602D01*
X152729800Y-51760000D01*
X163462678Y-51760000D01*
X163500000Y-51763676D01*
X163537322Y-51760000D01*
X163537333Y-51760000D01*
X163648986Y-51749003D01*
X163792247Y-51705546D01*
X163840000Y-51680021D01*
X163840000Y-63340000D01*
X117160000Y-63340000D01*
X117160000Y-61088967D01*
X148115000Y-61088967D01*
X148115000Y-61411033D01*
X148177832Y-61726912D01*
X148301082Y-62024463D01*
X148480013Y-62292252D01*
X148707748Y-62519987D01*
X148975537Y-62698918D01*
X149273088Y-62822168D01*
X149588967Y-62885000D01*
X149911033Y-62885000D01*
X150226912Y-62822168D01*
X150524463Y-62698918D01*
X150792252Y-62519987D01*
X151019987Y-62292252D01*
X151198918Y-62024463D01*
X151322168Y-61726912D01*
X151385000Y-61411033D01*
X151385000Y-61088967D01*
X151322168Y-60773088D01*
X151198918Y-60475537D01*
X151019987Y-60207748D01*
X150792252Y-59980013D01*
X150524463Y-59801082D01*
X150226912Y-59677832D01*
X149911033Y-59615000D01*
X149588967Y-59615000D01*
X149273088Y-59677832D01*
X148975537Y-59801082D01*
X148707748Y-59980013D01*
X148480013Y-60207748D01*
X148301082Y-60475537D01*
X148177832Y-60773088D01*
X148115000Y-61088967D01*
X117160000Y-61088967D01*
X117160000Y-48870890D01*
X130130524Y-48870890D01*
X130175175Y-49018099D01*
X130300359Y-49280920D01*
X130474412Y-49514269D01*
X130690645Y-49709178D01*
X130940748Y-49858157D01*
X131215109Y-49955481D01*
X131445000Y-49834814D01*
X131445000Y-48641000D01*
X131699000Y-48641000D01*
X131699000Y-49834814D01*
X131928891Y-49955481D01*
X132203252Y-49858157D01*
X132453355Y-49709178D01*
X132669588Y-49514269D01*
X132843641Y-49280920D01*
X132968825Y-49018099D01*
X133013476Y-48870890D01*
X132892155Y-48641000D01*
X131699000Y-48641000D01*
X131445000Y-48641000D01*
X130251845Y-48641000D01*
X130130524Y-48870890D01*
X117160000Y-48870890D01*
X117160000Y-44590246D01*
X122827225Y-40554495D01*
X124765000Y-40554495D01*
X124765000Y-40945505D01*
X124841282Y-41329003D01*
X124990915Y-41690250D01*
X125208149Y-42015364D01*
X125484636Y-42291851D01*
X125809750Y-42509085D01*
X126170997Y-42658718D01*
X126554495Y-42735000D01*
X126945505Y-42735000D01*
X127329003Y-42658718D01*
X127690250Y-42509085D01*
X128015364Y-42291851D01*
X128291851Y-42015364D01*
X128509085Y-41690250D01*
X128658718Y-41329003D01*
X128735000Y-40945505D01*
X128735000Y-40757824D01*
X148455098Y-40757824D01*
X148504666Y-41175451D01*
X148634757Y-41575383D01*
X148792786Y-41871038D01*
X149108347Y-42027048D01*
X150420395Y-40715000D01*
X149108347Y-39402952D01*
X148792786Y-39558962D01*
X148601980Y-39933745D01*
X148487956Y-40338551D01*
X148455098Y-40757824D01*
X128735000Y-40757824D01*
X128735000Y-40554495D01*
X128658718Y-40170997D01*
X128509085Y-39809750D01*
X128291851Y-39484636D01*
X128030562Y-39223347D01*
X149287952Y-39223347D01*
X150600000Y-40535395D01*
X150614143Y-40521253D01*
X150793748Y-40700858D01*
X150779605Y-40715000D01*
X152091653Y-42027048D01*
X152407214Y-41871038D01*
X152598020Y-41496255D01*
X152712044Y-41091449D01*
X152740414Y-40729443D01*
X152990782Y-40833149D01*
X153427409Y-40920000D01*
X153872591Y-40920000D01*
X154309218Y-40833149D01*
X154720511Y-40662786D01*
X155090666Y-40415456D01*
X155405456Y-40100666D01*
X155652786Y-39730511D01*
X155823149Y-39319218D01*
X155910000Y-38882591D01*
X155910000Y-38437409D01*
X155823149Y-38000782D01*
X155652786Y-37589489D01*
X155405456Y-37219334D01*
X155090666Y-36904544D01*
X154720511Y-36657214D01*
X154309218Y-36486851D01*
X153872591Y-36400000D01*
X153427409Y-36400000D01*
X152990782Y-36486851D01*
X152579489Y-36657214D01*
X152209334Y-36904544D01*
X151894544Y-37219334D01*
X151647214Y-37589489D01*
X151476851Y-38000782D01*
X151390000Y-38437409D01*
X151390000Y-38721432D01*
X151381255Y-38716980D01*
X150976449Y-38602956D01*
X150557176Y-38570098D01*
X150139549Y-38619666D01*
X149739617Y-38749757D01*
X149443962Y-38907786D01*
X149287952Y-39223347D01*
X128030562Y-39223347D01*
X128015364Y-39208149D01*
X127690250Y-38990915D01*
X127329003Y-38841282D01*
X126945505Y-38765000D01*
X126554495Y-38765000D01*
X126170997Y-38841282D01*
X125809750Y-38990915D01*
X125484636Y-39208149D01*
X125208149Y-39484636D01*
X124990915Y-39809750D01*
X124841282Y-40170997D01*
X124765000Y-40554495D01*
X122827225Y-40554495D01*
X132519400Y-33652492D01*
X158610188Y-33652492D01*
X158651035Y-33922238D01*
X158743723Y-34178832D01*
X158804140Y-34291863D01*
X159043007Y-34357388D01*
X159820395Y-33580000D01*
X159043007Y-32802612D01*
X158804140Y-32868137D01*
X158688240Y-33115116D01*
X158622750Y-33379960D01*
X158610188Y-33652492D01*
X132519400Y-33652492D01*
X133210985Y-33160000D01*
X144967581Y-33160000D01*
X145000000Y-33163193D01*
X145032419Y-33160000D01*
X145129383Y-33150450D01*
X145253793Y-33112710D01*
X145368450Y-33051425D01*
X145468948Y-32968948D01*
X145551425Y-32868450D01*
X145612710Y-32753793D01*
X145650450Y-32629383D01*
X145663193Y-32500000D01*
X145660000Y-32467581D01*
X145660000Y-23660000D01*
X149081914Y-23660000D01*
X148993653Y-23748261D01*
%TA.AperFunction,Conductor*%
D24*
G36*
X148993653Y-23748261D02*
G01*
X149108345Y-23862953D01*
X148792786Y-24018962D01*
X148601980Y-24393745D01*
X148487956Y-24798551D01*
X148455098Y-25217824D01*
X148504666Y-25635451D01*
X148634757Y-26035383D01*
X148792786Y-26331038D01*
X149108347Y-26487048D01*
X150420395Y-25175000D01*
X150406253Y-25160858D01*
X150585858Y-24981253D01*
X150600000Y-24995395D01*
X150614143Y-24981253D01*
X150793748Y-25160858D01*
X150779605Y-25175000D01*
X150793748Y-25189143D01*
X150614143Y-25368748D01*
X150600000Y-25354605D01*
X149287952Y-26666653D01*
X149443962Y-26982214D01*
X149818745Y-27173020D01*
X150223551Y-27287044D01*
X150642824Y-27319902D01*
X151060451Y-27270334D01*
X151390000Y-27163137D01*
X151390000Y-27452591D01*
X151476851Y-27889218D01*
X151647214Y-28300511D01*
X151894544Y-28670666D01*
X152209334Y-28985456D01*
X152579489Y-29232786D01*
X152990782Y-29403149D01*
X153427409Y-29490000D01*
X153872591Y-29490000D01*
X154309218Y-29403149D01*
X154720511Y-29232786D01*
X155090666Y-28985456D01*
X155405456Y-28670666D01*
X155652786Y-28300511D01*
X155823149Y-27889218D01*
X155910000Y-27452591D01*
X155910000Y-27007409D01*
X155823149Y-26570782D01*
X155652786Y-26159489D01*
X155405456Y-25789334D01*
X155090666Y-25474544D01*
X154720511Y-25227214D01*
X154309218Y-25056851D01*
X153872591Y-24970000D01*
X153427409Y-24970000D01*
X152990782Y-25056851D01*
X152742754Y-25159588D01*
X152744902Y-25132176D01*
X152695334Y-24714549D01*
X152565243Y-24314617D01*
X152407214Y-24018962D01*
X152091655Y-23862953D01*
X152206347Y-23748261D01*
X152118086Y-23660000D01*
X163840001Y-23660000D01*
X163840000Y-24532418D01*
X163840001Y-24532428D01*
X163840001Y-29289301D01*
X163767371Y-29113957D01*
X163615799Y-28887114D01*
X163422886Y-28694201D01*
X163196043Y-28542629D01*
X162943989Y-28438225D01*
X162676411Y-28385000D01*
X162403589Y-28385000D01*
X162136011Y-28438225D01*
X161883957Y-28542629D01*
X161657114Y-28694201D01*
X161464201Y-28887114D01*
X161463286Y-28888484D01*
X161388072Y-28813270D01*
X161388072Y-27750000D01*
X161375812Y-27625518D01*
X161339502Y-27505820D01*
X161280537Y-27395506D01*
X161201185Y-27298815D01*
X161104494Y-27219463D01*
X160994180Y-27160498D01*
X160874482Y-27124188D01*
X160750000Y-27111928D01*
X159250000Y-27111928D01*
X159125518Y-27124188D01*
X159005820Y-27160498D01*
X158895506Y-27219463D01*
X158798815Y-27298815D01*
X158719463Y-27395506D01*
X158660498Y-27505820D01*
X158624188Y-27625518D01*
X158611928Y-27750000D01*
X158611928Y-29250000D01*
X158624188Y-29374482D01*
X158660498Y-29494180D01*
X158719463Y-29604494D01*
X158798815Y-29701185D01*
X158895506Y-29780537D01*
X159005820Y-29839502D01*
X159125518Y-29875812D01*
X159233483Y-29886445D01*
X159117114Y-29964201D01*
X158924201Y-30157114D01*
X158772629Y-30383957D01*
X158668225Y-30636011D01*
X158615000Y-30903589D01*
X158615000Y-31176411D01*
X158668225Y-31443989D01*
X158772629Y-31696043D01*
X158924201Y-31922886D01*
X159117114Y-32115799D01*
X159343957Y-32267371D01*
X159443279Y-32308511D01*
X159401168Y-32323723D01*
X159288137Y-32384140D01*
X159222612Y-32623007D01*
X160000000Y-33400395D01*
X160014143Y-33386253D01*
X160193748Y-33565858D01*
X160179605Y-33580000D01*
X160193748Y-33594143D01*
X160014143Y-33773748D01*
X160000000Y-33759605D01*
X159222612Y-34536993D01*
X159288137Y-34775860D01*
X159446477Y-34850164D01*
X159343957Y-34892629D01*
X159117114Y-35044201D01*
X158924201Y-35237114D01*
X158772629Y-35463957D01*
X158668225Y-35716011D01*
X158615000Y-35983589D01*
X158615000Y-36256411D01*
X158668225Y-36523989D01*
X158772629Y-36776043D01*
X158924201Y-37002886D01*
X159117114Y-37195799D01*
X159240000Y-37277909D01*
X159240001Y-44345241D01*
X158510000Y-43615241D01*
X158510000Y-42953711D01*
X158553937Y-42909774D01*
X158667205Y-42740256D01*
X158745226Y-42551898D01*
X158785000Y-42351939D01*
X158785000Y-42148061D01*
X158745226Y-41948102D01*
X158667205Y-41759744D01*
X158553937Y-41590226D01*
X158409774Y-41446063D01*
X158240256Y-41332795D01*
X158051898Y-41254774D01*
X157851939Y-41215000D01*
X157648061Y-41215000D01*
X157448102Y-41254774D01*
X157259744Y-41332795D01*
X157090226Y-41446063D01*
X156946063Y-41590226D01*
X156832795Y-41759744D01*
X156754774Y-41948102D01*
X156715000Y-42148061D01*
X156715000Y-42351939D01*
X156754774Y-42551898D01*
X156832795Y-42740256D01*
X156946063Y-42909774D01*
X156990000Y-42953711D01*
X156990001Y-43892710D01*
X156986324Y-43930042D01*
X157000998Y-44079027D01*
X157044454Y-44222288D01*
X157115026Y-44354318D01*
X157177138Y-44430001D01*
X157210000Y-44470043D01*
X157238998Y-44493841D01*
X158307084Y-45561928D01*
X155600000Y-45561928D01*
X155426746Y-45578992D01*
X155260150Y-45629528D01*
X155106614Y-45711595D01*
X154972038Y-45822038D01*
X154861595Y-45956614D01*
X154779528Y-46110150D01*
X154728992Y-46276746D01*
X154711928Y-46450000D01*
X154711928Y-47550000D01*
X154728992Y-47723254D01*
X154779528Y-47889850D01*
X154861595Y-48043386D01*
X154972038Y-48177962D01*
X155106614Y-48288405D01*
X155260150Y-48370472D01*
X155426746Y-48421008D01*
X155600000Y-48438072D01*
X156465000Y-48438072D01*
X156465000Y-48601939D01*
X156504774Y-48801898D01*
X156541255Y-48889970D01*
X151780965Y-48889970D01*
X151743642Y-48886294D01*
X151706319Y-48889970D01*
X151706309Y-48889970D01*
X151594656Y-48900967D01*
X151451395Y-48944424D01*
X151319366Y-49014996D01*
X151203641Y-49109969D01*
X151179843Y-49138967D01*
X148807017Y-51511793D01*
X148845472Y-51439850D01*
X148896008Y-51273254D01*
X148913072Y-51100000D01*
X148913072Y-49525000D01*
X148896008Y-49351746D01*
X148845472Y-49185150D01*
X148763405Y-49031614D01*
X148652962Y-48897038D01*
X148518386Y-48786595D01*
X148364850Y-48704528D01*
X148198254Y-48653992D01*
X148025000Y-48636928D01*
X145975000Y-48636928D01*
X145801746Y-48653992D01*
X145635150Y-48704528D01*
X145485001Y-48784785D01*
X145485001Y-47800000D01*
X149311928Y-47800000D01*
X149324188Y-47924482D01*
X149360498Y-48044180D01*
X149419463Y-48154494D01*
X149498815Y-48251185D01*
X149595506Y-48330537D01*
X149705820Y-48389502D01*
X149825518Y-48425812D01*
X149950000Y-48438072D01*
X151414250Y-48435000D01*
X151573000Y-48276250D01*
X151573000Y-47127000D01*
X151827000Y-47127000D01*
X151827000Y-48276250D01*
X151985750Y-48435000D01*
X153450000Y-48438072D01*
X153574482Y-48425812D01*
X153694180Y-48389502D01*
X153804494Y-48330537D01*
X153901185Y-48251185D01*
X153980537Y-48154494D01*
X154039502Y-48044180D01*
X154075812Y-47924482D01*
X154088072Y-47800000D01*
X154085000Y-47285750D01*
X153926250Y-47127000D01*
X151827000Y-47127000D01*
X151573000Y-47127000D01*
X149473750Y-47127000D01*
X149315000Y-47285750D01*
X149311928Y-47800000D01*
X145485001Y-47800000D01*
X145485001Y-46200000D01*
X149311928Y-46200000D01*
X149315000Y-46714250D01*
X149473750Y-46873000D01*
X151573000Y-46873000D01*
X151573000Y-45723750D01*
X151827000Y-45723750D01*
X151827000Y-46873000D01*
X153926250Y-46873000D01*
X154085000Y-46714250D01*
X154088072Y-46200000D01*
X154075812Y-46075518D01*
X154039502Y-45955820D01*
X153980537Y-45845506D01*
X153901185Y-45748815D01*
X153804494Y-45669463D01*
X153694180Y-45610498D01*
X153574482Y-45574188D01*
X153450000Y-45561928D01*
X151985750Y-45565000D01*
X151827000Y-45723750D01*
X151573000Y-45723750D01*
X151414250Y-45565000D01*
X149950000Y-45561928D01*
X149825518Y-45574188D01*
X149705820Y-45610498D01*
X149595506Y-45669463D01*
X149498815Y-45748815D01*
X149419463Y-45845506D01*
X149360498Y-45955820D01*
X149324188Y-46075518D01*
X149311928Y-46200000D01*
X145485001Y-46200000D01*
X145485001Y-46012323D01*
X145488677Y-45975000D01*
X145485001Y-45937677D01*
X145485001Y-45937668D01*
X145474004Y-45826015D01*
X145432312Y-45688574D01*
X145480820Y-45714502D01*
X145600518Y-45750812D01*
X145725000Y-45763072D01*
X146714250Y-45760000D01*
X146873000Y-45601250D01*
X146873000Y-44214500D01*
X147127000Y-44214500D01*
X147127000Y-45601250D01*
X147285750Y-45760000D01*
X148275000Y-45763072D01*
X148399482Y-45750812D01*
X148519180Y-45714502D01*
X148629494Y-45655537D01*
X148726185Y-45576185D01*
X148805537Y-45479494D01*
X148864502Y-45369180D01*
X148900812Y-45249482D01*
X148913072Y-45125000D01*
X148910000Y-44373250D01*
X148751250Y-44214500D01*
X147127000Y-44214500D01*
X146873000Y-44214500D01*
X145248750Y-44214500D01*
X145090000Y-44373250D01*
X145086928Y-45125000D01*
X145099188Y-45249482D01*
X145110032Y-45285230D01*
X145035000Y-45210198D01*
X145035000Y-45148061D01*
X144995226Y-44948102D01*
X144917205Y-44759744D01*
X144803937Y-44590226D01*
X144659774Y-44446063D01*
X144490256Y-44332795D01*
X144301898Y-44254774D01*
X144101939Y-44215000D01*
X143898061Y-44215000D01*
X143698102Y-44254774D01*
X143509744Y-44332795D01*
X143460769Y-44365519D01*
X143304250Y-44209000D01*
X141605000Y-44209000D01*
X141605000Y-45308250D01*
X141763750Y-45467000D01*
X142828000Y-45470072D01*
X142952482Y-45457812D01*
X142984149Y-45448206D01*
X143004774Y-45551898D01*
X143082795Y-45740256D01*
X143196063Y-45909774D01*
X143340226Y-46053937D01*
X143509744Y-46167205D01*
X143698102Y-46245226D01*
X143898061Y-46285000D01*
X143960198Y-46285000D01*
X143965002Y-46289804D01*
X143965001Y-47965000D01*
X143898061Y-47965000D01*
X143698102Y-48004774D01*
X143509744Y-48082795D01*
X143464222Y-48113212D01*
X143453812Y-48007518D01*
X143417502Y-47887820D01*
X143358537Y-47777506D01*
X143279185Y-47680815D01*
X143182494Y-47601463D01*
X143072180Y-47542498D01*
X142952482Y-47506188D01*
X142828000Y-47493928D01*
X140128000Y-47493928D01*
X140003518Y-47506188D01*
X139952000Y-47521816D01*
X139952000Y-45442184D01*
X140003518Y-45457812D01*
X140128000Y-45470072D01*
X141192250Y-45467000D01*
X141351000Y-45308250D01*
X141351000Y-44209000D01*
X141331000Y-44209000D01*
X141331000Y-43955000D01*
X141351000Y-43955000D01*
X141351000Y-42855750D01*
X141605000Y-42855750D01*
X141605000Y-43955000D01*
X143304250Y-43955000D01*
X143463000Y-43796250D01*
X143466072Y-43332000D01*
X143453812Y-43207518D01*
X143417502Y-43087820D01*
X143397287Y-43050000D01*
X145086928Y-43050000D01*
X145090000Y-43801750D01*
X145248750Y-43960500D01*
X146873000Y-43960500D01*
X146873000Y-42573750D01*
X147127000Y-42573750D01*
X147127000Y-43960500D01*
X148751250Y-43960500D01*
X148910000Y-43801750D01*
X148913072Y-43050000D01*
X148900812Y-42925518D01*
X148864502Y-42805820D01*
X148805537Y-42695506D01*
X148726185Y-42598815D01*
X148629494Y-42519463D01*
X148519180Y-42460498D01*
X148399482Y-42424188D01*
X148275000Y-42411928D01*
X147285750Y-42415000D01*
X147127000Y-42573750D01*
X146873000Y-42573750D01*
X146714250Y-42415000D01*
X145725000Y-42411928D01*
X145600518Y-42424188D01*
X145480820Y-42460498D01*
X145370506Y-42519463D01*
X145273815Y-42598815D01*
X145194463Y-42695506D01*
X145135498Y-42805820D01*
X145099188Y-42925518D01*
X145086928Y-43050000D01*
X143397287Y-43050000D01*
X143358537Y-42977506D01*
X143279185Y-42880815D01*
X143182494Y-42801463D01*
X143072180Y-42742498D01*
X142952482Y-42706188D01*
X142828000Y-42693928D01*
X141763750Y-42697000D01*
X141605000Y-42855750D01*
X141351000Y-42855750D01*
X141192250Y-42697000D01*
X140128000Y-42693928D01*
X140003518Y-42706188D01*
X139883820Y-42742498D01*
X139773506Y-42801463D01*
X139676815Y-42880815D01*
X139597463Y-42977506D01*
X139538498Y-43087820D01*
X139502188Y-43207518D01*
X139489928Y-43332000D01*
X139490508Y-43419706D01*
X138277455Y-42206653D01*
X149287952Y-42206653D01*
X149443962Y-42522214D01*
X149818745Y-42713020D01*
X150223551Y-42827044D01*
X150642824Y-42859902D01*
X151060451Y-42810334D01*
X151460383Y-42680243D01*
X151756038Y-42522214D01*
X151912048Y-42206653D01*
X150600000Y-40894605D01*
X149287952Y-42206653D01*
X138277455Y-42206653D01*
X137723804Y-41653003D01*
X137700001Y-41623999D01*
X137584276Y-41529026D01*
X137452247Y-41458454D01*
X137308986Y-41414997D01*
X137197333Y-41404000D01*
X137197322Y-41404000D01*
X137160000Y-41400324D01*
X137122678Y-41404000D01*
X130085322Y-41404000D01*
X130047999Y-41400324D01*
X130010676Y-41404000D01*
X130010667Y-41404000D01*
X129899014Y-41414997D01*
X129755753Y-41458454D01*
X129623724Y-41529026D01*
X129507999Y-41623999D01*
X129484196Y-41653003D01*
X129282998Y-41854201D01*
X129254000Y-41877999D01*
X129230202Y-41906997D01*
X129230201Y-41906998D01*
X129159026Y-41993724D01*
X129088454Y-42125754D01*
X129063915Y-42206653D01*
X129044998Y-42269014D01*
X129034001Y-42380667D01*
X129030324Y-42418000D01*
X129034001Y-42455332D01*
X129034000Y-44643198D01*
X128333199Y-45344000D01*
X126274072Y-45344000D01*
X126274072Y-44654000D01*
X126261812Y-44529518D01*
X126225502Y-44409820D01*
X126166537Y-44299506D01*
X126087185Y-44202815D01*
X125990494Y-44123463D01*
X125880180Y-44064498D01*
X125760482Y-44028188D01*
X125636000Y-44015928D01*
X120236000Y-44015928D01*
X120111518Y-44028188D01*
X119991820Y-44064498D01*
X119881506Y-44123463D01*
X119784815Y-44202815D01*
X119705463Y-44299506D01*
X119646498Y-44409820D01*
X119610188Y-44529518D01*
X119597928Y-44654000D01*
X119597928Y-47554000D01*
X119610188Y-47678482D01*
X119646498Y-47798180D01*
X119705463Y-47908494D01*
X119784815Y-48005185D01*
X119881506Y-48084537D01*
X119991820Y-48143502D01*
X120111518Y-48179812D01*
X120236000Y-48192072D01*
X125636000Y-48192072D01*
X125760482Y-48179812D01*
X125880180Y-48143502D01*
X125990494Y-48084537D01*
X126087185Y-48005185D01*
X126166537Y-47908494D01*
X126225502Y-47798180D01*
X126261812Y-47678482D01*
X126274072Y-47554000D01*
X126274072Y-46864000D01*
X128610678Y-46864000D01*
X128648000Y-46867676D01*
X128685322Y-46864000D01*
X128685333Y-46864000D01*
X128796986Y-46853003D01*
X128940247Y-46809546D01*
X129072276Y-46738974D01*
X129188001Y-46644001D01*
X129211804Y-46614998D01*
X130108836Y-45717966D01*
X130087000Y-45827740D01*
X130087000Y-46120260D01*
X130144068Y-46407158D01*
X130256010Y-46677411D01*
X130418525Y-46920632D01*
X130625368Y-47127475D01*
X130807534Y-47249195D01*
X130690645Y-47318822D01*
X130474412Y-47513731D01*
X130300359Y-47747080D01*
X130175175Y-48009901D01*
X130130524Y-48157110D01*
X130251845Y-48387000D01*
X131445000Y-48387000D01*
X131445000Y-48367000D01*
X131699000Y-48367000D01*
X131699000Y-48387000D01*
X132892155Y-48387000D01*
X133013476Y-48157110D01*
X132968825Y-48009901D01*
X132843641Y-47747080D01*
X132669588Y-47513731D01*
X132453355Y-47318822D01*
X132336466Y-47249195D01*
X132518632Y-47127475D01*
X132725475Y-46920632D01*
X132887990Y-46677411D01*
X132999932Y-46407158D01*
X133057000Y-46120260D01*
X133057000Y-45827740D01*
X132999932Y-45540842D01*
X132887990Y-45270589D01*
X132725475Y-45027368D01*
X132593620Y-44895513D01*
X132666180Y-44873502D01*
X132776494Y-44814537D01*
X132873185Y-44735185D01*
X132952537Y-44638494D01*
X133011502Y-44528180D01*
X133047812Y-44408482D01*
X133060072Y-44284000D01*
X133060072Y-42924000D01*
X136845199Y-42924000D01*
X138432000Y-44510802D01*
X138432001Y-48222668D01*
X138428324Y-48260000D01*
X138442998Y-48408985D01*
X138486454Y-48552246D01*
X138557026Y-48684276D01*
X138597025Y-48733014D01*
X138652000Y-48800001D01*
X138680998Y-48823799D01*
X139250200Y-49393002D01*
X139273999Y-49422001D01*
X139389724Y-49516974D01*
X139489928Y-49570535D01*
X139489928Y-49632000D01*
X139502188Y-49756482D01*
X139538498Y-49876180D01*
X139597463Y-49986494D01*
X139676815Y-50083185D01*
X139773506Y-50162537D01*
X139883820Y-50221502D01*
X140003518Y-50257812D01*
X140128000Y-50270072D01*
X140285126Y-50270072D01*
X140173723Y-50381475D01*
X140171335Y-50381000D01*
X139888665Y-50381000D01*
X139611426Y-50436147D01*
X139350273Y-50544320D01*
X139115241Y-50701363D01*
X138915363Y-50901241D01*
X138758320Y-51136273D01*
X138650147Y-51397426D01*
X138645000Y-51423301D01*
X138639853Y-51397426D01*
X138531680Y-51136273D01*
X138374637Y-50901241D01*
X138174759Y-50701363D01*
X137939727Y-50544320D01*
X137678574Y-50436147D01*
X137401335Y-50381000D01*
X137118665Y-50381000D01*
X136841426Y-50436147D01*
X136580273Y-50544320D01*
X136345241Y-50701363D01*
X136145363Y-50901241D01*
X135988320Y-51136273D01*
X135880147Y-51397426D01*
X135875000Y-51423301D01*
X135869853Y-51397426D01*
X135761680Y-51136273D01*
X135604637Y-50901241D01*
X135404759Y-50701363D01*
X135169727Y-50544320D01*
X134908574Y-50436147D01*
X134631335Y-50381000D01*
X134348665Y-50381000D01*
X134071426Y-50436147D01*
X133810273Y-50544320D01*
X133575241Y-50701363D01*
X133375363Y-50901241D01*
X133218320Y-51136273D01*
X133110147Y-51397426D01*
X133104487Y-51425882D01*
X133023603Y-51199708D01*
X132956671Y-51074486D01*
X132712702Y-51002903D01*
X131899605Y-51816000D01*
X132712702Y-52629097D01*
X132956671Y-52557514D01*
X133077571Y-52302004D01*
X133103212Y-52199711D01*
X133110147Y-52234574D01*
X133218320Y-52495727D01*
X133375363Y-52730759D01*
X133575241Y-52930637D01*
X133810273Y-53087680D01*
X134071426Y-53195853D01*
X134348665Y-53251000D01*
X134631335Y-53251000D01*
X134908574Y-53195853D01*
X135169727Y-53087680D01*
X135404759Y-52930637D01*
X135604637Y-52730759D01*
X135761680Y-52495727D01*
X135869853Y-52234574D01*
X135875000Y-52208699D01*
X135880147Y-52234574D01*
X135988320Y-52495727D01*
X136145363Y-52730759D01*
X136345241Y-52930637D01*
X136580273Y-53087680D01*
X136841426Y-53195853D01*
X137118665Y-53251000D01*
X137401335Y-53251000D01*
X137678574Y-53195853D01*
X137751036Y-53165838D01*
X137787981Y-53202783D01*
X137730241Y-53241363D01*
X137530363Y-53441241D01*
X137373320Y-53676273D01*
X137265147Y-53937426D01*
X137260000Y-53963301D01*
X137254853Y-53937426D01*
X137146680Y-53676273D01*
X136989637Y-53441241D01*
X136789759Y-53241363D01*
X136554727Y-53084320D01*
X136293574Y-52976147D01*
X136016335Y-52921000D01*
X135733665Y-52921000D01*
X135456426Y-52976147D01*
X135195273Y-53084320D01*
X134960241Y-53241363D01*
X134760363Y-53441241D01*
X134603320Y-53676273D01*
X134495147Y-53937426D01*
X134490000Y-53963301D01*
X134484853Y-53937426D01*
X134376680Y-53676273D01*
X134219637Y-53441241D01*
X134019759Y-53241363D01*
X133784727Y-53084320D01*
X133523574Y-52976147D01*
X133246335Y-52921000D01*
X132963665Y-52921000D01*
X132686426Y-52976147D01*
X132425273Y-53084320D01*
X132190241Y-53241363D01*
X131990363Y-53441241D01*
X131833320Y-53676273D01*
X131725147Y-53937426D01*
X131670000Y-54214665D01*
X131670000Y-54497335D01*
X131725147Y-54774574D01*
X131737750Y-54805001D01*
X129285803Y-54805001D01*
X128522000Y-54041199D01*
X128522000Y-52808702D01*
X130906903Y-52808702D01*
X130978486Y-53052671D01*
X131233996Y-53173571D01*
X131508184Y-53242300D01*
X131790512Y-53256217D01*
X132070130Y-53214787D01*
X132336292Y-53119603D01*
X132461514Y-53052671D01*
X132533097Y-52808702D01*
X131720000Y-51995605D01*
X130906903Y-52808702D01*
X128522000Y-52808702D01*
X128522000Y-51886512D01*
X130279783Y-51886512D01*
X130321213Y-52166130D01*
X130416397Y-52432292D01*
X130483329Y-52557514D01*
X130727298Y-52629097D01*
X131540395Y-51816000D01*
X130727298Y-51002903D01*
X130483329Y-51074486D01*
X130362429Y-51329996D01*
X130293700Y-51604184D01*
X130279783Y-51886512D01*
X128522000Y-51886512D01*
X128522000Y-51345322D01*
X128525676Y-51307999D01*
X128522000Y-51270676D01*
X128522000Y-51270667D01*
X128511003Y-51159014D01*
X128467546Y-51015753D01*
X128396974Y-50883724D01*
X128347384Y-50823298D01*
X130906903Y-50823298D01*
X131720000Y-51636395D01*
X132533097Y-50823298D01*
X132461514Y-50579329D01*
X132206004Y-50458429D01*
X131931816Y-50389700D01*
X131649488Y-50375783D01*
X131369870Y-50417213D01*
X131103708Y-50512397D01*
X130978486Y-50579329D01*
X130906903Y-50823298D01*
X128347384Y-50823298D01*
X128302001Y-50767999D01*
X128273003Y-50744201D01*
X127017804Y-49489003D01*
X126994001Y-49459999D01*
X126878276Y-49365026D01*
X126746247Y-49294454D01*
X126602986Y-49250997D01*
X126491333Y-49240000D01*
X126491322Y-49240000D01*
X126454000Y-49236324D01*
X126416678Y-49240000D01*
X123203711Y-49240000D01*
X123159774Y-49196063D01*
X122990256Y-49082795D01*
X122801898Y-49004774D01*
X122601939Y-48965000D01*
X122398061Y-48965000D01*
X122198102Y-49004774D01*
X122009744Y-49082795D01*
X121840226Y-49196063D01*
X121696063Y-49340226D01*
X121582795Y-49509744D01*
X121504774Y-49698102D01*
X121465000Y-49898061D01*
X121465000Y-50101939D01*
X121504774Y-50301898D01*
X121582795Y-50490256D01*
X121696063Y-50659774D01*
X121840226Y-50803937D01*
X122009744Y-50917205D01*
X122198102Y-50995226D01*
X122398061Y-51035000D01*
X122601939Y-51035000D01*
X122801898Y-50995226D01*
X122990256Y-50917205D01*
X123159774Y-50803937D01*
X123203711Y-50760000D01*
X126139199Y-50760000D01*
X126333199Y-50954000D01*
X126309061Y-50954000D01*
X126109102Y-50993774D01*
X125920744Y-51071795D01*
X125751226Y-51185063D01*
X125607063Y-51329226D01*
X125493795Y-51498744D01*
X125415774Y-51687102D01*
X125376000Y-51887061D01*
X125376000Y-51949198D01*
X123409271Y-53915928D01*
X120236000Y-53915928D01*
X120111518Y-53928188D01*
X119991820Y-53964498D01*
X119881506Y-54023463D01*
X119784815Y-54102815D01*
X119705463Y-54199506D01*
X119646498Y-54309820D01*
X119610188Y-54429518D01*
X119597928Y-54554000D01*
X119597928Y-57454000D01*
X119610188Y-57578482D01*
X119646498Y-57698180D01*
X119705463Y-57808494D01*
X119784815Y-57905185D01*
X119881506Y-57984537D01*
X119991820Y-58043502D01*
X120111518Y-58079812D01*
X120236000Y-58092072D01*
X125636000Y-58092072D01*
X125760482Y-58079812D01*
X125880180Y-58043502D01*
X125990494Y-57984537D01*
X126087185Y-57905185D01*
X126166537Y-57808494D01*
X126225502Y-57698180D01*
X126261812Y-57578482D01*
X126274072Y-57454000D01*
X126274072Y-54554000D01*
X126261812Y-54429518D01*
X126225502Y-54309820D01*
X126166537Y-54199506D01*
X126087185Y-54102815D01*
X125990494Y-54023463D01*
X125880180Y-53964498D01*
X125760482Y-53928188D01*
X125636000Y-53915928D01*
X125558874Y-53915928D01*
X126450802Y-53024000D01*
X126512939Y-53024000D01*
X126712898Y-52984226D01*
X126901256Y-52906205D01*
X127002000Y-52838890D01*
X127002000Y-54318677D01*
X126998324Y-54356000D01*
X127002000Y-54393322D01*
X127002000Y-54393332D01*
X127012997Y-54504985D01*
X127056454Y-54648246D01*
X127127026Y-54780276D01*
X127147318Y-54805001D01*
X127221999Y-54896001D01*
X127251003Y-54919804D01*
X128091697Y-55760499D01*
X127489002Y-56363195D01*
X127459999Y-56386997D01*
X127409852Y-56448102D01*
X127365026Y-56502722D01*
X127312487Y-56601015D01*
X127294454Y-56634752D01*
X127250997Y-56778013D01*
X127240000Y-56889666D01*
X127240000Y-56889676D01*
X127236324Y-56926998D01*
X127240000Y-56964321D01*
X127240001Y-57796288D01*
X127196063Y-57840226D01*
X127082795Y-58009744D01*
X127004774Y-58198102D01*
X126965000Y-58398061D01*
X126965000Y-58601939D01*
X127004774Y-58801898D01*
X127082795Y-58990256D01*
X127196063Y-59159774D01*
X127340226Y-59303937D01*
X127509744Y-59417205D01*
X127698102Y-59495226D01*
X127898061Y-59535000D01*
X128101939Y-59535000D01*
X128301898Y-59495226D01*
X128490256Y-59417205D01*
X128659774Y-59303937D01*
X128803937Y-59159774D01*
X128888570Y-59033112D01*
X128898061Y-59035000D01*
X129101939Y-59035000D01*
X129301898Y-58995226D01*
X129490256Y-58917205D01*
X129659774Y-58803937D01*
X129803937Y-58659774D01*
X129917205Y-58490256D01*
X129995226Y-58301898D01*
X130003560Y-58260000D01*
X145877676Y-58260000D01*
X145914998Y-58263676D01*
X145952320Y-58260000D01*
X145952331Y-58260000D01*
X146063984Y-58249003D01*
X146207245Y-58205546D01*
X146339274Y-58134974D01*
X146454999Y-58040001D01*
X146478802Y-58010997D01*
X148130602Y-56359197D01*
X148187832Y-56646912D01*
X148311082Y-56944463D01*
X148490013Y-57212252D01*
X148717748Y-57439987D01*
X148985537Y-57618918D01*
X149283088Y-57742168D01*
X149598967Y-57805000D01*
X149921033Y-57805000D01*
X150236912Y-57742168D01*
X150534463Y-57618918D01*
X150802252Y-57439987D01*
X151029987Y-57212252D01*
X151208918Y-56944463D01*
X151332168Y-56646912D01*
X151361390Y-56500000D01*
X152861928Y-56500000D01*
X152861928Y-58500000D01*
X152874188Y-58624482D01*
X152910498Y-58744180D01*
X152969463Y-58854494D01*
X153048815Y-58951185D01*
X153145506Y-59030537D01*
X153255820Y-59089502D01*
X153375518Y-59125812D01*
X153500000Y-59138072D01*
X155500000Y-59138072D01*
X155624482Y-59125812D01*
X155744180Y-59089502D01*
X155854494Y-59030537D01*
X155951185Y-58951185D01*
X156030537Y-58854494D01*
X156089502Y-58744180D01*
X156125812Y-58624482D01*
X156138072Y-58500000D01*
X156138072Y-57338967D01*
X160465000Y-57338967D01*
X160465000Y-57661033D01*
X160527832Y-57976912D01*
X160651082Y-58274463D01*
X160830013Y-58542252D01*
X161057748Y-58769987D01*
X161325537Y-58948918D01*
X161623088Y-59072168D01*
X161938967Y-59135000D01*
X162261033Y-59135000D01*
X162576912Y-59072168D01*
X162874463Y-58948918D01*
X163142252Y-58769987D01*
X163369987Y-58542252D01*
X163548918Y-58274463D01*
X163672168Y-57976912D01*
X163735000Y-57661033D01*
X163735000Y-57338967D01*
X163672168Y-57023088D01*
X163548918Y-56725537D01*
X163369987Y-56457748D01*
X163142252Y-56230013D01*
X162874463Y-56051082D01*
X162576912Y-55927832D01*
X162261033Y-55865000D01*
X161938967Y-55865000D01*
X161623088Y-55927832D01*
X161325537Y-56051082D01*
X161057748Y-56230013D01*
X160830013Y-56457748D01*
X160651082Y-56725537D01*
X160527832Y-57023088D01*
X160465000Y-57338967D01*
X156138072Y-57338967D01*
X156138072Y-56500000D01*
X156125812Y-56375518D01*
X156089502Y-56255820D01*
X156030537Y-56145506D01*
X155951185Y-56048815D01*
X155854494Y-55969463D01*
X155744180Y-55910498D01*
X155624482Y-55874188D01*
X155500000Y-55861928D01*
X153500000Y-55861928D01*
X153375518Y-55874188D01*
X153255820Y-55910498D01*
X153145506Y-55969463D01*
X153048815Y-56048815D01*
X152969463Y-56145506D01*
X152910498Y-56255820D01*
X152874188Y-56375518D01*
X152861928Y-56500000D01*
X151361390Y-56500000D01*
X151395000Y-56331033D01*
X151395000Y-56008967D01*
X151332168Y-55693088D01*
X151208918Y-55395537D01*
X151029987Y-55127748D01*
X150802252Y-54900013D01*
X150534463Y-54721082D01*
X150236912Y-54597832D01*
X149949197Y-54540602D01*
X152729800Y-51760000D01*
X163462678Y-51760000D01*
X163500000Y-51763676D01*
X163537322Y-51760000D01*
X163537333Y-51760000D01*
X163648986Y-51749003D01*
X163792247Y-51705546D01*
X163840000Y-51680021D01*
X163840000Y-63340000D01*
X117160000Y-63340000D01*
X117160000Y-61088967D01*
X148115000Y-61088967D01*
X148115000Y-61411033D01*
X148177832Y-61726912D01*
X148301082Y-62024463D01*
X148480013Y-62292252D01*
X148707748Y-62519987D01*
X148975537Y-62698918D01*
X149273088Y-62822168D01*
X149588967Y-62885000D01*
X149911033Y-62885000D01*
X150226912Y-62822168D01*
X150524463Y-62698918D01*
X150792252Y-62519987D01*
X151019987Y-62292252D01*
X151198918Y-62024463D01*
X151322168Y-61726912D01*
X151385000Y-61411033D01*
X151385000Y-61088967D01*
X151322168Y-60773088D01*
X151198918Y-60475537D01*
X151019987Y-60207748D01*
X150792252Y-59980013D01*
X150524463Y-59801082D01*
X150226912Y-59677832D01*
X149911033Y-59615000D01*
X149588967Y-59615000D01*
X149273088Y-59677832D01*
X148975537Y-59801082D01*
X148707748Y-59980013D01*
X148480013Y-60207748D01*
X148301082Y-60475537D01*
X148177832Y-60773088D01*
X148115000Y-61088967D01*
X117160000Y-61088967D01*
X117160000Y-48870890D01*
X130130524Y-48870890D01*
X130175175Y-49018099D01*
X130300359Y-49280920D01*
X130474412Y-49514269D01*
X130690645Y-49709178D01*
X130940748Y-49858157D01*
X131215109Y-49955481D01*
X131445000Y-49834814D01*
X131445000Y-48641000D01*
X131699000Y-48641000D01*
X131699000Y-49834814D01*
X131928891Y-49955481D01*
X132203252Y-49858157D01*
X132453355Y-49709178D01*
X132669588Y-49514269D01*
X132843641Y-49280920D01*
X132968825Y-49018099D01*
X133013476Y-48870890D01*
X132892155Y-48641000D01*
X131699000Y-48641000D01*
X131445000Y-48641000D01*
X130251845Y-48641000D01*
X130130524Y-48870890D01*
X117160000Y-48870890D01*
X117160000Y-44590246D01*
X122827225Y-40554495D01*
X124765000Y-40554495D01*
X124765000Y-40945505D01*
X124841282Y-41329003D01*
X124990915Y-41690250D01*
X125208149Y-42015364D01*
X125484636Y-42291851D01*
X125809750Y-42509085D01*
X126170997Y-42658718D01*
X126554495Y-42735000D01*
X126945505Y-42735000D01*
X127329003Y-42658718D01*
X127690250Y-42509085D01*
X128015364Y-42291851D01*
X128291851Y-42015364D01*
X128509085Y-41690250D01*
X128658718Y-41329003D01*
X128735000Y-40945505D01*
X128735000Y-40757824D01*
X148455098Y-40757824D01*
X148504666Y-41175451D01*
X148634757Y-41575383D01*
X148792786Y-41871038D01*
X149108347Y-42027048D01*
X150420395Y-40715000D01*
X149108347Y-39402952D01*
X148792786Y-39558962D01*
X148601980Y-39933745D01*
X148487956Y-40338551D01*
X148455098Y-40757824D01*
X128735000Y-40757824D01*
X128735000Y-40554495D01*
X128658718Y-40170997D01*
X128509085Y-39809750D01*
X128291851Y-39484636D01*
X128030562Y-39223347D01*
X149287952Y-39223347D01*
X150600000Y-40535395D01*
X150614143Y-40521253D01*
X150793748Y-40700858D01*
X150779605Y-40715000D01*
X152091653Y-42027048D01*
X152407214Y-41871038D01*
X152598020Y-41496255D01*
X152712044Y-41091449D01*
X152740414Y-40729443D01*
X152990782Y-40833149D01*
X153427409Y-40920000D01*
X153872591Y-40920000D01*
X154309218Y-40833149D01*
X154720511Y-40662786D01*
X155090666Y-40415456D01*
X155405456Y-40100666D01*
X155652786Y-39730511D01*
X155823149Y-39319218D01*
X155910000Y-38882591D01*
X155910000Y-38437409D01*
X155823149Y-38000782D01*
X155652786Y-37589489D01*
X155405456Y-37219334D01*
X155090666Y-36904544D01*
X154720511Y-36657214D01*
X154309218Y-36486851D01*
X153872591Y-36400000D01*
X153427409Y-36400000D01*
X152990782Y-36486851D01*
X152579489Y-36657214D01*
X152209334Y-36904544D01*
X151894544Y-37219334D01*
X151647214Y-37589489D01*
X151476851Y-38000782D01*
X151390000Y-38437409D01*
X151390000Y-38721432D01*
X151381255Y-38716980D01*
X150976449Y-38602956D01*
X150557176Y-38570098D01*
X150139549Y-38619666D01*
X149739617Y-38749757D01*
X149443962Y-38907786D01*
X149287952Y-39223347D01*
X128030562Y-39223347D01*
X128015364Y-39208149D01*
X127690250Y-38990915D01*
X127329003Y-38841282D01*
X126945505Y-38765000D01*
X126554495Y-38765000D01*
X126170997Y-38841282D01*
X125809750Y-38990915D01*
X125484636Y-39208149D01*
X125208149Y-39484636D01*
X124990915Y-39809750D01*
X124841282Y-40170997D01*
X124765000Y-40554495D01*
X122827225Y-40554495D01*
X132519400Y-33652492D01*
X158610188Y-33652492D01*
X158651035Y-33922238D01*
X158743723Y-34178832D01*
X158804140Y-34291863D01*
X159043007Y-34357388D01*
X159820395Y-33580000D01*
X159043007Y-32802612D01*
X158804140Y-32868137D01*
X158688240Y-33115116D01*
X158622750Y-33379960D01*
X158610188Y-33652492D01*
X132519400Y-33652492D01*
X133210985Y-33160000D01*
X144967581Y-33160000D01*
X145000000Y-33163193D01*
X145032419Y-33160000D01*
X145129383Y-33150450D01*
X145253793Y-33112710D01*
X145368450Y-33051425D01*
X145468948Y-32968948D01*
X145551425Y-32868450D01*
X145612710Y-32753793D01*
X145650450Y-32629383D01*
X145663193Y-32500000D01*
X145660000Y-32467581D01*
X145660000Y-23660000D01*
X149081914Y-23660000D01*
X148993653Y-23748261D01*
G37*
%TD.AperFunction*%
D23*
X162733748Y-32295858D02*
X162719605Y-32310000D01*
X162733748Y-32324143D01*
X162554143Y-32503748D01*
X162540000Y-32489605D01*
X162525858Y-32503748D01*
X162346253Y-32324143D01*
X162360395Y-32310000D01*
X162346253Y-32295858D01*
X162525858Y-32116253D01*
X162540000Y-32130395D01*
X162554143Y-32116253D01*
X162733748Y-32295858D01*
%TA.AperFunction,Conductor*%
D24*
G36*
X162733748Y-32295858D02*
G01*
X162719605Y-32310000D01*
X162733748Y-32324143D01*
X162554143Y-32503748D01*
X162540000Y-32489605D01*
X162525858Y-32503748D01*
X162346253Y-32324143D01*
X162360395Y-32310000D01*
X162346253Y-32295858D01*
X162525858Y-32116253D01*
X162540000Y-32130395D01*
X162554143Y-32116253D01*
X162733748Y-32295858D01*
G37*
%TD.AperFunction*%
%TD*%
M02*
