%TF.GenerationSoftware,KiCad,Pcbnew,5.1.9*%
%TF.CreationDate,2021-02-24T23:37:06+01:00*%
%TF.ProjectId,qr_reader,71725f72-6561-4646-9572-2e6b69636164,rev?*%
%TF.SameCoordinates,Original*%
%TF.FileFunction,Soldermask,Top*%
%TF.FilePolarity,Negative*%
%FSLAX46Y46*%
G04 Gerber Fmt 4.6, Leading zero omitted, Abs format (unit mm)*
G04 Created by KiCad (PCBNEW 5.1.9) date 2021-02-24 23:37:06*
%MOMM*%
%LPD*%
G01*
G04 APERTURE LIST*
%ADD10C,2.700000*%
%ADD11R,5.400000X2.900000*%
%ADD12C,1.600000*%
%ADD13R,1.600000X1.600000*%
%ADD14C,1.500000*%
%ADD15C,3.000000*%
%ADD16R,1.500000X1.500000*%
%ADD17C,3.250000*%
%ADD18C,2.000000*%
%ADD19R,2.700000X1.500000*%
%ADD20R,1.700000X1.700000*%
%ADD21O,1.700000X1.700000*%
%ADD22R,2.000000X2.000000*%
G04 APERTURE END LIST*
D10*
%TO.C,H1*%
X126750000Y-40750000D03*
%TD*%
D11*
%TO.C,L1*%
X122936000Y-56004000D03*
X122936000Y-46104000D03*
%TD*%
D12*
%TO.C,J2*%
X133105000Y-54356000D03*
X135875000Y-54356000D03*
X138645000Y-54356000D03*
X141415000Y-54356000D03*
X131720000Y-51816000D03*
X134490000Y-51816000D03*
X137260000Y-51816000D03*
X140030000Y-51816000D03*
D13*
X142800000Y-51816000D03*
%TD*%
D14*
%TO.C,J1*%
X162540000Y-34850000D03*
X162540000Y-37390000D03*
D15*
X150600000Y-25175000D03*
D14*
X162540000Y-29770000D03*
D16*
X160000000Y-28500000D03*
D14*
X160000000Y-36120000D03*
X162540000Y-32310000D03*
X160000000Y-33580000D03*
X160000000Y-31040000D03*
D17*
X153650000Y-27230000D03*
D15*
X150600000Y-40715000D03*
D17*
X153650000Y-38660000D03*
%TD*%
D18*
%TO.C,F2*%
X149760000Y-56170000D03*
X149750000Y-61250000D03*
%TD*%
%TO.C,F1*%
X162260000Y-44170000D03*
X162250000Y-49250000D03*
%TD*%
D19*
%TO.C,D3*%
X141478000Y-44082000D03*
X141478000Y-48882000D03*
%TD*%
D20*
%TO.C,D1*%
X131572000Y-43434000D03*
D21*
X131572000Y-45974000D03*
X131572000Y-48514000D03*
%TD*%
%TO.C,C2*%
G36*
G01*
X148025000Y-45125000D02*
X145975000Y-45125000D01*
G75*
G02*
X145725000Y-44875000I0J250000D01*
G01*
X145725000Y-43300000D01*
G75*
G02*
X145975000Y-43050000I250000J0D01*
G01*
X148025000Y-43050000D01*
G75*
G02*
X148275000Y-43300000I0J-250000D01*
G01*
X148275000Y-44875000D01*
G75*
G02*
X148025000Y-45125000I-250000J0D01*
G01*
G37*
G36*
G01*
X148025000Y-51350000D02*
X145975000Y-51350000D01*
G75*
G02*
X145725000Y-51100000I0J250000D01*
G01*
X145725000Y-49525000D01*
G75*
G02*
X145975000Y-49275000I250000J0D01*
G01*
X148025000Y-49275000D01*
G75*
G02*
X148275000Y-49525000I0J-250000D01*
G01*
X148275000Y-51100000D01*
G75*
G02*
X148025000Y-51350000I-250000J0D01*
G01*
G37*
%TD*%
%TO.C,C1*%
G36*
G01*
X153450000Y-46450000D02*
X153450000Y-47550000D01*
G75*
G02*
X153200000Y-47800000I-250000J0D01*
G01*
X150200000Y-47800000D01*
G75*
G02*
X149950000Y-47550000I0J250000D01*
G01*
X149950000Y-46450000D01*
G75*
G02*
X150200000Y-46200000I250000J0D01*
G01*
X153200000Y-46200000D01*
G75*
G02*
X153450000Y-46450000I0J-250000D01*
G01*
G37*
G36*
G01*
X158850000Y-46450000D02*
X158850000Y-47550000D01*
G75*
G02*
X158600000Y-47800000I-250000J0D01*
G01*
X155600000Y-47800000D01*
G75*
G02*
X155350000Y-47550000I0J250000D01*
G01*
X155350000Y-46450000D01*
G75*
G02*
X155600000Y-46200000I250000J0D01*
G01*
X158600000Y-46200000D01*
G75*
G02*
X158850000Y-46450000I0J-250000D01*
G01*
G37*
%TD*%
D18*
%TO.C,BZ1*%
X162100000Y-57500000D03*
D22*
X154500000Y-57500000D03*
%TD*%
M02*
