M48
; DRILL file {KiCad 5.1.9} date Wed Feb 24 23:37:08 2021
; FORMAT={-:-/ absolute / inch / decimal}
; #@! TF.CreationDate,2021-02-24T23:37:08+01:00
; #@! TF.GenerationSoftware,Kicad,Pcbnew,5.1.9
; #@! TF.FileFunction,Plated,1,2,PTH
FMAT,2
INCH
T1C0.0157
T2C0.0354
T3C0.0394
T4C0.0630
%
G90
G05
T1
X4.8228Y-1.9685
X4.9768Y-2.0468
X5.0394Y-2.3031
X5.0787Y-2.2835
X5.1181Y-2.2343
X5.2854Y-1.3386
X5.2854Y-1.437
X5.2854Y-1.5453
X5.3051Y-1.6142
X5.3937Y-1.3386
X5.3937Y-1.437
X5.3937Y-1.4961
X5.4331Y-1.6437
X5.4724Y-1.3681
X5.5413Y-1.3386
X5.5413Y-1.6437
X5.5512Y-1.4272
X5.5512Y-1.4961
X5.6594Y-1.3386
X5.6594Y-1.4272
X5.6594Y-1.5354
X5.6594Y-1.6437
X5.6693Y-1.7815
X5.6693Y-1.9291
X5.753Y-2.0522
X6.2008Y-1.9094
X6.2106Y-1.6634
T2
X6.2992Y-1.122
X6.2992Y-1.222
X6.2992Y-1.322
X6.2992Y-1.422
X6.3992Y-1.172
X6.3992Y-1.272
X6.3992Y-1.372
X6.3992Y-1.472
T3
X5.18Y-1.71
X5.18Y-1.81
X5.18Y-1.91
X5.1858Y-2.04
X5.2404Y-2.14
X5.2949Y-2.04
X5.3494Y-2.14
X5.4039Y-2.04
X5.4585Y-2.14
X5.513Y-2.04
X5.5675Y-2.14
X5.622Y-2.04
X5.8957Y-2.4114
X5.8961Y-2.2114
X6.0827Y-2.2638
X6.3819Y-2.2638
X6.3878Y-1.939
X6.3882Y-1.739
T4
X5.9291Y-0.9911
X5.9291Y-1.603
T0
M30
