%TF.GenerationSoftware,KiCad,Pcbnew,5.1.9*%
%TF.CreationDate,2021-02-24T23:37:06+01:00*%
%TF.ProjectId,qr_reader,71725f72-6561-4646-9572-2e6b69636164,rev?*%
%TF.SameCoordinates,Original*%
%TF.FileFunction,Paste,Top*%
%TF.FilePolarity,Positive*%
%FSLAX46Y46*%
G04 Gerber Fmt 4.6, Leading zero omitted, Abs format (unit mm)*
G04 Created by KiCad (PCBNEW 5.1.9) date 2021-02-24 23:37:06*
%MOMM*%
%LPD*%
G01*
G04 APERTURE LIST*
%ADD10R,5.400000X2.900000*%
%ADD11R,2.700000X1.500000*%
G04 APERTURE END LIST*
D10*
%TO.C,L1*%
X122936000Y-56004000D03*
X122936000Y-46104000D03*
%TD*%
D11*
%TO.C,D3*%
X141478000Y-44082000D03*
X141478000Y-48882000D03*
%TD*%
%TO.C,C2*%
G36*
G01*
X148025000Y-45125000D02*
X145975000Y-45125000D01*
G75*
G02*
X145725000Y-44875000I0J250000D01*
G01*
X145725000Y-43300000D01*
G75*
G02*
X145975000Y-43050000I250000J0D01*
G01*
X148025000Y-43050000D01*
G75*
G02*
X148275000Y-43300000I0J-250000D01*
G01*
X148275000Y-44875000D01*
G75*
G02*
X148025000Y-45125000I-250000J0D01*
G01*
G37*
G36*
G01*
X148025000Y-51350000D02*
X145975000Y-51350000D01*
G75*
G02*
X145725000Y-51100000I0J250000D01*
G01*
X145725000Y-49525000D01*
G75*
G02*
X145975000Y-49275000I250000J0D01*
G01*
X148025000Y-49275000D01*
G75*
G02*
X148275000Y-49525000I0J-250000D01*
G01*
X148275000Y-51100000D01*
G75*
G02*
X148025000Y-51350000I-250000J0D01*
G01*
G37*
%TD*%
%TO.C,C1*%
G36*
G01*
X153450000Y-46450000D02*
X153450000Y-47550000D01*
G75*
G02*
X153200000Y-47800000I-250000J0D01*
G01*
X150200000Y-47800000D01*
G75*
G02*
X149950000Y-47550000I0J250000D01*
G01*
X149950000Y-46450000D01*
G75*
G02*
X150200000Y-46200000I250000J0D01*
G01*
X153200000Y-46200000D01*
G75*
G02*
X153450000Y-46450000I0J-250000D01*
G01*
G37*
G36*
G01*
X158850000Y-46450000D02*
X158850000Y-47550000D01*
G75*
G02*
X158600000Y-47800000I-250000J0D01*
G01*
X155600000Y-47800000D01*
G75*
G02*
X155350000Y-47550000I0J250000D01*
G01*
X155350000Y-46450000D01*
G75*
G02*
X155600000Y-46200000I250000J0D01*
G01*
X158600000Y-46200000D01*
G75*
G02*
X158850000Y-46450000I0J-250000D01*
G01*
G37*
%TD*%
M02*
