%TF.GenerationSoftware,KiCad,Pcbnew,5.1.9*%
%TF.CreationDate,2021-02-24T23:37:06+01:00*%
%TF.ProjectId,qr_reader,71725f72-6561-4646-9572-2e6b69636164,rev?*%
%TF.SameCoordinates,Original*%
%TF.FileFunction,Copper,L2,Bot*%
%TF.FilePolarity,Positive*%
%FSLAX46Y46*%
G04 Gerber Fmt 4.6, Leading zero omitted, Abs format (unit mm)*
G04 Created by KiCad (PCBNEW 5.1.9) date 2021-02-24 23:37:06*
%MOMM*%
%LPD*%
G01*
G04 APERTURE LIST*
%TA.AperFunction,ComponentPad*%
%ADD10C,1.600000*%
%TD*%
%TA.AperFunction,ComponentPad*%
%ADD11R,1.600000X1.600000*%
%TD*%
%TA.AperFunction,SMDPad,CuDef*%
%ADD12R,10.800000X9.400000*%
%TD*%
%TA.AperFunction,SMDPad,CuDef*%
%ADD13R,1.100000X4.600000*%
%TD*%
%TA.AperFunction,SMDPad,CuDef*%
%ADD14R,0.800000X0.900000*%
%TD*%
%TA.AperFunction,ComponentPad*%
%ADD15C,1.500000*%
%TD*%
%TA.AperFunction,ComponentPad*%
%ADD16C,3.000000*%
%TD*%
%TA.AperFunction,ComponentPad*%
%ADD17R,1.500000X1.500000*%
%TD*%
%TA.AperFunction,ComponentPad*%
%ADD18C,2.000000*%
%TD*%
%TA.AperFunction,ComponentPad*%
%ADD19R,1.700000X1.700000*%
%TD*%
%TA.AperFunction,ComponentPad*%
%ADD20O,1.700000X1.700000*%
%TD*%
%TA.AperFunction,ComponentPad*%
%ADD21R,2.000000X2.000000*%
%TD*%
%TA.AperFunction,ViaPad*%
%ADD22C,0.800000*%
%TD*%
%TA.AperFunction,Conductor*%
%ADD23C,0.250000*%
%TD*%
%TA.AperFunction,Conductor*%
%ADD24C,1.000000*%
%TD*%
%TA.AperFunction,Conductor*%
%ADD25C,0.254000*%
%TD*%
%TA.AperFunction,Conductor*%
%ADD26C,0.100000*%
%TD*%
G04 APERTURE END LIST*
D10*
%TO.P,J2,9*%
%TO.N,Net-(J2-Pad9)*%
X133105000Y-54356000D03*
%TO.P,J2,8*%
%TO.N,Net-(J2-Pad8)*%
X135875000Y-54356000D03*
%TO.P,J2,7*%
%TO.N,Net-(J2-Pad7)*%
X138645000Y-54356000D03*
%TO.P,J2,6*%
%TO.N,+5V*%
X141415000Y-54356000D03*
%TO.P,J2,5*%
%TO.N,GND*%
X131720000Y-51816000D03*
%TO.P,J2,4*%
%TO.N,Net-(J2-Pad4)*%
X134490000Y-51816000D03*
%TO.P,J2,3*%
%TO.N,Net-(J1-Pad3)*%
X137260000Y-51816000D03*
%TO.P,J2,2*%
%TO.N,Net-(J1-Pad6)*%
X140030000Y-51816000D03*
D11*
%TO.P,J2,1*%
%TO.N,Net-(J2-Pad1)*%
X142800000Y-51816000D03*
%TD*%
D12*
%TO.P,U2,3*%
%TO.N,GND*%
X138900000Y-38025000D03*
D13*
%TO.P,U2,5*%
X135500000Y-47175000D03*
%TO.P,U2,4*%
%TO.N,Net-(C2-Pad1)*%
X137200000Y-47175000D03*
%TO.P,U2,3*%
%TO.N,GND*%
X138900000Y-47175000D03*
%TO.P,U2,2*%
%TO.N,Net-(D3-Pad1)*%
X140600000Y-47175000D03*
%TO.P,U2,1*%
%TO.N,+12V*%
X142300000Y-47175000D03*
%TD*%
%TO.P,U1,16*%
%TO.N,Net-(BZ1-Pad2)*%
%TA.AperFunction,SMDPad,CuDef*%
G36*
G01*
X127295000Y-56400000D02*
X126995000Y-56400000D01*
G75*
G02*
X126845000Y-56250000I0J150000D01*
G01*
X126845000Y-54800000D01*
G75*
G02*
X126995000Y-54650000I150000J0D01*
G01*
X127295000Y-54650000D01*
G75*
G02*
X127445000Y-54800000I0J-150000D01*
G01*
X127445000Y-56250000D01*
G75*
G02*
X127295000Y-56400000I-150000J0D01*
G01*
G37*
%TD.AperFunction*%
%TO.P,U1,15*%
%TO.N,Net-(R4-Pad1)*%
%TA.AperFunction,SMDPad,CuDef*%
G36*
G01*
X126025000Y-56400000D02*
X125725000Y-56400000D01*
G75*
G02*
X125575000Y-56250000I0J150000D01*
G01*
X125575000Y-54800000D01*
G75*
G02*
X125725000Y-54650000I150000J0D01*
G01*
X126025000Y-54650000D01*
G75*
G02*
X126175000Y-54800000I0J-150000D01*
G01*
X126175000Y-56250000D01*
G75*
G02*
X126025000Y-56400000I-150000J0D01*
G01*
G37*
%TD.AperFunction*%
%TO.P,U1,14*%
%TO.N,Net-(R5-Pad1)*%
%TA.AperFunction,SMDPad,CuDef*%
G36*
G01*
X124755000Y-56400000D02*
X124455000Y-56400000D01*
G75*
G02*
X124305000Y-56250000I0J150000D01*
G01*
X124305000Y-54800000D01*
G75*
G02*
X124455000Y-54650000I150000J0D01*
G01*
X124755000Y-54650000D01*
G75*
G02*
X124905000Y-54800000I0J-150000D01*
G01*
X124905000Y-56250000D01*
G75*
G02*
X124755000Y-56400000I-150000J0D01*
G01*
G37*
%TD.AperFunction*%
%TO.P,U1,13*%
%TO.N,Net-(U1-Pad13)*%
%TA.AperFunction,SMDPad,CuDef*%
G36*
G01*
X123485000Y-56400000D02*
X123185000Y-56400000D01*
G75*
G02*
X123035000Y-56250000I0J150000D01*
G01*
X123035000Y-54800000D01*
G75*
G02*
X123185000Y-54650000I150000J0D01*
G01*
X123485000Y-54650000D01*
G75*
G02*
X123635000Y-54800000I0J-150000D01*
G01*
X123635000Y-56250000D01*
G75*
G02*
X123485000Y-56400000I-150000J0D01*
G01*
G37*
%TD.AperFunction*%
%TO.P,U1,12*%
%TO.N,Net-(U1-Pad12)*%
%TA.AperFunction,SMDPad,CuDef*%
G36*
G01*
X122215000Y-56400000D02*
X121915000Y-56400000D01*
G75*
G02*
X121765000Y-56250000I0J150000D01*
G01*
X121765000Y-54800000D01*
G75*
G02*
X121915000Y-54650000I150000J0D01*
G01*
X122215000Y-54650000D01*
G75*
G02*
X122365000Y-54800000I0J-150000D01*
G01*
X122365000Y-56250000D01*
G75*
G02*
X122215000Y-56400000I-150000J0D01*
G01*
G37*
%TD.AperFunction*%
%TO.P,U1,11*%
%TO.N,Net-(U1-Pad11)*%
%TA.AperFunction,SMDPad,CuDef*%
G36*
G01*
X120945000Y-56400000D02*
X120645000Y-56400000D01*
G75*
G02*
X120495000Y-56250000I0J150000D01*
G01*
X120495000Y-54800000D01*
G75*
G02*
X120645000Y-54650000I150000J0D01*
G01*
X120945000Y-54650000D01*
G75*
G02*
X121095000Y-54800000I0J-150000D01*
G01*
X121095000Y-56250000D01*
G75*
G02*
X120945000Y-56400000I-150000J0D01*
G01*
G37*
%TD.AperFunction*%
%TO.P,U1,10*%
%TO.N,Net-(U1-Pad10)*%
%TA.AperFunction,SMDPad,CuDef*%
G36*
G01*
X119675000Y-56400000D02*
X119375000Y-56400000D01*
G75*
G02*
X119225000Y-56250000I0J150000D01*
G01*
X119225000Y-54800000D01*
G75*
G02*
X119375000Y-54650000I150000J0D01*
G01*
X119675000Y-54650000D01*
G75*
G02*
X119825000Y-54800000I0J-150000D01*
G01*
X119825000Y-56250000D01*
G75*
G02*
X119675000Y-56400000I-150000J0D01*
G01*
G37*
%TD.AperFunction*%
%TO.P,U1,9*%
%TO.N,+5V*%
%TA.AperFunction,SMDPad,CuDef*%
G36*
G01*
X118405000Y-56400000D02*
X118105000Y-56400000D01*
G75*
G02*
X117955000Y-56250000I0J150000D01*
G01*
X117955000Y-54800000D01*
G75*
G02*
X118105000Y-54650000I150000J0D01*
G01*
X118405000Y-54650000D01*
G75*
G02*
X118555000Y-54800000I0J-150000D01*
G01*
X118555000Y-56250000D01*
G75*
G02*
X118405000Y-56400000I-150000J0D01*
G01*
G37*
%TD.AperFunction*%
%TO.P,U1,8*%
%TO.N,GND*%
%TA.AperFunction,SMDPad,CuDef*%
G36*
G01*
X118405000Y-61550000D02*
X118105000Y-61550000D01*
G75*
G02*
X117955000Y-61400000I0J150000D01*
G01*
X117955000Y-59950000D01*
G75*
G02*
X118105000Y-59800000I150000J0D01*
G01*
X118405000Y-59800000D01*
G75*
G02*
X118555000Y-59950000I0J-150000D01*
G01*
X118555000Y-61400000D01*
G75*
G02*
X118405000Y-61550000I-150000J0D01*
G01*
G37*
%TD.AperFunction*%
%TO.P,U1,7*%
%TO.N,Net-(U1-Pad7)*%
%TA.AperFunction,SMDPad,CuDef*%
G36*
G01*
X119675000Y-61550000D02*
X119375000Y-61550000D01*
G75*
G02*
X119225000Y-61400000I0J150000D01*
G01*
X119225000Y-59950000D01*
G75*
G02*
X119375000Y-59800000I150000J0D01*
G01*
X119675000Y-59800000D01*
G75*
G02*
X119825000Y-59950000I0J-150000D01*
G01*
X119825000Y-61400000D01*
G75*
G02*
X119675000Y-61550000I-150000J0D01*
G01*
G37*
%TD.AperFunction*%
%TO.P,U1,6*%
%TO.N,Net-(U1-Pad6)*%
%TA.AperFunction,SMDPad,CuDef*%
G36*
G01*
X120945000Y-61550000D02*
X120645000Y-61550000D01*
G75*
G02*
X120495000Y-61400000I0J150000D01*
G01*
X120495000Y-59950000D01*
G75*
G02*
X120645000Y-59800000I150000J0D01*
G01*
X120945000Y-59800000D01*
G75*
G02*
X121095000Y-59950000I0J-150000D01*
G01*
X121095000Y-61400000D01*
G75*
G02*
X120945000Y-61550000I-150000J0D01*
G01*
G37*
%TD.AperFunction*%
%TO.P,U1,5*%
%TO.N,Net-(U1-Pad5)*%
%TA.AperFunction,SMDPad,CuDef*%
G36*
G01*
X122215000Y-61550000D02*
X121915000Y-61550000D01*
G75*
G02*
X121765000Y-61400000I0J150000D01*
G01*
X121765000Y-59950000D01*
G75*
G02*
X121915000Y-59800000I150000J0D01*
G01*
X122215000Y-59800000D01*
G75*
G02*
X122365000Y-59950000I0J-150000D01*
G01*
X122365000Y-61400000D01*
G75*
G02*
X122215000Y-61550000I-150000J0D01*
G01*
G37*
%TD.AperFunction*%
%TO.P,U1,4*%
%TO.N,Net-(U1-Pad4)*%
%TA.AperFunction,SMDPad,CuDef*%
G36*
G01*
X123485000Y-61550000D02*
X123185000Y-61550000D01*
G75*
G02*
X123035000Y-61400000I0J150000D01*
G01*
X123035000Y-59950000D01*
G75*
G02*
X123185000Y-59800000I150000J0D01*
G01*
X123485000Y-59800000D01*
G75*
G02*
X123635000Y-59950000I0J-150000D01*
G01*
X123635000Y-61400000D01*
G75*
G02*
X123485000Y-61550000I-150000J0D01*
G01*
G37*
%TD.AperFunction*%
%TO.P,U1,3*%
%TO.N,Net-(J1-Pad1)*%
%TA.AperFunction,SMDPad,CuDef*%
G36*
G01*
X124755000Y-61550000D02*
X124455000Y-61550000D01*
G75*
G02*
X124305000Y-61400000I0J150000D01*
G01*
X124305000Y-59950000D01*
G75*
G02*
X124455000Y-59800000I150000J0D01*
G01*
X124755000Y-59800000D01*
G75*
G02*
X124905000Y-59950000I0J-150000D01*
G01*
X124905000Y-61400000D01*
G75*
G02*
X124755000Y-61550000I-150000J0D01*
G01*
G37*
%TD.AperFunction*%
%TO.P,U1,2*%
%TO.N,Net-(J1-Pad2)*%
%TA.AperFunction,SMDPad,CuDef*%
G36*
G01*
X126025000Y-61550000D02*
X125725000Y-61550000D01*
G75*
G02*
X125575000Y-61400000I0J150000D01*
G01*
X125575000Y-59950000D01*
G75*
G02*
X125725000Y-59800000I150000J0D01*
G01*
X126025000Y-59800000D01*
G75*
G02*
X126175000Y-59950000I0J-150000D01*
G01*
X126175000Y-61400000D01*
G75*
G02*
X126025000Y-61550000I-150000J0D01*
G01*
G37*
%TD.AperFunction*%
%TO.P,U1,1*%
%TO.N,Net-(J1-Pad7)*%
%TA.AperFunction,SMDPad,CuDef*%
G36*
G01*
X127295000Y-61550000D02*
X126995000Y-61550000D01*
G75*
G02*
X126845000Y-61400000I0J150000D01*
G01*
X126845000Y-59950000D01*
G75*
G02*
X126995000Y-59800000I150000J0D01*
G01*
X127295000Y-59800000D01*
G75*
G02*
X127445000Y-59950000I0J-150000D01*
G01*
X127445000Y-61400000D01*
G75*
G02*
X127295000Y-61550000I-150000J0D01*
G01*
G37*
%TD.AperFunction*%
%TD*%
%TO.P,R5,2*%
%TO.N,Net-(Q2-Pad1)*%
%TA.AperFunction,SMDPad,CuDef*%
G36*
G01*
X120950001Y-51900000D02*
X120049999Y-51900000D01*
G75*
G02*
X119800000Y-51650001I0J249999D01*
G01*
X119800000Y-51124999D01*
G75*
G02*
X120049999Y-50875000I249999J0D01*
G01*
X120950001Y-50875000D01*
G75*
G02*
X121200000Y-51124999I0J-249999D01*
G01*
X121200000Y-51650001D01*
G75*
G02*
X120950001Y-51900000I-249999J0D01*
G01*
G37*
%TD.AperFunction*%
%TO.P,R5,1*%
%TO.N,Net-(R5-Pad1)*%
%TA.AperFunction,SMDPad,CuDef*%
G36*
G01*
X120950001Y-53725000D02*
X120049999Y-53725000D01*
G75*
G02*
X119800000Y-53475001I0J249999D01*
G01*
X119800000Y-52949999D01*
G75*
G02*
X120049999Y-52700000I249999J0D01*
G01*
X120950001Y-52700000D01*
G75*
G02*
X121200000Y-52949999I0J-249999D01*
G01*
X121200000Y-53475001D01*
G75*
G02*
X120950001Y-53725000I-249999J0D01*
G01*
G37*
%TD.AperFunction*%
%TD*%
%TO.P,R4,2*%
%TO.N,Net-(Q1-Pad1)*%
%TA.AperFunction,SMDPad,CuDef*%
G36*
G01*
X124350001Y-51900000D02*
X123449999Y-51900000D01*
G75*
G02*
X123200000Y-51650001I0J249999D01*
G01*
X123200000Y-51124999D01*
G75*
G02*
X123449999Y-50875000I249999J0D01*
G01*
X124350001Y-50875000D01*
G75*
G02*
X124600000Y-51124999I0J-249999D01*
G01*
X124600000Y-51650001D01*
G75*
G02*
X124350001Y-51900000I-249999J0D01*
G01*
G37*
%TD.AperFunction*%
%TO.P,R4,1*%
%TO.N,Net-(R4-Pad1)*%
%TA.AperFunction,SMDPad,CuDef*%
G36*
G01*
X124350001Y-53725000D02*
X123449999Y-53725000D01*
G75*
G02*
X123200000Y-53475001I0J249999D01*
G01*
X123200000Y-52949999D01*
G75*
G02*
X123449999Y-52700000I249999J0D01*
G01*
X124350001Y-52700000D01*
G75*
G02*
X124600000Y-52949999I0J-249999D01*
G01*
X124600000Y-53475001D01*
G75*
G02*
X124350001Y-53725000I-249999J0D01*
G01*
G37*
%TD.AperFunction*%
%TD*%
%TO.P,R3,2*%
%TO.N,Net-(BZ1-Pad2)*%
%TA.AperFunction,SMDPad,CuDef*%
G36*
G01*
X155787500Y-60950001D02*
X155787500Y-60049999D01*
G75*
G02*
X156037499Y-59800000I249999J0D01*
G01*
X156562501Y-59800000D01*
G75*
G02*
X156812500Y-60049999I0J-249999D01*
G01*
X156812500Y-60950001D01*
G75*
G02*
X156562501Y-61200000I-249999J0D01*
G01*
X156037499Y-61200000D01*
G75*
G02*
X155787500Y-60950001I0J249999D01*
G01*
G37*
%TD.AperFunction*%
%TO.P,R3,1*%
%TO.N,GND*%
%TA.AperFunction,SMDPad,CuDef*%
G36*
G01*
X153962500Y-60950001D02*
X153962500Y-60049999D01*
G75*
G02*
X154212499Y-59800000I249999J0D01*
G01*
X154737501Y-59800000D01*
G75*
G02*
X154987500Y-60049999I0J-249999D01*
G01*
X154987500Y-60950001D01*
G75*
G02*
X154737501Y-61200000I-249999J0D01*
G01*
X154212499Y-61200000D01*
G75*
G02*
X153962500Y-60950001I0J249999D01*
G01*
G37*
%TD.AperFunction*%
%TD*%
%TO.P,R2,2*%
%TO.N,Net-(D1-Pad2)*%
%TA.AperFunction,SMDPad,CuDef*%
G36*
G01*
X122058000Y-45583001D02*
X122058000Y-44332999D01*
G75*
G02*
X122307999Y-44083000I249999J0D01*
G01*
X122933001Y-44083000D01*
G75*
G02*
X123183000Y-44332999I0J-249999D01*
G01*
X123183000Y-45583001D01*
G75*
G02*
X122933001Y-45833000I-249999J0D01*
G01*
X122307999Y-45833000D01*
G75*
G02*
X122058000Y-45583001I0J249999D01*
G01*
G37*
%TD.AperFunction*%
%TO.P,R2,1*%
%TO.N,Net-(Q2-Pad3)*%
%TA.AperFunction,SMDPad,CuDef*%
G36*
G01*
X119133000Y-45583001D02*
X119133000Y-44332999D01*
G75*
G02*
X119382999Y-44083000I249999J0D01*
G01*
X120008001Y-44083000D01*
G75*
G02*
X120258000Y-44332999I0J-249999D01*
G01*
X120258000Y-45583001D01*
G75*
G02*
X120008001Y-45833000I-249999J0D01*
G01*
X119382999Y-45833000D01*
G75*
G02*
X119133000Y-45583001I0J249999D01*
G01*
G37*
%TD.AperFunction*%
%TD*%
%TO.P,R1,2*%
%TO.N,Net-(D1-Pad1)*%
%TA.AperFunction,SMDPad,CuDef*%
G36*
G01*
X127900000Y-45583001D02*
X127900000Y-44332999D01*
G75*
G02*
X128149999Y-44083000I249999J0D01*
G01*
X128775001Y-44083000D01*
G75*
G02*
X129025000Y-44332999I0J-249999D01*
G01*
X129025000Y-45583001D01*
G75*
G02*
X128775001Y-45833000I-249999J0D01*
G01*
X128149999Y-45833000D01*
G75*
G02*
X127900000Y-45583001I0J249999D01*
G01*
G37*
%TD.AperFunction*%
%TO.P,R1,1*%
%TO.N,Net-(Q1-Pad3)*%
%TA.AperFunction,SMDPad,CuDef*%
G36*
G01*
X124975000Y-45583001D02*
X124975000Y-44332999D01*
G75*
G02*
X125224999Y-44083000I249999J0D01*
G01*
X125850001Y-44083000D01*
G75*
G02*
X126100000Y-44332999I0J-249999D01*
G01*
X126100000Y-45583001D01*
G75*
G02*
X125850001Y-45833000I-249999J0D01*
G01*
X125224999Y-45833000D01*
G75*
G02*
X124975000Y-45583001I0J249999D01*
G01*
G37*
%TD.AperFunction*%
%TD*%
D14*
%TO.P,Q2,3*%
%TO.N,Net-(Q2-Pad3)*%
X119300000Y-47300000D03*
%TO.P,Q2,2*%
%TO.N,+5V*%
X118350000Y-49300000D03*
%TO.P,Q2,1*%
%TO.N,Net-(Q2-Pad1)*%
X120250000Y-49300000D03*
%TD*%
%TO.P,Q1,3*%
%TO.N,Net-(Q1-Pad3)*%
X124400000Y-47300000D03*
%TO.P,Q1,2*%
%TO.N,+5V*%
X123450000Y-49300000D03*
%TO.P,Q1,1*%
%TO.N,Net-(Q1-Pad1)*%
X125350000Y-49300000D03*
%TD*%
D15*
%TO.P,J1,6*%
%TO.N,Net-(J1-Pad6)*%
X162540000Y-34850000D03*
%TO.P,J1,8*%
%TO.N,Net-(F1-Pad2)*%
X162540000Y-37390000D03*
D16*
%TO.P,J1,SH*%
%TO.N,GND*%
X150600000Y-25175000D03*
D15*
%TO.P,J1,2*%
%TO.N,Net-(J1-Pad2)*%
X162540000Y-29770000D03*
D17*
%TO.P,J1,1*%
%TO.N,Net-(J1-Pad1)*%
X160000000Y-28500000D03*
D15*
%TO.P,J1,7*%
%TO.N,Net-(J1-Pad7)*%
X160000000Y-36120000D03*
%TO.P,J1,4*%
%TO.N,GND*%
X162540000Y-32310000D03*
%TO.P,J1,5*%
X160000000Y-33580000D03*
%TO.P,J1,3*%
%TO.N,Net-(J1-Pad3)*%
X160000000Y-31040000D03*
D16*
%TO.P,J1,SH*%
%TO.N,GND*%
X150600000Y-40715000D03*
%TD*%
D18*
%TO.P,F2,2*%
%TO.N,Net-(C2-Pad1)*%
X149760000Y-56170000D03*
%TO.P,F2,1*%
%TO.N,+5V*%
X149750000Y-61250000D03*
%TD*%
%TO.P,F1,2*%
%TO.N,Net-(F1-Pad2)*%
X162260000Y-44170000D03*
%TO.P,F1,1*%
%TO.N,+12V*%
X162250000Y-49250000D03*
%TD*%
D19*
%TO.P,D1,1*%
%TO.N,Net-(D1-Pad1)*%
X131572000Y-43434000D03*
D20*
%TO.P,D1,2*%
%TO.N,Net-(D1-Pad2)*%
X131572000Y-45974000D03*
%TO.P,D1,3*%
%TO.N,GND*%
X131572000Y-48514000D03*
%TD*%
D18*
%TO.P,BZ1,2*%
%TO.N,Net-(BZ1-Pad2)*%
X162100000Y-57500000D03*
D21*
%TO.P,BZ1,1*%
%TO.N,+12V*%
X154500000Y-57500000D03*
%TD*%
D22*
%TO.N,GND*%
X139000000Y-34750000D03*
X141000000Y-38000000D03*
X141000000Y-36250000D03*
X137000000Y-38000000D03*
X137000000Y-36500000D03*
X134250000Y-36500000D03*
X134250000Y-39250000D03*
X134750000Y-41000000D03*
X138000000Y-41750000D03*
X140750000Y-41750000D03*
X143750000Y-41750000D03*
X143750000Y-39000000D03*
X143750000Y-36250000D03*
X143750000Y-34000000D03*
X140750000Y-34000000D03*
X137000000Y-34000000D03*
X134250000Y-34000000D03*
%TO.N,+12V*%
X157500000Y-48500000D03*
%TO.N,Net-(C2-Pad1)*%
X146125000Y-52125000D03*
X126411000Y-51989000D03*
%TO.N,Net-(D3-Pad1)*%
X144000000Y-49000000D03*
%TO.N,+5V*%
X122500000Y-50000000D03*
%TO.N,Net-(J1-Pad6)*%
X144000000Y-45250000D03*
%TO.N,Net-(J1-Pad2)*%
X129000000Y-58000000D03*
%TO.N,Net-(J1-Pad1)*%
X130000000Y-56750000D03*
%TO.N,Net-(J1-Pad7)*%
X128000000Y-58500000D03*
%TO.N,Net-(J1-Pad3)*%
X157750000Y-42250000D03*
%TD*%
D23*
%TO.N,Net-(BZ1-Pad2)*%
X156300000Y-60450000D02*
X156300000Y-60000000D01*
X127145000Y-55525000D02*
X127725000Y-55525000D01*
X129500000Y-53750000D02*
X129500000Y-50750000D01*
X127725000Y-55525000D02*
X129500000Y-53750000D01*
X129500000Y-50750000D02*
X129775001Y-50474999D01*
X129775001Y-50474999D02*
X135224999Y-50474999D01*
X135224999Y-50474999D02*
X135750000Y-51000000D01*
X135750000Y-51000000D02*
X135750000Y-52269998D01*
X136421003Y-52941001D02*
X144635001Y-52941001D01*
X135750000Y-52269998D02*
X136421003Y-52941001D01*
X145500000Y-53806000D02*
X145500000Y-55160000D01*
X144635001Y-52941001D02*
X145500000Y-53806000D01*
X145500000Y-54750000D02*
X145500000Y-55160000D01*
X159600000Y-60000000D02*
X162100000Y-57500000D01*
X156300000Y-59550000D02*
X156300000Y-60500000D01*
X156000000Y-59250000D02*
X156300000Y-59550000D01*
X148000000Y-59250000D02*
X156000000Y-59250000D01*
X145500000Y-56750000D02*
X148000000Y-59250000D01*
X145500000Y-55160000D02*
X145500000Y-56750000D01*
X159100000Y-60500000D02*
X162100000Y-57500000D01*
X156300000Y-60500000D02*
X159100000Y-60500000D01*
%TO.N,+12V*%
X142300000Y-47175000D02*
X146175000Y-47175000D01*
X146175000Y-47175000D02*
X148000000Y-49000000D01*
X157000000Y-49000000D02*
X157500000Y-48500000D01*
X157500000Y-48500000D02*
X157500000Y-48500000D01*
X148000000Y-49000000D02*
X148500000Y-49000000D01*
X148500000Y-49000000D02*
X157000000Y-49000000D01*
X161500000Y-48500000D02*
X162250000Y-49250000D01*
X157500000Y-48500000D02*
X161500000Y-48500000D01*
X157500000Y-54500000D02*
X157500000Y-53000000D01*
X154500000Y-57500000D02*
X157500000Y-54500000D01*
X157500000Y-53000000D02*
X157500000Y-53750000D01*
X157500000Y-48500000D02*
X157500000Y-53000000D01*
%TO.N,GND*%
X161270000Y-33580000D02*
X162540000Y-32310000D01*
X160000000Y-33580000D02*
X161270000Y-33580000D01*
X162540000Y-32310000D02*
X164000000Y-30850000D01*
X164000000Y-30850000D02*
X164000000Y-25500000D01*
X164000000Y-25500000D02*
X163000000Y-24500000D01*
X151275000Y-24500000D02*
X150600000Y-25175000D01*
X163000000Y-24500000D02*
X151275000Y-24500000D01*
X138900000Y-47175000D02*
X138900000Y-38025000D01*
X134205000Y-42720000D02*
X138900000Y-38025000D01*
X162540000Y-32310000D02*
X163730000Y-33500000D01*
X163730000Y-33500000D02*
X163730000Y-58270000D01*
X163730000Y-62770000D02*
X163500000Y-63000000D01*
X163730000Y-58270000D02*
X163730000Y-62770000D01*
X118255000Y-62255000D02*
X118255000Y-60675000D01*
X131720000Y-57220000D02*
X137500000Y-63000000D01*
X131720000Y-51600000D02*
X131720000Y-57220000D01*
X118255000Y-60675000D02*
X118255000Y-62755000D01*
X118255000Y-62755000D02*
X119000000Y-63500000D01*
X163000000Y-63500000D02*
X163730000Y-62770000D01*
X137500000Y-63000000D02*
X138000000Y-63500000D01*
X119000000Y-63500000D02*
X138000000Y-63500000D01*
X135500000Y-41425000D02*
X138900000Y-38025000D01*
X135500000Y-47175000D02*
X135500000Y-41425000D01*
X134161000Y-48514000D02*
X135500000Y-47175000D01*
X131572000Y-48514000D02*
X134161000Y-48514000D01*
D24*
X144500000Y-38050000D02*
X144475000Y-38025000D01*
X144500000Y-43000000D02*
X144500000Y-38050000D01*
X133500000Y-43000000D02*
X144500000Y-43000000D01*
X144475000Y-38025000D02*
X138900000Y-38025000D01*
X133500000Y-33750000D02*
X133500000Y-43000000D01*
X144475000Y-38025000D02*
X144475000Y-33525000D01*
X144475000Y-33525000D02*
X144175010Y-33225010D01*
X144175010Y-33225010D02*
X133250000Y-33225010D01*
D23*
X154475000Y-63475000D02*
X154500000Y-63500000D01*
X154475000Y-60000000D02*
X154475000Y-63475000D01*
X154500000Y-63500000D02*
X163000000Y-63500000D01*
X138000000Y-63500000D02*
X154500000Y-63500000D01*
%TO.N,Net-(C2-Pad1)*%
X137200000Y-49300000D02*
X137200000Y-47175000D01*
X137949999Y-50474999D02*
X144474999Y-50474999D01*
X137200000Y-49725000D02*
X137949999Y-50474999D01*
X137200000Y-47175000D02*
X137200000Y-49725000D01*
X144474999Y-50474999D02*
X146125000Y-52125000D01*
X137200000Y-49725000D02*
X137124999Y-49800001D01*
X137200000Y-49400002D02*
X136800001Y-49800001D01*
X137200000Y-47175000D02*
X137200000Y-49400002D01*
X137124999Y-49800001D02*
X136800001Y-49800001D01*
X128599999Y-49800001D02*
X126411000Y-51989000D01*
X136800001Y-49800001D02*
X128599999Y-49800001D01*
X149760000Y-56170000D02*
X149760000Y-54010000D01*
X147875000Y-52125000D02*
X146125000Y-52125000D01*
X149760000Y-54010000D02*
X147875000Y-52125000D01*
%TO.N,Net-(D1-Pad2)*%
X122620500Y-44958000D02*
X124144500Y-43434000D01*
X124144500Y-43434000D02*
X126492000Y-43434000D01*
X126492000Y-43434000D02*
X127000000Y-43942000D01*
X127000000Y-43942000D02*
X127000000Y-46228000D01*
X131318000Y-46228000D02*
X131572000Y-45974000D01*
X127000000Y-46228000D02*
X131318000Y-46228000D01*
%TO.N,Net-(D1-Pad1)*%
X128462500Y-44958000D02*
X129986500Y-43434000D01*
X129986500Y-43434000D02*
X131572000Y-43434000D01*
%TO.N,Net-(D3-Pad1)*%
X140600000Y-47175000D02*
X140600000Y-49600000D01*
X140600000Y-49600000D02*
X141000000Y-50000000D01*
X141000000Y-50000000D02*
X143000000Y-50000000D01*
X143000000Y-50000000D02*
X144000000Y-49000000D01*
X144000000Y-49000000D02*
X144000000Y-49000000D01*
%TO.N,+5V*%
X141415000Y-54440000D02*
X141415000Y-59415000D01*
X141415000Y-59415000D02*
X143500000Y-61500000D01*
X118350000Y-49300000D02*
X118350000Y-49150000D01*
X118350000Y-49150000D02*
X119000000Y-48500000D01*
X122650000Y-48500000D02*
X123450000Y-49300000D01*
X119000000Y-48500000D02*
X122650000Y-48500000D01*
X118255000Y-54745000D02*
X118255000Y-55525000D01*
X119474990Y-50474990D02*
X119474990Y-53525010D01*
X118350000Y-49350000D02*
X119474990Y-50474990D01*
X119474990Y-53525010D02*
X118255000Y-54745000D01*
X118350000Y-49300000D02*
X118350000Y-49350000D01*
X123450000Y-49300000D02*
X123200000Y-49300000D01*
X123200000Y-49300000D02*
X122500000Y-50000000D01*
X122500000Y-50000000D02*
X122500000Y-50000000D01*
X122500000Y-50000000D02*
X122500000Y-50000000D01*
X149500000Y-61500000D02*
X149750000Y-61250000D01*
X143500000Y-61500000D02*
X149500000Y-61500000D01*
%TO.N,Net-(J1-Pad6)*%
X161075001Y-36314999D02*
X162540000Y-34850000D01*
X161075001Y-43174999D02*
X161075001Y-36314999D01*
X159000000Y-45250000D02*
X161075001Y-43174999D01*
X144000000Y-45250000D02*
X159000000Y-45250000D01*
%TO.N,Net-(J1-Pad2)*%
X125875000Y-61550000D02*
X126325000Y-62000000D01*
X125875000Y-60675000D02*
X125875000Y-61550000D01*
X127366768Y-62000000D02*
X129000000Y-60366768D01*
X126325000Y-62000000D02*
X127366768Y-62000000D01*
X129000000Y-60366768D02*
X129000000Y-58000000D01*
%TO.N,Net-(J1-Pad1)*%
X127553169Y-62450009D02*
X130000000Y-60003178D01*
X125505009Y-62450009D02*
X127553169Y-62450009D01*
X124605000Y-61550000D02*
X125505009Y-62450009D01*
X124605000Y-60675000D02*
X124605000Y-61550000D01*
X130000000Y-60003178D02*
X130000000Y-58500000D01*
X130000000Y-58500000D02*
X130000000Y-58500000D01*
X130000000Y-58500000D02*
X130000000Y-57000000D01*
X130000000Y-57000000D02*
X130000000Y-56750000D01*
X130000000Y-56750000D02*
X130000000Y-56750000D01*
%TO.N,Net-(J1-Pad7)*%
X127145000Y-60675000D02*
X128000000Y-59820000D01*
X128000000Y-59820000D02*
X128000000Y-58500000D01*
X128000000Y-58500000D02*
X128000000Y-58500000D01*
%TO.N,Net-(J1-Pad3)*%
X157750000Y-33290000D02*
X160000000Y-31040000D01*
X157750000Y-42250000D02*
X157750000Y-33290000D01*
%TO.N,Net-(Q1-Pad3)*%
X124500000Y-47200000D02*
X124400000Y-47300000D01*
X124400000Y-46095500D02*
X125537500Y-44958000D01*
X124400000Y-47300000D02*
X124400000Y-46095500D01*
%TO.N,Net-(Q1-Pad1)*%
X125350000Y-49937500D02*
X123900000Y-51387500D01*
X125350000Y-49300000D02*
X125350000Y-49937500D01*
%TO.N,Net-(Q2-Pad3)*%
X119500000Y-47100000D02*
X119300000Y-47300000D01*
X119695500Y-46904500D02*
X119300000Y-47300000D01*
X119695500Y-44958000D02*
X119695500Y-46904500D01*
%TO.N,Net-(Q2-Pad1)*%
X120250000Y-51137500D02*
X120500000Y-51387500D01*
X120250000Y-49300000D02*
X120250000Y-51137500D01*
%TO.N,Net-(R4-Pad1)*%
X123900000Y-53212500D02*
X125212500Y-53212500D01*
X125875000Y-53875000D02*
X125875000Y-55525000D01*
X125212500Y-53212500D02*
X125875000Y-53875000D01*
%TO.N,Net-(R5-Pad1)*%
X120500000Y-53212500D02*
X120712500Y-53212500D01*
X120712500Y-53212500D02*
X121550010Y-54050010D01*
X121550010Y-54050010D02*
X124050010Y-54050010D01*
X124605000Y-54605000D02*
X124605000Y-55525000D01*
X124050010Y-54050010D02*
X124605000Y-54605000D01*
%TD*%
D25*
%TO.N,GND*%
X148993653Y-23748261D02*
X149108345Y-23862953D01*
X148792786Y-24018962D01*
X148601980Y-24393745D01*
X148487956Y-24798551D01*
X148455098Y-25217824D01*
X148504666Y-25635451D01*
X148634757Y-26035383D01*
X148792786Y-26331038D01*
X149108347Y-26487048D01*
X150420395Y-25175000D01*
X150406253Y-25160858D01*
X150585858Y-24981253D01*
X150600000Y-24995395D01*
X150614143Y-24981253D01*
X150793748Y-25160858D01*
X150779605Y-25175000D01*
X150793748Y-25189143D01*
X150614143Y-25368748D01*
X150600000Y-25354605D01*
X149287952Y-26666653D01*
X149443962Y-26982214D01*
X149818745Y-27173020D01*
X150223551Y-27287044D01*
X150642824Y-27319902D01*
X151060451Y-27270334D01*
X151390000Y-27163137D01*
X151390000Y-27452591D01*
X151476851Y-27889218D01*
X151647214Y-28300511D01*
X151894544Y-28670666D01*
X152209334Y-28985456D01*
X152579489Y-29232786D01*
X152990782Y-29403149D01*
X153427409Y-29490000D01*
X153872591Y-29490000D01*
X154309218Y-29403149D01*
X154720511Y-29232786D01*
X155090666Y-28985456D01*
X155405456Y-28670666D01*
X155652786Y-28300511D01*
X155823149Y-27889218D01*
X155910000Y-27452591D01*
X155910000Y-27007409D01*
X155823149Y-26570782D01*
X155652786Y-26159489D01*
X155405456Y-25789334D01*
X155090666Y-25474544D01*
X154720511Y-25227214D01*
X154309218Y-25056851D01*
X153872591Y-24970000D01*
X153427409Y-24970000D01*
X152990782Y-25056851D01*
X152742754Y-25159588D01*
X152744902Y-25132176D01*
X152695334Y-24714549D01*
X152565243Y-24314617D01*
X152407214Y-24018962D01*
X152091655Y-23862953D01*
X152206347Y-23748261D01*
X152118086Y-23660000D01*
X163840001Y-23660000D01*
X163840000Y-24532418D01*
X163840001Y-24532428D01*
X163840001Y-29289301D01*
X163767371Y-29113957D01*
X163615799Y-28887114D01*
X163422886Y-28694201D01*
X163196043Y-28542629D01*
X162943989Y-28438225D01*
X162676411Y-28385000D01*
X162403589Y-28385000D01*
X162136011Y-28438225D01*
X161883957Y-28542629D01*
X161657114Y-28694201D01*
X161464201Y-28887114D01*
X161388072Y-29001049D01*
X161388072Y-27750000D01*
X161375812Y-27625518D01*
X161339502Y-27505820D01*
X161280537Y-27395506D01*
X161201185Y-27298815D01*
X161104494Y-27219463D01*
X160994180Y-27160498D01*
X160874482Y-27124188D01*
X160750000Y-27111928D01*
X159250000Y-27111928D01*
X159125518Y-27124188D01*
X159005820Y-27160498D01*
X158895506Y-27219463D01*
X158798815Y-27298815D01*
X158719463Y-27395506D01*
X158660498Y-27505820D01*
X158624188Y-27625518D01*
X158611928Y-27750000D01*
X158611928Y-29250000D01*
X158624188Y-29374482D01*
X158660498Y-29494180D01*
X158719463Y-29604494D01*
X158798815Y-29701185D01*
X158895506Y-29780537D01*
X159005820Y-29839502D01*
X159125518Y-29875812D01*
X159233483Y-29886445D01*
X159117114Y-29964201D01*
X158924201Y-30157114D01*
X158772629Y-30383957D01*
X158668225Y-30636011D01*
X158615000Y-30903589D01*
X158615000Y-31176411D01*
X158643833Y-31321365D01*
X157238998Y-32726201D01*
X157210000Y-32749999D01*
X157186202Y-32778997D01*
X157186201Y-32778998D01*
X157115026Y-32865724D01*
X157044454Y-32997754D01*
X157000998Y-33141015D01*
X156986324Y-33290000D01*
X156990001Y-33327332D01*
X156990000Y-41546289D01*
X156946063Y-41590226D01*
X156832795Y-41759744D01*
X156754774Y-41948102D01*
X156715000Y-42148061D01*
X156715000Y-42351939D01*
X156754774Y-42551898D01*
X156832795Y-42740256D01*
X156946063Y-42909774D01*
X157090226Y-43053937D01*
X157259744Y-43167205D01*
X157448102Y-43245226D01*
X157648061Y-43285000D01*
X157851939Y-43285000D01*
X158051898Y-43245226D01*
X158240256Y-43167205D01*
X158409774Y-43053937D01*
X158553937Y-42909774D01*
X158667205Y-42740256D01*
X158745226Y-42551898D01*
X158785000Y-42351939D01*
X158785000Y-42148061D01*
X158745226Y-41948102D01*
X158667205Y-41759744D01*
X158553937Y-41590226D01*
X158510000Y-41546289D01*
X158510000Y-33604801D01*
X158617334Y-33497468D01*
X158610188Y-33652492D01*
X158651035Y-33922238D01*
X158743723Y-34178832D01*
X158804140Y-34291863D01*
X159043007Y-34357388D01*
X159820395Y-33580000D01*
X160179605Y-33580000D01*
X160956993Y-34357388D01*
X161195860Y-34291863D01*
X161311760Y-34044884D01*
X161377250Y-33780040D01*
X161389812Y-33507508D01*
X161348965Y-33237762D01*
X161256277Y-32981168D01*
X161195860Y-32868137D01*
X160956993Y-32802612D01*
X160179605Y-33580000D01*
X159820395Y-33580000D01*
X159806253Y-33565858D01*
X159985858Y-33386253D01*
X160000000Y-33400395D01*
X160777388Y-32623007D01*
X160711863Y-32384140D01*
X160708352Y-32382492D01*
X161150188Y-32382492D01*
X161191035Y-32652238D01*
X161283723Y-32908832D01*
X161344140Y-33021863D01*
X161583007Y-33087388D01*
X162360395Y-32310000D01*
X161583007Y-31532612D01*
X161344140Y-31598137D01*
X161228240Y-31845116D01*
X161162750Y-32109960D01*
X161150188Y-32382492D01*
X160708352Y-32382492D01*
X160553523Y-32309836D01*
X160656043Y-32267371D01*
X160882886Y-32115799D01*
X161075799Y-31922886D01*
X161227371Y-31696043D01*
X161331775Y-31443989D01*
X161385000Y-31176411D01*
X161385000Y-30903589D01*
X161331775Y-30636011D01*
X161227371Y-30383957D01*
X161075799Y-30157114D01*
X160882886Y-29964201D01*
X160766517Y-29886445D01*
X160874482Y-29875812D01*
X160994180Y-29839502D01*
X161104494Y-29780537D01*
X161155000Y-29739088D01*
X161155000Y-29906411D01*
X161208225Y-30173989D01*
X161312629Y-30426043D01*
X161464201Y-30652886D01*
X161657114Y-30845799D01*
X161883957Y-30997371D01*
X161983279Y-31038511D01*
X161941168Y-31053723D01*
X161828137Y-31114140D01*
X161762612Y-31353007D01*
X162540000Y-32130395D01*
X163317388Y-31353007D01*
X163251863Y-31114140D01*
X163093523Y-31039836D01*
X163196043Y-30997371D01*
X163422886Y-30845799D01*
X163615799Y-30652886D01*
X163767371Y-30426043D01*
X163840001Y-30250699D01*
X163840001Y-31832211D01*
X163796277Y-31711168D01*
X163735860Y-31598137D01*
X163496993Y-31532612D01*
X162719605Y-32310000D01*
X163496993Y-33087388D01*
X163735860Y-33021863D01*
X163840001Y-32799942D01*
X163840001Y-34369301D01*
X163767371Y-34193957D01*
X163615799Y-33967114D01*
X163422886Y-33774201D01*
X163196043Y-33622629D01*
X163096721Y-33581489D01*
X163138832Y-33566277D01*
X163251863Y-33505860D01*
X163317388Y-33266993D01*
X162540000Y-32489605D01*
X161762612Y-33266993D01*
X161828137Y-33505860D01*
X161986477Y-33580164D01*
X161883957Y-33622629D01*
X161657114Y-33774201D01*
X161464201Y-33967114D01*
X161312629Y-34193957D01*
X161208225Y-34446011D01*
X161155000Y-34713589D01*
X161155000Y-34986411D01*
X161183833Y-35131365D01*
X161076714Y-35238484D01*
X161075799Y-35237114D01*
X160882886Y-35044201D01*
X160656043Y-34892629D01*
X160556721Y-34851489D01*
X160598832Y-34836277D01*
X160711863Y-34775860D01*
X160777388Y-34536993D01*
X160000000Y-33759605D01*
X159222612Y-34536993D01*
X159288137Y-34775860D01*
X159446477Y-34850164D01*
X159343957Y-34892629D01*
X159117114Y-35044201D01*
X158924201Y-35237114D01*
X158772629Y-35463957D01*
X158668225Y-35716011D01*
X158615000Y-35983589D01*
X158615000Y-36256411D01*
X158668225Y-36523989D01*
X158772629Y-36776043D01*
X158924201Y-37002886D01*
X159117114Y-37195799D01*
X159343957Y-37347371D01*
X159596011Y-37451775D01*
X159863589Y-37505000D01*
X160136411Y-37505000D01*
X160315002Y-37469476D01*
X160315001Y-42860197D01*
X158685199Y-44490000D01*
X144703711Y-44490000D01*
X144659774Y-44446063D01*
X144490256Y-44332795D01*
X144301898Y-44254774D01*
X144101939Y-44215000D01*
X143898061Y-44215000D01*
X143698102Y-44254774D01*
X143509744Y-44332795D01*
X143340226Y-44446063D01*
X143328811Y-44457478D01*
X143301185Y-44423815D01*
X143204494Y-44344463D01*
X143094180Y-44285498D01*
X142974482Y-44249188D01*
X142850000Y-44236928D01*
X141750000Y-44236928D01*
X141625518Y-44249188D01*
X141505820Y-44285498D01*
X141450000Y-44315335D01*
X141394180Y-44285498D01*
X141274482Y-44249188D01*
X141150000Y-44236928D01*
X140050000Y-44236928D01*
X139925518Y-44249188D01*
X139805820Y-44285498D01*
X139750000Y-44315335D01*
X139694180Y-44285498D01*
X139574482Y-44249188D01*
X139450000Y-44236928D01*
X139185750Y-44240000D01*
X139027000Y-44398750D01*
X139027000Y-47048000D01*
X139047000Y-47048000D01*
X139047000Y-47302000D01*
X139027000Y-47302000D01*
X139027000Y-47322000D01*
X138773000Y-47322000D01*
X138773000Y-47302000D01*
X138753000Y-47302000D01*
X138753000Y-47048000D01*
X138773000Y-47048000D01*
X138773000Y-44398750D01*
X138614250Y-44240000D01*
X138350000Y-44236928D01*
X138225518Y-44249188D01*
X138105820Y-44285498D01*
X138050000Y-44315335D01*
X137994180Y-44285498D01*
X137874482Y-44249188D01*
X137750000Y-44236928D01*
X136650000Y-44236928D01*
X136525518Y-44249188D01*
X136405820Y-44285498D01*
X136350000Y-44315335D01*
X136294180Y-44285498D01*
X136174482Y-44249188D01*
X136050000Y-44236928D01*
X135785750Y-44240000D01*
X135627000Y-44398750D01*
X135627000Y-47048000D01*
X135647000Y-47048000D01*
X135647000Y-47302000D01*
X135627000Y-47302000D01*
X135627000Y-47322000D01*
X135373000Y-47322000D01*
X135373000Y-47302000D01*
X134473750Y-47302000D01*
X134315000Y-47460750D01*
X134312591Y-49040001D01*
X132958393Y-49040001D01*
X132968825Y-49018099D01*
X133013476Y-48870890D01*
X132892155Y-48641000D01*
X131699000Y-48641000D01*
X131699000Y-48661000D01*
X131445000Y-48661000D01*
X131445000Y-48641000D01*
X130251845Y-48641000D01*
X130130524Y-48870890D01*
X130175175Y-49018099D01*
X130185607Y-49040001D01*
X128637321Y-49040001D01*
X128599998Y-49036325D01*
X128562675Y-49040001D01*
X128562666Y-49040001D01*
X128451013Y-49050998D01*
X128307752Y-49094455D01*
X128175722Y-49165027D01*
X128131871Y-49201015D01*
X128059998Y-49260000D01*
X128036200Y-49288998D01*
X126371199Y-50954000D01*
X126309061Y-50954000D01*
X126109102Y-50993774D01*
X125920744Y-51071795D01*
X125751226Y-51185063D01*
X125607063Y-51329226D01*
X125493795Y-51498744D01*
X125415774Y-51687102D01*
X125376000Y-51887061D01*
X125376000Y-52090939D01*
X125415774Y-52290898D01*
X125493795Y-52479256D01*
X125516500Y-52513236D01*
X125504747Y-52506954D01*
X125361486Y-52463497D01*
X125249833Y-52452500D01*
X125249822Y-52452500D01*
X125212500Y-52448824D01*
X125175178Y-52452500D01*
X125085030Y-52452500D01*
X124977962Y-52322038D01*
X124951109Y-52300000D01*
X124977962Y-52277962D01*
X125088405Y-52143387D01*
X125170472Y-51989851D01*
X125221008Y-51823255D01*
X125238072Y-51650001D01*
X125238072Y-51124999D01*
X125238003Y-51124299D01*
X125861003Y-50501299D01*
X125890001Y-50477501D01*
X125984974Y-50361776D01*
X125997960Y-50337482D01*
X126104494Y-50280537D01*
X126201185Y-50201185D01*
X126280537Y-50104494D01*
X126339502Y-49994180D01*
X126375812Y-49874482D01*
X126388072Y-49750000D01*
X126388072Y-48850000D01*
X126375812Y-48725518D01*
X126339502Y-48605820D01*
X126280537Y-48495506D01*
X126201185Y-48398815D01*
X126104494Y-48319463D01*
X125994180Y-48260498D01*
X125874482Y-48224188D01*
X125750000Y-48211928D01*
X125238095Y-48211928D01*
X125251185Y-48201185D01*
X125330537Y-48104494D01*
X125389502Y-47994180D01*
X125425812Y-47874482D01*
X125438072Y-47750000D01*
X125438072Y-46850000D01*
X125425812Y-46725518D01*
X125389502Y-46605820D01*
X125330537Y-46495506D01*
X125310485Y-46471072D01*
X125850001Y-46471072D01*
X126023255Y-46454008D01*
X126189851Y-46403472D01*
X126250417Y-46371099D01*
X126250997Y-46376986D01*
X126294454Y-46520247D01*
X126365026Y-46652276D01*
X126459999Y-46768001D01*
X126575724Y-46862974D01*
X126707753Y-46933546D01*
X126851014Y-46977003D01*
X126962667Y-46988000D01*
X127000000Y-46991677D01*
X127037333Y-46988000D01*
X130485893Y-46988000D01*
X130625368Y-47127475D01*
X130807534Y-47249195D01*
X130690645Y-47318822D01*
X130474412Y-47513731D01*
X130300359Y-47747080D01*
X130175175Y-48009901D01*
X130130524Y-48157110D01*
X130251845Y-48387000D01*
X131445000Y-48387000D01*
X131445000Y-48367000D01*
X131699000Y-48367000D01*
X131699000Y-48387000D01*
X132892155Y-48387000D01*
X133013476Y-48157110D01*
X132968825Y-48009901D01*
X132843641Y-47747080D01*
X132669588Y-47513731D01*
X132453355Y-47318822D01*
X132336466Y-47249195D01*
X132518632Y-47127475D01*
X132725475Y-46920632D01*
X132887990Y-46677411D01*
X132999932Y-46407158D01*
X133057000Y-46120260D01*
X133057000Y-45827740D01*
X132999932Y-45540842D01*
X132887990Y-45270589D01*
X132725475Y-45027368D01*
X132593620Y-44895513D01*
X132661241Y-44875000D01*
X134311928Y-44875000D01*
X134315000Y-46889250D01*
X134473750Y-47048000D01*
X135373000Y-47048000D01*
X135373000Y-44398750D01*
X135214250Y-44240000D01*
X134950000Y-44236928D01*
X134825518Y-44249188D01*
X134705820Y-44285498D01*
X134595506Y-44344463D01*
X134498815Y-44423815D01*
X134419463Y-44520506D01*
X134360498Y-44630820D01*
X134324188Y-44750518D01*
X134311928Y-44875000D01*
X132661241Y-44875000D01*
X132666180Y-44873502D01*
X132776494Y-44814537D01*
X132873185Y-44735185D01*
X132952537Y-44638494D01*
X133011502Y-44528180D01*
X133047812Y-44408482D01*
X133060072Y-44284000D01*
X133060072Y-43185423D01*
X133145506Y-43255537D01*
X133255820Y-43314502D01*
X133375518Y-43350812D01*
X133500000Y-43363072D01*
X138614250Y-43360000D01*
X138773000Y-43201250D01*
X138773000Y-38152000D01*
X139027000Y-38152000D01*
X139027000Y-43201250D01*
X139185750Y-43360000D01*
X144300000Y-43363072D01*
X144424482Y-43350812D01*
X144544180Y-43314502D01*
X144654494Y-43255537D01*
X144751185Y-43176185D01*
X144830537Y-43079494D01*
X144889502Y-42969180D01*
X144925812Y-42849482D01*
X144938072Y-42725000D01*
X144937712Y-42206653D01*
X149287952Y-42206653D01*
X149443962Y-42522214D01*
X149818745Y-42713020D01*
X150223551Y-42827044D01*
X150642824Y-42859902D01*
X151060451Y-42810334D01*
X151460383Y-42680243D01*
X151756038Y-42522214D01*
X151912048Y-42206653D01*
X150600000Y-40894605D01*
X149287952Y-42206653D01*
X144937712Y-42206653D01*
X144936703Y-40757824D01*
X148455098Y-40757824D01*
X148504666Y-41175451D01*
X148634757Y-41575383D01*
X148792786Y-41871038D01*
X149108347Y-42027048D01*
X150420395Y-40715000D01*
X149108347Y-39402952D01*
X148792786Y-39558962D01*
X148601980Y-39933745D01*
X148487956Y-40338551D01*
X148455098Y-40757824D01*
X144936703Y-40757824D01*
X144935636Y-39223347D01*
X149287952Y-39223347D01*
X150600000Y-40535395D01*
X150614143Y-40521253D01*
X150793748Y-40700858D01*
X150779605Y-40715000D01*
X152091653Y-42027048D01*
X152407214Y-41871038D01*
X152598020Y-41496255D01*
X152712044Y-41091449D01*
X152740414Y-40729443D01*
X152990782Y-40833149D01*
X153427409Y-40920000D01*
X153872591Y-40920000D01*
X154309218Y-40833149D01*
X154720511Y-40662786D01*
X155090666Y-40415456D01*
X155405456Y-40100666D01*
X155652786Y-39730511D01*
X155823149Y-39319218D01*
X155910000Y-38882591D01*
X155910000Y-38437409D01*
X155823149Y-38000782D01*
X155652786Y-37589489D01*
X155405456Y-37219334D01*
X155090666Y-36904544D01*
X154720511Y-36657214D01*
X154309218Y-36486851D01*
X153872591Y-36400000D01*
X153427409Y-36400000D01*
X152990782Y-36486851D01*
X152579489Y-36657214D01*
X152209334Y-36904544D01*
X151894544Y-37219334D01*
X151647214Y-37589489D01*
X151476851Y-38000782D01*
X151390000Y-38437409D01*
X151390000Y-38721432D01*
X151381255Y-38716980D01*
X150976449Y-38602956D01*
X150557176Y-38570098D01*
X150139549Y-38619666D01*
X149739617Y-38749757D01*
X149443962Y-38907786D01*
X149287952Y-39223347D01*
X144935636Y-39223347D01*
X144935000Y-38310750D01*
X144776250Y-38152000D01*
X139027000Y-38152000D01*
X138773000Y-38152000D01*
X133023750Y-38152000D01*
X132865000Y-38310750D01*
X132862346Y-42123920D01*
X132776494Y-42053463D01*
X132666180Y-41994498D01*
X132546482Y-41958188D01*
X132422000Y-41945928D01*
X130722000Y-41945928D01*
X130597518Y-41958188D01*
X130477820Y-41994498D01*
X130367506Y-42053463D01*
X130270815Y-42132815D01*
X130191463Y-42229506D01*
X130132498Y-42339820D01*
X130096188Y-42459518D01*
X130083928Y-42584000D01*
X130083928Y-42674000D01*
X130023822Y-42674000D01*
X129986499Y-42670324D01*
X129949176Y-42674000D01*
X129949167Y-42674000D01*
X129837514Y-42684997D01*
X129694253Y-42728454D01*
X129562224Y-42799026D01*
X129562222Y-42799027D01*
X129562223Y-42799027D01*
X129475496Y-42870201D01*
X129475492Y-42870205D01*
X129446499Y-42893999D01*
X129422705Y-42922992D01*
X128889493Y-43456204D01*
X128775001Y-43444928D01*
X128149999Y-43444928D01*
X127976745Y-43461992D01*
X127810149Y-43512528D01*
X127671741Y-43586509D01*
X127634974Y-43517724D01*
X127540001Y-43401999D01*
X127511003Y-43378202D01*
X127055803Y-42923002D01*
X127032001Y-42893999D01*
X126916276Y-42799026D01*
X126796494Y-42735000D01*
X126945505Y-42735000D01*
X127329003Y-42658718D01*
X127690250Y-42509085D01*
X128015364Y-42291851D01*
X128291851Y-42015364D01*
X128509085Y-41690250D01*
X128658718Y-41329003D01*
X128735000Y-40945505D01*
X128735000Y-40554495D01*
X128658718Y-40170997D01*
X128509085Y-39809750D01*
X128291851Y-39484636D01*
X128015364Y-39208149D01*
X127690250Y-38990915D01*
X127329003Y-38841282D01*
X126945505Y-38765000D01*
X126554495Y-38765000D01*
X126170997Y-38841282D01*
X125809750Y-38990915D01*
X125484636Y-39208149D01*
X125208149Y-39484636D01*
X124990915Y-39809750D01*
X124841282Y-40170997D01*
X124765000Y-40554495D01*
X124765000Y-40945505D01*
X124841282Y-41329003D01*
X124990915Y-41690250D01*
X125208149Y-42015364D01*
X125484636Y-42291851D01*
X125809750Y-42509085D01*
X126170997Y-42658718D01*
X126247825Y-42674000D01*
X124181822Y-42674000D01*
X124144499Y-42670324D01*
X124107176Y-42674000D01*
X124107167Y-42674000D01*
X123995514Y-42684997D01*
X123852253Y-42728454D01*
X123720224Y-42799026D01*
X123720222Y-42799027D01*
X123720223Y-42799027D01*
X123633496Y-42870201D01*
X123633492Y-42870205D01*
X123604499Y-42893999D01*
X123580705Y-42922992D01*
X123047493Y-43456204D01*
X122933001Y-43444928D01*
X122307999Y-43444928D01*
X122134745Y-43461992D01*
X121968149Y-43512528D01*
X121814613Y-43594595D01*
X121680038Y-43705038D01*
X121569595Y-43839613D01*
X121487528Y-43993149D01*
X121436992Y-44159745D01*
X121419928Y-44332999D01*
X121419928Y-45583001D01*
X121436992Y-45756255D01*
X121487528Y-45922851D01*
X121569595Y-46076387D01*
X121680038Y-46210962D01*
X121814613Y-46321405D01*
X121968149Y-46403472D01*
X122134745Y-46454008D01*
X122307999Y-46471072D01*
X122933001Y-46471072D01*
X123106255Y-46454008D01*
X123272851Y-46403472D01*
X123426387Y-46321405D01*
X123560962Y-46210962D01*
X123638402Y-46116601D01*
X123640001Y-46132832D01*
X123640001Y-46323981D01*
X123548815Y-46398815D01*
X123469463Y-46495506D01*
X123410498Y-46605820D01*
X123374188Y-46725518D01*
X123361928Y-46850000D01*
X123361928Y-47750000D01*
X123374188Y-47874482D01*
X123410498Y-47994180D01*
X123469463Y-48104494D01*
X123548815Y-48201185D01*
X123561905Y-48211928D01*
X123436729Y-48211928D01*
X123213803Y-47989002D01*
X123190001Y-47959999D01*
X123074276Y-47865026D01*
X122942247Y-47794454D01*
X122798986Y-47750997D01*
X122687333Y-47740000D01*
X122687322Y-47740000D01*
X122650000Y-47736324D01*
X122612678Y-47740000D01*
X120338072Y-47740000D01*
X120338072Y-47314561D01*
X120401046Y-47196747D01*
X120444503Y-47053486D01*
X120455500Y-46941833D01*
X120455500Y-46941824D01*
X120459176Y-46904501D01*
X120455500Y-46867178D01*
X120455500Y-46345932D01*
X120501387Y-46321405D01*
X120635962Y-46210962D01*
X120746405Y-46076387D01*
X120828472Y-45922851D01*
X120879008Y-45756255D01*
X120896072Y-45583001D01*
X120896072Y-44332999D01*
X120879008Y-44159745D01*
X120828472Y-43993149D01*
X120746405Y-43839613D01*
X120635962Y-43705038D01*
X120501387Y-43594595D01*
X120347851Y-43512528D01*
X120181255Y-43461992D01*
X120008001Y-43444928D01*
X119382999Y-43444928D01*
X119209745Y-43461992D01*
X119043149Y-43512528D01*
X118889613Y-43594595D01*
X118755038Y-43705038D01*
X118644595Y-43839613D01*
X118562528Y-43993149D01*
X118511992Y-44159745D01*
X118494928Y-44332999D01*
X118494928Y-45583001D01*
X118511992Y-45756255D01*
X118562528Y-45922851D01*
X118644595Y-46076387D01*
X118755038Y-46210962D01*
X118772332Y-46225155D01*
X118655820Y-46260498D01*
X118545506Y-46319463D01*
X118448815Y-46398815D01*
X118369463Y-46495506D01*
X118310498Y-46605820D01*
X118274188Y-46725518D01*
X118261928Y-46850000D01*
X118261928Y-47750000D01*
X118274188Y-47874482D01*
X118310498Y-47994180D01*
X118352479Y-48072719D01*
X118213270Y-48211928D01*
X117950000Y-48211928D01*
X117825518Y-48224188D01*
X117705820Y-48260498D01*
X117595506Y-48319463D01*
X117498815Y-48398815D01*
X117419463Y-48495506D01*
X117360498Y-48605820D01*
X117324188Y-48725518D01*
X117311928Y-48850000D01*
X117311928Y-49750000D01*
X117324188Y-49874482D01*
X117360498Y-49994180D01*
X117419463Y-50104494D01*
X117498815Y-50201185D01*
X117595506Y-50280537D01*
X117705820Y-50339502D01*
X117825518Y-50375812D01*
X117950000Y-50388072D01*
X118313271Y-50388072D01*
X118714990Y-50789792D01*
X118714991Y-53210207D01*
X117874995Y-54050204D01*
X117803418Y-54071916D01*
X117667171Y-54144742D01*
X117547749Y-54242749D01*
X117449742Y-54362171D01*
X117376916Y-54498418D01*
X117332071Y-54646255D01*
X117316928Y-54800000D01*
X117316928Y-56250000D01*
X117332071Y-56403745D01*
X117376916Y-56551582D01*
X117449742Y-56687829D01*
X117547749Y-56807251D01*
X117667171Y-56905258D01*
X117803418Y-56978084D01*
X117951255Y-57022929D01*
X118105000Y-57038072D01*
X118405000Y-57038072D01*
X118558745Y-57022929D01*
X118706582Y-56978084D01*
X118842829Y-56905258D01*
X118890000Y-56866546D01*
X118937171Y-56905258D01*
X119073418Y-56978084D01*
X119221255Y-57022929D01*
X119375000Y-57038072D01*
X119675000Y-57038072D01*
X119828745Y-57022929D01*
X119976582Y-56978084D01*
X120112829Y-56905258D01*
X120160000Y-56866546D01*
X120207171Y-56905258D01*
X120343418Y-56978084D01*
X120491255Y-57022929D01*
X120645000Y-57038072D01*
X120945000Y-57038072D01*
X121098745Y-57022929D01*
X121246582Y-56978084D01*
X121382829Y-56905258D01*
X121430000Y-56866546D01*
X121477171Y-56905258D01*
X121613418Y-56978084D01*
X121761255Y-57022929D01*
X121915000Y-57038072D01*
X122215000Y-57038072D01*
X122368745Y-57022929D01*
X122516582Y-56978084D01*
X122652829Y-56905258D01*
X122700000Y-56866546D01*
X122747171Y-56905258D01*
X122883418Y-56978084D01*
X123031255Y-57022929D01*
X123185000Y-57038072D01*
X123485000Y-57038072D01*
X123638745Y-57022929D01*
X123786582Y-56978084D01*
X123922829Y-56905258D01*
X123970000Y-56866546D01*
X124017171Y-56905258D01*
X124153418Y-56978084D01*
X124301255Y-57022929D01*
X124455000Y-57038072D01*
X124755000Y-57038072D01*
X124908745Y-57022929D01*
X125056582Y-56978084D01*
X125192829Y-56905258D01*
X125240000Y-56866546D01*
X125287171Y-56905258D01*
X125423418Y-56978084D01*
X125571255Y-57022929D01*
X125725000Y-57038072D01*
X126025000Y-57038072D01*
X126178745Y-57022929D01*
X126326582Y-56978084D01*
X126462829Y-56905258D01*
X126510000Y-56866546D01*
X126557171Y-56905258D01*
X126693418Y-56978084D01*
X126841255Y-57022929D01*
X126995000Y-57038072D01*
X127295000Y-57038072D01*
X127448745Y-57022929D01*
X127596582Y-56978084D01*
X127732829Y-56905258D01*
X127852251Y-56807251D01*
X127950258Y-56687829D01*
X128023084Y-56551582D01*
X128067929Y-56403745D01*
X128083072Y-56250000D01*
X128083072Y-56195361D01*
X128149276Y-56159974D01*
X128265001Y-56065001D01*
X128288804Y-56035997D01*
X130011004Y-54313798D01*
X130040001Y-54290001D01*
X130078780Y-54242749D01*
X130134974Y-54174277D01*
X130205546Y-54042247D01*
X130207437Y-54036014D01*
X130249003Y-53898986D01*
X130260000Y-53787333D01*
X130260000Y-53787324D01*
X130263676Y-53750001D01*
X130260000Y-53712678D01*
X130260000Y-52808702D01*
X130906903Y-52808702D01*
X130978486Y-53052671D01*
X131233996Y-53173571D01*
X131508184Y-53242300D01*
X131790512Y-53256217D01*
X132070130Y-53214787D01*
X132336292Y-53119603D01*
X132461514Y-53052671D01*
X132533097Y-52808702D01*
X131720000Y-51995605D01*
X130906903Y-52808702D01*
X130260000Y-52808702D01*
X130260000Y-51234999D01*
X130407379Y-51234999D01*
X130362429Y-51329996D01*
X130293700Y-51604184D01*
X130279783Y-51886512D01*
X130321213Y-52166130D01*
X130416397Y-52432292D01*
X130483329Y-52557514D01*
X130727298Y-52629097D01*
X131540395Y-51816000D01*
X131526253Y-51801858D01*
X131705858Y-51622253D01*
X131720000Y-51636395D01*
X131734143Y-51622253D01*
X131913748Y-51801858D01*
X131899605Y-51816000D01*
X132712702Y-52629097D01*
X132956671Y-52557514D01*
X133077571Y-52302004D01*
X133103212Y-52199711D01*
X133110147Y-52234574D01*
X133218320Y-52495727D01*
X133375363Y-52730759D01*
X133575241Y-52930637D01*
X133810273Y-53087680D01*
X134071426Y-53195853D01*
X134348665Y-53251000D01*
X134631335Y-53251000D01*
X134908574Y-53195853D01*
X135169727Y-53087680D01*
X135363444Y-52958243D01*
X135403338Y-52998137D01*
X135195273Y-53084320D01*
X134960241Y-53241363D01*
X134760363Y-53441241D01*
X134603320Y-53676273D01*
X134495147Y-53937426D01*
X134490000Y-53963301D01*
X134484853Y-53937426D01*
X134376680Y-53676273D01*
X134219637Y-53441241D01*
X134019759Y-53241363D01*
X133784727Y-53084320D01*
X133523574Y-52976147D01*
X133246335Y-52921000D01*
X132963665Y-52921000D01*
X132686426Y-52976147D01*
X132425273Y-53084320D01*
X132190241Y-53241363D01*
X131990363Y-53441241D01*
X131833320Y-53676273D01*
X131725147Y-53937426D01*
X131670000Y-54214665D01*
X131670000Y-54497335D01*
X131725147Y-54774574D01*
X131833320Y-55035727D01*
X131990363Y-55270759D01*
X132190241Y-55470637D01*
X132425273Y-55627680D01*
X132686426Y-55735853D01*
X132963665Y-55791000D01*
X133246335Y-55791000D01*
X133523574Y-55735853D01*
X133784727Y-55627680D01*
X134019759Y-55470637D01*
X134219637Y-55270759D01*
X134376680Y-55035727D01*
X134484853Y-54774574D01*
X134490000Y-54748699D01*
X134495147Y-54774574D01*
X134603320Y-55035727D01*
X134760363Y-55270759D01*
X134960241Y-55470637D01*
X135195273Y-55627680D01*
X135456426Y-55735853D01*
X135733665Y-55791000D01*
X136016335Y-55791000D01*
X136293574Y-55735853D01*
X136554727Y-55627680D01*
X136789759Y-55470637D01*
X136989637Y-55270759D01*
X137146680Y-55035727D01*
X137254853Y-54774574D01*
X137260000Y-54748699D01*
X137265147Y-54774574D01*
X137373320Y-55035727D01*
X137530363Y-55270759D01*
X137730241Y-55470637D01*
X137965273Y-55627680D01*
X138226426Y-55735853D01*
X138503665Y-55791000D01*
X138786335Y-55791000D01*
X139063574Y-55735853D01*
X139324727Y-55627680D01*
X139559759Y-55470637D01*
X139759637Y-55270759D01*
X139916680Y-55035727D01*
X140024853Y-54774574D01*
X140030000Y-54748699D01*
X140035147Y-54774574D01*
X140143320Y-55035727D01*
X140300363Y-55270759D01*
X140500241Y-55470637D01*
X140655000Y-55574044D01*
X140655001Y-59377668D01*
X140651324Y-59415000D01*
X140655001Y-59452333D01*
X140665998Y-59563986D01*
X140679180Y-59607442D01*
X140709454Y-59707246D01*
X140780026Y-59839276D01*
X140817530Y-59884974D01*
X140875000Y-59955001D01*
X140903998Y-59978799D01*
X142936201Y-62011003D01*
X142959999Y-62040001D01*
X143075724Y-62134974D01*
X143207753Y-62205546D01*
X143351014Y-62249003D01*
X143462667Y-62260000D01*
X143462676Y-62260000D01*
X143499999Y-62263676D01*
X143537322Y-62260000D01*
X148458463Y-62260000D01*
X148480013Y-62292252D01*
X148707748Y-62519987D01*
X148975537Y-62698918D01*
X149273088Y-62822168D01*
X149588967Y-62885000D01*
X149911033Y-62885000D01*
X150226912Y-62822168D01*
X150524463Y-62698918D01*
X150792252Y-62519987D01*
X151019987Y-62292252D01*
X151198918Y-62024463D01*
X151322168Y-61726912D01*
X151385000Y-61411033D01*
X151385000Y-61200000D01*
X153324428Y-61200000D01*
X153336688Y-61324482D01*
X153372998Y-61444180D01*
X153431963Y-61554494D01*
X153511315Y-61651185D01*
X153608006Y-61730537D01*
X153718320Y-61789502D01*
X153838018Y-61825812D01*
X153962500Y-61838072D01*
X154189250Y-61835000D01*
X154348000Y-61676250D01*
X154348000Y-60627000D01*
X153486250Y-60627000D01*
X153327500Y-60785750D01*
X153324428Y-61200000D01*
X151385000Y-61200000D01*
X151385000Y-61088967D01*
X151322168Y-60773088D01*
X151198918Y-60475537D01*
X151019987Y-60207748D01*
X150822239Y-60010000D01*
X153325985Y-60010000D01*
X153327500Y-60214250D01*
X153486250Y-60373000D01*
X154348000Y-60373000D01*
X154348000Y-60353000D01*
X154602000Y-60353000D01*
X154602000Y-60373000D01*
X154622000Y-60373000D01*
X154622000Y-60627000D01*
X154602000Y-60627000D01*
X154602000Y-61676250D01*
X154760750Y-61835000D01*
X154987500Y-61838072D01*
X155111982Y-61825812D01*
X155231680Y-61789502D01*
X155341994Y-61730537D01*
X155438685Y-61651185D01*
X155462863Y-61621724D01*
X155544113Y-61688405D01*
X155697649Y-61770472D01*
X155864245Y-61821008D01*
X156037499Y-61838072D01*
X156562501Y-61838072D01*
X156735755Y-61821008D01*
X156902351Y-61770472D01*
X157055887Y-61688405D01*
X157190462Y-61577962D01*
X157300905Y-61443387D01*
X157382972Y-61289851D01*
X157392027Y-61260000D01*
X159062678Y-61260000D01*
X159100000Y-61263676D01*
X159137322Y-61260000D01*
X159137333Y-61260000D01*
X159248986Y-61249003D01*
X159392247Y-61205546D01*
X159524276Y-61134974D01*
X159640001Y-61040001D01*
X159663804Y-61010997D01*
X161608625Y-59066177D01*
X161623088Y-59072168D01*
X161938967Y-59135000D01*
X162261033Y-59135000D01*
X162576912Y-59072168D01*
X162874463Y-58948918D01*
X163142252Y-58769987D01*
X163369987Y-58542252D01*
X163548918Y-58274463D01*
X163672168Y-57976912D01*
X163735000Y-57661033D01*
X163735000Y-57338967D01*
X163672168Y-57023088D01*
X163548918Y-56725537D01*
X163369987Y-56457748D01*
X163142252Y-56230013D01*
X162874463Y-56051082D01*
X162576912Y-55927832D01*
X162261033Y-55865000D01*
X161938967Y-55865000D01*
X161623088Y-55927832D01*
X161325537Y-56051082D01*
X161057748Y-56230013D01*
X160830013Y-56457748D01*
X160651082Y-56725537D01*
X160527832Y-57023088D01*
X160465000Y-57338967D01*
X160465000Y-57661033D01*
X160527832Y-57976912D01*
X160533823Y-57991375D01*
X158785199Y-59740000D01*
X157392027Y-59740000D01*
X157382972Y-59710149D01*
X157300905Y-59556613D01*
X157190462Y-59422038D01*
X157055887Y-59311595D01*
X157015297Y-59289899D01*
X157005546Y-59257753D01*
X156934974Y-59125724D01*
X156840001Y-59009999D01*
X156810998Y-58986197D01*
X156563804Y-58739003D01*
X156540001Y-58709999D01*
X156424276Y-58615026D01*
X156292247Y-58544454D01*
X156148986Y-58500997D01*
X156138072Y-58499922D01*
X156138072Y-56936729D01*
X158011004Y-55063798D01*
X158040001Y-55040001D01*
X158134974Y-54924276D01*
X158205546Y-54792247D01*
X158249003Y-54648986D01*
X158260000Y-54537333D01*
X158260000Y-54537325D01*
X158263676Y-54500000D01*
X158260000Y-54462675D01*
X158260000Y-49260000D01*
X160615000Y-49260000D01*
X160615000Y-49411033D01*
X160677832Y-49726912D01*
X160801082Y-50024463D01*
X160980013Y-50292252D01*
X161207748Y-50519987D01*
X161475537Y-50698918D01*
X161773088Y-50822168D01*
X162088967Y-50885000D01*
X162411033Y-50885000D01*
X162726912Y-50822168D01*
X163024463Y-50698918D01*
X163292252Y-50519987D01*
X163519987Y-50292252D01*
X163698918Y-50024463D01*
X163822168Y-49726912D01*
X163840000Y-49637262D01*
X163840000Y-63340000D01*
X117160000Y-63340000D01*
X117160000Y-61550000D01*
X117316928Y-61550000D01*
X117329188Y-61674482D01*
X117365498Y-61794180D01*
X117424463Y-61904494D01*
X117503815Y-62001185D01*
X117600506Y-62080537D01*
X117710820Y-62139502D01*
X117830518Y-62175812D01*
X117955000Y-62188072D01*
X117969250Y-62185000D01*
X118128000Y-62026250D01*
X118128000Y-60802000D01*
X117478750Y-60802000D01*
X117320000Y-60960750D01*
X117316928Y-61550000D01*
X117160000Y-61550000D01*
X117160000Y-59800000D01*
X117316928Y-59800000D01*
X117320000Y-60389250D01*
X117478750Y-60548000D01*
X118128000Y-60548000D01*
X118128000Y-59323750D01*
X118382000Y-59323750D01*
X118382000Y-60548000D01*
X118402000Y-60548000D01*
X118402000Y-60802000D01*
X118382000Y-60802000D01*
X118382000Y-62026250D01*
X118540750Y-62185000D01*
X118555000Y-62188072D01*
X118679482Y-62175812D01*
X118799180Y-62139502D01*
X118909494Y-62080537D01*
X118939064Y-62056270D01*
X119073418Y-62128084D01*
X119221255Y-62172929D01*
X119375000Y-62188072D01*
X119675000Y-62188072D01*
X119828745Y-62172929D01*
X119976582Y-62128084D01*
X120112829Y-62055258D01*
X120160000Y-62016546D01*
X120207171Y-62055258D01*
X120343418Y-62128084D01*
X120491255Y-62172929D01*
X120645000Y-62188072D01*
X120945000Y-62188072D01*
X121098745Y-62172929D01*
X121246582Y-62128084D01*
X121382829Y-62055258D01*
X121430000Y-62016546D01*
X121477171Y-62055258D01*
X121613418Y-62128084D01*
X121761255Y-62172929D01*
X121915000Y-62188072D01*
X122215000Y-62188072D01*
X122368745Y-62172929D01*
X122516582Y-62128084D01*
X122652829Y-62055258D01*
X122700000Y-62016546D01*
X122747171Y-62055258D01*
X122883418Y-62128084D01*
X123031255Y-62172929D01*
X123185000Y-62188072D01*
X123485000Y-62188072D01*
X123638745Y-62172929D01*
X123786582Y-62128084D01*
X123922829Y-62055258D01*
X123970000Y-62016546D01*
X124017171Y-62055258D01*
X124051582Y-62073651D01*
X124065000Y-62090001D01*
X124093998Y-62113799D01*
X124941210Y-62961012D01*
X124965008Y-62990010D01*
X124994006Y-63013808D01*
X125080732Y-63084983D01*
X125212762Y-63155555D01*
X125356023Y-63199012D01*
X125467676Y-63210009D01*
X125467686Y-63210009D01*
X125505009Y-63213685D01*
X125542332Y-63210009D01*
X127515847Y-63210009D01*
X127553169Y-63213685D01*
X127590491Y-63210009D01*
X127590502Y-63210009D01*
X127702155Y-63199012D01*
X127845416Y-63155555D01*
X127977445Y-63084983D01*
X128093170Y-62990010D01*
X128116973Y-62961006D01*
X130511004Y-60566976D01*
X130540001Y-60543179D01*
X130634974Y-60427454D01*
X130705546Y-60295425D01*
X130749003Y-60152164D01*
X130760000Y-60040511D01*
X130760000Y-60040510D01*
X130763677Y-60003178D01*
X130760000Y-59965845D01*
X130760000Y-58537332D01*
X130763677Y-58500000D01*
X130760000Y-58462667D01*
X130760000Y-57453711D01*
X130803937Y-57409774D01*
X130917205Y-57240256D01*
X130995226Y-57051898D01*
X131035000Y-56851939D01*
X131035000Y-56648061D01*
X130995226Y-56448102D01*
X130917205Y-56259744D01*
X130803937Y-56090226D01*
X130659774Y-55946063D01*
X130490256Y-55832795D01*
X130301898Y-55754774D01*
X130101939Y-55715000D01*
X129898061Y-55715000D01*
X129698102Y-55754774D01*
X129509744Y-55832795D01*
X129340226Y-55946063D01*
X129196063Y-56090226D01*
X129082795Y-56259744D01*
X129004774Y-56448102D01*
X128965000Y-56648061D01*
X128965000Y-56851939D01*
X128987489Y-56965000D01*
X128898061Y-56965000D01*
X128698102Y-57004774D01*
X128509744Y-57082795D01*
X128340226Y-57196063D01*
X128196063Y-57340226D01*
X128111430Y-57466888D01*
X128101939Y-57465000D01*
X127898061Y-57465000D01*
X127698102Y-57504774D01*
X127509744Y-57582795D01*
X127340226Y-57696063D01*
X127196063Y-57840226D01*
X127082795Y-58009744D01*
X127004774Y-58198102D01*
X126965000Y-58398061D01*
X126965000Y-58601939D01*
X127004774Y-58801898D01*
X127082795Y-58990256D01*
X127196063Y-59159774D01*
X127198217Y-59161928D01*
X126995000Y-59161928D01*
X126841255Y-59177071D01*
X126693418Y-59221916D01*
X126557171Y-59294742D01*
X126510000Y-59333454D01*
X126462829Y-59294742D01*
X126326582Y-59221916D01*
X126178745Y-59177071D01*
X126025000Y-59161928D01*
X125725000Y-59161928D01*
X125571255Y-59177071D01*
X125423418Y-59221916D01*
X125287171Y-59294742D01*
X125240000Y-59333454D01*
X125192829Y-59294742D01*
X125056582Y-59221916D01*
X124908745Y-59177071D01*
X124755000Y-59161928D01*
X124455000Y-59161928D01*
X124301255Y-59177071D01*
X124153418Y-59221916D01*
X124017171Y-59294742D01*
X123970000Y-59333454D01*
X123922829Y-59294742D01*
X123786582Y-59221916D01*
X123638745Y-59177071D01*
X123485000Y-59161928D01*
X123185000Y-59161928D01*
X123031255Y-59177071D01*
X122883418Y-59221916D01*
X122747171Y-59294742D01*
X122700000Y-59333454D01*
X122652829Y-59294742D01*
X122516582Y-59221916D01*
X122368745Y-59177071D01*
X122215000Y-59161928D01*
X121915000Y-59161928D01*
X121761255Y-59177071D01*
X121613418Y-59221916D01*
X121477171Y-59294742D01*
X121430000Y-59333454D01*
X121382829Y-59294742D01*
X121246582Y-59221916D01*
X121098745Y-59177071D01*
X120945000Y-59161928D01*
X120645000Y-59161928D01*
X120491255Y-59177071D01*
X120343418Y-59221916D01*
X120207171Y-59294742D01*
X120160000Y-59333454D01*
X120112829Y-59294742D01*
X119976582Y-59221916D01*
X119828745Y-59177071D01*
X119675000Y-59161928D01*
X119375000Y-59161928D01*
X119221255Y-59177071D01*
X119073418Y-59221916D01*
X118939064Y-59293730D01*
X118909494Y-59269463D01*
X118799180Y-59210498D01*
X118679482Y-59174188D01*
X118555000Y-59161928D01*
X118540750Y-59165000D01*
X118382000Y-59323750D01*
X118128000Y-59323750D01*
X117969250Y-59165000D01*
X117955000Y-59161928D01*
X117830518Y-59174188D01*
X117710820Y-59210498D01*
X117600506Y-59269463D01*
X117503815Y-59348815D01*
X117424463Y-59445506D01*
X117365498Y-59555820D01*
X117329188Y-59675518D01*
X117316928Y-59800000D01*
X117160000Y-59800000D01*
X117160000Y-44590246D01*
X132861986Y-33408529D01*
X132865000Y-37739250D01*
X133023750Y-37898000D01*
X138773000Y-37898000D01*
X138773000Y-37878000D01*
X139027000Y-37878000D01*
X139027000Y-37898000D01*
X144776250Y-37898000D01*
X144935000Y-37739250D01*
X144938072Y-33325000D01*
X144925812Y-33200518D01*
X144913521Y-33160000D01*
X144967581Y-33160000D01*
X145000000Y-33163193D01*
X145032419Y-33160000D01*
X145129383Y-33150450D01*
X145253793Y-33112710D01*
X145368450Y-33051425D01*
X145468948Y-32968948D01*
X145551425Y-32868450D01*
X145612710Y-32753793D01*
X145650450Y-32629383D01*
X145663193Y-32500000D01*
X145660000Y-32467581D01*
X145660000Y-23660000D01*
X149081914Y-23660000D01*
X148993653Y-23748261D01*
%TA.AperFunction,Conductor*%
D26*
G36*
X148993653Y-23748261D02*
G01*
X149108345Y-23862953D01*
X148792786Y-24018962D01*
X148601980Y-24393745D01*
X148487956Y-24798551D01*
X148455098Y-25217824D01*
X148504666Y-25635451D01*
X148634757Y-26035383D01*
X148792786Y-26331038D01*
X149108347Y-26487048D01*
X150420395Y-25175000D01*
X150406253Y-25160858D01*
X150585858Y-24981253D01*
X150600000Y-24995395D01*
X150614143Y-24981253D01*
X150793748Y-25160858D01*
X150779605Y-25175000D01*
X150793748Y-25189143D01*
X150614143Y-25368748D01*
X150600000Y-25354605D01*
X149287952Y-26666653D01*
X149443962Y-26982214D01*
X149818745Y-27173020D01*
X150223551Y-27287044D01*
X150642824Y-27319902D01*
X151060451Y-27270334D01*
X151390000Y-27163137D01*
X151390000Y-27452591D01*
X151476851Y-27889218D01*
X151647214Y-28300511D01*
X151894544Y-28670666D01*
X152209334Y-28985456D01*
X152579489Y-29232786D01*
X152990782Y-29403149D01*
X153427409Y-29490000D01*
X153872591Y-29490000D01*
X154309218Y-29403149D01*
X154720511Y-29232786D01*
X155090666Y-28985456D01*
X155405456Y-28670666D01*
X155652786Y-28300511D01*
X155823149Y-27889218D01*
X155910000Y-27452591D01*
X155910000Y-27007409D01*
X155823149Y-26570782D01*
X155652786Y-26159489D01*
X155405456Y-25789334D01*
X155090666Y-25474544D01*
X154720511Y-25227214D01*
X154309218Y-25056851D01*
X153872591Y-24970000D01*
X153427409Y-24970000D01*
X152990782Y-25056851D01*
X152742754Y-25159588D01*
X152744902Y-25132176D01*
X152695334Y-24714549D01*
X152565243Y-24314617D01*
X152407214Y-24018962D01*
X152091655Y-23862953D01*
X152206347Y-23748261D01*
X152118086Y-23660000D01*
X163840001Y-23660000D01*
X163840000Y-24532418D01*
X163840001Y-24532428D01*
X163840001Y-29289301D01*
X163767371Y-29113957D01*
X163615799Y-28887114D01*
X163422886Y-28694201D01*
X163196043Y-28542629D01*
X162943989Y-28438225D01*
X162676411Y-28385000D01*
X162403589Y-28385000D01*
X162136011Y-28438225D01*
X161883957Y-28542629D01*
X161657114Y-28694201D01*
X161464201Y-28887114D01*
X161388072Y-29001049D01*
X161388072Y-27750000D01*
X161375812Y-27625518D01*
X161339502Y-27505820D01*
X161280537Y-27395506D01*
X161201185Y-27298815D01*
X161104494Y-27219463D01*
X160994180Y-27160498D01*
X160874482Y-27124188D01*
X160750000Y-27111928D01*
X159250000Y-27111928D01*
X159125518Y-27124188D01*
X159005820Y-27160498D01*
X158895506Y-27219463D01*
X158798815Y-27298815D01*
X158719463Y-27395506D01*
X158660498Y-27505820D01*
X158624188Y-27625518D01*
X158611928Y-27750000D01*
X158611928Y-29250000D01*
X158624188Y-29374482D01*
X158660498Y-29494180D01*
X158719463Y-29604494D01*
X158798815Y-29701185D01*
X158895506Y-29780537D01*
X159005820Y-29839502D01*
X159125518Y-29875812D01*
X159233483Y-29886445D01*
X159117114Y-29964201D01*
X158924201Y-30157114D01*
X158772629Y-30383957D01*
X158668225Y-30636011D01*
X158615000Y-30903589D01*
X158615000Y-31176411D01*
X158643833Y-31321365D01*
X157238998Y-32726201D01*
X157210000Y-32749999D01*
X157186202Y-32778997D01*
X157186201Y-32778998D01*
X157115026Y-32865724D01*
X157044454Y-32997754D01*
X157000998Y-33141015D01*
X156986324Y-33290000D01*
X156990001Y-33327332D01*
X156990000Y-41546289D01*
X156946063Y-41590226D01*
X156832795Y-41759744D01*
X156754774Y-41948102D01*
X156715000Y-42148061D01*
X156715000Y-42351939D01*
X156754774Y-42551898D01*
X156832795Y-42740256D01*
X156946063Y-42909774D01*
X157090226Y-43053937D01*
X157259744Y-43167205D01*
X157448102Y-43245226D01*
X157648061Y-43285000D01*
X157851939Y-43285000D01*
X158051898Y-43245226D01*
X158240256Y-43167205D01*
X158409774Y-43053937D01*
X158553937Y-42909774D01*
X158667205Y-42740256D01*
X158745226Y-42551898D01*
X158785000Y-42351939D01*
X158785000Y-42148061D01*
X158745226Y-41948102D01*
X158667205Y-41759744D01*
X158553937Y-41590226D01*
X158510000Y-41546289D01*
X158510000Y-33604801D01*
X158617334Y-33497468D01*
X158610188Y-33652492D01*
X158651035Y-33922238D01*
X158743723Y-34178832D01*
X158804140Y-34291863D01*
X159043007Y-34357388D01*
X159820395Y-33580000D01*
X160179605Y-33580000D01*
X160956993Y-34357388D01*
X161195860Y-34291863D01*
X161311760Y-34044884D01*
X161377250Y-33780040D01*
X161389812Y-33507508D01*
X161348965Y-33237762D01*
X161256277Y-32981168D01*
X161195860Y-32868137D01*
X160956993Y-32802612D01*
X160179605Y-33580000D01*
X159820395Y-33580000D01*
X159806253Y-33565858D01*
X159985858Y-33386253D01*
X160000000Y-33400395D01*
X160777388Y-32623007D01*
X160711863Y-32384140D01*
X160708352Y-32382492D01*
X161150188Y-32382492D01*
X161191035Y-32652238D01*
X161283723Y-32908832D01*
X161344140Y-33021863D01*
X161583007Y-33087388D01*
X162360395Y-32310000D01*
X161583007Y-31532612D01*
X161344140Y-31598137D01*
X161228240Y-31845116D01*
X161162750Y-32109960D01*
X161150188Y-32382492D01*
X160708352Y-32382492D01*
X160553523Y-32309836D01*
X160656043Y-32267371D01*
X160882886Y-32115799D01*
X161075799Y-31922886D01*
X161227371Y-31696043D01*
X161331775Y-31443989D01*
X161385000Y-31176411D01*
X161385000Y-30903589D01*
X161331775Y-30636011D01*
X161227371Y-30383957D01*
X161075799Y-30157114D01*
X160882886Y-29964201D01*
X160766517Y-29886445D01*
X160874482Y-29875812D01*
X160994180Y-29839502D01*
X161104494Y-29780537D01*
X161155000Y-29739088D01*
X161155000Y-29906411D01*
X161208225Y-30173989D01*
X161312629Y-30426043D01*
X161464201Y-30652886D01*
X161657114Y-30845799D01*
X161883957Y-30997371D01*
X161983279Y-31038511D01*
X161941168Y-31053723D01*
X161828137Y-31114140D01*
X161762612Y-31353007D01*
X162540000Y-32130395D01*
X163317388Y-31353007D01*
X163251863Y-31114140D01*
X163093523Y-31039836D01*
X163196043Y-30997371D01*
X163422886Y-30845799D01*
X163615799Y-30652886D01*
X163767371Y-30426043D01*
X163840001Y-30250699D01*
X163840001Y-31832211D01*
X163796277Y-31711168D01*
X163735860Y-31598137D01*
X163496993Y-31532612D01*
X162719605Y-32310000D01*
X163496993Y-33087388D01*
X163735860Y-33021863D01*
X163840001Y-32799942D01*
X163840001Y-34369301D01*
X163767371Y-34193957D01*
X163615799Y-33967114D01*
X163422886Y-33774201D01*
X163196043Y-33622629D01*
X163096721Y-33581489D01*
X163138832Y-33566277D01*
X163251863Y-33505860D01*
X163317388Y-33266993D01*
X162540000Y-32489605D01*
X161762612Y-33266993D01*
X161828137Y-33505860D01*
X161986477Y-33580164D01*
X161883957Y-33622629D01*
X161657114Y-33774201D01*
X161464201Y-33967114D01*
X161312629Y-34193957D01*
X161208225Y-34446011D01*
X161155000Y-34713589D01*
X161155000Y-34986411D01*
X161183833Y-35131365D01*
X161076714Y-35238484D01*
X161075799Y-35237114D01*
X160882886Y-35044201D01*
X160656043Y-34892629D01*
X160556721Y-34851489D01*
X160598832Y-34836277D01*
X160711863Y-34775860D01*
X160777388Y-34536993D01*
X160000000Y-33759605D01*
X159222612Y-34536993D01*
X159288137Y-34775860D01*
X159446477Y-34850164D01*
X159343957Y-34892629D01*
X159117114Y-35044201D01*
X158924201Y-35237114D01*
X158772629Y-35463957D01*
X158668225Y-35716011D01*
X158615000Y-35983589D01*
X158615000Y-36256411D01*
X158668225Y-36523989D01*
X158772629Y-36776043D01*
X158924201Y-37002886D01*
X159117114Y-37195799D01*
X159343957Y-37347371D01*
X159596011Y-37451775D01*
X159863589Y-37505000D01*
X160136411Y-37505000D01*
X160315002Y-37469476D01*
X160315001Y-42860197D01*
X158685199Y-44490000D01*
X144703711Y-44490000D01*
X144659774Y-44446063D01*
X144490256Y-44332795D01*
X144301898Y-44254774D01*
X144101939Y-44215000D01*
X143898061Y-44215000D01*
X143698102Y-44254774D01*
X143509744Y-44332795D01*
X143340226Y-44446063D01*
X143328811Y-44457478D01*
X143301185Y-44423815D01*
X143204494Y-44344463D01*
X143094180Y-44285498D01*
X142974482Y-44249188D01*
X142850000Y-44236928D01*
X141750000Y-44236928D01*
X141625518Y-44249188D01*
X141505820Y-44285498D01*
X141450000Y-44315335D01*
X141394180Y-44285498D01*
X141274482Y-44249188D01*
X141150000Y-44236928D01*
X140050000Y-44236928D01*
X139925518Y-44249188D01*
X139805820Y-44285498D01*
X139750000Y-44315335D01*
X139694180Y-44285498D01*
X139574482Y-44249188D01*
X139450000Y-44236928D01*
X139185750Y-44240000D01*
X139027000Y-44398750D01*
X139027000Y-47048000D01*
X139047000Y-47048000D01*
X139047000Y-47302000D01*
X139027000Y-47302000D01*
X139027000Y-47322000D01*
X138773000Y-47322000D01*
X138773000Y-47302000D01*
X138753000Y-47302000D01*
X138753000Y-47048000D01*
X138773000Y-47048000D01*
X138773000Y-44398750D01*
X138614250Y-44240000D01*
X138350000Y-44236928D01*
X138225518Y-44249188D01*
X138105820Y-44285498D01*
X138050000Y-44315335D01*
X137994180Y-44285498D01*
X137874482Y-44249188D01*
X137750000Y-44236928D01*
X136650000Y-44236928D01*
X136525518Y-44249188D01*
X136405820Y-44285498D01*
X136350000Y-44315335D01*
X136294180Y-44285498D01*
X136174482Y-44249188D01*
X136050000Y-44236928D01*
X135785750Y-44240000D01*
X135627000Y-44398750D01*
X135627000Y-47048000D01*
X135647000Y-47048000D01*
X135647000Y-47302000D01*
X135627000Y-47302000D01*
X135627000Y-47322000D01*
X135373000Y-47322000D01*
X135373000Y-47302000D01*
X134473750Y-47302000D01*
X134315000Y-47460750D01*
X134312591Y-49040001D01*
X132958393Y-49040001D01*
X132968825Y-49018099D01*
X133013476Y-48870890D01*
X132892155Y-48641000D01*
X131699000Y-48641000D01*
X131699000Y-48661000D01*
X131445000Y-48661000D01*
X131445000Y-48641000D01*
X130251845Y-48641000D01*
X130130524Y-48870890D01*
X130175175Y-49018099D01*
X130185607Y-49040001D01*
X128637321Y-49040001D01*
X128599998Y-49036325D01*
X128562675Y-49040001D01*
X128562666Y-49040001D01*
X128451013Y-49050998D01*
X128307752Y-49094455D01*
X128175722Y-49165027D01*
X128131871Y-49201015D01*
X128059998Y-49260000D01*
X128036200Y-49288998D01*
X126371199Y-50954000D01*
X126309061Y-50954000D01*
X126109102Y-50993774D01*
X125920744Y-51071795D01*
X125751226Y-51185063D01*
X125607063Y-51329226D01*
X125493795Y-51498744D01*
X125415774Y-51687102D01*
X125376000Y-51887061D01*
X125376000Y-52090939D01*
X125415774Y-52290898D01*
X125493795Y-52479256D01*
X125516500Y-52513236D01*
X125504747Y-52506954D01*
X125361486Y-52463497D01*
X125249833Y-52452500D01*
X125249822Y-52452500D01*
X125212500Y-52448824D01*
X125175178Y-52452500D01*
X125085030Y-52452500D01*
X124977962Y-52322038D01*
X124951109Y-52300000D01*
X124977962Y-52277962D01*
X125088405Y-52143387D01*
X125170472Y-51989851D01*
X125221008Y-51823255D01*
X125238072Y-51650001D01*
X125238072Y-51124999D01*
X125238003Y-51124299D01*
X125861003Y-50501299D01*
X125890001Y-50477501D01*
X125984974Y-50361776D01*
X125997960Y-50337482D01*
X126104494Y-50280537D01*
X126201185Y-50201185D01*
X126280537Y-50104494D01*
X126339502Y-49994180D01*
X126375812Y-49874482D01*
X126388072Y-49750000D01*
X126388072Y-48850000D01*
X126375812Y-48725518D01*
X126339502Y-48605820D01*
X126280537Y-48495506D01*
X126201185Y-48398815D01*
X126104494Y-48319463D01*
X125994180Y-48260498D01*
X125874482Y-48224188D01*
X125750000Y-48211928D01*
X125238095Y-48211928D01*
X125251185Y-48201185D01*
X125330537Y-48104494D01*
X125389502Y-47994180D01*
X125425812Y-47874482D01*
X125438072Y-47750000D01*
X125438072Y-46850000D01*
X125425812Y-46725518D01*
X125389502Y-46605820D01*
X125330537Y-46495506D01*
X125310485Y-46471072D01*
X125850001Y-46471072D01*
X126023255Y-46454008D01*
X126189851Y-46403472D01*
X126250417Y-46371099D01*
X126250997Y-46376986D01*
X126294454Y-46520247D01*
X126365026Y-46652276D01*
X126459999Y-46768001D01*
X126575724Y-46862974D01*
X126707753Y-46933546D01*
X126851014Y-46977003D01*
X126962667Y-46988000D01*
X127000000Y-46991677D01*
X127037333Y-46988000D01*
X130485893Y-46988000D01*
X130625368Y-47127475D01*
X130807534Y-47249195D01*
X130690645Y-47318822D01*
X130474412Y-47513731D01*
X130300359Y-47747080D01*
X130175175Y-48009901D01*
X130130524Y-48157110D01*
X130251845Y-48387000D01*
X131445000Y-48387000D01*
X131445000Y-48367000D01*
X131699000Y-48367000D01*
X131699000Y-48387000D01*
X132892155Y-48387000D01*
X133013476Y-48157110D01*
X132968825Y-48009901D01*
X132843641Y-47747080D01*
X132669588Y-47513731D01*
X132453355Y-47318822D01*
X132336466Y-47249195D01*
X132518632Y-47127475D01*
X132725475Y-46920632D01*
X132887990Y-46677411D01*
X132999932Y-46407158D01*
X133057000Y-46120260D01*
X133057000Y-45827740D01*
X132999932Y-45540842D01*
X132887990Y-45270589D01*
X132725475Y-45027368D01*
X132593620Y-44895513D01*
X132661241Y-44875000D01*
X134311928Y-44875000D01*
X134315000Y-46889250D01*
X134473750Y-47048000D01*
X135373000Y-47048000D01*
X135373000Y-44398750D01*
X135214250Y-44240000D01*
X134950000Y-44236928D01*
X134825518Y-44249188D01*
X134705820Y-44285498D01*
X134595506Y-44344463D01*
X134498815Y-44423815D01*
X134419463Y-44520506D01*
X134360498Y-44630820D01*
X134324188Y-44750518D01*
X134311928Y-44875000D01*
X132661241Y-44875000D01*
X132666180Y-44873502D01*
X132776494Y-44814537D01*
X132873185Y-44735185D01*
X132952537Y-44638494D01*
X133011502Y-44528180D01*
X133047812Y-44408482D01*
X133060072Y-44284000D01*
X133060072Y-43185423D01*
X133145506Y-43255537D01*
X133255820Y-43314502D01*
X133375518Y-43350812D01*
X133500000Y-43363072D01*
X138614250Y-43360000D01*
X138773000Y-43201250D01*
X138773000Y-38152000D01*
X139027000Y-38152000D01*
X139027000Y-43201250D01*
X139185750Y-43360000D01*
X144300000Y-43363072D01*
X144424482Y-43350812D01*
X144544180Y-43314502D01*
X144654494Y-43255537D01*
X144751185Y-43176185D01*
X144830537Y-43079494D01*
X144889502Y-42969180D01*
X144925812Y-42849482D01*
X144938072Y-42725000D01*
X144937712Y-42206653D01*
X149287952Y-42206653D01*
X149443962Y-42522214D01*
X149818745Y-42713020D01*
X150223551Y-42827044D01*
X150642824Y-42859902D01*
X151060451Y-42810334D01*
X151460383Y-42680243D01*
X151756038Y-42522214D01*
X151912048Y-42206653D01*
X150600000Y-40894605D01*
X149287952Y-42206653D01*
X144937712Y-42206653D01*
X144936703Y-40757824D01*
X148455098Y-40757824D01*
X148504666Y-41175451D01*
X148634757Y-41575383D01*
X148792786Y-41871038D01*
X149108347Y-42027048D01*
X150420395Y-40715000D01*
X149108347Y-39402952D01*
X148792786Y-39558962D01*
X148601980Y-39933745D01*
X148487956Y-40338551D01*
X148455098Y-40757824D01*
X144936703Y-40757824D01*
X144935636Y-39223347D01*
X149287952Y-39223347D01*
X150600000Y-40535395D01*
X150614143Y-40521253D01*
X150793748Y-40700858D01*
X150779605Y-40715000D01*
X152091653Y-42027048D01*
X152407214Y-41871038D01*
X152598020Y-41496255D01*
X152712044Y-41091449D01*
X152740414Y-40729443D01*
X152990782Y-40833149D01*
X153427409Y-40920000D01*
X153872591Y-40920000D01*
X154309218Y-40833149D01*
X154720511Y-40662786D01*
X155090666Y-40415456D01*
X155405456Y-40100666D01*
X155652786Y-39730511D01*
X155823149Y-39319218D01*
X155910000Y-38882591D01*
X155910000Y-38437409D01*
X155823149Y-38000782D01*
X155652786Y-37589489D01*
X155405456Y-37219334D01*
X155090666Y-36904544D01*
X154720511Y-36657214D01*
X154309218Y-36486851D01*
X153872591Y-36400000D01*
X153427409Y-36400000D01*
X152990782Y-36486851D01*
X152579489Y-36657214D01*
X152209334Y-36904544D01*
X151894544Y-37219334D01*
X151647214Y-37589489D01*
X151476851Y-38000782D01*
X151390000Y-38437409D01*
X151390000Y-38721432D01*
X151381255Y-38716980D01*
X150976449Y-38602956D01*
X150557176Y-38570098D01*
X150139549Y-38619666D01*
X149739617Y-38749757D01*
X149443962Y-38907786D01*
X149287952Y-39223347D01*
X144935636Y-39223347D01*
X144935000Y-38310750D01*
X144776250Y-38152000D01*
X139027000Y-38152000D01*
X138773000Y-38152000D01*
X133023750Y-38152000D01*
X132865000Y-38310750D01*
X132862346Y-42123920D01*
X132776494Y-42053463D01*
X132666180Y-41994498D01*
X132546482Y-41958188D01*
X132422000Y-41945928D01*
X130722000Y-41945928D01*
X130597518Y-41958188D01*
X130477820Y-41994498D01*
X130367506Y-42053463D01*
X130270815Y-42132815D01*
X130191463Y-42229506D01*
X130132498Y-42339820D01*
X130096188Y-42459518D01*
X130083928Y-42584000D01*
X130083928Y-42674000D01*
X130023822Y-42674000D01*
X129986499Y-42670324D01*
X129949176Y-42674000D01*
X129949167Y-42674000D01*
X129837514Y-42684997D01*
X129694253Y-42728454D01*
X129562224Y-42799026D01*
X129562222Y-42799027D01*
X129562223Y-42799027D01*
X129475496Y-42870201D01*
X129475492Y-42870205D01*
X129446499Y-42893999D01*
X129422705Y-42922992D01*
X128889493Y-43456204D01*
X128775001Y-43444928D01*
X128149999Y-43444928D01*
X127976745Y-43461992D01*
X127810149Y-43512528D01*
X127671741Y-43586509D01*
X127634974Y-43517724D01*
X127540001Y-43401999D01*
X127511003Y-43378202D01*
X127055803Y-42923002D01*
X127032001Y-42893999D01*
X126916276Y-42799026D01*
X126796494Y-42735000D01*
X126945505Y-42735000D01*
X127329003Y-42658718D01*
X127690250Y-42509085D01*
X128015364Y-42291851D01*
X128291851Y-42015364D01*
X128509085Y-41690250D01*
X128658718Y-41329003D01*
X128735000Y-40945505D01*
X128735000Y-40554495D01*
X128658718Y-40170997D01*
X128509085Y-39809750D01*
X128291851Y-39484636D01*
X128015364Y-39208149D01*
X127690250Y-38990915D01*
X127329003Y-38841282D01*
X126945505Y-38765000D01*
X126554495Y-38765000D01*
X126170997Y-38841282D01*
X125809750Y-38990915D01*
X125484636Y-39208149D01*
X125208149Y-39484636D01*
X124990915Y-39809750D01*
X124841282Y-40170997D01*
X124765000Y-40554495D01*
X124765000Y-40945505D01*
X124841282Y-41329003D01*
X124990915Y-41690250D01*
X125208149Y-42015364D01*
X125484636Y-42291851D01*
X125809750Y-42509085D01*
X126170997Y-42658718D01*
X126247825Y-42674000D01*
X124181822Y-42674000D01*
X124144499Y-42670324D01*
X124107176Y-42674000D01*
X124107167Y-42674000D01*
X123995514Y-42684997D01*
X123852253Y-42728454D01*
X123720224Y-42799026D01*
X123720222Y-42799027D01*
X123720223Y-42799027D01*
X123633496Y-42870201D01*
X123633492Y-42870205D01*
X123604499Y-42893999D01*
X123580705Y-42922992D01*
X123047493Y-43456204D01*
X122933001Y-43444928D01*
X122307999Y-43444928D01*
X122134745Y-43461992D01*
X121968149Y-43512528D01*
X121814613Y-43594595D01*
X121680038Y-43705038D01*
X121569595Y-43839613D01*
X121487528Y-43993149D01*
X121436992Y-44159745D01*
X121419928Y-44332999D01*
X121419928Y-45583001D01*
X121436992Y-45756255D01*
X121487528Y-45922851D01*
X121569595Y-46076387D01*
X121680038Y-46210962D01*
X121814613Y-46321405D01*
X121968149Y-46403472D01*
X122134745Y-46454008D01*
X122307999Y-46471072D01*
X122933001Y-46471072D01*
X123106255Y-46454008D01*
X123272851Y-46403472D01*
X123426387Y-46321405D01*
X123560962Y-46210962D01*
X123638402Y-46116601D01*
X123640001Y-46132832D01*
X123640001Y-46323981D01*
X123548815Y-46398815D01*
X123469463Y-46495506D01*
X123410498Y-46605820D01*
X123374188Y-46725518D01*
X123361928Y-46850000D01*
X123361928Y-47750000D01*
X123374188Y-47874482D01*
X123410498Y-47994180D01*
X123469463Y-48104494D01*
X123548815Y-48201185D01*
X123561905Y-48211928D01*
X123436729Y-48211928D01*
X123213803Y-47989002D01*
X123190001Y-47959999D01*
X123074276Y-47865026D01*
X122942247Y-47794454D01*
X122798986Y-47750997D01*
X122687333Y-47740000D01*
X122687322Y-47740000D01*
X122650000Y-47736324D01*
X122612678Y-47740000D01*
X120338072Y-47740000D01*
X120338072Y-47314561D01*
X120401046Y-47196747D01*
X120444503Y-47053486D01*
X120455500Y-46941833D01*
X120455500Y-46941824D01*
X120459176Y-46904501D01*
X120455500Y-46867178D01*
X120455500Y-46345932D01*
X120501387Y-46321405D01*
X120635962Y-46210962D01*
X120746405Y-46076387D01*
X120828472Y-45922851D01*
X120879008Y-45756255D01*
X120896072Y-45583001D01*
X120896072Y-44332999D01*
X120879008Y-44159745D01*
X120828472Y-43993149D01*
X120746405Y-43839613D01*
X120635962Y-43705038D01*
X120501387Y-43594595D01*
X120347851Y-43512528D01*
X120181255Y-43461992D01*
X120008001Y-43444928D01*
X119382999Y-43444928D01*
X119209745Y-43461992D01*
X119043149Y-43512528D01*
X118889613Y-43594595D01*
X118755038Y-43705038D01*
X118644595Y-43839613D01*
X118562528Y-43993149D01*
X118511992Y-44159745D01*
X118494928Y-44332999D01*
X118494928Y-45583001D01*
X118511992Y-45756255D01*
X118562528Y-45922851D01*
X118644595Y-46076387D01*
X118755038Y-46210962D01*
X118772332Y-46225155D01*
X118655820Y-46260498D01*
X118545506Y-46319463D01*
X118448815Y-46398815D01*
X118369463Y-46495506D01*
X118310498Y-46605820D01*
X118274188Y-46725518D01*
X118261928Y-46850000D01*
X118261928Y-47750000D01*
X118274188Y-47874482D01*
X118310498Y-47994180D01*
X118352479Y-48072719D01*
X118213270Y-48211928D01*
X117950000Y-48211928D01*
X117825518Y-48224188D01*
X117705820Y-48260498D01*
X117595506Y-48319463D01*
X117498815Y-48398815D01*
X117419463Y-48495506D01*
X117360498Y-48605820D01*
X117324188Y-48725518D01*
X117311928Y-48850000D01*
X117311928Y-49750000D01*
X117324188Y-49874482D01*
X117360498Y-49994180D01*
X117419463Y-50104494D01*
X117498815Y-50201185D01*
X117595506Y-50280537D01*
X117705820Y-50339502D01*
X117825518Y-50375812D01*
X117950000Y-50388072D01*
X118313271Y-50388072D01*
X118714990Y-50789792D01*
X118714991Y-53210207D01*
X117874995Y-54050204D01*
X117803418Y-54071916D01*
X117667171Y-54144742D01*
X117547749Y-54242749D01*
X117449742Y-54362171D01*
X117376916Y-54498418D01*
X117332071Y-54646255D01*
X117316928Y-54800000D01*
X117316928Y-56250000D01*
X117332071Y-56403745D01*
X117376916Y-56551582D01*
X117449742Y-56687829D01*
X117547749Y-56807251D01*
X117667171Y-56905258D01*
X117803418Y-56978084D01*
X117951255Y-57022929D01*
X118105000Y-57038072D01*
X118405000Y-57038072D01*
X118558745Y-57022929D01*
X118706582Y-56978084D01*
X118842829Y-56905258D01*
X118890000Y-56866546D01*
X118937171Y-56905258D01*
X119073418Y-56978084D01*
X119221255Y-57022929D01*
X119375000Y-57038072D01*
X119675000Y-57038072D01*
X119828745Y-57022929D01*
X119976582Y-56978084D01*
X120112829Y-56905258D01*
X120160000Y-56866546D01*
X120207171Y-56905258D01*
X120343418Y-56978084D01*
X120491255Y-57022929D01*
X120645000Y-57038072D01*
X120945000Y-57038072D01*
X121098745Y-57022929D01*
X121246582Y-56978084D01*
X121382829Y-56905258D01*
X121430000Y-56866546D01*
X121477171Y-56905258D01*
X121613418Y-56978084D01*
X121761255Y-57022929D01*
X121915000Y-57038072D01*
X122215000Y-57038072D01*
X122368745Y-57022929D01*
X122516582Y-56978084D01*
X122652829Y-56905258D01*
X122700000Y-56866546D01*
X122747171Y-56905258D01*
X122883418Y-56978084D01*
X123031255Y-57022929D01*
X123185000Y-57038072D01*
X123485000Y-57038072D01*
X123638745Y-57022929D01*
X123786582Y-56978084D01*
X123922829Y-56905258D01*
X123970000Y-56866546D01*
X124017171Y-56905258D01*
X124153418Y-56978084D01*
X124301255Y-57022929D01*
X124455000Y-57038072D01*
X124755000Y-57038072D01*
X124908745Y-57022929D01*
X125056582Y-56978084D01*
X125192829Y-56905258D01*
X125240000Y-56866546D01*
X125287171Y-56905258D01*
X125423418Y-56978084D01*
X125571255Y-57022929D01*
X125725000Y-57038072D01*
X126025000Y-57038072D01*
X126178745Y-57022929D01*
X126326582Y-56978084D01*
X126462829Y-56905258D01*
X126510000Y-56866546D01*
X126557171Y-56905258D01*
X126693418Y-56978084D01*
X126841255Y-57022929D01*
X126995000Y-57038072D01*
X127295000Y-57038072D01*
X127448745Y-57022929D01*
X127596582Y-56978084D01*
X127732829Y-56905258D01*
X127852251Y-56807251D01*
X127950258Y-56687829D01*
X128023084Y-56551582D01*
X128067929Y-56403745D01*
X128083072Y-56250000D01*
X128083072Y-56195361D01*
X128149276Y-56159974D01*
X128265001Y-56065001D01*
X128288804Y-56035997D01*
X130011004Y-54313798D01*
X130040001Y-54290001D01*
X130078780Y-54242749D01*
X130134974Y-54174277D01*
X130205546Y-54042247D01*
X130207437Y-54036014D01*
X130249003Y-53898986D01*
X130260000Y-53787333D01*
X130260000Y-53787324D01*
X130263676Y-53750001D01*
X130260000Y-53712678D01*
X130260000Y-52808702D01*
X130906903Y-52808702D01*
X130978486Y-53052671D01*
X131233996Y-53173571D01*
X131508184Y-53242300D01*
X131790512Y-53256217D01*
X132070130Y-53214787D01*
X132336292Y-53119603D01*
X132461514Y-53052671D01*
X132533097Y-52808702D01*
X131720000Y-51995605D01*
X130906903Y-52808702D01*
X130260000Y-52808702D01*
X130260000Y-51234999D01*
X130407379Y-51234999D01*
X130362429Y-51329996D01*
X130293700Y-51604184D01*
X130279783Y-51886512D01*
X130321213Y-52166130D01*
X130416397Y-52432292D01*
X130483329Y-52557514D01*
X130727298Y-52629097D01*
X131540395Y-51816000D01*
X131526253Y-51801858D01*
X131705858Y-51622253D01*
X131720000Y-51636395D01*
X131734143Y-51622253D01*
X131913748Y-51801858D01*
X131899605Y-51816000D01*
X132712702Y-52629097D01*
X132956671Y-52557514D01*
X133077571Y-52302004D01*
X133103212Y-52199711D01*
X133110147Y-52234574D01*
X133218320Y-52495727D01*
X133375363Y-52730759D01*
X133575241Y-52930637D01*
X133810273Y-53087680D01*
X134071426Y-53195853D01*
X134348665Y-53251000D01*
X134631335Y-53251000D01*
X134908574Y-53195853D01*
X135169727Y-53087680D01*
X135363444Y-52958243D01*
X135403338Y-52998137D01*
X135195273Y-53084320D01*
X134960241Y-53241363D01*
X134760363Y-53441241D01*
X134603320Y-53676273D01*
X134495147Y-53937426D01*
X134490000Y-53963301D01*
X134484853Y-53937426D01*
X134376680Y-53676273D01*
X134219637Y-53441241D01*
X134019759Y-53241363D01*
X133784727Y-53084320D01*
X133523574Y-52976147D01*
X133246335Y-52921000D01*
X132963665Y-52921000D01*
X132686426Y-52976147D01*
X132425273Y-53084320D01*
X132190241Y-53241363D01*
X131990363Y-53441241D01*
X131833320Y-53676273D01*
X131725147Y-53937426D01*
X131670000Y-54214665D01*
X131670000Y-54497335D01*
X131725147Y-54774574D01*
X131833320Y-55035727D01*
X131990363Y-55270759D01*
X132190241Y-55470637D01*
X132425273Y-55627680D01*
X132686426Y-55735853D01*
X132963665Y-55791000D01*
X133246335Y-55791000D01*
X133523574Y-55735853D01*
X133784727Y-55627680D01*
X134019759Y-55470637D01*
X134219637Y-55270759D01*
X134376680Y-55035727D01*
X134484853Y-54774574D01*
X134490000Y-54748699D01*
X134495147Y-54774574D01*
X134603320Y-55035727D01*
X134760363Y-55270759D01*
X134960241Y-55470637D01*
X135195273Y-55627680D01*
X135456426Y-55735853D01*
X135733665Y-55791000D01*
X136016335Y-55791000D01*
X136293574Y-55735853D01*
X136554727Y-55627680D01*
X136789759Y-55470637D01*
X136989637Y-55270759D01*
X137146680Y-55035727D01*
X137254853Y-54774574D01*
X137260000Y-54748699D01*
X137265147Y-54774574D01*
X137373320Y-55035727D01*
X137530363Y-55270759D01*
X137730241Y-55470637D01*
X137965273Y-55627680D01*
X138226426Y-55735853D01*
X138503665Y-55791000D01*
X138786335Y-55791000D01*
X139063574Y-55735853D01*
X139324727Y-55627680D01*
X139559759Y-55470637D01*
X139759637Y-55270759D01*
X139916680Y-55035727D01*
X140024853Y-54774574D01*
X140030000Y-54748699D01*
X140035147Y-54774574D01*
X140143320Y-55035727D01*
X140300363Y-55270759D01*
X140500241Y-55470637D01*
X140655000Y-55574044D01*
X140655001Y-59377668D01*
X140651324Y-59415000D01*
X140655001Y-59452333D01*
X140665998Y-59563986D01*
X140679180Y-59607442D01*
X140709454Y-59707246D01*
X140780026Y-59839276D01*
X140817530Y-59884974D01*
X140875000Y-59955001D01*
X140903998Y-59978799D01*
X142936201Y-62011003D01*
X142959999Y-62040001D01*
X143075724Y-62134974D01*
X143207753Y-62205546D01*
X143351014Y-62249003D01*
X143462667Y-62260000D01*
X143462676Y-62260000D01*
X143499999Y-62263676D01*
X143537322Y-62260000D01*
X148458463Y-62260000D01*
X148480013Y-62292252D01*
X148707748Y-62519987D01*
X148975537Y-62698918D01*
X149273088Y-62822168D01*
X149588967Y-62885000D01*
X149911033Y-62885000D01*
X150226912Y-62822168D01*
X150524463Y-62698918D01*
X150792252Y-62519987D01*
X151019987Y-62292252D01*
X151198918Y-62024463D01*
X151322168Y-61726912D01*
X151385000Y-61411033D01*
X151385000Y-61200000D01*
X153324428Y-61200000D01*
X153336688Y-61324482D01*
X153372998Y-61444180D01*
X153431963Y-61554494D01*
X153511315Y-61651185D01*
X153608006Y-61730537D01*
X153718320Y-61789502D01*
X153838018Y-61825812D01*
X153962500Y-61838072D01*
X154189250Y-61835000D01*
X154348000Y-61676250D01*
X154348000Y-60627000D01*
X153486250Y-60627000D01*
X153327500Y-60785750D01*
X153324428Y-61200000D01*
X151385000Y-61200000D01*
X151385000Y-61088967D01*
X151322168Y-60773088D01*
X151198918Y-60475537D01*
X151019987Y-60207748D01*
X150822239Y-60010000D01*
X153325985Y-60010000D01*
X153327500Y-60214250D01*
X153486250Y-60373000D01*
X154348000Y-60373000D01*
X154348000Y-60353000D01*
X154602000Y-60353000D01*
X154602000Y-60373000D01*
X154622000Y-60373000D01*
X154622000Y-60627000D01*
X154602000Y-60627000D01*
X154602000Y-61676250D01*
X154760750Y-61835000D01*
X154987500Y-61838072D01*
X155111982Y-61825812D01*
X155231680Y-61789502D01*
X155341994Y-61730537D01*
X155438685Y-61651185D01*
X155462863Y-61621724D01*
X155544113Y-61688405D01*
X155697649Y-61770472D01*
X155864245Y-61821008D01*
X156037499Y-61838072D01*
X156562501Y-61838072D01*
X156735755Y-61821008D01*
X156902351Y-61770472D01*
X157055887Y-61688405D01*
X157190462Y-61577962D01*
X157300905Y-61443387D01*
X157382972Y-61289851D01*
X157392027Y-61260000D01*
X159062678Y-61260000D01*
X159100000Y-61263676D01*
X159137322Y-61260000D01*
X159137333Y-61260000D01*
X159248986Y-61249003D01*
X159392247Y-61205546D01*
X159524276Y-61134974D01*
X159640001Y-61040001D01*
X159663804Y-61010997D01*
X161608625Y-59066177D01*
X161623088Y-59072168D01*
X161938967Y-59135000D01*
X162261033Y-59135000D01*
X162576912Y-59072168D01*
X162874463Y-58948918D01*
X163142252Y-58769987D01*
X163369987Y-58542252D01*
X163548918Y-58274463D01*
X163672168Y-57976912D01*
X163735000Y-57661033D01*
X163735000Y-57338967D01*
X163672168Y-57023088D01*
X163548918Y-56725537D01*
X163369987Y-56457748D01*
X163142252Y-56230013D01*
X162874463Y-56051082D01*
X162576912Y-55927832D01*
X162261033Y-55865000D01*
X161938967Y-55865000D01*
X161623088Y-55927832D01*
X161325537Y-56051082D01*
X161057748Y-56230013D01*
X160830013Y-56457748D01*
X160651082Y-56725537D01*
X160527832Y-57023088D01*
X160465000Y-57338967D01*
X160465000Y-57661033D01*
X160527832Y-57976912D01*
X160533823Y-57991375D01*
X158785199Y-59740000D01*
X157392027Y-59740000D01*
X157382972Y-59710149D01*
X157300905Y-59556613D01*
X157190462Y-59422038D01*
X157055887Y-59311595D01*
X157015297Y-59289899D01*
X157005546Y-59257753D01*
X156934974Y-59125724D01*
X156840001Y-59009999D01*
X156810998Y-58986197D01*
X156563804Y-58739003D01*
X156540001Y-58709999D01*
X156424276Y-58615026D01*
X156292247Y-58544454D01*
X156148986Y-58500997D01*
X156138072Y-58499922D01*
X156138072Y-56936729D01*
X158011004Y-55063798D01*
X158040001Y-55040001D01*
X158134974Y-54924276D01*
X158205546Y-54792247D01*
X158249003Y-54648986D01*
X158260000Y-54537333D01*
X158260000Y-54537325D01*
X158263676Y-54500000D01*
X158260000Y-54462675D01*
X158260000Y-49260000D01*
X160615000Y-49260000D01*
X160615000Y-49411033D01*
X160677832Y-49726912D01*
X160801082Y-50024463D01*
X160980013Y-50292252D01*
X161207748Y-50519987D01*
X161475537Y-50698918D01*
X161773088Y-50822168D01*
X162088967Y-50885000D01*
X162411033Y-50885000D01*
X162726912Y-50822168D01*
X163024463Y-50698918D01*
X163292252Y-50519987D01*
X163519987Y-50292252D01*
X163698918Y-50024463D01*
X163822168Y-49726912D01*
X163840000Y-49637262D01*
X163840000Y-63340000D01*
X117160000Y-63340000D01*
X117160000Y-61550000D01*
X117316928Y-61550000D01*
X117329188Y-61674482D01*
X117365498Y-61794180D01*
X117424463Y-61904494D01*
X117503815Y-62001185D01*
X117600506Y-62080537D01*
X117710820Y-62139502D01*
X117830518Y-62175812D01*
X117955000Y-62188072D01*
X117969250Y-62185000D01*
X118128000Y-62026250D01*
X118128000Y-60802000D01*
X117478750Y-60802000D01*
X117320000Y-60960750D01*
X117316928Y-61550000D01*
X117160000Y-61550000D01*
X117160000Y-59800000D01*
X117316928Y-59800000D01*
X117320000Y-60389250D01*
X117478750Y-60548000D01*
X118128000Y-60548000D01*
X118128000Y-59323750D01*
X118382000Y-59323750D01*
X118382000Y-60548000D01*
X118402000Y-60548000D01*
X118402000Y-60802000D01*
X118382000Y-60802000D01*
X118382000Y-62026250D01*
X118540750Y-62185000D01*
X118555000Y-62188072D01*
X118679482Y-62175812D01*
X118799180Y-62139502D01*
X118909494Y-62080537D01*
X118939064Y-62056270D01*
X119073418Y-62128084D01*
X119221255Y-62172929D01*
X119375000Y-62188072D01*
X119675000Y-62188072D01*
X119828745Y-62172929D01*
X119976582Y-62128084D01*
X120112829Y-62055258D01*
X120160000Y-62016546D01*
X120207171Y-62055258D01*
X120343418Y-62128084D01*
X120491255Y-62172929D01*
X120645000Y-62188072D01*
X120945000Y-62188072D01*
X121098745Y-62172929D01*
X121246582Y-62128084D01*
X121382829Y-62055258D01*
X121430000Y-62016546D01*
X121477171Y-62055258D01*
X121613418Y-62128084D01*
X121761255Y-62172929D01*
X121915000Y-62188072D01*
X122215000Y-62188072D01*
X122368745Y-62172929D01*
X122516582Y-62128084D01*
X122652829Y-62055258D01*
X122700000Y-62016546D01*
X122747171Y-62055258D01*
X122883418Y-62128084D01*
X123031255Y-62172929D01*
X123185000Y-62188072D01*
X123485000Y-62188072D01*
X123638745Y-62172929D01*
X123786582Y-62128084D01*
X123922829Y-62055258D01*
X123970000Y-62016546D01*
X124017171Y-62055258D01*
X124051582Y-62073651D01*
X124065000Y-62090001D01*
X124093998Y-62113799D01*
X124941210Y-62961012D01*
X124965008Y-62990010D01*
X124994006Y-63013808D01*
X125080732Y-63084983D01*
X125212762Y-63155555D01*
X125356023Y-63199012D01*
X125467676Y-63210009D01*
X125467686Y-63210009D01*
X125505009Y-63213685D01*
X125542332Y-63210009D01*
X127515847Y-63210009D01*
X127553169Y-63213685D01*
X127590491Y-63210009D01*
X127590502Y-63210009D01*
X127702155Y-63199012D01*
X127845416Y-63155555D01*
X127977445Y-63084983D01*
X128093170Y-62990010D01*
X128116973Y-62961006D01*
X130511004Y-60566976D01*
X130540001Y-60543179D01*
X130634974Y-60427454D01*
X130705546Y-60295425D01*
X130749003Y-60152164D01*
X130760000Y-60040511D01*
X130760000Y-60040510D01*
X130763677Y-60003178D01*
X130760000Y-59965845D01*
X130760000Y-58537332D01*
X130763677Y-58500000D01*
X130760000Y-58462667D01*
X130760000Y-57453711D01*
X130803937Y-57409774D01*
X130917205Y-57240256D01*
X130995226Y-57051898D01*
X131035000Y-56851939D01*
X131035000Y-56648061D01*
X130995226Y-56448102D01*
X130917205Y-56259744D01*
X130803937Y-56090226D01*
X130659774Y-55946063D01*
X130490256Y-55832795D01*
X130301898Y-55754774D01*
X130101939Y-55715000D01*
X129898061Y-55715000D01*
X129698102Y-55754774D01*
X129509744Y-55832795D01*
X129340226Y-55946063D01*
X129196063Y-56090226D01*
X129082795Y-56259744D01*
X129004774Y-56448102D01*
X128965000Y-56648061D01*
X128965000Y-56851939D01*
X128987489Y-56965000D01*
X128898061Y-56965000D01*
X128698102Y-57004774D01*
X128509744Y-57082795D01*
X128340226Y-57196063D01*
X128196063Y-57340226D01*
X128111430Y-57466888D01*
X128101939Y-57465000D01*
X127898061Y-57465000D01*
X127698102Y-57504774D01*
X127509744Y-57582795D01*
X127340226Y-57696063D01*
X127196063Y-57840226D01*
X127082795Y-58009744D01*
X127004774Y-58198102D01*
X126965000Y-58398061D01*
X126965000Y-58601939D01*
X127004774Y-58801898D01*
X127082795Y-58990256D01*
X127196063Y-59159774D01*
X127198217Y-59161928D01*
X126995000Y-59161928D01*
X126841255Y-59177071D01*
X126693418Y-59221916D01*
X126557171Y-59294742D01*
X126510000Y-59333454D01*
X126462829Y-59294742D01*
X126326582Y-59221916D01*
X126178745Y-59177071D01*
X126025000Y-59161928D01*
X125725000Y-59161928D01*
X125571255Y-59177071D01*
X125423418Y-59221916D01*
X125287171Y-59294742D01*
X125240000Y-59333454D01*
X125192829Y-59294742D01*
X125056582Y-59221916D01*
X124908745Y-59177071D01*
X124755000Y-59161928D01*
X124455000Y-59161928D01*
X124301255Y-59177071D01*
X124153418Y-59221916D01*
X124017171Y-59294742D01*
X123970000Y-59333454D01*
X123922829Y-59294742D01*
X123786582Y-59221916D01*
X123638745Y-59177071D01*
X123485000Y-59161928D01*
X123185000Y-59161928D01*
X123031255Y-59177071D01*
X122883418Y-59221916D01*
X122747171Y-59294742D01*
X122700000Y-59333454D01*
X122652829Y-59294742D01*
X122516582Y-59221916D01*
X122368745Y-59177071D01*
X122215000Y-59161928D01*
X121915000Y-59161928D01*
X121761255Y-59177071D01*
X121613418Y-59221916D01*
X121477171Y-59294742D01*
X121430000Y-59333454D01*
X121382829Y-59294742D01*
X121246582Y-59221916D01*
X121098745Y-59177071D01*
X120945000Y-59161928D01*
X120645000Y-59161928D01*
X120491255Y-59177071D01*
X120343418Y-59221916D01*
X120207171Y-59294742D01*
X120160000Y-59333454D01*
X120112829Y-59294742D01*
X119976582Y-59221916D01*
X119828745Y-59177071D01*
X119675000Y-59161928D01*
X119375000Y-59161928D01*
X119221255Y-59177071D01*
X119073418Y-59221916D01*
X118939064Y-59293730D01*
X118909494Y-59269463D01*
X118799180Y-59210498D01*
X118679482Y-59174188D01*
X118555000Y-59161928D01*
X118540750Y-59165000D01*
X118382000Y-59323750D01*
X118128000Y-59323750D01*
X117969250Y-59165000D01*
X117955000Y-59161928D01*
X117830518Y-59174188D01*
X117710820Y-59210498D01*
X117600506Y-59269463D01*
X117503815Y-59348815D01*
X117424463Y-59445506D01*
X117365498Y-59555820D01*
X117329188Y-59675518D01*
X117316928Y-59800000D01*
X117160000Y-59800000D01*
X117160000Y-44590246D01*
X132861986Y-33408529D01*
X132865000Y-37739250D01*
X133023750Y-37898000D01*
X138773000Y-37898000D01*
X138773000Y-37878000D01*
X139027000Y-37878000D01*
X139027000Y-37898000D01*
X144776250Y-37898000D01*
X144935000Y-37739250D01*
X144938072Y-33325000D01*
X144925812Y-33200518D01*
X144913521Y-33160000D01*
X144967581Y-33160000D01*
X145000000Y-33163193D01*
X145032419Y-33160000D01*
X145129383Y-33150450D01*
X145253793Y-33112710D01*
X145368450Y-33051425D01*
X145468948Y-32968948D01*
X145551425Y-32868450D01*
X145612710Y-32753793D01*
X145650450Y-32629383D01*
X145663193Y-32500000D01*
X145660000Y-32467581D01*
X145660000Y-23660000D01*
X149081914Y-23660000D01*
X148993653Y-23748261D01*
G37*
%TD.AperFunction*%
%TD*%
M02*
