%TF.GenerationSoftware,KiCad,Pcbnew,5.1.9*%
%TF.CreationDate,2021-02-24T23:37:06+01:00*%
%TF.ProjectId,qr_reader,71725f72-6561-4646-9572-2e6b69636164,rev?*%
%TF.SameCoordinates,Original*%
%TF.FileFunction,Soldermask,Bot*%
%TF.FilePolarity,Negative*%
%FSLAX46Y46*%
G04 Gerber Fmt 4.6, Leading zero omitted, Abs format (unit mm)*
G04 Created by KiCad (PCBNEW 5.1.9) date 2021-02-24 23:37:06*
%MOMM*%
%LPD*%
G01*
G04 APERTURE LIST*
%ADD10C,2.700000*%
%ADD11C,1.600000*%
%ADD12R,1.600000X1.600000*%
%ADD13R,10.800000X9.400000*%
%ADD14R,1.100000X4.600000*%
%ADD15R,0.800000X0.900000*%
%ADD16C,1.500000*%
%ADD17C,3.000000*%
%ADD18R,1.500000X1.500000*%
%ADD19C,3.250000*%
%ADD20C,2.000000*%
%ADD21R,1.700000X1.700000*%
%ADD22O,1.700000X1.700000*%
%ADD23R,2.000000X2.000000*%
G04 APERTURE END LIST*
D10*
%TO.C,H1*%
X126750000Y-40750000D03*
%TD*%
D11*
%TO.C,J2*%
X133105000Y-54356000D03*
X135875000Y-54356000D03*
X138645000Y-54356000D03*
X141415000Y-54356000D03*
X131720000Y-51816000D03*
X134490000Y-51816000D03*
X137260000Y-51816000D03*
X140030000Y-51816000D03*
D12*
X142800000Y-51816000D03*
%TD*%
D13*
%TO.C,U2*%
X138900000Y-38025000D03*
D14*
X135500000Y-47175000D03*
X137200000Y-47175000D03*
X138900000Y-47175000D03*
X140600000Y-47175000D03*
X142300000Y-47175000D03*
%TD*%
%TO.C,U1*%
G36*
G01*
X127295000Y-56400000D02*
X126995000Y-56400000D01*
G75*
G02*
X126845000Y-56250000I0J150000D01*
G01*
X126845000Y-54800000D01*
G75*
G02*
X126995000Y-54650000I150000J0D01*
G01*
X127295000Y-54650000D01*
G75*
G02*
X127445000Y-54800000I0J-150000D01*
G01*
X127445000Y-56250000D01*
G75*
G02*
X127295000Y-56400000I-150000J0D01*
G01*
G37*
G36*
G01*
X126025000Y-56400000D02*
X125725000Y-56400000D01*
G75*
G02*
X125575000Y-56250000I0J150000D01*
G01*
X125575000Y-54800000D01*
G75*
G02*
X125725000Y-54650000I150000J0D01*
G01*
X126025000Y-54650000D01*
G75*
G02*
X126175000Y-54800000I0J-150000D01*
G01*
X126175000Y-56250000D01*
G75*
G02*
X126025000Y-56400000I-150000J0D01*
G01*
G37*
G36*
G01*
X124755000Y-56400000D02*
X124455000Y-56400000D01*
G75*
G02*
X124305000Y-56250000I0J150000D01*
G01*
X124305000Y-54800000D01*
G75*
G02*
X124455000Y-54650000I150000J0D01*
G01*
X124755000Y-54650000D01*
G75*
G02*
X124905000Y-54800000I0J-150000D01*
G01*
X124905000Y-56250000D01*
G75*
G02*
X124755000Y-56400000I-150000J0D01*
G01*
G37*
G36*
G01*
X123485000Y-56400000D02*
X123185000Y-56400000D01*
G75*
G02*
X123035000Y-56250000I0J150000D01*
G01*
X123035000Y-54800000D01*
G75*
G02*
X123185000Y-54650000I150000J0D01*
G01*
X123485000Y-54650000D01*
G75*
G02*
X123635000Y-54800000I0J-150000D01*
G01*
X123635000Y-56250000D01*
G75*
G02*
X123485000Y-56400000I-150000J0D01*
G01*
G37*
G36*
G01*
X122215000Y-56400000D02*
X121915000Y-56400000D01*
G75*
G02*
X121765000Y-56250000I0J150000D01*
G01*
X121765000Y-54800000D01*
G75*
G02*
X121915000Y-54650000I150000J0D01*
G01*
X122215000Y-54650000D01*
G75*
G02*
X122365000Y-54800000I0J-150000D01*
G01*
X122365000Y-56250000D01*
G75*
G02*
X122215000Y-56400000I-150000J0D01*
G01*
G37*
G36*
G01*
X120945000Y-56400000D02*
X120645000Y-56400000D01*
G75*
G02*
X120495000Y-56250000I0J150000D01*
G01*
X120495000Y-54800000D01*
G75*
G02*
X120645000Y-54650000I150000J0D01*
G01*
X120945000Y-54650000D01*
G75*
G02*
X121095000Y-54800000I0J-150000D01*
G01*
X121095000Y-56250000D01*
G75*
G02*
X120945000Y-56400000I-150000J0D01*
G01*
G37*
G36*
G01*
X119675000Y-56400000D02*
X119375000Y-56400000D01*
G75*
G02*
X119225000Y-56250000I0J150000D01*
G01*
X119225000Y-54800000D01*
G75*
G02*
X119375000Y-54650000I150000J0D01*
G01*
X119675000Y-54650000D01*
G75*
G02*
X119825000Y-54800000I0J-150000D01*
G01*
X119825000Y-56250000D01*
G75*
G02*
X119675000Y-56400000I-150000J0D01*
G01*
G37*
G36*
G01*
X118405000Y-56400000D02*
X118105000Y-56400000D01*
G75*
G02*
X117955000Y-56250000I0J150000D01*
G01*
X117955000Y-54800000D01*
G75*
G02*
X118105000Y-54650000I150000J0D01*
G01*
X118405000Y-54650000D01*
G75*
G02*
X118555000Y-54800000I0J-150000D01*
G01*
X118555000Y-56250000D01*
G75*
G02*
X118405000Y-56400000I-150000J0D01*
G01*
G37*
G36*
G01*
X118405000Y-61550000D02*
X118105000Y-61550000D01*
G75*
G02*
X117955000Y-61400000I0J150000D01*
G01*
X117955000Y-59950000D01*
G75*
G02*
X118105000Y-59800000I150000J0D01*
G01*
X118405000Y-59800000D01*
G75*
G02*
X118555000Y-59950000I0J-150000D01*
G01*
X118555000Y-61400000D01*
G75*
G02*
X118405000Y-61550000I-150000J0D01*
G01*
G37*
G36*
G01*
X119675000Y-61550000D02*
X119375000Y-61550000D01*
G75*
G02*
X119225000Y-61400000I0J150000D01*
G01*
X119225000Y-59950000D01*
G75*
G02*
X119375000Y-59800000I150000J0D01*
G01*
X119675000Y-59800000D01*
G75*
G02*
X119825000Y-59950000I0J-150000D01*
G01*
X119825000Y-61400000D01*
G75*
G02*
X119675000Y-61550000I-150000J0D01*
G01*
G37*
G36*
G01*
X120945000Y-61550000D02*
X120645000Y-61550000D01*
G75*
G02*
X120495000Y-61400000I0J150000D01*
G01*
X120495000Y-59950000D01*
G75*
G02*
X120645000Y-59800000I150000J0D01*
G01*
X120945000Y-59800000D01*
G75*
G02*
X121095000Y-59950000I0J-150000D01*
G01*
X121095000Y-61400000D01*
G75*
G02*
X120945000Y-61550000I-150000J0D01*
G01*
G37*
G36*
G01*
X122215000Y-61550000D02*
X121915000Y-61550000D01*
G75*
G02*
X121765000Y-61400000I0J150000D01*
G01*
X121765000Y-59950000D01*
G75*
G02*
X121915000Y-59800000I150000J0D01*
G01*
X122215000Y-59800000D01*
G75*
G02*
X122365000Y-59950000I0J-150000D01*
G01*
X122365000Y-61400000D01*
G75*
G02*
X122215000Y-61550000I-150000J0D01*
G01*
G37*
G36*
G01*
X123485000Y-61550000D02*
X123185000Y-61550000D01*
G75*
G02*
X123035000Y-61400000I0J150000D01*
G01*
X123035000Y-59950000D01*
G75*
G02*
X123185000Y-59800000I150000J0D01*
G01*
X123485000Y-59800000D01*
G75*
G02*
X123635000Y-59950000I0J-150000D01*
G01*
X123635000Y-61400000D01*
G75*
G02*
X123485000Y-61550000I-150000J0D01*
G01*
G37*
G36*
G01*
X124755000Y-61550000D02*
X124455000Y-61550000D01*
G75*
G02*
X124305000Y-61400000I0J150000D01*
G01*
X124305000Y-59950000D01*
G75*
G02*
X124455000Y-59800000I150000J0D01*
G01*
X124755000Y-59800000D01*
G75*
G02*
X124905000Y-59950000I0J-150000D01*
G01*
X124905000Y-61400000D01*
G75*
G02*
X124755000Y-61550000I-150000J0D01*
G01*
G37*
G36*
G01*
X126025000Y-61550000D02*
X125725000Y-61550000D01*
G75*
G02*
X125575000Y-61400000I0J150000D01*
G01*
X125575000Y-59950000D01*
G75*
G02*
X125725000Y-59800000I150000J0D01*
G01*
X126025000Y-59800000D01*
G75*
G02*
X126175000Y-59950000I0J-150000D01*
G01*
X126175000Y-61400000D01*
G75*
G02*
X126025000Y-61550000I-150000J0D01*
G01*
G37*
G36*
G01*
X127295000Y-61550000D02*
X126995000Y-61550000D01*
G75*
G02*
X126845000Y-61400000I0J150000D01*
G01*
X126845000Y-59950000D01*
G75*
G02*
X126995000Y-59800000I150000J0D01*
G01*
X127295000Y-59800000D01*
G75*
G02*
X127445000Y-59950000I0J-150000D01*
G01*
X127445000Y-61400000D01*
G75*
G02*
X127295000Y-61550000I-150000J0D01*
G01*
G37*
%TD*%
%TO.C,R5*%
G36*
G01*
X120950001Y-51900000D02*
X120049999Y-51900000D01*
G75*
G02*
X119800000Y-51650001I0J249999D01*
G01*
X119800000Y-51124999D01*
G75*
G02*
X120049999Y-50875000I249999J0D01*
G01*
X120950001Y-50875000D01*
G75*
G02*
X121200000Y-51124999I0J-249999D01*
G01*
X121200000Y-51650001D01*
G75*
G02*
X120950001Y-51900000I-249999J0D01*
G01*
G37*
G36*
G01*
X120950001Y-53725000D02*
X120049999Y-53725000D01*
G75*
G02*
X119800000Y-53475001I0J249999D01*
G01*
X119800000Y-52949999D01*
G75*
G02*
X120049999Y-52700000I249999J0D01*
G01*
X120950001Y-52700000D01*
G75*
G02*
X121200000Y-52949999I0J-249999D01*
G01*
X121200000Y-53475001D01*
G75*
G02*
X120950001Y-53725000I-249999J0D01*
G01*
G37*
%TD*%
%TO.C,R4*%
G36*
G01*
X124350001Y-51900000D02*
X123449999Y-51900000D01*
G75*
G02*
X123200000Y-51650001I0J249999D01*
G01*
X123200000Y-51124999D01*
G75*
G02*
X123449999Y-50875000I249999J0D01*
G01*
X124350001Y-50875000D01*
G75*
G02*
X124600000Y-51124999I0J-249999D01*
G01*
X124600000Y-51650001D01*
G75*
G02*
X124350001Y-51900000I-249999J0D01*
G01*
G37*
G36*
G01*
X124350001Y-53725000D02*
X123449999Y-53725000D01*
G75*
G02*
X123200000Y-53475001I0J249999D01*
G01*
X123200000Y-52949999D01*
G75*
G02*
X123449999Y-52700000I249999J0D01*
G01*
X124350001Y-52700000D01*
G75*
G02*
X124600000Y-52949999I0J-249999D01*
G01*
X124600000Y-53475001D01*
G75*
G02*
X124350001Y-53725000I-249999J0D01*
G01*
G37*
%TD*%
%TO.C,R3*%
G36*
G01*
X155787500Y-60950001D02*
X155787500Y-60049999D01*
G75*
G02*
X156037499Y-59800000I249999J0D01*
G01*
X156562501Y-59800000D01*
G75*
G02*
X156812500Y-60049999I0J-249999D01*
G01*
X156812500Y-60950001D01*
G75*
G02*
X156562501Y-61200000I-249999J0D01*
G01*
X156037499Y-61200000D01*
G75*
G02*
X155787500Y-60950001I0J249999D01*
G01*
G37*
G36*
G01*
X153962500Y-60950001D02*
X153962500Y-60049999D01*
G75*
G02*
X154212499Y-59800000I249999J0D01*
G01*
X154737501Y-59800000D01*
G75*
G02*
X154987500Y-60049999I0J-249999D01*
G01*
X154987500Y-60950001D01*
G75*
G02*
X154737501Y-61200000I-249999J0D01*
G01*
X154212499Y-61200000D01*
G75*
G02*
X153962500Y-60950001I0J249999D01*
G01*
G37*
%TD*%
%TO.C,R2*%
G36*
G01*
X122058000Y-45583001D02*
X122058000Y-44332999D01*
G75*
G02*
X122307999Y-44083000I249999J0D01*
G01*
X122933001Y-44083000D01*
G75*
G02*
X123183000Y-44332999I0J-249999D01*
G01*
X123183000Y-45583001D01*
G75*
G02*
X122933001Y-45833000I-249999J0D01*
G01*
X122307999Y-45833000D01*
G75*
G02*
X122058000Y-45583001I0J249999D01*
G01*
G37*
G36*
G01*
X119133000Y-45583001D02*
X119133000Y-44332999D01*
G75*
G02*
X119382999Y-44083000I249999J0D01*
G01*
X120008001Y-44083000D01*
G75*
G02*
X120258000Y-44332999I0J-249999D01*
G01*
X120258000Y-45583001D01*
G75*
G02*
X120008001Y-45833000I-249999J0D01*
G01*
X119382999Y-45833000D01*
G75*
G02*
X119133000Y-45583001I0J249999D01*
G01*
G37*
%TD*%
%TO.C,R1*%
G36*
G01*
X127900000Y-45583001D02*
X127900000Y-44332999D01*
G75*
G02*
X128149999Y-44083000I249999J0D01*
G01*
X128775001Y-44083000D01*
G75*
G02*
X129025000Y-44332999I0J-249999D01*
G01*
X129025000Y-45583001D01*
G75*
G02*
X128775001Y-45833000I-249999J0D01*
G01*
X128149999Y-45833000D01*
G75*
G02*
X127900000Y-45583001I0J249999D01*
G01*
G37*
G36*
G01*
X124975000Y-45583001D02*
X124975000Y-44332999D01*
G75*
G02*
X125224999Y-44083000I249999J0D01*
G01*
X125850001Y-44083000D01*
G75*
G02*
X126100000Y-44332999I0J-249999D01*
G01*
X126100000Y-45583001D01*
G75*
G02*
X125850001Y-45833000I-249999J0D01*
G01*
X125224999Y-45833000D01*
G75*
G02*
X124975000Y-45583001I0J249999D01*
G01*
G37*
%TD*%
D15*
%TO.C,Q2*%
X119300000Y-47300000D03*
X118350000Y-49300000D03*
X120250000Y-49300000D03*
%TD*%
%TO.C,Q1*%
X124400000Y-47300000D03*
X123450000Y-49300000D03*
X125350000Y-49300000D03*
%TD*%
D16*
%TO.C,J1*%
X162540000Y-34850000D03*
X162540000Y-37390000D03*
D17*
X150600000Y-25175000D03*
D16*
X162540000Y-29770000D03*
D18*
X160000000Y-28500000D03*
D16*
X160000000Y-36120000D03*
X162540000Y-32310000D03*
X160000000Y-33580000D03*
X160000000Y-31040000D03*
D19*
X153650000Y-27230000D03*
D17*
X150600000Y-40715000D03*
D19*
X153650000Y-38660000D03*
%TD*%
D20*
%TO.C,F2*%
X149760000Y-56170000D03*
X149750000Y-61250000D03*
%TD*%
%TO.C,F1*%
X162260000Y-44170000D03*
X162250000Y-49250000D03*
%TD*%
D21*
%TO.C,D1*%
X131572000Y-43434000D03*
D22*
X131572000Y-45974000D03*
X131572000Y-48514000D03*
%TD*%
D20*
%TO.C,BZ1*%
X162100000Y-57500000D03*
D23*
X154500000Y-57500000D03*
%TD*%
M02*
