%TF.GenerationSoftware,KiCad,Pcbnew,5.1.9*%
%TF.CreationDate,2021-02-24T23:37:06+01:00*%
%TF.ProjectId,qr_reader,71725f72-6561-4646-9572-2e6b69636164,rev?*%
%TF.SameCoordinates,Original*%
%TF.FileFunction,Legend,Bot*%
%TF.FilePolarity,Positive*%
%FSLAX46Y46*%
G04 Gerber Fmt 4.6, Leading zero omitted, Abs format (unit mm)*
G04 Created by KiCad (PCBNEW 5.1.9) date 2021-02-24 23:37:06*
%MOMM*%
%LPD*%
G01*
G04 APERTURE LIST*
%ADD10C,0.150000*%
%ADD11C,0.120000*%
G04 APERTURE END LIST*
D10*
X140619047Y-59952380D02*
X140619047Y-60666666D01*
X140666666Y-60809523D01*
X140761904Y-60904761D01*
X140904761Y-60952380D01*
X141000000Y-60952380D01*
X139666666Y-60952380D02*
X140142857Y-60952380D01*
X140142857Y-59952380D01*
X138761904Y-60857142D02*
X138809523Y-60904761D01*
X138952380Y-60952380D01*
X139047619Y-60952380D01*
X139190476Y-60904761D01*
X139285714Y-60809523D01*
X139333333Y-60714285D01*
X139380952Y-60523809D01*
X139380952Y-60380952D01*
X139333333Y-60190476D01*
X139285714Y-60095238D01*
X139190476Y-60000000D01*
X139047619Y-59952380D01*
X138952380Y-59952380D01*
X138809523Y-60000000D01*
X138761904Y-60047619D01*
X138047619Y-59952380D02*
X138047619Y-60666666D01*
X138095238Y-60809523D01*
X138190476Y-60904761D01*
X138333333Y-60952380D01*
X138428571Y-60952380D01*
X137095238Y-60952380D02*
X137571428Y-60952380D01*
X137571428Y-59952380D01*
X136190476Y-60857142D02*
X136238095Y-60904761D01*
X136380952Y-60952380D01*
X136476190Y-60952380D01*
X136619047Y-60904761D01*
X136714285Y-60809523D01*
X136761904Y-60714285D01*
X136809523Y-60523809D01*
X136809523Y-60380952D01*
X136761904Y-60190476D01*
X136714285Y-60095238D01*
X136619047Y-60000000D01*
X136476190Y-59952380D01*
X136380952Y-59952380D01*
X136238095Y-60000000D01*
X136190476Y-60047619D01*
X135476190Y-59952380D02*
X135476190Y-60666666D01*
X135523809Y-60809523D01*
X135619047Y-60904761D01*
X135761904Y-60952380D01*
X135857142Y-60952380D01*
X134523809Y-60952380D02*
X135000000Y-60952380D01*
X135000000Y-59952380D01*
X133619047Y-60857142D02*
X133666666Y-60904761D01*
X133809523Y-60952380D01*
X133904761Y-60952380D01*
X134047619Y-60904761D01*
X134142857Y-60809523D01*
X134190476Y-60714285D01*
X134238095Y-60523809D01*
X134238095Y-60380952D01*
X134190476Y-60190476D01*
X134142857Y-60095238D01*
X134047619Y-60000000D01*
X133904761Y-59952380D01*
X133809523Y-59952380D01*
X133666666Y-60000000D01*
X133619047Y-60047619D01*
X132904761Y-59952380D02*
X132904761Y-60666666D01*
X132952380Y-60809523D01*
X133047619Y-60904761D01*
X133190476Y-60952380D01*
X133285714Y-60952380D01*
X131952380Y-60952380D02*
X132428571Y-60952380D01*
X132428571Y-59952380D01*
X131047619Y-60857142D02*
X131095238Y-60904761D01*
X131238095Y-60952380D01*
X131333333Y-60952380D01*
X131476190Y-60904761D01*
X131571428Y-60809523D01*
X131619047Y-60714285D01*
X131666666Y-60523809D01*
X131666666Y-60380952D01*
X131619047Y-60190476D01*
X131571428Y-60095238D01*
X131476190Y-60000000D01*
X131333333Y-59952380D01*
X131238095Y-59952380D01*
X131095238Y-60000000D01*
X131047619Y-60047619D01*
D11*
%TO.C,U2*%
X134650000Y-44350000D02*
X134650000Y-45450000D01*
X133700000Y-44350000D02*
X134650000Y-44350000D01*
X133700000Y-42850000D02*
X133700000Y-44350000D01*
X143150000Y-44350000D02*
X143150000Y-49475000D01*
X144100000Y-44350000D02*
X143150000Y-44350000D01*
X144100000Y-42850000D02*
X144100000Y-44350000D01*
%TO.C,U1*%
X127760000Y-58100000D02*
X127760000Y-61550000D01*
X127760000Y-58100000D02*
X127760000Y-56150000D01*
X117640000Y-58100000D02*
X117640000Y-60050000D01*
X117640000Y-58100000D02*
X117640000Y-56150000D01*
%TO.C,R5*%
X119765000Y-52527064D02*
X119765000Y-52072936D01*
X121235000Y-52527064D02*
X121235000Y-52072936D01*
%TO.C,R4*%
X123165000Y-52527064D02*
X123165000Y-52072936D01*
X124635000Y-52527064D02*
X124635000Y-52072936D01*
%TO.C,R3*%
X155160436Y-59765000D02*
X155614564Y-59765000D01*
X155160436Y-61235000D02*
X155614564Y-61235000D01*
%TO.C,R2*%
X120430936Y-44048000D02*
X121885064Y-44048000D01*
X120430936Y-45868000D02*
X121885064Y-45868000D01*
%TO.C,R1*%
X126272936Y-44048000D02*
X127727064Y-44048000D01*
X126272936Y-45868000D02*
X127727064Y-45868000D01*
%TO.C,Q2*%
X117720000Y-47540000D02*
X117720000Y-49000000D01*
X120880000Y-47540000D02*
X120880000Y-49700000D01*
X120880000Y-47540000D02*
X119950000Y-47540000D01*
X117720000Y-47540000D02*
X118650000Y-47540000D01*
%TO.C,Q1*%
X122820000Y-47540000D02*
X122820000Y-49000000D01*
X125980000Y-47540000D02*
X125980000Y-49700000D01*
X125980000Y-47540000D02*
X125050000Y-47540000D01*
X122820000Y-47540000D02*
X123750000Y-47540000D01*
%TO.C,U2*%
D10*
X145352380Y-42838095D02*
X146161904Y-42838095D01*
X146257142Y-42885714D01*
X146304761Y-42933333D01*
X146352380Y-43028571D01*
X146352380Y-43219047D01*
X146304761Y-43314285D01*
X146257142Y-43361904D01*
X146161904Y-43409523D01*
X145352380Y-43409523D01*
X145447619Y-43838095D02*
X145400000Y-43885714D01*
X145352380Y-43980952D01*
X145352380Y-44219047D01*
X145400000Y-44314285D01*
X145447619Y-44361904D01*
X145542857Y-44409523D01*
X145638095Y-44409523D01*
X145780952Y-44361904D01*
X146352380Y-43790476D01*
X146352380Y-44409523D01*
%TO.C,U1*%
X125261904Y-61952380D02*
X125261904Y-62761904D01*
X125214285Y-62857142D01*
X125166666Y-62904761D01*
X125071428Y-62952380D01*
X124880952Y-62952380D01*
X124785714Y-62904761D01*
X124738095Y-62857142D01*
X124690476Y-62761904D01*
X124690476Y-61952380D01*
X123690476Y-62952380D02*
X124261904Y-62952380D01*
X123976190Y-62952380D02*
X123976190Y-61952380D01*
X124071428Y-62095238D01*
X124166666Y-62190476D01*
X124261904Y-62238095D01*
%TO.C,R5*%
X122552380Y-52233333D02*
X122076190Y-51900000D01*
X122552380Y-51661904D02*
X121552380Y-51661904D01*
X121552380Y-52042857D01*
X121600000Y-52138095D01*
X121647619Y-52185714D01*
X121742857Y-52233333D01*
X121885714Y-52233333D01*
X121980952Y-52185714D01*
X122028571Y-52138095D01*
X122076190Y-52042857D01*
X122076190Y-51661904D01*
X121552380Y-53138095D02*
X121552380Y-52661904D01*
X122028571Y-52614285D01*
X121980952Y-52661904D01*
X121933333Y-52757142D01*
X121933333Y-52995238D01*
X121980952Y-53090476D01*
X122028571Y-53138095D01*
X122123809Y-53185714D01*
X122361904Y-53185714D01*
X122457142Y-53138095D01*
X122504761Y-53090476D01*
X122552380Y-52995238D01*
X122552380Y-52757142D01*
X122504761Y-52661904D01*
X122457142Y-52614285D01*
%TO.C,R4*%
X126202380Y-53083333D02*
X125726190Y-52750000D01*
X126202380Y-52511904D02*
X125202380Y-52511904D01*
X125202380Y-52892857D01*
X125250000Y-52988095D01*
X125297619Y-53035714D01*
X125392857Y-53083333D01*
X125535714Y-53083333D01*
X125630952Y-53035714D01*
X125678571Y-52988095D01*
X125726190Y-52892857D01*
X125726190Y-52511904D01*
X125535714Y-53940476D02*
X126202380Y-53940476D01*
X125154761Y-53702380D02*
X125869047Y-53464285D01*
X125869047Y-54083333D01*
%TO.C,R3*%
X155554166Y-62602380D02*
X155887500Y-62126190D01*
X156125595Y-62602380D02*
X156125595Y-61602380D01*
X155744642Y-61602380D01*
X155649404Y-61650000D01*
X155601785Y-61697619D01*
X155554166Y-61792857D01*
X155554166Y-61935714D01*
X155601785Y-62030952D01*
X155649404Y-62078571D01*
X155744642Y-62126190D01*
X156125595Y-62126190D01*
X155220833Y-61602380D02*
X154601785Y-61602380D01*
X154935119Y-61983333D01*
X154792261Y-61983333D01*
X154697023Y-62030952D01*
X154649404Y-62078571D01*
X154601785Y-62173809D01*
X154601785Y-62411904D01*
X154649404Y-62507142D01*
X154697023Y-62554761D01*
X154792261Y-62602380D01*
X155077976Y-62602380D01*
X155173214Y-62554761D01*
X155220833Y-62507142D01*
%TO.C,R2*%
X121666666Y-43452380D02*
X122000000Y-42976190D01*
X122238095Y-43452380D02*
X122238095Y-42452380D01*
X121857142Y-42452380D01*
X121761904Y-42500000D01*
X121714285Y-42547619D01*
X121666666Y-42642857D01*
X121666666Y-42785714D01*
X121714285Y-42880952D01*
X121761904Y-42928571D01*
X121857142Y-42976190D01*
X122238095Y-42976190D01*
X121285714Y-42547619D02*
X121238095Y-42500000D01*
X121142857Y-42452380D01*
X120904761Y-42452380D01*
X120809523Y-42500000D01*
X120761904Y-42547619D01*
X120714285Y-42642857D01*
X120714285Y-42738095D01*
X120761904Y-42880952D01*
X121333333Y-43452380D01*
X120714285Y-43452380D01*
%TO.C,R1*%
X128666666Y-43452380D02*
X129000000Y-42976190D01*
X129238095Y-43452380D02*
X129238095Y-42452380D01*
X128857142Y-42452380D01*
X128761904Y-42500000D01*
X128714285Y-42547619D01*
X128666666Y-42642857D01*
X128666666Y-42785714D01*
X128714285Y-42880952D01*
X128761904Y-42928571D01*
X128857142Y-42976190D01*
X129238095Y-42976190D01*
X127714285Y-43452380D02*
X128285714Y-43452380D01*
X128000000Y-43452380D02*
X128000000Y-42452380D01*
X128095238Y-42595238D01*
X128190476Y-42690476D01*
X128285714Y-42738095D01*
%TO.C,Q2*%
X122347619Y-48204761D02*
X122300000Y-48109523D01*
X122204761Y-48014285D01*
X122061904Y-47871428D01*
X122014285Y-47776190D01*
X122014285Y-47680952D01*
X122252380Y-47728571D02*
X122204761Y-47633333D01*
X122109523Y-47538095D01*
X121919047Y-47490476D01*
X121585714Y-47490476D01*
X121395238Y-47538095D01*
X121300000Y-47633333D01*
X121252380Y-47728571D01*
X121252380Y-47919047D01*
X121300000Y-48014285D01*
X121395238Y-48109523D01*
X121585714Y-48157142D01*
X121919047Y-48157142D01*
X122109523Y-48109523D01*
X122204761Y-48014285D01*
X122252380Y-47919047D01*
X122252380Y-47728571D01*
X121347619Y-48538095D02*
X121300000Y-48585714D01*
X121252380Y-48680952D01*
X121252380Y-48919047D01*
X121300000Y-49014285D01*
X121347619Y-49061904D01*
X121442857Y-49109523D01*
X121538095Y-49109523D01*
X121680952Y-49061904D01*
X122252380Y-48490476D01*
X122252380Y-49109523D01*
%TO.C,Q1*%
X127447619Y-48204761D02*
X127400000Y-48109523D01*
X127304761Y-48014285D01*
X127161904Y-47871428D01*
X127114285Y-47776190D01*
X127114285Y-47680952D01*
X127352380Y-47728571D02*
X127304761Y-47633333D01*
X127209523Y-47538095D01*
X127019047Y-47490476D01*
X126685714Y-47490476D01*
X126495238Y-47538095D01*
X126400000Y-47633333D01*
X126352380Y-47728571D01*
X126352380Y-47919047D01*
X126400000Y-48014285D01*
X126495238Y-48109523D01*
X126685714Y-48157142D01*
X127019047Y-48157142D01*
X127209523Y-48109523D01*
X127304761Y-48014285D01*
X127352380Y-47919047D01*
X127352380Y-47728571D01*
X127352380Y-49109523D02*
X127352380Y-48538095D01*
X127352380Y-48823809D02*
X126352380Y-48823809D01*
X126495238Y-48728571D01*
X126590476Y-48633333D01*
X126638095Y-48538095D01*
%TD*%
M02*
