%TF.GenerationSoftware,KiCad,Pcbnew,5.1.9*%
%TF.CreationDate,2021-05-01T23:47:16+02:00*%
%TF.ProjectId,nfc_reader,6e66635f-7265-4616-9465-722e6b696361,rev?*%
%TF.SameCoordinates,Original*%
%TF.FileFunction,Copper,L1,Top*%
%TF.FilePolarity,Positive*%
%FSLAX46Y46*%
G04 Gerber Fmt 4.6, Leading zero omitted, Abs format (unit mm)*
G04 Created by KiCad (PCBNEW 5.1.9) date 2021-05-01 23:47:16*
%MOMM*%
%LPD*%
G01*
G04 APERTURE LIST*
%TA.AperFunction,ComponentPad*%
%ADD10O,1.700000X1.700000*%
%TD*%
%TA.AperFunction,ComponentPad*%
%ADD11R,1.700000X1.700000*%
%TD*%
%TA.AperFunction,SMDPad,CuDef*%
%ADD12R,10.800000X9.400000*%
%TD*%
%TA.AperFunction,SMDPad,CuDef*%
%ADD13R,1.100000X4.600000*%
%TD*%
%TA.AperFunction,SMDPad,CuDef*%
%ADD14R,0.900000X0.800000*%
%TD*%
%TA.AperFunction,SMDPad,CuDef*%
%ADD15R,5.400000X2.900000*%
%TD*%
%TA.AperFunction,ComponentPad*%
%ADD16C,1.500000*%
%TD*%
%TA.AperFunction,ComponentPad*%
%ADD17C,3.000000*%
%TD*%
%TA.AperFunction,ComponentPad*%
%ADD18R,1.500000X1.500000*%
%TD*%
%TA.AperFunction,ComponentPad*%
%ADD19C,2.000000*%
%TD*%
%TA.AperFunction,SMDPad,CuDef*%
%ADD20R,2.700000X1.500000*%
%TD*%
%TA.AperFunction,ComponentPad*%
%ADD21R,2.000000X2.000000*%
%TD*%
%TA.AperFunction,ViaPad*%
%ADD22C,0.800000*%
%TD*%
%TA.AperFunction,Conductor*%
%ADD23C,0.250000*%
%TD*%
%TA.AperFunction,Conductor*%
%ADD24C,1.000000*%
%TD*%
%TA.AperFunction,Conductor*%
%ADD25C,0.254000*%
%TD*%
%TA.AperFunction,Conductor*%
%ADD26C,0.100000*%
%TD*%
G04 APERTURE END LIST*
D10*
%TO.P,J3,2*%
%TO.N,Net-(J1-Pad6)*%
X147000000Y-113460000D03*
D11*
%TO.P,J3,1*%
%TO.N,/Rx*%
X147000000Y-116000000D03*
%TD*%
D10*
%TO.P,D1,3*%
%TO.N,GND*%
X113500000Y-108920000D03*
%TO.P,D1,2*%
%TO.N,Net-(D1-Pad2)*%
X113500000Y-111460000D03*
D11*
%TO.P,D1,1*%
%TO.N,Net-(D1-Pad1)*%
X113500000Y-114000000D03*
%TD*%
D12*
%TO.P,U2,3*%
%TO.N,GND*%
X132500000Y-136375000D03*
D13*
%TO.P,U2,5*%
X129100000Y-127225000D03*
%TO.P,U2,4*%
%TO.N,Net-(C2-Pad1)*%
X130800000Y-127225000D03*
%TO.P,U2,3*%
%TO.N,GND*%
X132500000Y-127225000D03*
%TO.P,U2,2*%
%TO.N,Net-(D3-Pad1)*%
X134200000Y-127225000D03*
%TO.P,U2,1*%
%TO.N,+12V*%
X135900000Y-127225000D03*
%TD*%
%TO.P,U1,16*%
%TO.N,Net-(BZ1-Pad2)*%
%TA.AperFunction,SMDPad,CuDef*%
G36*
G01*
X143795000Y-120200000D02*
X144095000Y-120200000D01*
G75*
G02*
X144245000Y-120350000I0J-150000D01*
G01*
X144245000Y-121800000D01*
G75*
G02*
X144095000Y-121950000I-150000J0D01*
G01*
X143795000Y-121950000D01*
G75*
G02*
X143645000Y-121800000I0J150000D01*
G01*
X143645000Y-120350000D01*
G75*
G02*
X143795000Y-120200000I150000J0D01*
G01*
G37*
%TD.AperFunction*%
%TO.P,U1,15*%
%TO.N,Net-(R4-Pad1)*%
%TA.AperFunction,SMDPad,CuDef*%
G36*
G01*
X142525000Y-120200000D02*
X142825000Y-120200000D01*
G75*
G02*
X142975000Y-120350000I0J-150000D01*
G01*
X142975000Y-121800000D01*
G75*
G02*
X142825000Y-121950000I-150000J0D01*
G01*
X142525000Y-121950000D01*
G75*
G02*
X142375000Y-121800000I0J150000D01*
G01*
X142375000Y-120350000D01*
G75*
G02*
X142525000Y-120200000I150000J0D01*
G01*
G37*
%TD.AperFunction*%
%TO.P,U1,14*%
%TO.N,Net-(R5-Pad1)*%
%TA.AperFunction,SMDPad,CuDef*%
G36*
G01*
X141255000Y-120200000D02*
X141555000Y-120200000D01*
G75*
G02*
X141705000Y-120350000I0J-150000D01*
G01*
X141705000Y-121800000D01*
G75*
G02*
X141555000Y-121950000I-150000J0D01*
G01*
X141255000Y-121950000D01*
G75*
G02*
X141105000Y-121800000I0J150000D01*
G01*
X141105000Y-120350000D01*
G75*
G02*
X141255000Y-120200000I150000J0D01*
G01*
G37*
%TD.AperFunction*%
%TO.P,U1,13*%
%TO.N,Net-(U1-Pad13)*%
%TA.AperFunction,SMDPad,CuDef*%
G36*
G01*
X139985000Y-120200000D02*
X140285000Y-120200000D01*
G75*
G02*
X140435000Y-120350000I0J-150000D01*
G01*
X140435000Y-121800000D01*
G75*
G02*
X140285000Y-121950000I-150000J0D01*
G01*
X139985000Y-121950000D01*
G75*
G02*
X139835000Y-121800000I0J150000D01*
G01*
X139835000Y-120350000D01*
G75*
G02*
X139985000Y-120200000I150000J0D01*
G01*
G37*
%TD.AperFunction*%
%TO.P,U1,12*%
%TO.N,Net-(U1-Pad12)*%
%TA.AperFunction,SMDPad,CuDef*%
G36*
G01*
X138715000Y-120200000D02*
X139015000Y-120200000D01*
G75*
G02*
X139165000Y-120350000I0J-150000D01*
G01*
X139165000Y-121800000D01*
G75*
G02*
X139015000Y-121950000I-150000J0D01*
G01*
X138715000Y-121950000D01*
G75*
G02*
X138565000Y-121800000I0J150000D01*
G01*
X138565000Y-120350000D01*
G75*
G02*
X138715000Y-120200000I150000J0D01*
G01*
G37*
%TD.AperFunction*%
%TO.P,U1,11*%
%TO.N,Net-(U1-Pad11)*%
%TA.AperFunction,SMDPad,CuDef*%
G36*
G01*
X137445000Y-120200000D02*
X137745000Y-120200000D01*
G75*
G02*
X137895000Y-120350000I0J-150000D01*
G01*
X137895000Y-121800000D01*
G75*
G02*
X137745000Y-121950000I-150000J0D01*
G01*
X137445000Y-121950000D01*
G75*
G02*
X137295000Y-121800000I0J150000D01*
G01*
X137295000Y-120350000D01*
G75*
G02*
X137445000Y-120200000I150000J0D01*
G01*
G37*
%TD.AperFunction*%
%TO.P,U1,10*%
%TO.N,Net-(U1-Pad10)*%
%TA.AperFunction,SMDPad,CuDef*%
G36*
G01*
X136175000Y-120200000D02*
X136475000Y-120200000D01*
G75*
G02*
X136625000Y-120350000I0J-150000D01*
G01*
X136625000Y-121800000D01*
G75*
G02*
X136475000Y-121950000I-150000J0D01*
G01*
X136175000Y-121950000D01*
G75*
G02*
X136025000Y-121800000I0J150000D01*
G01*
X136025000Y-120350000D01*
G75*
G02*
X136175000Y-120200000I150000J0D01*
G01*
G37*
%TD.AperFunction*%
%TO.P,U1,9*%
%TO.N,+5V*%
%TA.AperFunction,SMDPad,CuDef*%
G36*
G01*
X134905000Y-120200000D02*
X135205000Y-120200000D01*
G75*
G02*
X135355000Y-120350000I0J-150000D01*
G01*
X135355000Y-121800000D01*
G75*
G02*
X135205000Y-121950000I-150000J0D01*
G01*
X134905000Y-121950000D01*
G75*
G02*
X134755000Y-121800000I0J150000D01*
G01*
X134755000Y-120350000D01*
G75*
G02*
X134905000Y-120200000I150000J0D01*
G01*
G37*
%TD.AperFunction*%
%TO.P,U1,8*%
%TO.N,GND*%
%TA.AperFunction,SMDPad,CuDef*%
G36*
G01*
X134905000Y-115050000D02*
X135205000Y-115050000D01*
G75*
G02*
X135355000Y-115200000I0J-150000D01*
G01*
X135355000Y-116650000D01*
G75*
G02*
X135205000Y-116800000I-150000J0D01*
G01*
X134905000Y-116800000D01*
G75*
G02*
X134755000Y-116650000I0J150000D01*
G01*
X134755000Y-115200000D01*
G75*
G02*
X134905000Y-115050000I150000J0D01*
G01*
G37*
%TD.AperFunction*%
%TO.P,U1,7*%
%TO.N,Net-(U1-Pad7)*%
%TA.AperFunction,SMDPad,CuDef*%
G36*
G01*
X136175000Y-115050000D02*
X136475000Y-115050000D01*
G75*
G02*
X136625000Y-115200000I0J-150000D01*
G01*
X136625000Y-116650000D01*
G75*
G02*
X136475000Y-116800000I-150000J0D01*
G01*
X136175000Y-116800000D01*
G75*
G02*
X136025000Y-116650000I0J150000D01*
G01*
X136025000Y-115200000D01*
G75*
G02*
X136175000Y-115050000I150000J0D01*
G01*
G37*
%TD.AperFunction*%
%TO.P,U1,6*%
%TO.N,Net-(U1-Pad6)*%
%TA.AperFunction,SMDPad,CuDef*%
G36*
G01*
X137445000Y-115050000D02*
X137745000Y-115050000D01*
G75*
G02*
X137895000Y-115200000I0J-150000D01*
G01*
X137895000Y-116650000D01*
G75*
G02*
X137745000Y-116800000I-150000J0D01*
G01*
X137445000Y-116800000D01*
G75*
G02*
X137295000Y-116650000I0J150000D01*
G01*
X137295000Y-115200000D01*
G75*
G02*
X137445000Y-115050000I150000J0D01*
G01*
G37*
%TD.AperFunction*%
%TO.P,U1,5*%
%TO.N,Net-(U1-Pad5)*%
%TA.AperFunction,SMDPad,CuDef*%
G36*
G01*
X138715000Y-115050000D02*
X139015000Y-115050000D01*
G75*
G02*
X139165000Y-115200000I0J-150000D01*
G01*
X139165000Y-116650000D01*
G75*
G02*
X139015000Y-116800000I-150000J0D01*
G01*
X138715000Y-116800000D01*
G75*
G02*
X138565000Y-116650000I0J150000D01*
G01*
X138565000Y-115200000D01*
G75*
G02*
X138715000Y-115050000I150000J0D01*
G01*
G37*
%TD.AperFunction*%
%TO.P,U1,4*%
%TO.N,Net-(U1-Pad4)*%
%TA.AperFunction,SMDPad,CuDef*%
G36*
G01*
X139985000Y-115050000D02*
X140285000Y-115050000D01*
G75*
G02*
X140435000Y-115200000I0J-150000D01*
G01*
X140435000Y-116650000D01*
G75*
G02*
X140285000Y-116800000I-150000J0D01*
G01*
X139985000Y-116800000D01*
G75*
G02*
X139835000Y-116650000I0J150000D01*
G01*
X139835000Y-115200000D01*
G75*
G02*
X139985000Y-115050000I150000J0D01*
G01*
G37*
%TD.AperFunction*%
%TO.P,U1,3*%
%TO.N,Net-(J1-Pad1)*%
%TA.AperFunction,SMDPad,CuDef*%
G36*
G01*
X141255000Y-115050000D02*
X141555000Y-115050000D01*
G75*
G02*
X141705000Y-115200000I0J-150000D01*
G01*
X141705000Y-116650000D01*
G75*
G02*
X141555000Y-116800000I-150000J0D01*
G01*
X141255000Y-116800000D01*
G75*
G02*
X141105000Y-116650000I0J150000D01*
G01*
X141105000Y-115200000D01*
G75*
G02*
X141255000Y-115050000I150000J0D01*
G01*
G37*
%TD.AperFunction*%
%TO.P,U1,2*%
%TO.N,Net-(J1-Pad2)*%
%TA.AperFunction,SMDPad,CuDef*%
G36*
G01*
X142525000Y-115050000D02*
X142825000Y-115050000D01*
G75*
G02*
X142975000Y-115200000I0J-150000D01*
G01*
X142975000Y-116650000D01*
G75*
G02*
X142825000Y-116800000I-150000J0D01*
G01*
X142525000Y-116800000D01*
G75*
G02*
X142375000Y-116650000I0J150000D01*
G01*
X142375000Y-115200000D01*
G75*
G02*
X142525000Y-115050000I150000J0D01*
G01*
G37*
%TD.AperFunction*%
%TO.P,U1,1*%
%TO.N,Net-(J1-Pad7)*%
%TA.AperFunction,SMDPad,CuDef*%
G36*
G01*
X143795000Y-115050000D02*
X144095000Y-115050000D01*
G75*
G02*
X144245000Y-115200000I0J-150000D01*
G01*
X144245000Y-116650000D01*
G75*
G02*
X144095000Y-116800000I-150000J0D01*
G01*
X143795000Y-116800000D01*
G75*
G02*
X143645000Y-116650000I0J150000D01*
G01*
X143645000Y-115200000D01*
G75*
G02*
X143795000Y-115050000I150000J0D01*
G01*
G37*
%TD.AperFunction*%
%TD*%
%TO.P,R5,2*%
%TO.N,Net-(Q2-Pad1)*%
%TA.AperFunction,SMDPad,CuDef*%
G36*
G01*
X127600000Y-113049999D02*
X127600000Y-113950001D01*
G75*
G02*
X127350001Y-114200000I-249999J0D01*
G01*
X126824999Y-114200000D01*
G75*
G02*
X126575000Y-113950001I0J249999D01*
G01*
X126575000Y-113049999D01*
G75*
G02*
X126824999Y-112800000I249999J0D01*
G01*
X127350001Y-112800000D01*
G75*
G02*
X127600000Y-113049999I0J-249999D01*
G01*
G37*
%TD.AperFunction*%
%TO.P,R5,1*%
%TO.N,Net-(R5-Pad1)*%
%TA.AperFunction,SMDPad,CuDef*%
G36*
G01*
X129425000Y-113049999D02*
X129425000Y-113950001D01*
G75*
G02*
X129175001Y-114200000I-249999J0D01*
G01*
X128649999Y-114200000D01*
G75*
G02*
X128400000Y-113950001I0J249999D01*
G01*
X128400000Y-113049999D01*
G75*
G02*
X128649999Y-112800000I249999J0D01*
G01*
X129175001Y-112800000D01*
G75*
G02*
X129425000Y-113049999I0J-249999D01*
G01*
G37*
%TD.AperFunction*%
%TD*%
%TO.P,R4,2*%
%TO.N,Net-(Q1-Pad1)*%
%TA.AperFunction,SMDPad,CuDef*%
G36*
G01*
X127600000Y-115549999D02*
X127600000Y-116450001D01*
G75*
G02*
X127350001Y-116700000I-249999J0D01*
G01*
X126824999Y-116700000D01*
G75*
G02*
X126575000Y-116450001I0J249999D01*
G01*
X126575000Y-115549999D01*
G75*
G02*
X126824999Y-115300000I249999J0D01*
G01*
X127350001Y-115300000D01*
G75*
G02*
X127600000Y-115549999I0J-249999D01*
G01*
G37*
%TD.AperFunction*%
%TO.P,R4,1*%
%TO.N,Net-(R4-Pad1)*%
%TA.AperFunction,SMDPad,CuDef*%
G36*
G01*
X129425000Y-115549999D02*
X129425000Y-116450001D01*
G75*
G02*
X129175001Y-116700000I-249999J0D01*
G01*
X128649999Y-116700000D01*
G75*
G02*
X128400000Y-116450001I0J249999D01*
G01*
X128400000Y-115549999D01*
G75*
G02*
X128649999Y-115300000I249999J0D01*
G01*
X129175001Y-115300000D01*
G75*
G02*
X129425000Y-115549999I0J-249999D01*
G01*
G37*
%TD.AperFunction*%
%TD*%
%TO.P,R3,2*%
%TO.N,Net-(BZ1-Pad2)*%
%TA.AperFunction,SMDPad,CuDef*%
G36*
G01*
X123950001Y-99600000D02*
X123049999Y-99600000D01*
G75*
G02*
X122800000Y-99350001I0J249999D01*
G01*
X122800000Y-98824999D01*
G75*
G02*
X123049999Y-98575000I249999J0D01*
G01*
X123950001Y-98575000D01*
G75*
G02*
X124200000Y-98824999I0J-249999D01*
G01*
X124200000Y-99350001D01*
G75*
G02*
X123950001Y-99600000I-249999J0D01*
G01*
G37*
%TD.AperFunction*%
%TO.P,R3,1*%
%TO.N,GND*%
%TA.AperFunction,SMDPad,CuDef*%
G36*
G01*
X123950001Y-101425000D02*
X123049999Y-101425000D01*
G75*
G02*
X122800000Y-101175001I0J249999D01*
G01*
X122800000Y-100649999D01*
G75*
G02*
X123049999Y-100400000I249999J0D01*
G01*
X123950001Y-100400000D01*
G75*
G02*
X124200000Y-100649999I0J-249999D01*
G01*
X124200000Y-101175001D01*
G75*
G02*
X123950001Y-101425000I-249999J0D01*
G01*
G37*
%TD.AperFunction*%
%TD*%
%TO.P,R2,2*%
%TO.N,Net-(D1-Pad2)*%
%TA.AperFunction,SMDPad,CuDef*%
G36*
G01*
X117062500Y-110874999D02*
X117062500Y-112125001D01*
G75*
G02*
X116812501Y-112375000I-249999J0D01*
G01*
X116187499Y-112375000D01*
G75*
G02*
X115937500Y-112125001I0J249999D01*
G01*
X115937500Y-110874999D01*
G75*
G02*
X116187499Y-110625000I249999J0D01*
G01*
X116812501Y-110625000D01*
G75*
G02*
X117062500Y-110874999I0J-249999D01*
G01*
G37*
%TD.AperFunction*%
%TO.P,R2,1*%
%TO.N,Net-(Q2-Pad3)*%
%TA.AperFunction,SMDPad,CuDef*%
G36*
G01*
X119987500Y-110874999D02*
X119987500Y-112125001D01*
G75*
G02*
X119737501Y-112375000I-249999J0D01*
G01*
X119112499Y-112375000D01*
G75*
G02*
X118862500Y-112125001I0J249999D01*
G01*
X118862500Y-110874999D01*
G75*
G02*
X119112499Y-110625000I249999J0D01*
G01*
X119737501Y-110625000D01*
G75*
G02*
X119987500Y-110874999I0J-249999D01*
G01*
G37*
%TD.AperFunction*%
%TD*%
%TO.P,R1,2*%
%TO.N,Net-(D1-Pad1)*%
%TA.AperFunction,SMDPad,CuDef*%
G36*
G01*
X117062500Y-113874999D02*
X117062500Y-115125001D01*
G75*
G02*
X116812501Y-115375000I-249999J0D01*
G01*
X116187499Y-115375000D01*
G75*
G02*
X115937500Y-115125001I0J249999D01*
G01*
X115937500Y-113874999D01*
G75*
G02*
X116187499Y-113625000I249999J0D01*
G01*
X116812501Y-113625000D01*
G75*
G02*
X117062500Y-113874999I0J-249999D01*
G01*
G37*
%TD.AperFunction*%
%TO.P,R1,1*%
%TO.N,Net-(Q1-Pad3)*%
%TA.AperFunction,SMDPad,CuDef*%
G36*
G01*
X119987500Y-113874999D02*
X119987500Y-115125001D01*
G75*
G02*
X119737501Y-115375000I-249999J0D01*
G01*
X119112499Y-115375000D01*
G75*
G02*
X118862500Y-115125001I0J249999D01*
G01*
X118862500Y-113874999D01*
G75*
G02*
X119112499Y-113625000I249999J0D01*
G01*
X119737501Y-113625000D01*
G75*
G02*
X119987500Y-113874999I0J-249999D01*
G01*
G37*
%TD.AperFunction*%
%TD*%
D14*
%TO.P,Q2,3*%
%TO.N,Net-(Q2-Pad3)*%
X121500000Y-111000000D03*
%TO.P,Q2,2*%
%TO.N,+5V*%
X123500000Y-110050000D03*
%TO.P,Q2,1*%
%TO.N,Net-(Q2-Pad1)*%
X123500000Y-111950000D03*
%TD*%
%TO.P,Q1,3*%
%TO.N,Net-(Q1-Pad3)*%
X121500000Y-115000000D03*
%TO.P,Q1,2*%
%TO.N,+5V*%
X123500000Y-114050000D03*
%TO.P,Q1,1*%
%TO.N,Net-(Q1-Pad1)*%
X123500000Y-115950000D03*
%TD*%
D15*
%TO.P,L1,2*%
%TO.N,Net-(C2-Pad1)*%
X120500000Y-139450000D03*
%TO.P,L1,1*%
%TO.N,Net-(D3-Pad1)*%
X120500000Y-129550000D03*
%TD*%
D10*
%TO.P,J2,4*%
%TO.N,GND*%
X113500000Y-118380000D03*
%TO.P,J2,3*%
%TO.N,/Tx*%
X113500000Y-120920000D03*
%TO.P,J2,2*%
%TO.N,/Rx*%
X113500000Y-123460000D03*
D11*
%TO.P,J2,1*%
%TO.N,+5V*%
X113500000Y-126000000D03*
%TD*%
D16*
%TO.P,J1,6*%
%TO.N,Net-(J1-Pad6)*%
X133150000Y-110040000D03*
%TO.P,J1,8*%
%TO.N,Net-(F1-Pad2)*%
X130610000Y-110040000D03*
D17*
%TO.P,J1,SH*%
%TO.N,GND*%
X142825000Y-98100000D03*
D16*
%TO.P,J1,2*%
%TO.N,Net-(J1-Pad2)*%
X138230000Y-110040000D03*
D18*
%TO.P,J1,1*%
%TO.N,Net-(J1-Pad1)*%
X139500000Y-107500000D03*
D16*
%TO.P,J1,7*%
%TO.N,Net-(J1-Pad7)*%
X131880000Y-107500000D03*
%TO.P,J1,4*%
%TO.N,GND*%
X135690000Y-110040000D03*
%TO.P,J1,5*%
X134420000Y-107500000D03*
%TO.P,J1,3*%
%TO.N,/Tx*%
X136960000Y-107500000D03*
D17*
%TO.P,J1,SH*%
%TO.N,GND*%
X127285000Y-98100000D03*
%TD*%
D19*
%TO.P,F2,2*%
%TO.N,Net-(C2-Pad1)*%
X123990000Y-125580000D03*
%TO.P,F2,1*%
%TO.N,+5V*%
X124000000Y-120500000D03*
%TD*%
%TO.P,F1,2*%
%TO.N,Net-(F1-Pad2)*%
X148510000Y-102920000D03*
%TO.P,F1,1*%
%TO.N,+12V*%
X148500000Y-108000000D03*
%TD*%
D20*
%TO.P,D3,2*%
%TO.N,GND*%
X149000000Y-133900000D03*
%TO.P,D3,1*%
%TO.N,Net-(D3-Pad1)*%
X149000000Y-129100000D03*
%TD*%
%TO.P,C2,2*%
%TO.N,GND*%
%TA.AperFunction,SMDPad,CuDef*%
G36*
G01*
X112525000Y-134425000D02*
X110475000Y-134425000D01*
G75*
G02*
X110225000Y-134175000I0J250000D01*
G01*
X110225000Y-132600000D01*
G75*
G02*
X110475000Y-132350000I250000J0D01*
G01*
X112525000Y-132350000D01*
G75*
G02*
X112775000Y-132600000I0J-250000D01*
G01*
X112775000Y-134175000D01*
G75*
G02*
X112525000Y-134425000I-250000J0D01*
G01*
G37*
%TD.AperFunction*%
%TO.P,C2,1*%
%TO.N,Net-(C2-Pad1)*%
%TA.AperFunction,SMDPad,CuDef*%
G36*
G01*
X112525000Y-140650000D02*
X110475000Y-140650000D01*
G75*
G02*
X110225000Y-140400000I0J250000D01*
G01*
X110225000Y-138825000D01*
G75*
G02*
X110475000Y-138575000I250000J0D01*
G01*
X112525000Y-138575000D01*
G75*
G02*
X112775000Y-138825000I0J-250000D01*
G01*
X112775000Y-140400000D01*
G75*
G02*
X112525000Y-140650000I-250000J0D01*
G01*
G37*
%TD.AperFunction*%
%TD*%
%TO.P,C1,2*%
%TO.N,GND*%
%TA.AperFunction,SMDPad,CuDef*%
G36*
G01*
X141950000Y-132450000D02*
X143050000Y-132450000D01*
G75*
G02*
X143300000Y-132700000I0J-250000D01*
G01*
X143300000Y-135700000D01*
G75*
G02*
X143050000Y-135950000I-250000J0D01*
G01*
X141950000Y-135950000D01*
G75*
G02*
X141700000Y-135700000I0J250000D01*
G01*
X141700000Y-132700000D01*
G75*
G02*
X141950000Y-132450000I250000J0D01*
G01*
G37*
%TD.AperFunction*%
%TO.P,C1,1*%
%TO.N,+12V*%
%TA.AperFunction,SMDPad,CuDef*%
G36*
G01*
X141950000Y-127050000D02*
X143050000Y-127050000D01*
G75*
G02*
X143300000Y-127300000I0J-250000D01*
G01*
X143300000Y-130300000D01*
G75*
G02*
X143050000Y-130550000I-250000J0D01*
G01*
X141950000Y-130550000D01*
G75*
G02*
X141700000Y-130300000I0J250000D01*
G01*
X141700000Y-127300000D01*
G75*
G02*
X141950000Y-127050000I250000J0D01*
G01*
G37*
%TD.AperFunction*%
%TD*%
D19*
%TO.P,BZ1,2*%
%TO.N,Net-(BZ1-Pad2)*%
X119100000Y-99000000D03*
D21*
%TO.P,BZ1,1*%
%TO.N,+5V*%
X111500000Y-99000000D03*
%TD*%
D22*
%TO.N,GND*%
X129000000Y-134500000D03*
X136000000Y-134000000D03*
X136000000Y-132500000D03*
X130500000Y-136000000D03*
X130500000Y-139500000D03*
X130500000Y-138000000D03*
X128000000Y-138500000D03*
X128000000Y-137000000D03*
X128000000Y-135000000D03*
X128000000Y-133000000D03*
X131000000Y-132500000D03*
X132500000Y-138000000D03*
X132500000Y-139500000D03*
X134500000Y-139500000D03*
X134500000Y-138000000D03*
X134500000Y-135000000D03*
X134500000Y-133000000D03*
X137000000Y-133000000D03*
X137000000Y-135000000D03*
X137000000Y-138000000D03*
X137000000Y-139500000D03*
X123500000Y-103000000D03*
X107612500Y-133387500D03*
X108612500Y-133387500D03*
%TO.N,Net-(D3-Pad1)*%
X146500000Y-128000000D03*
X134500000Y-124000000D03*
%TO.N,Net-(R4-Pad1)*%
X146000000Y-121500000D03*
X129000000Y-118000000D03*
%TD*%
D23*
%TO.N,Net-(BZ1-Pad2)*%
X123412500Y-99000000D02*
X123500000Y-99087500D01*
X119100000Y-99000000D02*
X123412500Y-99000000D01*
X143945000Y-121075000D02*
X143945000Y-118945000D01*
X143945000Y-118945000D02*
X142500000Y-117500000D01*
X142500000Y-117500000D02*
X134500000Y-117500000D01*
X134500000Y-117500000D02*
X133000000Y-116000000D01*
X133000000Y-116000000D02*
X133000000Y-113500000D01*
X133000000Y-113500000D02*
X131000000Y-111500000D01*
X131000000Y-111500000D02*
X127500000Y-111500000D01*
X127500000Y-111500000D02*
X125500000Y-109500000D01*
X125500000Y-101087500D02*
X123500000Y-99087500D01*
X125500000Y-109500000D02*
X125500000Y-101087500D01*
%TO.N,+5V*%
X113500000Y-126000000D02*
X117000000Y-126000000D01*
X117000000Y-126000000D02*
X120500000Y-122500000D01*
X122000000Y-122500000D02*
X124000000Y-120500000D01*
X120500000Y-122500000D02*
X122000000Y-122500000D01*
X123500000Y-110050000D02*
X123450000Y-110050000D01*
X123450000Y-110050000D02*
X122500000Y-111000000D01*
X122500000Y-113050000D02*
X123500000Y-114050000D01*
X122500000Y-111000000D02*
X122500000Y-113050000D01*
X123500000Y-114050000D02*
X122950000Y-114050000D01*
X122724999Y-119224999D02*
X124000000Y-120500000D01*
X122724999Y-114275001D02*
X122724999Y-119224999D01*
X122950000Y-114050000D02*
X122724999Y-114275001D01*
X134480000Y-120500000D02*
X135055000Y-121075000D01*
X124000000Y-120500000D02*
X134480000Y-120500000D01*
X111500000Y-99000000D02*
X111500000Y-100000000D01*
X111500000Y-100000000D02*
X113500000Y-102000000D01*
X113500000Y-102000000D02*
X121000000Y-102000000D01*
X123500000Y-104500000D02*
X123500000Y-110050000D01*
X121000000Y-102000000D02*
X123500000Y-104500000D01*
D24*
%TO.N,GND*%
X148700000Y-134200000D02*
X149000000Y-133900000D01*
X142500000Y-134200000D02*
X148700000Y-134200000D01*
X140325000Y-136375000D02*
X142500000Y-134200000D01*
X132500000Y-136375000D02*
X140325000Y-136375000D01*
X132500000Y-127225000D02*
X132500000Y-136375000D01*
X129100000Y-132975000D02*
X132500000Y-136375000D01*
X129100000Y-127225000D02*
X129100000Y-132975000D01*
D23*
X135690000Y-110040000D02*
X135690000Y-112310000D01*
X135055000Y-112945000D02*
X135055000Y-115925000D01*
X135690000Y-112310000D02*
X135055000Y-112945000D01*
X123500000Y-100912500D02*
X123500000Y-103000000D01*
X123500000Y-103000000D02*
X123500000Y-103000000D01*
D24*
X111500000Y-133387500D02*
X108612500Y-133387500D01*
X107612500Y-133387500D02*
X107612500Y-133387500D01*
X108612500Y-133387500D02*
X107612500Y-133387500D01*
D23*
X134420000Y-108770000D02*
X135690000Y-110040000D01*
X134420000Y-107500000D02*
X134420000Y-108770000D01*
X128000000Y-135000000D02*
X128000000Y-136500000D01*
X128000000Y-136500000D02*
X125500000Y-139000000D01*
X125500000Y-139000000D02*
X125000000Y-139000000D01*
D24*
X128000000Y-138500000D02*
X125500000Y-138500000D01*
X132500000Y-136375000D02*
X126125000Y-136375000D01*
X126125000Y-136375000D02*
X125500000Y-137000000D01*
X127625000Y-136375000D02*
X126250000Y-137750000D01*
X132500000Y-136375000D02*
X127625000Y-136375000D01*
X126250000Y-137750000D02*
X126000000Y-138000000D01*
X132500000Y-136375000D02*
X137375000Y-136375000D01*
X137375000Y-136375000D02*
X140500000Y-139500000D01*
X132500000Y-136375000D02*
X135875000Y-136375000D01*
X135875000Y-136375000D02*
X138500000Y-139000000D01*
X137000000Y-135000000D02*
X139000000Y-135000000D01*
X132500000Y-136375000D02*
X135625000Y-136375000D01*
X135625000Y-136375000D02*
X139000000Y-133000000D01*
X136000000Y-132500000D02*
X136000000Y-131000000D01*
X134500000Y-133000000D02*
X134500000Y-131000000D01*
X132500000Y-136375000D02*
X132500000Y-132500000D01*
X132500000Y-132500000D02*
X131000000Y-131000000D01*
%TO.N,+12V*%
X140925000Y-127225000D02*
X142500000Y-128800000D01*
X135900000Y-127225000D02*
X140925000Y-127225000D01*
X142500000Y-128800000D02*
X142500000Y-127000000D01*
X143000000Y-126500000D02*
X142500000Y-127000000D01*
X146000000Y-126500000D02*
X143000000Y-126500000D01*
X148500000Y-108000000D02*
X149500000Y-109000000D01*
X149500000Y-123000000D02*
X146000000Y-126500000D01*
X149500000Y-109000000D02*
X149500000Y-123000000D01*
%TO.N,Net-(C2-Pad1)*%
X120337500Y-139612500D02*
X120500000Y-139450000D01*
X111500000Y-139612500D02*
X120337500Y-139612500D01*
X111500000Y-139612500D02*
X111500000Y-138000000D01*
X111500000Y-138000000D02*
X114000000Y-135500000D01*
X114000000Y-135500000D02*
X122500000Y-135500000D01*
X123990000Y-134010000D02*
X123990000Y-125580000D01*
X122500000Y-135500000D02*
X123990000Y-134010000D01*
X120550000Y-139450000D02*
X120500000Y-139450000D01*
X125607499Y-134392501D02*
X120550000Y-139450000D01*
X130210001Y-124224999D02*
X127989999Y-124224999D01*
X125607499Y-126607499D02*
X125607499Y-134392501D01*
X127989999Y-124224999D02*
X125607499Y-126607499D01*
X130800000Y-124814998D02*
X130210001Y-124224999D01*
X130800000Y-127225000D02*
X130800000Y-124814998D01*
D23*
%TO.N,Net-(D1-Pad2)*%
X116460000Y-111460000D02*
X116500000Y-111500000D01*
X113500000Y-111460000D02*
X116460000Y-111460000D01*
%TO.N,Net-(D1-Pad1)*%
X116000000Y-114000000D02*
X116500000Y-114500000D01*
X113500000Y-114000000D02*
X116000000Y-114000000D01*
%TO.N,Net-(D3-Pad1)*%
X146500000Y-128000000D02*
X146500000Y-128000000D01*
D24*
X147900000Y-128000000D02*
X149000000Y-129100000D01*
X146500000Y-128000000D02*
X147900000Y-128000000D01*
X134200000Y-124300000D02*
X134500000Y-124000000D01*
X134200000Y-127225000D02*
X134200000Y-124300000D01*
X120500000Y-129550000D02*
X120500000Y-125000000D01*
X120500000Y-125000000D02*
X121620001Y-123879999D01*
X134500000Y-124000000D02*
X132500000Y-122000000D01*
X132500000Y-122000000D02*
X126000000Y-122000000D01*
X124120001Y-123879999D02*
X121620001Y-123879999D01*
X126000000Y-122000000D02*
X124120001Y-123879999D01*
D23*
%TO.N,Net-(F1-Pad2)*%
X130610000Y-110040000D02*
X129540000Y-110040000D01*
X129540000Y-110040000D02*
X129000000Y-109500000D01*
X129000000Y-109500000D02*
X129000000Y-105500000D01*
X129000000Y-105500000D02*
X130500000Y-104000000D01*
X147430000Y-104000000D02*
X148510000Y-102920000D01*
X130500000Y-104000000D02*
X147430000Y-104000000D01*
%TO.N,Net-(J1-Pad2)*%
X138230000Y-106684998D02*
X138230000Y-110040000D01*
X140510001Y-106424999D02*
X138489999Y-106424999D01*
X142675000Y-108589998D02*
X140510001Y-106424999D01*
X138489999Y-106424999D02*
X138230000Y-106684998D01*
X142675000Y-115925000D02*
X142675000Y-108589998D01*
%TO.N,Net-(J1-Pad1)*%
X139500000Y-107500000D02*
X139500000Y-108000000D01*
X141405000Y-109905000D02*
X141405000Y-115925000D01*
X139500000Y-108000000D02*
X141405000Y-109905000D01*
%TO.N,Net-(J1-Pad7)*%
X143945000Y-115925000D02*
X143945000Y-108445000D01*
X141474989Y-105974989D02*
X133405011Y-105974989D01*
X133405011Y-105974989D02*
X131880000Y-107500000D01*
X143945000Y-108445000D02*
X141474989Y-105974989D01*
%TO.N,Net-(Q1-Pad3)*%
X121000000Y-114500000D02*
X121500000Y-115000000D01*
X119425000Y-114500000D02*
X121000000Y-114500000D01*
%TO.N,Net-(Q1-Pad1)*%
X127037500Y-115950000D02*
X127087500Y-116000000D01*
X123500000Y-115950000D02*
X127037500Y-115950000D01*
%TO.N,Net-(Q2-Pad3)*%
X121000000Y-111500000D02*
X121500000Y-111000000D01*
X119425000Y-111500000D02*
X121000000Y-111500000D01*
%TO.N,Net-(Q2-Pad1)*%
X125537500Y-111950000D02*
X127087500Y-113500000D01*
X123500000Y-111950000D02*
X125537500Y-111950000D01*
%TO.N,Net-(R4-Pad1)*%
X142675000Y-121950000D02*
X143225000Y-122500000D01*
X142675000Y-121075000D02*
X142675000Y-121950000D01*
X143225000Y-122500000D02*
X145000000Y-122500000D01*
X145000000Y-122500000D02*
X146000000Y-121500000D01*
X146000000Y-121500000D02*
X146000000Y-121500000D01*
X128912500Y-117912500D02*
X129000000Y-118000000D01*
X128912500Y-116000000D02*
X128912500Y-117912500D01*
%TO.N,Net-(R5-Pad1)*%
X128912500Y-113500000D02*
X131500000Y-113500000D01*
X132549991Y-116186401D02*
X134363590Y-118000000D01*
X132549990Y-114549990D02*
X132549991Y-116186401D01*
X131500000Y-113500000D02*
X132549990Y-114549990D01*
X134363590Y-118000000D02*
X141000000Y-118000000D01*
X141405000Y-118405000D02*
X141405000Y-121075000D01*
X141000000Y-118000000D02*
X141405000Y-118405000D01*
%TD*%
D25*
%TO.N,GND*%
X128425518Y-130150812D02*
X128550000Y-130163072D01*
X128814250Y-130160000D01*
X128847250Y-130127000D01*
X129352750Y-130127000D01*
X129385750Y-130160000D01*
X129650000Y-130163072D01*
X129774482Y-130150812D01*
X129852980Y-130127000D01*
X130047020Y-130127000D01*
X130125518Y-130150812D01*
X130250000Y-130163072D01*
X131350000Y-130163072D01*
X131474482Y-130150812D01*
X131552980Y-130127000D01*
X131747020Y-130127000D01*
X131825518Y-130150812D01*
X131950000Y-130163072D01*
X132214250Y-130160000D01*
X132247250Y-130127000D01*
X132752750Y-130127000D01*
X132785750Y-130160000D01*
X133050000Y-130163072D01*
X133174482Y-130150812D01*
X133252980Y-130127000D01*
X133447020Y-130127000D01*
X133525518Y-130150812D01*
X133650000Y-130163072D01*
X134750000Y-130163072D01*
X134874482Y-130150812D01*
X134952980Y-130127000D01*
X135147020Y-130127000D01*
X135225518Y-130150812D01*
X135350000Y-130163072D01*
X136450000Y-130163072D01*
X136574482Y-130150812D01*
X136652980Y-130127000D01*
X141061928Y-130127000D01*
X141061928Y-130300000D01*
X141078992Y-130473254D01*
X141129528Y-130639850D01*
X141211595Y-130793386D01*
X141322038Y-130927962D01*
X141456614Y-131038405D01*
X141610150Y-131120472D01*
X141776746Y-131171008D01*
X141950000Y-131188072D01*
X143050000Y-131188072D01*
X143223254Y-131171008D01*
X143389850Y-131120472D01*
X143543386Y-131038405D01*
X143677962Y-130927962D01*
X143788405Y-130793386D01*
X143870472Y-130639850D01*
X143921008Y-130473254D01*
X143938072Y-130300000D01*
X143938072Y-130127000D01*
X147078041Y-130127000D01*
X147119463Y-130204494D01*
X147198815Y-130301185D01*
X147295506Y-130380537D01*
X147405820Y-130439502D01*
X147525518Y-130475812D01*
X147650000Y-130488072D01*
X150350000Y-130488072D01*
X150474482Y-130475812D01*
X150594180Y-130439502D01*
X150704494Y-130380537D01*
X150801185Y-130301185D01*
X150840001Y-130253888D01*
X150840001Y-132746112D01*
X150801185Y-132698815D01*
X150704494Y-132619463D01*
X150594180Y-132560498D01*
X150474482Y-132524188D01*
X150350000Y-132511928D01*
X149285750Y-132515000D01*
X149127000Y-132673750D01*
X149127000Y-133773000D01*
X149147000Y-133773000D01*
X149147000Y-134027000D01*
X149127000Y-134027000D01*
X149127000Y-135126250D01*
X149285750Y-135285000D01*
X150350000Y-135288072D01*
X150474482Y-135275812D01*
X150594180Y-135239502D01*
X150704494Y-135180537D01*
X150801185Y-135101185D01*
X150840001Y-135053888D01*
X150840001Y-139467711D01*
X150811375Y-139759660D01*
X150735965Y-140009429D01*
X150613477Y-140239794D01*
X150448579Y-140441979D01*
X150247546Y-140608288D01*
X150018046Y-140732378D01*
X149768805Y-140809531D01*
X149478911Y-140840000D01*
X138537908Y-140840000D01*
X138536127Y-138279872D01*
X146265000Y-138279872D01*
X146265000Y-138720128D01*
X146350890Y-139151925D01*
X146519369Y-139558669D01*
X146763962Y-139924729D01*
X147075271Y-140236038D01*
X147441331Y-140480631D01*
X147848075Y-140649110D01*
X148279872Y-140735000D01*
X148720128Y-140735000D01*
X149151925Y-140649110D01*
X149558669Y-140480631D01*
X149924729Y-140236038D01*
X150236038Y-139924729D01*
X150480631Y-139558669D01*
X150649110Y-139151925D01*
X150735000Y-138720128D01*
X150735000Y-138279872D01*
X150649110Y-137848075D01*
X150480631Y-137441331D01*
X150236038Y-137075271D01*
X149924729Y-136763962D01*
X149558669Y-136519369D01*
X149151925Y-136350890D01*
X148720128Y-136265000D01*
X148279872Y-136265000D01*
X147848075Y-136350890D01*
X147441331Y-136519369D01*
X147075271Y-136763962D01*
X146763962Y-137075271D01*
X146519369Y-137441331D01*
X146350890Y-137848075D01*
X146265000Y-138279872D01*
X138536127Y-138279872D01*
X138535000Y-136660750D01*
X138376250Y-136502000D01*
X132627000Y-136502000D01*
X132627000Y-136522000D01*
X132373000Y-136522000D01*
X132373000Y-136502000D01*
X126623750Y-136502000D01*
X126465000Y-136660750D01*
X126462092Y-140840000D01*
X123838072Y-140840000D01*
X123838072Y-138129339D01*
X125106048Y-136499085D01*
X126370645Y-135234488D01*
X126413948Y-135198950D01*
X126453718Y-135150491D01*
X126464338Y-135137551D01*
X126465000Y-136089250D01*
X126623750Y-136248000D01*
X132373000Y-136248000D01*
X132373000Y-131198750D01*
X132627000Y-131198750D01*
X132627000Y-136248000D01*
X138376250Y-136248000D01*
X138535000Y-136089250D01*
X138535096Y-135950000D01*
X141061928Y-135950000D01*
X141074188Y-136074482D01*
X141110498Y-136194180D01*
X141169463Y-136304494D01*
X141248815Y-136401185D01*
X141345506Y-136480537D01*
X141455820Y-136539502D01*
X141575518Y-136575812D01*
X141700000Y-136588072D01*
X142214250Y-136585000D01*
X142373000Y-136426250D01*
X142373000Y-134327000D01*
X142627000Y-134327000D01*
X142627000Y-136426250D01*
X142785750Y-136585000D01*
X143300000Y-136588072D01*
X143424482Y-136575812D01*
X143544180Y-136539502D01*
X143654494Y-136480537D01*
X143751185Y-136401185D01*
X143830537Y-136304494D01*
X143889502Y-136194180D01*
X143925812Y-136074482D01*
X143938072Y-135950000D01*
X143935345Y-134650000D01*
X147011928Y-134650000D01*
X147024188Y-134774482D01*
X147060498Y-134894180D01*
X147119463Y-135004494D01*
X147198815Y-135101185D01*
X147295506Y-135180537D01*
X147405820Y-135239502D01*
X147525518Y-135275812D01*
X147650000Y-135288072D01*
X148714250Y-135285000D01*
X148873000Y-135126250D01*
X148873000Y-134027000D01*
X147173750Y-134027000D01*
X147015000Y-134185750D01*
X147011928Y-134650000D01*
X143935345Y-134650000D01*
X143935000Y-134485750D01*
X143776250Y-134327000D01*
X142627000Y-134327000D01*
X142373000Y-134327000D01*
X141223750Y-134327000D01*
X141065000Y-134485750D01*
X141061928Y-135950000D01*
X138535096Y-135950000D01*
X138537532Y-132450000D01*
X141061928Y-132450000D01*
X141065000Y-133914250D01*
X141223750Y-134073000D01*
X142373000Y-134073000D01*
X142373000Y-131973750D01*
X142627000Y-131973750D01*
X142627000Y-134073000D01*
X143776250Y-134073000D01*
X143935000Y-133914250D01*
X143936603Y-133150000D01*
X147011928Y-133150000D01*
X147015000Y-133614250D01*
X147173750Y-133773000D01*
X148873000Y-133773000D01*
X148873000Y-132673750D01*
X148714250Y-132515000D01*
X147650000Y-132511928D01*
X147525518Y-132524188D01*
X147405820Y-132560498D01*
X147295506Y-132619463D01*
X147198815Y-132698815D01*
X147119463Y-132795506D01*
X147060498Y-132905820D01*
X147024188Y-133025518D01*
X147011928Y-133150000D01*
X143936603Y-133150000D01*
X143938072Y-132450000D01*
X143925812Y-132325518D01*
X143889502Y-132205820D01*
X143830537Y-132095506D01*
X143751185Y-131998815D01*
X143654494Y-131919463D01*
X143544180Y-131860498D01*
X143424482Y-131824188D01*
X143300000Y-131811928D01*
X142785750Y-131815000D01*
X142627000Y-131973750D01*
X142373000Y-131973750D01*
X142214250Y-131815000D01*
X141700000Y-131811928D01*
X141575518Y-131824188D01*
X141455820Y-131860498D01*
X141345506Y-131919463D01*
X141248815Y-131998815D01*
X141169463Y-132095506D01*
X141110498Y-132205820D01*
X141074188Y-132325518D01*
X141061928Y-132450000D01*
X138537532Y-132450000D01*
X138538072Y-131675000D01*
X138525812Y-131550518D01*
X138489502Y-131430820D01*
X138430537Y-131320506D01*
X138351185Y-131223815D01*
X138254494Y-131144463D01*
X138144180Y-131085498D01*
X138024482Y-131049188D01*
X137900000Y-131036928D01*
X132785750Y-131040000D01*
X132627000Y-131198750D01*
X132373000Y-131198750D01*
X132214250Y-131040000D01*
X127100000Y-131036928D01*
X126975518Y-131049188D01*
X126855820Y-131085498D01*
X126745506Y-131144463D01*
X126742499Y-131146931D01*
X126742499Y-130127000D01*
X128347020Y-130127000D01*
X128425518Y-130150812D01*
%TA.AperFunction,Conductor*%
D26*
G36*
X128425518Y-130150812D02*
G01*
X128550000Y-130163072D01*
X128814250Y-130160000D01*
X128847250Y-130127000D01*
X129352750Y-130127000D01*
X129385750Y-130160000D01*
X129650000Y-130163072D01*
X129774482Y-130150812D01*
X129852980Y-130127000D01*
X130047020Y-130127000D01*
X130125518Y-130150812D01*
X130250000Y-130163072D01*
X131350000Y-130163072D01*
X131474482Y-130150812D01*
X131552980Y-130127000D01*
X131747020Y-130127000D01*
X131825518Y-130150812D01*
X131950000Y-130163072D01*
X132214250Y-130160000D01*
X132247250Y-130127000D01*
X132752750Y-130127000D01*
X132785750Y-130160000D01*
X133050000Y-130163072D01*
X133174482Y-130150812D01*
X133252980Y-130127000D01*
X133447020Y-130127000D01*
X133525518Y-130150812D01*
X133650000Y-130163072D01*
X134750000Y-130163072D01*
X134874482Y-130150812D01*
X134952980Y-130127000D01*
X135147020Y-130127000D01*
X135225518Y-130150812D01*
X135350000Y-130163072D01*
X136450000Y-130163072D01*
X136574482Y-130150812D01*
X136652980Y-130127000D01*
X141061928Y-130127000D01*
X141061928Y-130300000D01*
X141078992Y-130473254D01*
X141129528Y-130639850D01*
X141211595Y-130793386D01*
X141322038Y-130927962D01*
X141456614Y-131038405D01*
X141610150Y-131120472D01*
X141776746Y-131171008D01*
X141950000Y-131188072D01*
X143050000Y-131188072D01*
X143223254Y-131171008D01*
X143389850Y-131120472D01*
X143543386Y-131038405D01*
X143677962Y-130927962D01*
X143788405Y-130793386D01*
X143870472Y-130639850D01*
X143921008Y-130473254D01*
X143938072Y-130300000D01*
X143938072Y-130127000D01*
X147078041Y-130127000D01*
X147119463Y-130204494D01*
X147198815Y-130301185D01*
X147295506Y-130380537D01*
X147405820Y-130439502D01*
X147525518Y-130475812D01*
X147650000Y-130488072D01*
X150350000Y-130488072D01*
X150474482Y-130475812D01*
X150594180Y-130439502D01*
X150704494Y-130380537D01*
X150801185Y-130301185D01*
X150840001Y-130253888D01*
X150840001Y-132746112D01*
X150801185Y-132698815D01*
X150704494Y-132619463D01*
X150594180Y-132560498D01*
X150474482Y-132524188D01*
X150350000Y-132511928D01*
X149285750Y-132515000D01*
X149127000Y-132673750D01*
X149127000Y-133773000D01*
X149147000Y-133773000D01*
X149147000Y-134027000D01*
X149127000Y-134027000D01*
X149127000Y-135126250D01*
X149285750Y-135285000D01*
X150350000Y-135288072D01*
X150474482Y-135275812D01*
X150594180Y-135239502D01*
X150704494Y-135180537D01*
X150801185Y-135101185D01*
X150840001Y-135053888D01*
X150840001Y-139467711D01*
X150811375Y-139759660D01*
X150735965Y-140009429D01*
X150613477Y-140239794D01*
X150448579Y-140441979D01*
X150247546Y-140608288D01*
X150018046Y-140732378D01*
X149768805Y-140809531D01*
X149478911Y-140840000D01*
X138537908Y-140840000D01*
X138536127Y-138279872D01*
X146265000Y-138279872D01*
X146265000Y-138720128D01*
X146350890Y-139151925D01*
X146519369Y-139558669D01*
X146763962Y-139924729D01*
X147075271Y-140236038D01*
X147441331Y-140480631D01*
X147848075Y-140649110D01*
X148279872Y-140735000D01*
X148720128Y-140735000D01*
X149151925Y-140649110D01*
X149558669Y-140480631D01*
X149924729Y-140236038D01*
X150236038Y-139924729D01*
X150480631Y-139558669D01*
X150649110Y-139151925D01*
X150735000Y-138720128D01*
X150735000Y-138279872D01*
X150649110Y-137848075D01*
X150480631Y-137441331D01*
X150236038Y-137075271D01*
X149924729Y-136763962D01*
X149558669Y-136519369D01*
X149151925Y-136350890D01*
X148720128Y-136265000D01*
X148279872Y-136265000D01*
X147848075Y-136350890D01*
X147441331Y-136519369D01*
X147075271Y-136763962D01*
X146763962Y-137075271D01*
X146519369Y-137441331D01*
X146350890Y-137848075D01*
X146265000Y-138279872D01*
X138536127Y-138279872D01*
X138535000Y-136660750D01*
X138376250Y-136502000D01*
X132627000Y-136502000D01*
X132627000Y-136522000D01*
X132373000Y-136522000D01*
X132373000Y-136502000D01*
X126623750Y-136502000D01*
X126465000Y-136660750D01*
X126462092Y-140840000D01*
X123838072Y-140840000D01*
X123838072Y-138129339D01*
X125106048Y-136499085D01*
X126370645Y-135234488D01*
X126413948Y-135198950D01*
X126453718Y-135150491D01*
X126464338Y-135137551D01*
X126465000Y-136089250D01*
X126623750Y-136248000D01*
X132373000Y-136248000D01*
X132373000Y-131198750D01*
X132627000Y-131198750D01*
X132627000Y-136248000D01*
X138376250Y-136248000D01*
X138535000Y-136089250D01*
X138535096Y-135950000D01*
X141061928Y-135950000D01*
X141074188Y-136074482D01*
X141110498Y-136194180D01*
X141169463Y-136304494D01*
X141248815Y-136401185D01*
X141345506Y-136480537D01*
X141455820Y-136539502D01*
X141575518Y-136575812D01*
X141700000Y-136588072D01*
X142214250Y-136585000D01*
X142373000Y-136426250D01*
X142373000Y-134327000D01*
X142627000Y-134327000D01*
X142627000Y-136426250D01*
X142785750Y-136585000D01*
X143300000Y-136588072D01*
X143424482Y-136575812D01*
X143544180Y-136539502D01*
X143654494Y-136480537D01*
X143751185Y-136401185D01*
X143830537Y-136304494D01*
X143889502Y-136194180D01*
X143925812Y-136074482D01*
X143938072Y-135950000D01*
X143935345Y-134650000D01*
X147011928Y-134650000D01*
X147024188Y-134774482D01*
X147060498Y-134894180D01*
X147119463Y-135004494D01*
X147198815Y-135101185D01*
X147295506Y-135180537D01*
X147405820Y-135239502D01*
X147525518Y-135275812D01*
X147650000Y-135288072D01*
X148714250Y-135285000D01*
X148873000Y-135126250D01*
X148873000Y-134027000D01*
X147173750Y-134027000D01*
X147015000Y-134185750D01*
X147011928Y-134650000D01*
X143935345Y-134650000D01*
X143935000Y-134485750D01*
X143776250Y-134327000D01*
X142627000Y-134327000D01*
X142373000Y-134327000D01*
X141223750Y-134327000D01*
X141065000Y-134485750D01*
X141061928Y-135950000D01*
X138535096Y-135950000D01*
X138537532Y-132450000D01*
X141061928Y-132450000D01*
X141065000Y-133914250D01*
X141223750Y-134073000D01*
X142373000Y-134073000D01*
X142373000Y-131973750D01*
X142627000Y-131973750D01*
X142627000Y-134073000D01*
X143776250Y-134073000D01*
X143935000Y-133914250D01*
X143936603Y-133150000D01*
X147011928Y-133150000D01*
X147015000Y-133614250D01*
X147173750Y-133773000D01*
X148873000Y-133773000D01*
X148873000Y-132673750D01*
X148714250Y-132515000D01*
X147650000Y-132511928D01*
X147525518Y-132524188D01*
X147405820Y-132560498D01*
X147295506Y-132619463D01*
X147198815Y-132698815D01*
X147119463Y-132795506D01*
X147060498Y-132905820D01*
X147024188Y-133025518D01*
X147011928Y-133150000D01*
X143936603Y-133150000D01*
X143938072Y-132450000D01*
X143925812Y-132325518D01*
X143889502Y-132205820D01*
X143830537Y-132095506D01*
X143751185Y-131998815D01*
X143654494Y-131919463D01*
X143544180Y-131860498D01*
X143424482Y-131824188D01*
X143300000Y-131811928D01*
X142785750Y-131815000D01*
X142627000Y-131973750D01*
X142373000Y-131973750D01*
X142214250Y-131815000D01*
X141700000Y-131811928D01*
X141575518Y-131824188D01*
X141455820Y-131860498D01*
X141345506Y-131919463D01*
X141248815Y-131998815D01*
X141169463Y-132095506D01*
X141110498Y-132205820D01*
X141074188Y-132325518D01*
X141061928Y-132450000D01*
X138537532Y-132450000D01*
X138538072Y-131675000D01*
X138525812Y-131550518D01*
X138489502Y-131430820D01*
X138430537Y-131320506D01*
X138351185Y-131223815D01*
X138254494Y-131144463D01*
X138144180Y-131085498D01*
X138024482Y-131049188D01*
X137900000Y-131036928D01*
X132785750Y-131040000D01*
X132627000Y-131198750D01*
X132373000Y-131198750D01*
X132214250Y-131040000D01*
X127100000Y-131036928D01*
X126975518Y-131049188D01*
X126855820Y-131085498D01*
X126745506Y-131144463D01*
X126742499Y-131146931D01*
X126742499Y-130127000D01*
X128347020Y-130127000D01*
X128425518Y-130150812D01*
G37*
%TD.AperFunction*%
%TD*%
M02*
