%TF.GenerationSoftware,KiCad,Pcbnew,5.1.9*%
%TF.CreationDate,2021-05-01T23:47:16+02:00*%
%TF.ProjectId,nfc_reader,6e66635f-7265-4616-9465-722e6b696361,rev?*%
%TF.SameCoordinates,Original*%
%TF.FileFunction,Legend,Top*%
%TF.FilePolarity,Positive*%
%FSLAX46Y46*%
G04 Gerber Fmt 4.6, Leading zero omitted, Abs format (unit mm)*
G04 Created by KiCad (PCBNEW 5.1.9) date 2021-05-01 23:47:16*
%MOMM*%
%LPD*%
G01*
G04 APERTURE LIST*
%ADD10C,0.150000*%
%ADD11C,0.120000*%
%ADD12C,0.254000*%
G04 APERTURE END LIST*
D10*
X146119047Y-111452380D02*
X145785714Y-110976190D01*
X145547619Y-111452380D02*
X145547619Y-110452380D01*
X145928571Y-110452380D01*
X146023809Y-110500000D01*
X146071428Y-110547619D01*
X146119047Y-110642857D01*
X146119047Y-110785714D01*
X146071428Y-110880952D01*
X146023809Y-110928571D01*
X145928571Y-110976190D01*
X145547619Y-110976190D01*
X146452380Y-111452380D02*
X146976190Y-110785714D01*
X146452380Y-110785714D02*
X146976190Y-111452380D01*
X148261904Y-111452380D02*
X148166666Y-111404761D01*
X148119047Y-111357142D01*
X148071428Y-111261904D01*
X148071428Y-110976190D01*
X148119047Y-110880952D01*
X148166666Y-110833333D01*
X148261904Y-110785714D01*
X148404761Y-110785714D01*
X148500000Y-110833333D01*
X148547619Y-110880952D01*
X148595238Y-110976190D01*
X148595238Y-111261904D01*
X148547619Y-111357142D01*
X148500000Y-111404761D01*
X148404761Y-111452380D01*
X148261904Y-111452380D01*
X149023809Y-110785714D02*
X149023809Y-111452380D01*
X149023809Y-110880952D02*
X149071428Y-110833333D01*
X149166666Y-110785714D01*
X149309523Y-110785714D01*
X149404761Y-110833333D01*
X149452380Y-110928571D01*
X149452380Y-111452380D01*
X116404761Y-123952380D02*
X116071428Y-123476190D01*
X115833333Y-123952380D02*
X115833333Y-122952380D01*
X116214285Y-122952380D01*
X116309523Y-123000000D01*
X116357142Y-123047619D01*
X116404761Y-123142857D01*
X116404761Y-123285714D01*
X116357142Y-123380952D01*
X116309523Y-123428571D01*
X116214285Y-123476190D01*
X115833333Y-123476190D01*
X116738095Y-123952380D02*
X117261904Y-123285714D01*
X116738095Y-123285714D02*
X117261904Y-123952380D01*
X115809523Y-120452380D02*
X116380952Y-120452380D01*
X116095238Y-121452380D02*
X116095238Y-120452380D01*
X116619047Y-121452380D02*
X117142857Y-120785714D01*
X116619047Y-120785714D02*
X117142857Y-121452380D01*
X116238095Y-118000000D02*
X116142857Y-117952380D01*
X116000000Y-117952380D01*
X115857142Y-118000000D01*
X115761904Y-118095238D01*
X115714285Y-118190476D01*
X115666666Y-118380952D01*
X115666666Y-118523809D01*
X115714285Y-118714285D01*
X115761904Y-118809523D01*
X115857142Y-118904761D01*
X116000000Y-118952380D01*
X116095238Y-118952380D01*
X116238095Y-118904761D01*
X116285714Y-118857142D01*
X116285714Y-118523809D01*
X116095238Y-118523809D01*
X116714285Y-118952380D02*
X116714285Y-117952380D01*
X117285714Y-118952380D01*
X117285714Y-117952380D01*
X117761904Y-118952380D02*
X117761904Y-117952380D01*
X118000000Y-117952380D01*
X118142857Y-118000000D01*
X118238095Y-118095238D01*
X118285714Y-118190476D01*
X118333333Y-118380952D01*
X118333333Y-118523809D01*
X118285714Y-118714285D01*
X118238095Y-118809523D01*
X118142857Y-118904761D01*
X118000000Y-118952380D01*
X117761904Y-118952380D01*
X115714285Y-126071428D02*
X116476190Y-126071428D01*
X116095238Y-126452380D02*
X116095238Y-125690476D01*
X117428571Y-125452380D02*
X116952380Y-125452380D01*
X116904761Y-125928571D01*
X116952380Y-125880952D01*
X117047619Y-125833333D01*
X117285714Y-125833333D01*
X117380952Y-125880952D01*
X117428571Y-125928571D01*
X117476190Y-126023809D01*
X117476190Y-126261904D01*
X117428571Y-126357142D01*
X117380952Y-126404761D01*
X117285714Y-126452380D01*
X117047619Y-126452380D01*
X116952380Y-126404761D01*
X116904761Y-126357142D01*
X117761904Y-125452380D02*
X118095238Y-126452380D01*
X118428571Y-125452380D01*
X116238095Y-108500000D02*
X116142857Y-108452380D01*
X116000000Y-108452380D01*
X115857142Y-108500000D01*
X115761904Y-108595238D01*
X115714285Y-108690476D01*
X115666666Y-108880952D01*
X115666666Y-109023809D01*
X115714285Y-109214285D01*
X115761904Y-109309523D01*
X115857142Y-109404761D01*
X116000000Y-109452380D01*
X116095238Y-109452380D01*
X116238095Y-109404761D01*
X116285714Y-109357142D01*
X116285714Y-109023809D01*
X116095238Y-109023809D01*
X116714285Y-109452380D02*
X116714285Y-108452380D01*
X117285714Y-109452380D01*
X117285714Y-108452380D01*
X117761904Y-109452380D02*
X117761904Y-108452380D01*
X118000000Y-108452380D01*
X118142857Y-108500000D01*
X118238095Y-108595238D01*
X118285714Y-108690476D01*
X118333333Y-108880952D01*
X118333333Y-109023809D01*
X118285714Y-109214285D01*
X118238095Y-109309523D01*
X118142857Y-109404761D01*
X118000000Y-109452380D01*
X117761904Y-109452380D01*
X107857142Y-106452380D02*
X107380952Y-106452380D01*
X107380952Y-105452380D01*
X108190476Y-105928571D02*
X108523809Y-105928571D01*
X108666666Y-106452380D02*
X108190476Y-106452380D01*
X108190476Y-105452380D01*
X108666666Y-105452380D01*
X109095238Y-106452380D02*
X109095238Y-105452380D01*
X109333333Y-105452380D01*
X109476190Y-105500000D01*
X109571428Y-105595238D01*
X109619047Y-105690476D01*
X109666666Y-105880952D01*
X109666666Y-106023809D01*
X109619047Y-106214285D01*
X109571428Y-106309523D01*
X109476190Y-106404761D01*
X109333333Y-106452380D01*
X109095238Y-106452380D01*
D11*
%TO.C,J3*%
X148330000Y-112130000D02*
X145670000Y-112130000D01*
X148330000Y-114730000D02*
X148330000Y-112130000D01*
X145670000Y-114730000D02*
X145670000Y-112130000D01*
X148330000Y-114730000D02*
X145670000Y-114730000D01*
X148330000Y-116000000D02*
X148330000Y-117330000D01*
X148330000Y-117330000D02*
X147000000Y-117330000D01*
%TO.C,D1*%
X112060000Y-115330000D02*
X112060000Y-107590000D01*
X112060000Y-107590000D02*
X109400000Y-107590000D01*
X109400000Y-107590000D02*
X109400000Y-115330000D01*
X109400000Y-115330000D02*
X112060000Y-115330000D01*
X109400000Y-114380000D02*
X103400000Y-114380000D01*
X103400000Y-114380000D02*
X103400000Y-113620000D01*
X103400000Y-113620000D02*
X109400000Y-113620000D01*
X109400000Y-114320000D02*
X103400000Y-114320000D01*
X109400000Y-114200000D02*
X103400000Y-114200000D01*
X109400000Y-114080000D02*
X103400000Y-114080000D01*
X109400000Y-113960000D02*
X103400000Y-113960000D01*
X109400000Y-113840000D02*
X103400000Y-113840000D01*
X109400000Y-113720000D02*
X103400000Y-113720000D01*
X112390000Y-114380000D02*
X112060000Y-114380000D01*
X112390000Y-113620000D02*
X112060000Y-113620000D01*
X112060000Y-112730000D02*
X109400000Y-112730000D01*
X109400000Y-111840000D02*
X103400000Y-111840000D01*
X103400000Y-111840000D02*
X103400000Y-111080000D01*
X103400000Y-111080000D02*
X109400000Y-111080000D01*
X112457071Y-111840000D02*
X112060000Y-111840000D01*
X112457071Y-111080000D02*
X112060000Y-111080000D01*
X112060000Y-110190000D02*
X109400000Y-110190000D01*
X109400000Y-109300000D02*
X103400000Y-109300000D01*
X103400000Y-109300000D02*
X103400000Y-108540000D01*
X103400000Y-108540000D02*
X109400000Y-108540000D01*
X112457071Y-109300000D02*
X112060000Y-109300000D01*
X112457071Y-108540000D02*
X112060000Y-108540000D01*
X114770000Y-114000000D02*
X114770000Y-115270000D01*
X114770000Y-115270000D02*
X113500000Y-115270000D01*
%TO.C,U2*%
X137700000Y-131550000D02*
X137700000Y-130050000D01*
X137700000Y-130050000D02*
X136750000Y-130050000D01*
X136750000Y-130050000D02*
X136750000Y-124925000D01*
X127300000Y-131550000D02*
X127300000Y-130050000D01*
X127300000Y-130050000D02*
X128250000Y-130050000D01*
X128250000Y-130050000D02*
X128250000Y-128950000D01*
%TO.C,U1*%
X134440000Y-118500000D02*
X134440000Y-120450000D01*
X134440000Y-118500000D02*
X134440000Y-116550000D01*
X144560000Y-118500000D02*
X144560000Y-120450000D01*
X144560000Y-118500000D02*
X144560000Y-115050000D01*
%TO.C,R5*%
X128227064Y-114235000D02*
X127772936Y-114235000D01*
X128227064Y-112765000D02*
X127772936Y-112765000D01*
%TO.C,R4*%
X128227064Y-116735000D02*
X127772936Y-116735000D01*
X128227064Y-115265000D02*
X127772936Y-115265000D01*
%TO.C,R3*%
X122765000Y-100227064D02*
X122765000Y-99772936D01*
X124235000Y-100227064D02*
X124235000Y-99772936D01*
%TO.C,R2*%
X118689564Y-112410000D02*
X117235436Y-112410000D01*
X118689564Y-110590000D02*
X117235436Y-110590000D01*
%TO.C,R1*%
X118689564Y-115410000D02*
X117235436Y-115410000D01*
X118689564Y-113590000D02*
X117235436Y-113590000D01*
%TO.C,Q2*%
X121740000Y-109420000D02*
X121740000Y-110350000D01*
X121740000Y-112580000D02*
X121740000Y-111650000D01*
X121740000Y-112580000D02*
X123900000Y-112580000D01*
X121740000Y-109420000D02*
X123200000Y-109420000D01*
%TO.C,Q1*%
X121740000Y-113420000D02*
X121740000Y-114350000D01*
X121740000Y-116580000D02*
X121740000Y-115650000D01*
X121740000Y-116580000D02*
X123900000Y-116580000D01*
X121740000Y-113420000D02*
X123200000Y-113420000D01*
D12*
%TO.C,L1*%
X126500000Y-140500000D02*
X126500000Y-128500000D01*
X114500000Y-128500000D02*
X114500000Y-140500000D01*
X126500000Y-140500000D02*
X123550000Y-140500000D01*
X126500000Y-128500000D02*
X123550000Y-128500000D01*
X114500000Y-140500000D02*
X117450000Y-140500000D01*
X114500000Y-128500000D02*
X117450000Y-128500000D01*
D11*
%TO.C,J2*%
X112060000Y-127330000D02*
X112060000Y-117050000D01*
X112060000Y-117050000D02*
X109400000Y-117050000D01*
X109400000Y-117050000D02*
X109400000Y-127330000D01*
X109400000Y-127330000D02*
X112060000Y-127330000D01*
X109400000Y-126380000D02*
X103400000Y-126380000D01*
X103400000Y-126380000D02*
X103400000Y-125620000D01*
X103400000Y-125620000D02*
X109400000Y-125620000D01*
X109400000Y-126320000D02*
X103400000Y-126320000D01*
X109400000Y-126200000D02*
X103400000Y-126200000D01*
X109400000Y-126080000D02*
X103400000Y-126080000D01*
X109400000Y-125960000D02*
X103400000Y-125960000D01*
X109400000Y-125840000D02*
X103400000Y-125840000D01*
X109400000Y-125720000D02*
X103400000Y-125720000D01*
X112390000Y-126380000D02*
X112060000Y-126380000D01*
X112390000Y-125620000D02*
X112060000Y-125620000D01*
X112060000Y-124730000D02*
X109400000Y-124730000D01*
X109400000Y-123840000D02*
X103400000Y-123840000D01*
X103400000Y-123840000D02*
X103400000Y-123080000D01*
X103400000Y-123080000D02*
X109400000Y-123080000D01*
X112457071Y-123840000D02*
X112060000Y-123840000D01*
X112457071Y-123080000D02*
X112060000Y-123080000D01*
X112060000Y-122190000D02*
X109400000Y-122190000D01*
X109400000Y-121300000D02*
X103400000Y-121300000D01*
X103400000Y-121300000D02*
X103400000Y-120540000D01*
X103400000Y-120540000D02*
X109400000Y-120540000D01*
X112457071Y-121300000D02*
X112060000Y-121300000D01*
X112457071Y-120540000D02*
X112060000Y-120540000D01*
X112060000Y-119650000D02*
X109400000Y-119650000D01*
X109400000Y-118760000D02*
X103400000Y-118760000D01*
X103400000Y-118760000D02*
X103400000Y-118000000D01*
X103400000Y-118000000D02*
X109400000Y-118000000D01*
X112457071Y-118760000D02*
X112060000Y-118760000D01*
X112457071Y-118000000D02*
X112060000Y-118000000D01*
X114770000Y-126000000D02*
X114770000Y-127270000D01*
X114770000Y-127270000D02*
X113500000Y-127270000D01*
%TO.C,J1*%
X127045000Y-111780000D02*
X127045000Y-99850000D01*
X127045000Y-111780000D02*
X143065000Y-111780000D01*
X143065000Y-111780000D02*
X143065000Y-99850000D01*
X127045000Y-92910000D02*
X143065000Y-92910000D01*
X127045000Y-96350000D02*
X127045000Y-92910000D01*
X143433000Y-107500000D02*
X143941000Y-108008000D01*
X143941000Y-108008000D02*
X143941000Y-106992000D01*
X143941000Y-106992000D02*
X143433000Y-107500000D01*
X143065000Y-96350000D02*
X143065000Y-92910000D01*
%TO.C,F2*%
X126120000Y-118670000D02*
X126120000Y-127410000D01*
X126120000Y-118670000D02*
X121880000Y-118670000D01*
X121880000Y-127410000D02*
X126120000Y-127410000D01*
X121880000Y-127410000D02*
X121880000Y-118670000D01*
%TO.C,F1*%
X146380000Y-109830000D02*
X146380000Y-101090000D01*
X146380000Y-109830000D02*
X150620000Y-109830000D01*
X150620000Y-101090000D02*
X146380000Y-101090000D01*
X150620000Y-101090000D02*
X150620000Y-109830000D01*
%TO.C,D3*%
X150500000Y-133900000D02*
X150500000Y-128200000D01*
X150500000Y-128200000D02*
X147500000Y-128200000D01*
X147500000Y-128200000D02*
X147500000Y-133900000D01*
%TO.C,C2*%
X109240000Y-132850000D02*
X109240000Y-140910000D01*
X109240000Y-140910000D02*
X113760000Y-140910000D01*
X113760000Y-140910000D02*
X113760000Y-132850000D01*
%TO.C,C1*%
X139090000Y-134910000D02*
X141440000Y-134910000D01*
X145910000Y-134910000D02*
X143560000Y-134910000D01*
X145910000Y-129154437D02*
X145910000Y-134910000D01*
X139090000Y-129154437D02*
X139090000Y-134910000D01*
X140154437Y-128090000D02*
X141440000Y-128090000D01*
X144845563Y-128090000D02*
X143560000Y-128090000D01*
X144845563Y-128090000D02*
X145910000Y-129154437D01*
X140154437Y-128090000D02*
X139090000Y-129154437D01*
X144347500Y-127062500D02*
X144347500Y-127850000D01*
X144741250Y-127456250D02*
X143953750Y-127456250D01*
%TO.C,BZ1*%
X121400000Y-99000000D02*
G75*
G03*
X121400000Y-99000000I-6100000J0D01*
G01*
%TO.C,J3*%
D10*
X146666666Y-117782380D02*
X146666666Y-118496666D01*
X146619047Y-118639523D01*
X146523809Y-118734761D01*
X146380952Y-118782380D01*
X146285714Y-118782380D01*
X147047619Y-117782380D02*
X147666666Y-117782380D01*
X147333333Y-118163333D01*
X147476190Y-118163333D01*
X147571428Y-118210952D01*
X147619047Y-118258571D01*
X147666666Y-118353809D01*
X147666666Y-118591904D01*
X147619047Y-118687142D01*
X147571428Y-118734761D01*
X147476190Y-118782380D01*
X147190476Y-118782380D01*
X147095238Y-118734761D01*
X147047619Y-118687142D01*
%TO.C,D1*%
X108376904Y-116722380D02*
X108376904Y-115722380D01*
X108615000Y-115722380D01*
X108757857Y-115770000D01*
X108853095Y-115865238D01*
X108900714Y-115960476D01*
X108948333Y-116150952D01*
X108948333Y-116293809D01*
X108900714Y-116484285D01*
X108853095Y-116579523D01*
X108757857Y-116674761D01*
X108615000Y-116722380D01*
X108376904Y-116722380D01*
X109900714Y-116722380D02*
X109329285Y-116722380D01*
X109615000Y-116722380D02*
X109615000Y-115722380D01*
X109519761Y-115865238D01*
X109424523Y-115960476D01*
X109329285Y-116008095D01*
%TO.C,U2*%
X124952380Y-135761904D02*
X125761904Y-135761904D01*
X125857142Y-135714285D01*
X125904761Y-135666666D01*
X125952380Y-135571428D01*
X125952380Y-135380952D01*
X125904761Y-135285714D01*
X125857142Y-135238095D01*
X125761904Y-135190476D01*
X124952380Y-135190476D01*
X125047619Y-134761904D02*
X125000000Y-134714285D01*
X124952380Y-134619047D01*
X124952380Y-134380952D01*
X125000000Y-134285714D01*
X125047619Y-134238095D01*
X125142857Y-134190476D01*
X125238095Y-134190476D01*
X125380952Y-134238095D01*
X125952380Y-134809523D01*
X125952380Y-134190476D01*
%TO.C,U1*%
X144852380Y-119261904D02*
X145661904Y-119261904D01*
X145757142Y-119214285D01*
X145804761Y-119166666D01*
X145852380Y-119071428D01*
X145852380Y-118880952D01*
X145804761Y-118785714D01*
X145757142Y-118738095D01*
X145661904Y-118690476D01*
X144852380Y-118690476D01*
X145852380Y-117690476D02*
X145852380Y-118261904D01*
X145852380Y-117976190D02*
X144852380Y-117976190D01*
X144995238Y-118071428D01*
X145090476Y-118166666D01*
X145138095Y-118261904D01*
%TO.C,R5*%
X130833333Y-113952380D02*
X130500000Y-113476190D01*
X130261904Y-113952380D02*
X130261904Y-112952380D01*
X130642857Y-112952380D01*
X130738095Y-113000000D01*
X130785714Y-113047619D01*
X130833333Y-113142857D01*
X130833333Y-113285714D01*
X130785714Y-113380952D01*
X130738095Y-113428571D01*
X130642857Y-113476190D01*
X130261904Y-113476190D01*
X131738095Y-112952380D02*
X131261904Y-112952380D01*
X131214285Y-113428571D01*
X131261904Y-113380952D01*
X131357142Y-113333333D01*
X131595238Y-113333333D01*
X131690476Y-113380952D01*
X131738095Y-113428571D01*
X131785714Y-113523809D01*
X131785714Y-113761904D01*
X131738095Y-113857142D01*
X131690476Y-113904761D01*
X131595238Y-113952380D01*
X131357142Y-113952380D01*
X131261904Y-113904761D01*
X131214285Y-113857142D01*
%TO.C,R4*%
X130833333Y-116452380D02*
X130500000Y-115976190D01*
X130261904Y-116452380D02*
X130261904Y-115452380D01*
X130642857Y-115452380D01*
X130738095Y-115500000D01*
X130785714Y-115547619D01*
X130833333Y-115642857D01*
X130833333Y-115785714D01*
X130785714Y-115880952D01*
X130738095Y-115928571D01*
X130642857Y-115976190D01*
X130261904Y-115976190D01*
X131690476Y-115785714D02*
X131690476Y-116452380D01*
X131452380Y-115404761D02*
X131214285Y-116119047D01*
X131833333Y-116119047D01*
%TO.C,R3*%
X123952380Y-97166666D02*
X123476190Y-97500000D01*
X123952380Y-97738095D02*
X122952380Y-97738095D01*
X122952380Y-97357142D01*
X123000000Y-97261904D01*
X123047619Y-97214285D01*
X123142857Y-97166666D01*
X123285714Y-97166666D01*
X123380952Y-97214285D01*
X123428571Y-97261904D01*
X123476190Y-97357142D01*
X123476190Y-97738095D01*
X122952380Y-96833333D02*
X122952380Y-96214285D01*
X123333333Y-96547619D01*
X123333333Y-96404761D01*
X123380952Y-96309523D01*
X123428571Y-96261904D01*
X123523809Y-96214285D01*
X123761904Y-96214285D01*
X123857142Y-96261904D01*
X123904761Y-96309523D01*
X123952380Y-96404761D01*
X123952380Y-96690476D01*
X123904761Y-96785714D01*
X123857142Y-96833333D01*
%TO.C,R2*%
X119833333Y-109952380D02*
X119500000Y-109476190D01*
X119261904Y-109952380D02*
X119261904Y-108952380D01*
X119642857Y-108952380D01*
X119738095Y-109000000D01*
X119785714Y-109047619D01*
X119833333Y-109142857D01*
X119833333Y-109285714D01*
X119785714Y-109380952D01*
X119738095Y-109428571D01*
X119642857Y-109476190D01*
X119261904Y-109476190D01*
X120214285Y-109047619D02*
X120261904Y-109000000D01*
X120357142Y-108952380D01*
X120595238Y-108952380D01*
X120690476Y-109000000D01*
X120738095Y-109047619D01*
X120785714Y-109142857D01*
X120785714Y-109238095D01*
X120738095Y-109380952D01*
X120166666Y-109952380D01*
X120785714Y-109952380D01*
%TO.C,R1*%
X118833333Y-116952380D02*
X118500000Y-116476190D01*
X118261904Y-116952380D02*
X118261904Y-115952380D01*
X118642857Y-115952380D01*
X118738095Y-116000000D01*
X118785714Y-116047619D01*
X118833333Y-116142857D01*
X118833333Y-116285714D01*
X118785714Y-116380952D01*
X118738095Y-116428571D01*
X118642857Y-116476190D01*
X118261904Y-116476190D01*
X119785714Y-116952380D02*
X119214285Y-116952380D01*
X119500000Y-116952380D02*
X119500000Y-115952380D01*
X119404761Y-116095238D01*
X119309523Y-116190476D01*
X119214285Y-116238095D01*
%TO.C,Q2*%
X122404761Y-114047619D02*
X122309523Y-114000000D01*
X122214285Y-113904761D01*
X122071428Y-113761904D01*
X121976190Y-113714285D01*
X121880952Y-113714285D01*
X121928571Y-113952380D02*
X121833333Y-113904761D01*
X121738095Y-113809523D01*
X121690476Y-113619047D01*
X121690476Y-113285714D01*
X121738095Y-113095238D01*
X121833333Y-113000000D01*
X121928571Y-112952380D01*
X122119047Y-112952380D01*
X122214285Y-113000000D01*
X122309523Y-113095238D01*
X122357142Y-113285714D01*
X122357142Y-113619047D01*
X122309523Y-113809523D01*
X122214285Y-113904761D01*
X122119047Y-113952380D01*
X121928571Y-113952380D01*
X122738095Y-113047619D02*
X122785714Y-113000000D01*
X122880952Y-112952380D01*
X123119047Y-112952380D01*
X123214285Y-113000000D01*
X123261904Y-113047619D01*
X123309523Y-113142857D01*
X123309523Y-113238095D01*
X123261904Y-113380952D01*
X122690476Y-113952380D01*
X123309523Y-113952380D01*
%TO.C,Q1*%
X122404761Y-118047619D02*
X122309523Y-118000000D01*
X122214285Y-117904761D01*
X122071428Y-117761904D01*
X121976190Y-117714285D01*
X121880952Y-117714285D01*
X121928571Y-117952380D02*
X121833333Y-117904761D01*
X121738095Y-117809523D01*
X121690476Y-117619047D01*
X121690476Y-117285714D01*
X121738095Y-117095238D01*
X121833333Y-117000000D01*
X121928571Y-116952380D01*
X122119047Y-116952380D01*
X122214285Y-117000000D01*
X122309523Y-117095238D01*
X122357142Y-117285714D01*
X122357142Y-117619047D01*
X122309523Y-117809523D01*
X122214285Y-117904761D01*
X122119047Y-117952380D01*
X121928571Y-117952380D01*
X123309523Y-117952380D02*
X122738095Y-117952380D01*
X123023809Y-117952380D02*
X123023809Y-116952380D01*
X122928571Y-117095238D01*
X122833333Y-117190476D01*
X122738095Y-117238095D01*
%TO.C,L1*%
D12*
X120507333Y-135111523D02*
X119902571Y-135111523D01*
X119902571Y-133841523D01*
X121595904Y-135111523D02*
X120870190Y-135111523D01*
X121233047Y-135111523D02*
X121233047Y-133841523D01*
X121112095Y-134022952D01*
X120991142Y-134143904D01*
X120870190Y-134204380D01*
%TO.C,J2*%
D10*
X108781666Y-127722380D02*
X108781666Y-128436666D01*
X108734047Y-128579523D01*
X108638809Y-128674761D01*
X108495952Y-128722380D01*
X108400714Y-128722380D01*
X109210238Y-127817619D02*
X109257857Y-127770000D01*
X109353095Y-127722380D01*
X109591190Y-127722380D01*
X109686428Y-127770000D01*
X109734047Y-127817619D01*
X109781666Y-127912857D01*
X109781666Y-128008095D01*
X109734047Y-128150952D01*
X109162619Y-128722380D01*
X109781666Y-128722380D01*
%TO.C,J1*%
X134721666Y-112292380D02*
X134721666Y-113006666D01*
X134674047Y-113149523D01*
X134578809Y-113244761D01*
X134435952Y-113292380D01*
X134340714Y-113292380D01*
X135721666Y-113292380D02*
X135150238Y-113292380D01*
X135435952Y-113292380D02*
X135435952Y-112292380D01*
X135340714Y-112435238D01*
X135245476Y-112530476D01*
X135150238Y-112578095D01*
%TO.C,F2*%
X126878571Y-123483333D02*
X126878571Y-123816666D01*
X127402380Y-123816666D02*
X126402380Y-123816666D01*
X126402380Y-123340476D01*
X126497619Y-123007142D02*
X126450000Y-122959523D01*
X126402380Y-122864285D01*
X126402380Y-122626190D01*
X126450000Y-122530952D01*
X126497619Y-122483333D01*
X126592857Y-122435714D01*
X126688095Y-122435714D01*
X126830952Y-122483333D01*
X127402380Y-123054761D01*
X127402380Y-122435714D01*
%TO.C,F1*%
X145478571Y-105683333D02*
X145478571Y-106016666D01*
X146002380Y-106016666D02*
X145002380Y-106016666D01*
X145002380Y-105540476D01*
X146002380Y-104635714D02*
X146002380Y-105207142D01*
X146002380Y-104921428D02*
X145002380Y-104921428D01*
X145145238Y-105016666D01*
X145240476Y-105111904D01*
X145288095Y-105207142D01*
%TO.C,D3*%
X148261904Y-127452380D02*
X148261904Y-126452380D01*
X148500000Y-126452380D01*
X148642857Y-126500000D01*
X148738095Y-126595238D01*
X148785714Y-126690476D01*
X148833333Y-126880952D01*
X148833333Y-127023809D01*
X148785714Y-127214285D01*
X148738095Y-127309523D01*
X148642857Y-127404761D01*
X148500000Y-127452380D01*
X148261904Y-127452380D01*
X149166666Y-126452380D02*
X149785714Y-126452380D01*
X149452380Y-126833333D01*
X149595238Y-126833333D01*
X149690476Y-126880952D01*
X149738095Y-126928571D01*
X149785714Y-127023809D01*
X149785714Y-127261904D01*
X149738095Y-127357142D01*
X149690476Y-127404761D01*
X149595238Y-127452380D01*
X149309523Y-127452380D01*
X149214285Y-127404761D01*
X149166666Y-127357142D01*
%TO.C,C2*%
X111333333Y-131357142D02*
X111285714Y-131404761D01*
X111142857Y-131452380D01*
X111047619Y-131452380D01*
X110904761Y-131404761D01*
X110809523Y-131309523D01*
X110761904Y-131214285D01*
X110714285Y-131023809D01*
X110714285Y-130880952D01*
X110761904Y-130690476D01*
X110809523Y-130595238D01*
X110904761Y-130500000D01*
X111047619Y-130452380D01*
X111142857Y-130452380D01*
X111285714Y-130500000D01*
X111333333Y-130547619D01*
X111714285Y-130547619D02*
X111761904Y-130500000D01*
X111857142Y-130452380D01*
X112095238Y-130452380D01*
X112190476Y-130500000D01*
X112238095Y-130547619D01*
X112285714Y-130642857D01*
X112285714Y-130738095D01*
X112238095Y-130880952D01*
X111666666Y-131452380D01*
X112285714Y-131452380D01*
%TO.C,C1*%
X142333333Y-125857142D02*
X142285714Y-125904761D01*
X142142857Y-125952380D01*
X142047619Y-125952380D01*
X141904761Y-125904761D01*
X141809523Y-125809523D01*
X141761904Y-125714285D01*
X141714285Y-125523809D01*
X141714285Y-125380952D01*
X141761904Y-125190476D01*
X141809523Y-125095238D01*
X141904761Y-125000000D01*
X142047619Y-124952380D01*
X142142857Y-124952380D01*
X142285714Y-125000000D01*
X142333333Y-125047619D01*
X143285714Y-125952380D02*
X142714285Y-125952380D01*
X143000000Y-125952380D02*
X143000000Y-124952380D01*
X142904761Y-125095238D01*
X142809523Y-125190476D01*
X142714285Y-125238095D01*
%TO.C,BZ1*%
X120619047Y-93928571D02*
X120761904Y-93976190D01*
X120809523Y-94023809D01*
X120857142Y-94119047D01*
X120857142Y-94261904D01*
X120809523Y-94357142D01*
X120761904Y-94404761D01*
X120666666Y-94452380D01*
X120285714Y-94452380D01*
X120285714Y-93452380D01*
X120619047Y-93452380D01*
X120714285Y-93500000D01*
X120761904Y-93547619D01*
X120809523Y-93642857D01*
X120809523Y-93738095D01*
X120761904Y-93833333D01*
X120714285Y-93880952D01*
X120619047Y-93928571D01*
X120285714Y-93928571D01*
X121190476Y-93452380D02*
X121857142Y-93452380D01*
X121190476Y-94452380D01*
X121857142Y-94452380D01*
X122761904Y-94452380D02*
X122190476Y-94452380D01*
X122476190Y-94452380D02*
X122476190Y-93452380D01*
X122380952Y-93595238D01*
X122285714Y-93690476D01*
X122190476Y-93738095D01*
X111109047Y-96531428D02*
X111870952Y-96531428D01*
X111490000Y-96912380D02*
X111490000Y-96150476D01*
%TD*%
M02*
