M48
; DRILL file {KiCad 5.1.9} date Sat May  1 23:47:31 2021
; FORMAT={-:-/ absolute / inch / decimal}
; #@! TF.CreationDate,2021-05-01T23:47:31+02:00
; #@! TF.GenerationSoftware,Kicad,Pcbnew,5.1.9
; #@! TF.FileFunction,Plated,1,2,PTH
FMAT,2
INCH
T1C0.0157
T2C0.0354
T3C0.0394
T4C0.0630
%
G90
G05
T1
X4.2367Y-5.2515
X4.2761Y-5.2515
X4.8622Y-4.0551
X5.0394Y-5.2362
X5.0394Y-5.315
X5.0394Y-5.3937
X5.0394Y-5.4528
X5.0787Y-4.6457
X5.0787Y-5.2953
X5.1378Y-5.3543
X5.1378Y-5.4331
X5.1378Y-5.4921
X5.1575Y-5.2165
X5.2165Y-5.4331
X5.2165Y-5.4921
X5.2953Y-4.8819
X5.2953Y-5.2362
X5.2953Y-5.315
X5.2953Y-5.4331
X5.2953Y-5.4921
X5.3543Y-5.2165
X5.3543Y-5.2756
X5.3937Y-5.2362
X5.3937Y-5.315
X5.3937Y-5.4331
X5.3937Y-5.4921
X5.748Y-4.7835
X5.7677Y-5.0394
T2
X5.1421Y-4.3323
X5.1921Y-4.2323
X5.2421Y-4.3323
X5.2921Y-4.2323
X5.3421Y-4.3323
X5.3921Y-4.2323
X5.4421Y-4.3323
X5.4921Y-4.2323
T3
X4.3898Y-3.8976
X4.4685Y-4.2882
X4.4685Y-4.3882
X4.4685Y-4.4882
X4.4685Y-4.6606
X4.4685Y-4.7606
X4.4685Y-4.8606
X4.4685Y-4.9606
X4.689Y-3.8976
X4.8815Y-4.9441
X4.8819Y-4.7441
X5.7874Y-4.4669
X5.7874Y-4.5669
X5.8465Y-4.252
X5.8469Y-4.052
T4
X5.0112Y-3.8622
X5.623Y-3.8622
T0
M30
