%TF.GenerationSoftware,KiCad,Pcbnew,5.1.9*%
%TF.CreationDate,2021-05-01T23:47:16+02:00*%
%TF.ProjectId,nfc_reader,6e66635f-7265-4616-9465-722e6b696361,rev?*%
%TF.SameCoordinates,Original*%
%TF.FileFunction,Paste,Top*%
%TF.FilePolarity,Positive*%
%FSLAX46Y46*%
G04 Gerber Fmt 4.6, Leading zero omitted, Abs format (unit mm)*
G04 Created by KiCad (PCBNEW 5.1.9) date 2021-05-01 23:47:16*
%MOMM*%
%LPD*%
G01*
G04 APERTURE LIST*
%ADD10R,5.250000X4.550000*%
%ADD11R,1.100000X4.600000*%
%ADD12R,0.900000X0.800000*%
%ADD13R,5.400000X2.900000*%
%ADD14R,2.700000X1.500000*%
G04 APERTURE END LIST*
D10*
%TO.C,U2*%
X129725000Y-133950000D03*
X135275000Y-138800000D03*
X135275000Y-133950000D03*
X129725000Y-138800000D03*
D11*
X129100000Y-127225000D03*
X130800000Y-127225000D03*
X132500000Y-127225000D03*
X134200000Y-127225000D03*
X135900000Y-127225000D03*
%TD*%
%TO.C,U1*%
G36*
G01*
X143795000Y-120200000D02*
X144095000Y-120200000D01*
G75*
G02*
X144245000Y-120350000I0J-150000D01*
G01*
X144245000Y-121800000D01*
G75*
G02*
X144095000Y-121950000I-150000J0D01*
G01*
X143795000Y-121950000D01*
G75*
G02*
X143645000Y-121800000I0J150000D01*
G01*
X143645000Y-120350000D01*
G75*
G02*
X143795000Y-120200000I150000J0D01*
G01*
G37*
G36*
G01*
X142525000Y-120200000D02*
X142825000Y-120200000D01*
G75*
G02*
X142975000Y-120350000I0J-150000D01*
G01*
X142975000Y-121800000D01*
G75*
G02*
X142825000Y-121950000I-150000J0D01*
G01*
X142525000Y-121950000D01*
G75*
G02*
X142375000Y-121800000I0J150000D01*
G01*
X142375000Y-120350000D01*
G75*
G02*
X142525000Y-120200000I150000J0D01*
G01*
G37*
G36*
G01*
X141255000Y-120200000D02*
X141555000Y-120200000D01*
G75*
G02*
X141705000Y-120350000I0J-150000D01*
G01*
X141705000Y-121800000D01*
G75*
G02*
X141555000Y-121950000I-150000J0D01*
G01*
X141255000Y-121950000D01*
G75*
G02*
X141105000Y-121800000I0J150000D01*
G01*
X141105000Y-120350000D01*
G75*
G02*
X141255000Y-120200000I150000J0D01*
G01*
G37*
G36*
G01*
X139985000Y-120200000D02*
X140285000Y-120200000D01*
G75*
G02*
X140435000Y-120350000I0J-150000D01*
G01*
X140435000Y-121800000D01*
G75*
G02*
X140285000Y-121950000I-150000J0D01*
G01*
X139985000Y-121950000D01*
G75*
G02*
X139835000Y-121800000I0J150000D01*
G01*
X139835000Y-120350000D01*
G75*
G02*
X139985000Y-120200000I150000J0D01*
G01*
G37*
G36*
G01*
X138715000Y-120200000D02*
X139015000Y-120200000D01*
G75*
G02*
X139165000Y-120350000I0J-150000D01*
G01*
X139165000Y-121800000D01*
G75*
G02*
X139015000Y-121950000I-150000J0D01*
G01*
X138715000Y-121950000D01*
G75*
G02*
X138565000Y-121800000I0J150000D01*
G01*
X138565000Y-120350000D01*
G75*
G02*
X138715000Y-120200000I150000J0D01*
G01*
G37*
G36*
G01*
X137445000Y-120200000D02*
X137745000Y-120200000D01*
G75*
G02*
X137895000Y-120350000I0J-150000D01*
G01*
X137895000Y-121800000D01*
G75*
G02*
X137745000Y-121950000I-150000J0D01*
G01*
X137445000Y-121950000D01*
G75*
G02*
X137295000Y-121800000I0J150000D01*
G01*
X137295000Y-120350000D01*
G75*
G02*
X137445000Y-120200000I150000J0D01*
G01*
G37*
G36*
G01*
X136175000Y-120200000D02*
X136475000Y-120200000D01*
G75*
G02*
X136625000Y-120350000I0J-150000D01*
G01*
X136625000Y-121800000D01*
G75*
G02*
X136475000Y-121950000I-150000J0D01*
G01*
X136175000Y-121950000D01*
G75*
G02*
X136025000Y-121800000I0J150000D01*
G01*
X136025000Y-120350000D01*
G75*
G02*
X136175000Y-120200000I150000J0D01*
G01*
G37*
G36*
G01*
X134905000Y-120200000D02*
X135205000Y-120200000D01*
G75*
G02*
X135355000Y-120350000I0J-150000D01*
G01*
X135355000Y-121800000D01*
G75*
G02*
X135205000Y-121950000I-150000J0D01*
G01*
X134905000Y-121950000D01*
G75*
G02*
X134755000Y-121800000I0J150000D01*
G01*
X134755000Y-120350000D01*
G75*
G02*
X134905000Y-120200000I150000J0D01*
G01*
G37*
G36*
G01*
X134905000Y-115050000D02*
X135205000Y-115050000D01*
G75*
G02*
X135355000Y-115200000I0J-150000D01*
G01*
X135355000Y-116650000D01*
G75*
G02*
X135205000Y-116800000I-150000J0D01*
G01*
X134905000Y-116800000D01*
G75*
G02*
X134755000Y-116650000I0J150000D01*
G01*
X134755000Y-115200000D01*
G75*
G02*
X134905000Y-115050000I150000J0D01*
G01*
G37*
G36*
G01*
X136175000Y-115050000D02*
X136475000Y-115050000D01*
G75*
G02*
X136625000Y-115200000I0J-150000D01*
G01*
X136625000Y-116650000D01*
G75*
G02*
X136475000Y-116800000I-150000J0D01*
G01*
X136175000Y-116800000D01*
G75*
G02*
X136025000Y-116650000I0J150000D01*
G01*
X136025000Y-115200000D01*
G75*
G02*
X136175000Y-115050000I150000J0D01*
G01*
G37*
G36*
G01*
X137445000Y-115050000D02*
X137745000Y-115050000D01*
G75*
G02*
X137895000Y-115200000I0J-150000D01*
G01*
X137895000Y-116650000D01*
G75*
G02*
X137745000Y-116800000I-150000J0D01*
G01*
X137445000Y-116800000D01*
G75*
G02*
X137295000Y-116650000I0J150000D01*
G01*
X137295000Y-115200000D01*
G75*
G02*
X137445000Y-115050000I150000J0D01*
G01*
G37*
G36*
G01*
X138715000Y-115050000D02*
X139015000Y-115050000D01*
G75*
G02*
X139165000Y-115200000I0J-150000D01*
G01*
X139165000Y-116650000D01*
G75*
G02*
X139015000Y-116800000I-150000J0D01*
G01*
X138715000Y-116800000D01*
G75*
G02*
X138565000Y-116650000I0J150000D01*
G01*
X138565000Y-115200000D01*
G75*
G02*
X138715000Y-115050000I150000J0D01*
G01*
G37*
G36*
G01*
X139985000Y-115050000D02*
X140285000Y-115050000D01*
G75*
G02*
X140435000Y-115200000I0J-150000D01*
G01*
X140435000Y-116650000D01*
G75*
G02*
X140285000Y-116800000I-150000J0D01*
G01*
X139985000Y-116800000D01*
G75*
G02*
X139835000Y-116650000I0J150000D01*
G01*
X139835000Y-115200000D01*
G75*
G02*
X139985000Y-115050000I150000J0D01*
G01*
G37*
G36*
G01*
X141255000Y-115050000D02*
X141555000Y-115050000D01*
G75*
G02*
X141705000Y-115200000I0J-150000D01*
G01*
X141705000Y-116650000D01*
G75*
G02*
X141555000Y-116800000I-150000J0D01*
G01*
X141255000Y-116800000D01*
G75*
G02*
X141105000Y-116650000I0J150000D01*
G01*
X141105000Y-115200000D01*
G75*
G02*
X141255000Y-115050000I150000J0D01*
G01*
G37*
G36*
G01*
X142525000Y-115050000D02*
X142825000Y-115050000D01*
G75*
G02*
X142975000Y-115200000I0J-150000D01*
G01*
X142975000Y-116650000D01*
G75*
G02*
X142825000Y-116800000I-150000J0D01*
G01*
X142525000Y-116800000D01*
G75*
G02*
X142375000Y-116650000I0J150000D01*
G01*
X142375000Y-115200000D01*
G75*
G02*
X142525000Y-115050000I150000J0D01*
G01*
G37*
G36*
G01*
X143795000Y-115050000D02*
X144095000Y-115050000D01*
G75*
G02*
X144245000Y-115200000I0J-150000D01*
G01*
X144245000Y-116650000D01*
G75*
G02*
X144095000Y-116800000I-150000J0D01*
G01*
X143795000Y-116800000D01*
G75*
G02*
X143645000Y-116650000I0J150000D01*
G01*
X143645000Y-115200000D01*
G75*
G02*
X143795000Y-115050000I150000J0D01*
G01*
G37*
%TD*%
%TO.C,R5*%
G36*
G01*
X127600000Y-113049999D02*
X127600000Y-113950001D01*
G75*
G02*
X127350001Y-114200000I-249999J0D01*
G01*
X126824999Y-114200000D01*
G75*
G02*
X126575000Y-113950001I0J249999D01*
G01*
X126575000Y-113049999D01*
G75*
G02*
X126824999Y-112800000I249999J0D01*
G01*
X127350001Y-112800000D01*
G75*
G02*
X127600000Y-113049999I0J-249999D01*
G01*
G37*
G36*
G01*
X129425000Y-113049999D02*
X129425000Y-113950001D01*
G75*
G02*
X129175001Y-114200000I-249999J0D01*
G01*
X128649999Y-114200000D01*
G75*
G02*
X128400000Y-113950001I0J249999D01*
G01*
X128400000Y-113049999D01*
G75*
G02*
X128649999Y-112800000I249999J0D01*
G01*
X129175001Y-112800000D01*
G75*
G02*
X129425000Y-113049999I0J-249999D01*
G01*
G37*
%TD*%
%TO.C,R4*%
G36*
G01*
X127600000Y-115549999D02*
X127600000Y-116450001D01*
G75*
G02*
X127350001Y-116700000I-249999J0D01*
G01*
X126824999Y-116700000D01*
G75*
G02*
X126575000Y-116450001I0J249999D01*
G01*
X126575000Y-115549999D01*
G75*
G02*
X126824999Y-115300000I249999J0D01*
G01*
X127350001Y-115300000D01*
G75*
G02*
X127600000Y-115549999I0J-249999D01*
G01*
G37*
G36*
G01*
X129425000Y-115549999D02*
X129425000Y-116450001D01*
G75*
G02*
X129175001Y-116700000I-249999J0D01*
G01*
X128649999Y-116700000D01*
G75*
G02*
X128400000Y-116450001I0J249999D01*
G01*
X128400000Y-115549999D01*
G75*
G02*
X128649999Y-115300000I249999J0D01*
G01*
X129175001Y-115300000D01*
G75*
G02*
X129425000Y-115549999I0J-249999D01*
G01*
G37*
%TD*%
%TO.C,R3*%
G36*
G01*
X123950001Y-99600000D02*
X123049999Y-99600000D01*
G75*
G02*
X122800000Y-99350001I0J249999D01*
G01*
X122800000Y-98824999D01*
G75*
G02*
X123049999Y-98575000I249999J0D01*
G01*
X123950001Y-98575000D01*
G75*
G02*
X124200000Y-98824999I0J-249999D01*
G01*
X124200000Y-99350001D01*
G75*
G02*
X123950001Y-99600000I-249999J0D01*
G01*
G37*
G36*
G01*
X123950001Y-101425000D02*
X123049999Y-101425000D01*
G75*
G02*
X122800000Y-101175001I0J249999D01*
G01*
X122800000Y-100649999D01*
G75*
G02*
X123049999Y-100400000I249999J0D01*
G01*
X123950001Y-100400000D01*
G75*
G02*
X124200000Y-100649999I0J-249999D01*
G01*
X124200000Y-101175001D01*
G75*
G02*
X123950001Y-101425000I-249999J0D01*
G01*
G37*
%TD*%
%TO.C,R2*%
G36*
G01*
X117062500Y-110874999D02*
X117062500Y-112125001D01*
G75*
G02*
X116812501Y-112375000I-249999J0D01*
G01*
X116187499Y-112375000D01*
G75*
G02*
X115937500Y-112125001I0J249999D01*
G01*
X115937500Y-110874999D01*
G75*
G02*
X116187499Y-110625000I249999J0D01*
G01*
X116812501Y-110625000D01*
G75*
G02*
X117062500Y-110874999I0J-249999D01*
G01*
G37*
G36*
G01*
X119987500Y-110874999D02*
X119987500Y-112125001D01*
G75*
G02*
X119737501Y-112375000I-249999J0D01*
G01*
X119112499Y-112375000D01*
G75*
G02*
X118862500Y-112125001I0J249999D01*
G01*
X118862500Y-110874999D01*
G75*
G02*
X119112499Y-110625000I249999J0D01*
G01*
X119737501Y-110625000D01*
G75*
G02*
X119987500Y-110874999I0J-249999D01*
G01*
G37*
%TD*%
%TO.C,R1*%
G36*
G01*
X117062500Y-113874999D02*
X117062500Y-115125001D01*
G75*
G02*
X116812501Y-115375000I-249999J0D01*
G01*
X116187499Y-115375000D01*
G75*
G02*
X115937500Y-115125001I0J249999D01*
G01*
X115937500Y-113874999D01*
G75*
G02*
X116187499Y-113625000I249999J0D01*
G01*
X116812501Y-113625000D01*
G75*
G02*
X117062500Y-113874999I0J-249999D01*
G01*
G37*
G36*
G01*
X119987500Y-113874999D02*
X119987500Y-115125001D01*
G75*
G02*
X119737501Y-115375000I-249999J0D01*
G01*
X119112499Y-115375000D01*
G75*
G02*
X118862500Y-115125001I0J249999D01*
G01*
X118862500Y-113874999D01*
G75*
G02*
X119112499Y-113625000I249999J0D01*
G01*
X119737501Y-113625000D01*
G75*
G02*
X119987500Y-113874999I0J-249999D01*
G01*
G37*
%TD*%
D12*
%TO.C,Q2*%
X121500000Y-111000000D03*
X123500000Y-110050000D03*
X123500000Y-111950000D03*
%TD*%
%TO.C,Q1*%
X121500000Y-115000000D03*
X123500000Y-114050000D03*
X123500000Y-115950000D03*
%TD*%
D13*
%TO.C,L1*%
X120500000Y-139450000D03*
X120500000Y-129550000D03*
%TD*%
D14*
%TO.C,D3*%
X149000000Y-133900000D03*
X149000000Y-129100000D03*
%TD*%
%TO.C,C2*%
G36*
G01*
X112525000Y-134425000D02*
X110475000Y-134425000D01*
G75*
G02*
X110225000Y-134175000I0J250000D01*
G01*
X110225000Y-132600000D01*
G75*
G02*
X110475000Y-132350000I250000J0D01*
G01*
X112525000Y-132350000D01*
G75*
G02*
X112775000Y-132600000I0J-250000D01*
G01*
X112775000Y-134175000D01*
G75*
G02*
X112525000Y-134425000I-250000J0D01*
G01*
G37*
G36*
G01*
X112525000Y-140650000D02*
X110475000Y-140650000D01*
G75*
G02*
X110225000Y-140400000I0J250000D01*
G01*
X110225000Y-138825000D01*
G75*
G02*
X110475000Y-138575000I250000J0D01*
G01*
X112525000Y-138575000D01*
G75*
G02*
X112775000Y-138825000I0J-250000D01*
G01*
X112775000Y-140400000D01*
G75*
G02*
X112525000Y-140650000I-250000J0D01*
G01*
G37*
%TD*%
%TO.C,C1*%
G36*
G01*
X141950000Y-132450000D02*
X143050000Y-132450000D01*
G75*
G02*
X143300000Y-132700000I0J-250000D01*
G01*
X143300000Y-135700000D01*
G75*
G02*
X143050000Y-135950000I-250000J0D01*
G01*
X141950000Y-135950000D01*
G75*
G02*
X141700000Y-135700000I0J250000D01*
G01*
X141700000Y-132700000D01*
G75*
G02*
X141950000Y-132450000I250000J0D01*
G01*
G37*
G36*
G01*
X141950000Y-127050000D02*
X143050000Y-127050000D01*
G75*
G02*
X143300000Y-127300000I0J-250000D01*
G01*
X143300000Y-130300000D01*
G75*
G02*
X143050000Y-130550000I-250000J0D01*
G01*
X141950000Y-130550000D01*
G75*
G02*
X141700000Y-130300000I0J250000D01*
G01*
X141700000Y-127300000D01*
G75*
G02*
X141950000Y-127050000I250000J0D01*
G01*
G37*
%TD*%
M02*
