%TF.GenerationSoftware,KiCad,Pcbnew,5.1.9*%
%TF.CreationDate,2021-05-01T23:47:16+02:00*%
%TF.ProjectId,nfc_reader,6e66635f-7265-4616-9465-722e6b696361,rev?*%
%TF.SameCoordinates,Original*%
%TF.FileFunction,Legend,Bot*%
%TF.FilePolarity,Positive*%
%FSLAX46Y46*%
G04 Gerber Fmt 4.6, Leading zero omitted, Abs format (unit mm)*
G04 Created by KiCad (PCBNEW 5.1.9) date 2021-05-01 23:47:16*
%MOMM*%
%LPD*%
G01*
G04 APERTURE LIST*
%ADD10C,0.200000*%
%ADD11C,0.150000*%
G04 APERTURE END LIST*
D10*
X143428571Y-114857142D02*
X143428571Y-111857142D01*
X141714285Y-114857142D01*
X141714285Y-111857142D01*
X139285714Y-113285714D02*
X140285714Y-113285714D01*
X140285714Y-114857142D02*
X140285714Y-111857142D01*
X138857142Y-111857142D01*
X136000000Y-114571428D02*
X136142857Y-114714285D01*
X136571428Y-114857142D01*
X136857142Y-114857142D01*
X137285714Y-114714285D01*
X137571428Y-114428571D01*
X137714285Y-114142857D01*
X137857142Y-113571428D01*
X137857142Y-113142857D01*
X137714285Y-112571428D01*
X137571428Y-112285714D01*
X137285714Y-112000000D01*
X136857142Y-111857142D01*
X136571428Y-111857142D01*
X136142857Y-112000000D01*
X136000000Y-112142857D01*
X132428571Y-114857142D02*
X132428571Y-112857142D01*
X132428571Y-113428571D02*
X132285714Y-113142857D01*
X132142857Y-113000000D01*
X131857142Y-112857142D01*
X131571428Y-112857142D01*
X129428571Y-114714285D02*
X129714285Y-114857142D01*
X130285714Y-114857142D01*
X130571428Y-114714285D01*
X130714285Y-114428571D01*
X130714285Y-113285714D01*
X130571428Y-113000000D01*
X130285714Y-112857142D01*
X129714285Y-112857142D01*
X129428571Y-113000000D01*
X129285714Y-113285714D01*
X129285714Y-113571428D01*
X130714285Y-113857142D01*
X126714285Y-114857142D02*
X126714285Y-113285714D01*
X126857142Y-113000000D01*
X127142857Y-112857142D01*
X127714285Y-112857142D01*
X128000000Y-113000000D01*
X126714285Y-114714285D02*
X127000000Y-114857142D01*
X127714285Y-114857142D01*
X128000000Y-114714285D01*
X128142857Y-114428571D01*
X128142857Y-114142857D01*
X128000000Y-113857142D01*
X127714285Y-113714285D01*
X127000000Y-113714285D01*
X126714285Y-113571428D01*
X124000000Y-114857142D02*
X124000000Y-111857142D01*
X124000000Y-114714285D02*
X124285714Y-114857142D01*
X124857142Y-114857142D01*
X125142857Y-114714285D01*
X125285714Y-114571428D01*
X125428571Y-114285714D01*
X125428571Y-113428571D01*
X125285714Y-113142857D01*
X125142857Y-113000000D01*
X124857142Y-112857142D01*
X124285714Y-112857142D01*
X124000000Y-113000000D01*
X121428571Y-114714285D02*
X121714285Y-114857142D01*
X122285714Y-114857142D01*
X122571428Y-114714285D01*
X122714285Y-114428571D01*
X122714285Y-113285714D01*
X122571428Y-113000000D01*
X122285714Y-112857142D01*
X121714285Y-112857142D01*
X121428571Y-113000000D01*
X121285714Y-113285714D01*
X121285714Y-113571428D01*
X122714285Y-113857142D01*
X120000000Y-114857142D02*
X120000000Y-112857142D01*
X120000000Y-113428571D02*
X119857142Y-113142857D01*
X119714285Y-113000000D01*
X119428571Y-112857142D01*
X119142857Y-112857142D01*
D11*
X144309523Y-117404761D02*
X144309523Y-115404761D01*
X144309523Y-116166666D02*
X144119047Y-116071428D01*
X143738095Y-116071428D01*
X143547619Y-116166666D01*
X143452380Y-116261904D01*
X143357142Y-116452380D01*
X143357142Y-117023809D01*
X143452380Y-117214285D01*
X143547619Y-117309523D01*
X143738095Y-117404761D01*
X144119047Y-117404761D01*
X144309523Y-117309523D01*
X142690476Y-116071428D02*
X142214285Y-117404761D01*
X141738095Y-116071428D02*
X142214285Y-117404761D01*
X142404761Y-117880952D01*
X142500000Y-117976190D01*
X142690476Y-118071428D01*
X139452380Y-117404761D02*
X139452380Y-115404761D01*
X139452380Y-116357142D02*
X138309523Y-116357142D01*
X138309523Y-117404761D02*
X138309523Y-115404761D01*
X136500000Y-117404761D02*
X136500000Y-116357142D01*
X136595238Y-116166666D01*
X136785714Y-116071428D01*
X137166666Y-116071428D01*
X137357142Y-116166666D01*
X136500000Y-117309523D02*
X136690476Y-117404761D01*
X137166666Y-117404761D01*
X137357142Y-117309523D01*
X137452380Y-117119047D01*
X137452380Y-116928571D01*
X137357142Y-116738095D01*
X137166666Y-116642857D01*
X136690476Y-116642857D01*
X136500000Y-116547619D01*
X135547619Y-116071428D02*
X135547619Y-117404761D01*
X135547619Y-116261904D02*
X135452380Y-116166666D01*
X135261904Y-116071428D01*
X134976190Y-116071428D01*
X134785714Y-116166666D01*
X134690476Y-116357142D01*
X134690476Y-117404761D01*
X132880952Y-116071428D02*
X132880952Y-117690476D01*
X132976190Y-117880952D01*
X133071428Y-117976190D01*
X133261904Y-118071428D01*
X133547619Y-118071428D01*
X133738095Y-117976190D01*
X132880952Y-117309523D02*
X133071428Y-117404761D01*
X133452380Y-117404761D01*
X133642857Y-117309523D01*
X133738095Y-117214285D01*
X133833333Y-117023809D01*
X133833333Y-116452380D01*
X133738095Y-116261904D01*
X133642857Y-116166666D01*
X133452380Y-116071428D01*
X133071428Y-116071428D01*
X132880952Y-116166666D01*
X131071428Y-117404761D02*
X131071428Y-116357142D01*
X131166666Y-116166666D01*
X131357142Y-116071428D01*
X131738095Y-116071428D01*
X131928571Y-116166666D01*
X131071428Y-117309523D02*
X131261904Y-117404761D01*
X131738095Y-117404761D01*
X131928571Y-117309523D01*
X132023809Y-117119047D01*
X132023809Y-116928571D01*
X131928571Y-116738095D01*
X131738095Y-116642857D01*
X131261904Y-116642857D01*
X131071428Y-116547619D01*
X130119047Y-117404761D02*
X130119047Y-116071428D01*
X130119047Y-116452380D02*
X130023809Y-116261904D01*
X129928571Y-116166666D01*
X129738095Y-116071428D01*
X129547619Y-116071428D01*
X126309523Y-117404761D02*
X127452380Y-117404761D01*
X126880952Y-117404761D02*
X126880952Y-115404761D01*
X127071428Y-115690476D01*
X127261904Y-115880952D01*
X127452380Y-115976190D01*
X125357142Y-117404761D02*
X124976190Y-117404761D01*
X124785714Y-117309523D01*
X124690476Y-117214285D01*
X124500000Y-116928571D01*
X124404761Y-116547619D01*
X124404761Y-115785714D01*
X124500000Y-115595238D01*
X124595238Y-115500000D01*
X124785714Y-115404761D01*
X125166666Y-115404761D01*
X125357142Y-115500000D01*
X125452380Y-115595238D01*
X125547619Y-115785714D01*
X125547619Y-116261904D01*
X125452380Y-116452380D01*
X125357142Y-116547619D01*
X125166666Y-116642857D01*
X124785714Y-116642857D01*
X124595238Y-116547619D01*
X124500000Y-116452380D01*
X124404761Y-116261904D01*
X123452380Y-117404761D02*
X123071428Y-117404761D01*
X122880952Y-117309523D01*
X122785714Y-117214285D01*
X122595238Y-116928571D01*
X122500000Y-116547619D01*
X122500000Y-115785714D01*
X122595238Y-115595238D01*
X122690476Y-115500000D01*
X122880952Y-115404761D01*
X123261904Y-115404761D01*
X123452380Y-115500000D01*
X123547619Y-115595238D01*
X123642857Y-115785714D01*
X123642857Y-116261904D01*
X123547619Y-116452380D01*
X123452380Y-116547619D01*
X123261904Y-116642857D01*
X122880952Y-116642857D01*
X122690476Y-116547619D01*
X122595238Y-116452380D01*
X122500000Y-116261904D01*
X121738095Y-115595238D02*
X121642857Y-115500000D01*
X121452380Y-115404761D01*
X120976190Y-115404761D01*
X120785714Y-115500000D01*
X120690476Y-115595238D01*
X120595238Y-115785714D01*
X120595238Y-115976190D01*
X120690476Y-116261904D01*
X121833333Y-117404761D01*
X120595238Y-117404761D01*
X133619047Y-138952380D02*
X133619047Y-139666666D01*
X133666666Y-139809523D01*
X133761904Y-139904761D01*
X133904761Y-139952380D01*
X134000000Y-139952380D01*
X132666666Y-139952380D02*
X133142857Y-139952380D01*
X133142857Y-138952380D01*
X131761904Y-139857142D02*
X131809523Y-139904761D01*
X131952380Y-139952380D01*
X132047619Y-139952380D01*
X132190476Y-139904761D01*
X132285714Y-139809523D01*
X132333333Y-139714285D01*
X132380952Y-139523809D01*
X132380952Y-139380952D01*
X132333333Y-139190476D01*
X132285714Y-139095238D01*
X132190476Y-139000000D01*
X132047619Y-138952380D01*
X131952380Y-138952380D01*
X131809523Y-139000000D01*
X131761904Y-139047619D01*
X131047619Y-138952380D02*
X131047619Y-139666666D01*
X131095238Y-139809523D01*
X131190476Y-139904761D01*
X131333333Y-139952380D01*
X131428571Y-139952380D01*
X130095238Y-139952380D02*
X130571428Y-139952380D01*
X130571428Y-138952380D01*
X129190476Y-139857142D02*
X129238095Y-139904761D01*
X129380952Y-139952380D01*
X129476190Y-139952380D01*
X129619047Y-139904761D01*
X129714285Y-139809523D01*
X129761904Y-139714285D01*
X129809523Y-139523809D01*
X129809523Y-139380952D01*
X129761904Y-139190476D01*
X129714285Y-139095238D01*
X129619047Y-139000000D01*
X129476190Y-138952380D01*
X129380952Y-138952380D01*
X129238095Y-139000000D01*
X129190476Y-139047619D01*
X128476190Y-138952380D02*
X128476190Y-139666666D01*
X128523809Y-139809523D01*
X128619047Y-139904761D01*
X128761904Y-139952380D01*
X128857142Y-139952380D01*
X127523809Y-139952380D02*
X128000000Y-139952380D01*
X128000000Y-138952380D01*
X126619047Y-139857142D02*
X126666666Y-139904761D01*
X126809523Y-139952380D01*
X126904761Y-139952380D01*
X127047619Y-139904761D01*
X127142857Y-139809523D01*
X127190476Y-139714285D01*
X127238095Y-139523809D01*
X127238095Y-139380952D01*
X127190476Y-139190476D01*
X127142857Y-139095238D01*
X127047619Y-139000000D01*
X126904761Y-138952380D01*
X126809523Y-138952380D01*
X126666666Y-139000000D01*
X126619047Y-139047619D01*
X125904761Y-138952380D02*
X125904761Y-139666666D01*
X125952380Y-139809523D01*
X126047619Y-139904761D01*
X126190476Y-139952380D01*
X126285714Y-139952380D01*
X124952380Y-139952380D02*
X125428571Y-139952380D01*
X125428571Y-138952380D01*
X124047619Y-139857142D02*
X124095238Y-139904761D01*
X124238095Y-139952380D01*
X124333333Y-139952380D01*
X124476190Y-139904761D01*
X124571428Y-139809523D01*
X124619047Y-139714285D01*
X124666666Y-139523809D01*
X124666666Y-139380952D01*
X124619047Y-139190476D01*
X124571428Y-139095238D01*
X124476190Y-139000000D01*
X124333333Y-138952380D01*
X124238095Y-138952380D01*
X124095238Y-139000000D01*
X124047619Y-139047619D01*
M02*
