M48
; DRILL file {KiCad 5.1.9} date Wed Feb 24 22:30:36 2021
; FORMAT={-:-/ absolute / inch / decimal}
; #@! TF.CreationDate,2021-02-24T22:30:36+01:00
; #@! TF.GenerationSoftware,Kicad,Pcbnew,5.1.9
; #@! TF.FileFunction,Plated,1,2,PTH
FMAT,2
INCH
T1C0.0236
T2C0.0354
T3C0.0394
T4C0.0433
T5C0.0472
T6C0.0551
T7C0.0591
T8C0.0630
T9C0.1260
%
G90
G05
T1
X8.3858Y-3.4154
X8.4547Y-3.9665
X8.4646Y-3.3661
X8.6614Y-4.1732
X8.7008Y-4.3307
X8.7111Y-4.2229
X8.75Y-4.3307
X8.8268Y-4.3858
X8.8484Y-4.5177
X8.8976Y-4.3071
X8.9449Y-4.3543
X8.9764Y-4.4783
X8.9843Y-4.3071
X9.0157Y-5.4331
X9.311Y-3.4449
X9.3898Y-2.9823
X9.3996Y-2.8346
X9.4291Y-2.8839
X9.4488Y-2.9331
X9.4685Y-2.8346
X9.4685Y-3.0315
X9.4882Y-2.9823
X9.5276Y-2.8839
X9.5276Y-3.4449
X9.5472Y-2.8346
X9.5472Y-2.9331
X9.5768Y-3.0315
X9.6161Y-2.8839
X9.6161Y-2.9823
X9.6457Y-2.8346
X9.6654Y-2.9331
X9.7047Y-3.0315
X9.7343Y-2.8839
X9.7343Y-2.9823
X9.7539Y-2.8346
X9.7638Y-2.9331
X9.7835Y-5.4134
X9.872Y-3.3563
X9.9213Y-4.0748
X10.0295Y-3.3465
X10.0295Y-4.1043
X10.2165Y-4.1437
X10.315Y-3.3366
X10.3642Y-4.1437
X10.4626Y-3.3366
X10.689Y-3.3366
X10.7776Y-4.065
X10.8858Y-3.3366
X10.9154Y-4.1142
X11.0827Y-4.1634
X11.1811Y-3.3366
X11.2402Y-4.1634
X11.2598Y-4.626
X11.3287Y-3.3465
X11.5748Y-2.6181
X11.7008Y-3.0551
T2
X8.5827Y-5.3937
X8.6327Y-5.2937
X8.6827Y-5.3937
X8.7327Y-5.2937
X8.7827Y-5.3937
X8.8327Y-5.2937
X8.8827Y-5.3937
X8.9327Y-5.2937
X9.3701Y-5.3937
X9.4201Y-5.2937
X9.4701Y-5.3937
X9.5201Y-5.2937
X9.5701Y-5.3937
X9.6201Y-5.2937
X9.6701Y-5.3937
X9.7201Y-5.2937
X10.1575Y-5.3937
X10.2075Y-5.2937
X10.2575Y-5.3937
X10.3075Y-5.2937
X10.3575Y-5.3937
X10.4075Y-5.2937
X10.4575Y-5.3937
X10.5075Y-5.2937
X10.9449Y-5.3937
X10.9949Y-5.2937
X11.0449Y-5.3937
X11.0949Y-5.2937
X11.1449Y-5.3937
X11.1949Y-5.2937
X11.2449Y-5.3937
X11.2949Y-5.2937
T3
X7.9626Y-2.8697
X7.9626Y-2.9697
X7.9626Y-3.0697
X7.9626Y-3.1697
X7.9626Y-3.2697
X7.9626Y-3.3697
X7.9626Y-3.4697
X7.9626Y-3.5697
X7.9626Y-3.6697
X7.9626Y-3.7697
X7.9626Y-3.8697
X7.9626Y-3.9697
X7.9626Y-4.0697
X7.9626Y-4.1697
X7.9626Y-4.2697
X7.9626Y-4.3697
X7.9626Y-4.4697
X7.9626Y-4.5697
X7.9626Y-4.6697
X7.9626Y-4.7697
X7.9917Y-5.2197
X7.9921Y-5.0197
X8.0626Y-2.8697
X8.0626Y-2.9697
X8.0626Y-3.0697
X8.0626Y-3.1697
X8.0626Y-3.2697
X8.0626Y-3.3697
X8.0626Y-3.4697
X8.0626Y-3.5697
X8.0626Y-3.6697
X8.0626Y-3.7697
X8.0626Y-3.8697
X8.0626Y-3.9697
X8.0626Y-4.0697
X8.0626Y-4.1697
X8.0626Y-4.2697
X8.0626Y-4.3697
X8.0626Y-4.4697
X8.0626Y-4.5697
X8.0626Y-4.6697
X8.0626Y-4.7697
X8.5795Y-2.9327
X8.7795Y-2.9331
X8.976Y-5.1213
X8.9764Y-4.9213
X9.7634Y-5.1213
X9.7638Y-4.9213
X10.0295Y-3.7106
X10.0295Y-3.8106
X10.0295Y-3.9106
X10.0295Y-4.0106
X10.1772Y-3.7106
X10.1772Y-3.8106
X10.1772Y-3.9106
X10.1772Y-4.0106
X10.3248Y-3.7106
X10.3248Y-3.8106
X10.3248Y-3.9106
X10.3248Y-4.0106
X10.4724Y-3.7106
X10.4724Y-3.8106
X10.4724Y-3.9106
X10.4724Y-4.0106
X10.5508Y-5.1213
X10.5512Y-4.9213
X10.8858Y-3.7106
X10.8858Y-3.8106
X10.8858Y-3.9106
X10.8858Y-4.0106
X11.0335Y-3.7106
X11.0335Y-3.8106
X11.0335Y-3.9106
X11.0335Y-4.0106
X11.1811Y-3.7106
X11.1811Y-3.8106
X11.1811Y-3.9106
X11.1811Y-4.0106
X11.3287Y-3.7106
X11.3287Y-3.8106
X11.3287Y-3.9106
X11.3287Y-4.0106
X11.3382Y-5.1213
X11.3386Y-4.9213
T4
X12.4813Y-3.9965
X12.4813Y-4.4886
X12.4813Y-4.9807
X12.485Y-3.5044
X12.5813Y-3.9965
X12.5813Y-4.4886
X12.5813Y-4.9807
X12.585Y-3.5044
T5
X11.8175Y-5.6496
X11.9675Y-5.6496
X12.1175Y-5.6496
X12.2675Y-5.6496
X12.4175Y-5.6496
X12.5675Y-5.6496
X12.7175Y-5.6496
X12.8675Y-5.6496
T6
X8.0102Y-5.5709
X8.2102Y-5.5709
T7
X11.9813Y-3.9965
X11.9813Y-4.4886
X11.9813Y-4.9807
X11.985Y-3.5044
X12.1813Y-3.9965
X12.1813Y-4.4886
X12.1813Y-4.9807
X12.185Y-3.5044
T8
X8.4518Y-5.7638
X9.0636Y-5.7638
X9.065Y-4.0157
X9.2392Y-5.7638
X9.3056Y-4.0113
X9.311Y-2.8346
X9.4783Y-3.7205
X9.851Y-5.7638
X10.0Y-2.748
X10.0266Y-5.7638
X10.6384Y-5.7638
X10.814Y-5.7638
X11.4258Y-5.7638
X12.1654Y-3.1181
T9
X8.2677Y-2.7264
X8.2677Y-5.0984
X12.9528Y-2.7264
X12.9528Y-5.0984
T0
M30
