G04 #@! TF.GenerationSoftware,KiCad,Pcbnew,5.1.9*
G04 #@! TF.CreationDate,2021-02-24T22:30:28+01:00*
G04 #@! TF.ProjectId,rpi_module,7270695f-6d6f-4647-956c-652e6b696361,rev?*
G04 #@! TF.SameCoordinates,Original*
G04 #@! TF.FileFunction,Soldermask,Top*
G04 #@! TF.FilePolarity,Negative*
%FSLAX46Y46*%
G04 Gerber Fmt 4.6, Leading zero omitted, Abs format (unit mm)*
G04 Created by KiCad (PCBNEW 5.1.9) date 2021-02-24 22:30:28*
%MOMM*%
%LPD*%
G01*
G04 APERTURE LIST*
%ADD10R,3.300000X5.100000*%
%ADD11C,2.100000*%
%ADD12R,2.100000X2.100000*%
%ADD13C,1.800000*%
%ADD14R,1.800000X1.800000*%
%ADD15C,2.200000*%
%ADD16C,5.600000*%
%ADD17R,10.580000X6.840000*%
%ADD18R,0.890000X2.790000*%
%ADD19C,1.500000*%
%ADD20C,3.000000*%
%ADD21R,1.500000X1.500000*%
%ADD22C,3.250000*%
%ADD23O,1.700000X1.700000*%
%ADD24R,1.700000X1.700000*%
%ADD25C,2.000000*%
%ADD26R,1.200000X0.900000*%
%ADD27R,1.800000X2.500000*%
G04 APERTURE END LIST*
D10*
X219400000Y-83500000D03*
X229600000Y-83500000D03*
D11*
X203460000Y-141500000D03*
D12*
X208540000Y-141500000D03*
D13*
X300165000Y-143500000D03*
X303975000Y-143500000D03*
X307785000Y-143500000D03*
X311595000Y-143500000D03*
X315405000Y-143500000D03*
X319215000Y-143500000D03*
X323025000Y-143500000D03*
D14*
X326835000Y-143500000D03*
D13*
X319660000Y-89010500D03*
X317120000Y-89010500D03*
D15*
X304420000Y-89010500D03*
X309500000Y-89010500D03*
D13*
X319564500Y-101510500D03*
X317024500Y-101510500D03*
D15*
X304324500Y-101510500D03*
X309404500Y-101510500D03*
D13*
X319564500Y-114010500D03*
X317024500Y-114010500D03*
D15*
X304324500Y-114010500D03*
X309404500Y-114010500D03*
D13*
X319564500Y-126510500D03*
X317024500Y-126510500D03*
D15*
X304324500Y-126510500D03*
X309404500Y-126510500D03*
D16*
X329000000Y-129500000D03*
X329000000Y-69250000D03*
X210000000Y-69250000D03*
X210000000Y-129500000D03*
G36*
G01*
X303700000Y-68705000D02*
X303700000Y-68405000D01*
G75*
G02*
X303850000Y-68255000I150000J0D01*
G01*
X305300000Y-68255000D01*
G75*
G02*
X305450000Y-68405000I0J-150000D01*
G01*
X305450000Y-68705000D01*
G75*
G02*
X305300000Y-68855000I-150000J0D01*
G01*
X303850000Y-68855000D01*
G75*
G02*
X303700000Y-68705000I0J150000D01*
G01*
G37*
G36*
G01*
X303700000Y-69975000D02*
X303700000Y-69675000D01*
G75*
G02*
X303850000Y-69525000I150000J0D01*
G01*
X305300000Y-69525000D01*
G75*
G02*
X305450000Y-69675000I0J-150000D01*
G01*
X305450000Y-69975000D01*
G75*
G02*
X305300000Y-70125000I-150000J0D01*
G01*
X303850000Y-70125000D01*
G75*
G02*
X303700000Y-69975000I0J150000D01*
G01*
G37*
G36*
G01*
X303700000Y-71245000D02*
X303700000Y-70945000D01*
G75*
G02*
X303850000Y-70795000I150000J0D01*
G01*
X305300000Y-70795000D01*
G75*
G02*
X305450000Y-70945000I0J-150000D01*
G01*
X305450000Y-71245000D01*
G75*
G02*
X305300000Y-71395000I-150000J0D01*
G01*
X303850000Y-71395000D01*
G75*
G02*
X303700000Y-71245000I0J150000D01*
G01*
G37*
G36*
G01*
X303700000Y-72515000D02*
X303700000Y-72215000D01*
G75*
G02*
X303850000Y-72065000I150000J0D01*
G01*
X305300000Y-72065000D01*
G75*
G02*
X305450000Y-72215000I0J-150000D01*
G01*
X305450000Y-72515000D01*
G75*
G02*
X305300000Y-72665000I-150000J0D01*
G01*
X303850000Y-72665000D01*
G75*
G02*
X303700000Y-72515000I0J150000D01*
G01*
G37*
G36*
G01*
X303700000Y-73785000D02*
X303700000Y-73485000D01*
G75*
G02*
X303850000Y-73335000I150000J0D01*
G01*
X305300000Y-73335000D01*
G75*
G02*
X305450000Y-73485000I0J-150000D01*
G01*
X305450000Y-73785000D01*
G75*
G02*
X305300000Y-73935000I-150000J0D01*
G01*
X303850000Y-73935000D01*
G75*
G02*
X303700000Y-73785000I0J150000D01*
G01*
G37*
G36*
G01*
X303700000Y-75055000D02*
X303700000Y-74755000D01*
G75*
G02*
X303850000Y-74605000I150000J0D01*
G01*
X305300000Y-74605000D01*
G75*
G02*
X305450000Y-74755000I0J-150000D01*
G01*
X305450000Y-75055000D01*
G75*
G02*
X305300000Y-75205000I-150000J0D01*
G01*
X303850000Y-75205000D01*
G75*
G02*
X303700000Y-75055000I0J150000D01*
G01*
G37*
G36*
G01*
X303700000Y-76325000D02*
X303700000Y-76025000D01*
G75*
G02*
X303850000Y-75875000I150000J0D01*
G01*
X305300000Y-75875000D01*
G75*
G02*
X305450000Y-76025000I0J-150000D01*
G01*
X305450000Y-76325000D01*
G75*
G02*
X305300000Y-76475000I-150000J0D01*
G01*
X303850000Y-76475000D01*
G75*
G02*
X303700000Y-76325000I0J150000D01*
G01*
G37*
G36*
G01*
X303700000Y-77595000D02*
X303700000Y-77295000D01*
G75*
G02*
X303850000Y-77145000I150000J0D01*
G01*
X305300000Y-77145000D01*
G75*
G02*
X305450000Y-77295000I0J-150000D01*
G01*
X305450000Y-77595000D01*
G75*
G02*
X305300000Y-77745000I-150000J0D01*
G01*
X303850000Y-77745000D01*
G75*
G02*
X303700000Y-77595000I0J150000D01*
G01*
G37*
G36*
G01*
X298550000Y-77595000D02*
X298550000Y-77295000D01*
G75*
G02*
X298700000Y-77145000I150000J0D01*
G01*
X300150000Y-77145000D01*
G75*
G02*
X300300000Y-77295000I0J-150000D01*
G01*
X300300000Y-77595000D01*
G75*
G02*
X300150000Y-77745000I-150000J0D01*
G01*
X298700000Y-77745000D01*
G75*
G02*
X298550000Y-77595000I0J150000D01*
G01*
G37*
G36*
G01*
X298550000Y-76325000D02*
X298550000Y-76025000D01*
G75*
G02*
X298700000Y-75875000I150000J0D01*
G01*
X300150000Y-75875000D01*
G75*
G02*
X300300000Y-76025000I0J-150000D01*
G01*
X300300000Y-76325000D01*
G75*
G02*
X300150000Y-76475000I-150000J0D01*
G01*
X298700000Y-76475000D01*
G75*
G02*
X298550000Y-76325000I0J150000D01*
G01*
G37*
G36*
G01*
X298550000Y-75055000D02*
X298550000Y-74755000D01*
G75*
G02*
X298700000Y-74605000I150000J0D01*
G01*
X300150000Y-74605000D01*
G75*
G02*
X300300000Y-74755000I0J-150000D01*
G01*
X300300000Y-75055000D01*
G75*
G02*
X300150000Y-75205000I-150000J0D01*
G01*
X298700000Y-75205000D01*
G75*
G02*
X298550000Y-75055000I0J150000D01*
G01*
G37*
G36*
G01*
X298550000Y-73785000D02*
X298550000Y-73485000D01*
G75*
G02*
X298700000Y-73335000I150000J0D01*
G01*
X300150000Y-73335000D01*
G75*
G02*
X300300000Y-73485000I0J-150000D01*
G01*
X300300000Y-73785000D01*
G75*
G02*
X300150000Y-73935000I-150000J0D01*
G01*
X298700000Y-73935000D01*
G75*
G02*
X298550000Y-73785000I0J150000D01*
G01*
G37*
G36*
G01*
X298550000Y-72515000D02*
X298550000Y-72215000D01*
G75*
G02*
X298700000Y-72065000I150000J0D01*
G01*
X300150000Y-72065000D01*
G75*
G02*
X300300000Y-72215000I0J-150000D01*
G01*
X300300000Y-72515000D01*
G75*
G02*
X300150000Y-72665000I-150000J0D01*
G01*
X298700000Y-72665000D01*
G75*
G02*
X298550000Y-72515000I0J150000D01*
G01*
G37*
G36*
G01*
X298550000Y-71245000D02*
X298550000Y-70945000D01*
G75*
G02*
X298700000Y-70795000I150000J0D01*
G01*
X300150000Y-70795000D01*
G75*
G02*
X300300000Y-70945000I0J-150000D01*
G01*
X300300000Y-71245000D01*
G75*
G02*
X300150000Y-71395000I-150000J0D01*
G01*
X298700000Y-71395000D01*
G75*
G02*
X298550000Y-71245000I0J150000D01*
G01*
G37*
G36*
G01*
X298550000Y-69975000D02*
X298550000Y-69675000D01*
G75*
G02*
X298700000Y-69525000I150000J0D01*
G01*
X300150000Y-69525000D01*
G75*
G02*
X300300000Y-69675000I0J-150000D01*
G01*
X300300000Y-69975000D01*
G75*
G02*
X300150000Y-70125000I-150000J0D01*
G01*
X298700000Y-70125000D01*
G75*
G02*
X298550000Y-69975000I0J150000D01*
G01*
G37*
G36*
G01*
X298550000Y-68705000D02*
X298550000Y-68405000D01*
G75*
G02*
X298700000Y-68255000I150000J0D01*
G01*
X300150000Y-68255000D01*
G75*
G02*
X300300000Y-68405000I0J-150000D01*
G01*
X300300000Y-68705000D01*
G75*
G02*
X300150000Y-68855000I-150000J0D01*
G01*
X298700000Y-68855000D01*
G75*
G02*
X298550000Y-68705000I0J150000D01*
G01*
G37*
D17*
X243250000Y-74590000D03*
D18*
X247060000Y-84940000D03*
X245790000Y-84940000D03*
X244520000Y-84940000D03*
X243250000Y-84940000D03*
X241980000Y-84940000D03*
X240710000Y-84940000D03*
X239440000Y-84940000D03*
G36*
G01*
X277705000Y-71300000D02*
X277405000Y-71300000D01*
G75*
G02*
X277255000Y-71150000I0J150000D01*
G01*
X277255000Y-69700000D01*
G75*
G02*
X277405000Y-69550000I150000J0D01*
G01*
X277705000Y-69550000D01*
G75*
G02*
X277855000Y-69700000I0J-150000D01*
G01*
X277855000Y-71150000D01*
G75*
G02*
X277705000Y-71300000I-150000J0D01*
G01*
G37*
G36*
G01*
X278975000Y-71300000D02*
X278675000Y-71300000D01*
G75*
G02*
X278525000Y-71150000I0J150000D01*
G01*
X278525000Y-69700000D01*
G75*
G02*
X278675000Y-69550000I150000J0D01*
G01*
X278975000Y-69550000D01*
G75*
G02*
X279125000Y-69700000I0J-150000D01*
G01*
X279125000Y-71150000D01*
G75*
G02*
X278975000Y-71300000I-150000J0D01*
G01*
G37*
G36*
G01*
X280245000Y-71300000D02*
X279945000Y-71300000D01*
G75*
G02*
X279795000Y-71150000I0J150000D01*
G01*
X279795000Y-69700000D01*
G75*
G02*
X279945000Y-69550000I150000J0D01*
G01*
X280245000Y-69550000D01*
G75*
G02*
X280395000Y-69700000I0J-150000D01*
G01*
X280395000Y-71150000D01*
G75*
G02*
X280245000Y-71300000I-150000J0D01*
G01*
G37*
G36*
G01*
X281515000Y-71300000D02*
X281215000Y-71300000D01*
G75*
G02*
X281065000Y-71150000I0J150000D01*
G01*
X281065000Y-69700000D01*
G75*
G02*
X281215000Y-69550000I150000J0D01*
G01*
X281515000Y-69550000D01*
G75*
G02*
X281665000Y-69700000I0J-150000D01*
G01*
X281665000Y-71150000D01*
G75*
G02*
X281515000Y-71300000I-150000J0D01*
G01*
G37*
G36*
G01*
X282785000Y-71300000D02*
X282485000Y-71300000D01*
G75*
G02*
X282335000Y-71150000I0J150000D01*
G01*
X282335000Y-69700000D01*
G75*
G02*
X282485000Y-69550000I150000J0D01*
G01*
X282785000Y-69550000D01*
G75*
G02*
X282935000Y-69700000I0J-150000D01*
G01*
X282935000Y-71150000D01*
G75*
G02*
X282785000Y-71300000I-150000J0D01*
G01*
G37*
G36*
G01*
X284055000Y-71300000D02*
X283755000Y-71300000D01*
G75*
G02*
X283605000Y-71150000I0J150000D01*
G01*
X283605000Y-69700000D01*
G75*
G02*
X283755000Y-69550000I150000J0D01*
G01*
X284055000Y-69550000D01*
G75*
G02*
X284205000Y-69700000I0J-150000D01*
G01*
X284205000Y-71150000D01*
G75*
G02*
X284055000Y-71300000I-150000J0D01*
G01*
G37*
G36*
G01*
X285325000Y-71300000D02*
X285025000Y-71300000D01*
G75*
G02*
X284875000Y-71150000I0J150000D01*
G01*
X284875000Y-69700000D01*
G75*
G02*
X285025000Y-69550000I150000J0D01*
G01*
X285325000Y-69550000D01*
G75*
G02*
X285475000Y-69700000I0J-150000D01*
G01*
X285475000Y-71150000D01*
G75*
G02*
X285325000Y-71300000I-150000J0D01*
G01*
G37*
G36*
G01*
X286595000Y-71300000D02*
X286295000Y-71300000D01*
G75*
G02*
X286145000Y-71150000I0J150000D01*
G01*
X286145000Y-69700000D01*
G75*
G02*
X286295000Y-69550000I150000J0D01*
G01*
X286595000Y-69550000D01*
G75*
G02*
X286745000Y-69700000I0J-150000D01*
G01*
X286745000Y-71150000D01*
G75*
G02*
X286595000Y-71300000I-150000J0D01*
G01*
G37*
G36*
G01*
X286595000Y-76450000D02*
X286295000Y-76450000D01*
G75*
G02*
X286145000Y-76300000I0J150000D01*
G01*
X286145000Y-74850000D01*
G75*
G02*
X286295000Y-74700000I150000J0D01*
G01*
X286595000Y-74700000D01*
G75*
G02*
X286745000Y-74850000I0J-150000D01*
G01*
X286745000Y-76300000D01*
G75*
G02*
X286595000Y-76450000I-150000J0D01*
G01*
G37*
G36*
G01*
X285325000Y-76450000D02*
X285025000Y-76450000D01*
G75*
G02*
X284875000Y-76300000I0J150000D01*
G01*
X284875000Y-74850000D01*
G75*
G02*
X285025000Y-74700000I150000J0D01*
G01*
X285325000Y-74700000D01*
G75*
G02*
X285475000Y-74850000I0J-150000D01*
G01*
X285475000Y-76300000D01*
G75*
G02*
X285325000Y-76450000I-150000J0D01*
G01*
G37*
G36*
G01*
X284055000Y-76450000D02*
X283755000Y-76450000D01*
G75*
G02*
X283605000Y-76300000I0J150000D01*
G01*
X283605000Y-74850000D01*
G75*
G02*
X283755000Y-74700000I150000J0D01*
G01*
X284055000Y-74700000D01*
G75*
G02*
X284205000Y-74850000I0J-150000D01*
G01*
X284205000Y-76300000D01*
G75*
G02*
X284055000Y-76450000I-150000J0D01*
G01*
G37*
G36*
G01*
X282785000Y-76450000D02*
X282485000Y-76450000D01*
G75*
G02*
X282335000Y-76300000I0J150000D01*
G01*
X282335000Y-74850000D01*
G75*
G02*
X282485000Y-74700000I150000J0D01*
G01*
X282785000Y-74700000D01*
G75*
G02*
X282935000Y-74850000I0J-150000D01*
G01*
X282935000Y-76300000D01*
G75*
G02*
X282785000Y-76450000I-150000J0D01*
G01*
G37*
G36*
G01*
X281515000Y-76450000D02*
X281215000Y-76450000D01*
G75*
G02*
X281065000Y-76300000I0J150000D01*
G01*
X281065000Y-74850000D01*
G75*
G02*
X281215000Y-74700000I150000J0D01*
G01*
X281515000Y-74700000D01*
G75*
G02*
X281665000Y-74850000I0J-150000D01*
G01*
X281665000Y-76300000D01*
G75*
G02*
X281515000Y-76450000I-150000J0D01*
G01*
G37*
G36*
G01*
X280245000Y-76450000D02*
X279945000Y-76450000D01*
G75*
G02*
X279795000Y-76300000I0J150000D01*
G01*
X279795000Y-74850000D01*
G75*
G02*
X279945000Y-74700000I150000J0D01*
G01*
X280245000Y-74700000D01*
G75*
G02*
X280395000Y-74850000I0J-150000D01*
G01*
X280395000Y-76300000D01*
G75*
G02*
X280245000Y-76450000I-150000J0D01*
G01*
G37*
G36*
G01*
X278975000Y-76450000D02*
X278675000Y-76450000D01*
G75*
G02*
X278525000Y-76300000I0J150000D01*
G01*
X278525000Y-74850000D01*
G75*
G02*
X278675000Y-74700000I150000J0D01*
G01*
X278975000Y-74700000D01*
G75*
G02*
X279125000Y-74850000I0J-150000D01*
G01*
X279125000Y-76300000D01*
G75*
G02*
X278975000Y-76450000I-150000J0D01*
G01*
G37*
G36*
G01*
X277705000Y-76450000D02*
X277405000Y-76450000D01*
G75*
G02*
X277255000Y-76300000I0J150000D01*
G01*
X277255000Y-74850000D01*
G75*
G02*
X277405000Y-74700000I150000J0D01*
G01*
X277705000Y-74700000D01*
G75*
G02*
X277855000Y-74850000I0J-150000D01*
G01*
X277855000Y-76300000D01*
G75*
G02*
X277705000Y-76450000I-150000J0D01*
G01*
G37*
G36*
G01*
X257205000Y-71300000D02*
X256905000Y-71300000D01*
G75*
G02*
X256755000Y-71150000I0J150000D01*
G01*
X256755000Y-69700000D01*
G75*
G02*
X256905000Y-69550000I150000J0D01*
G01*
X257205000Y-69550000D01*
G75*
G02*
X257355000Y-69700000I0J-150000D01*
G01*
X257355000Y-71150000D01*
G75*
G02*
X257205000Y-71300000I-150000J0D01*
G01*
G37*
G36*
G01*
X258475000Y-71300000D02*
X258175000Y-71300000D01*
G75*
G02*
X258025000Y-71150000I0J150000D01*
G01*
X258025000Y-69700000D01*
G75*
G02*
X258175000Y-69550000I150000J0D01*
G01*
X258475000Y-69550000D01*
G75*
G02*
X258625000Y-69700000I0J-150000D01*
G01*
X258625000Y-71150000D01*
G75*
G02*
X258475000Y-71300000I-150000J0D01*
G01*
G37*
G36*
G01*
X259745000Y-71300000D02*
X259445000Y-71300000D01*
G75*
G02*
X259295000Y-71150000I0J150000D01*
G01*
X259295000Y-69700000D01*
G75*
G02*
X259445000Y-69550000I150000J0D01*
G01*
X259745000Y-69550000D01*
G75*
G02*
X259895000Y-69700000I0J-150000D01*
G01*
X259895000Y-71150000D01*
G75*
G02*
X259745000Y-71300000I-150000J0D01*
G01*
G37*
G36*
G01*
X261015000Y-71300000D02*
X260715000Y-71300000D01*
G75*
G02*
X260565000Y-71150000I0J150000D01*
G01*
X260565000Y-69700000D01*
G75*
G02*
X260715000Y-69550000I150000J0D01*
G01*
X261015000Y-69550000D01*
G75*
G02*
X261165000Y-69700000I0J-150000D01*
G01*
X261165000Y-71150000D01*
G75*
G02*
X261015000Y-71300000I-150000J0D01*
G01*
G37*
G36*
G01*
X262285000Y-71300000D02*
X261985000Y-71300000D01*
G75*
G02*
X261835000Y-71150000I0J150000D01*
G01*
X261835000Y-69700000D01*
G75*
G02*
X261985000Y-69550000I150000J0D01*
G01*
X262285000Y-69550000D01*
G75*
G02*
X262435000Y-69700000I0J-150000D01*
G01*
X262435000Y-71150000D01*
G75*
G02*
X262285000Y-71300000I-150000J0D01*
G01*
G37*
G36*
G01*
X263555000Y-71300000D02*
X263255000Y-71300000D01*
G75*
G02*
X263105000Y-71150000I0J150000D01*
G01*
X263105000Y-69700000D01*
G75*
G02*
X263255000Y-69550000I150000J0D01*
G01*
X263555000Y-69550000D01*
G75*
G02*
X263705000Y-69700000I0J-150000D01*
G01*
X263705000Y-71150000D01*
G75*
G02*
X263555000Y-71300000I-150000J0D01*
G01*
G37*
G36*
G01*
X264825000Y-71300000D02*
X264525000Y-71300000D01*
G75*
G02*
X264375000Y-71150000I0J150000D01*
G01*
X264375000Y-69700000D01*
G75*
G02*
X264525000Y-69550000I150000J0D01*
G01*
X264825000Y-69550000D01*
G75*
G02*
X264975000Y-69700000I0J-150000D01*
G01*
X264975000Y-71150000D01*
G75*
G02*
X264825000Y-71300000I-150000J0D01*
G01*
G37*
G36*
G01*
X266095000Y-71300000D02*
X265795000Y-71300000D01*
G75*
G02*
X265645000Y-71150000I0J150000D01*
G01*
X265645000Y-69700000D01*
G75*
G02*
X265795000Y-69550000I150000J0D01*
G01*
X266095000Y-69550000D01*
G75*
G02*
X266245000Y-69700000I0J-150000D01*
G01*
X266245000Y-71150000D01*
G75*
G02*
X266095000Y-71300000I-150000J0D01*
G01*
G37*
G36*
G01*
X266095000Y-76450000D02*
X265795000Y-76450000D01*
G75*
G02*
X265645000Y-76300000I0J150000D01*
G01*
X265645000Y-74850000D01*
G75*
G02*
X265795000Y-74700000I150000J0D01*
G01*
X266095000Y-74700000D01*
G75*
G02*
X266245000Y-74850000I0J-150000D01*
G01*
X266245000Y-76300000D01*
G75*
G02*
X266095000Y-76450000I-150000J0D01*
G01*
G37*
G36*
G01*
X264825000Y-76450000D02*
X264525000Y-76450000D01*
G75*
G02*
X264375000Y-76300000I0J150000D01*
G01*
X264375000Y-74850000D01*
G75*
G02*
X264525000Y-74700000I150000J0D01*
G01*
X264825000Y-74700000D01*
G75*
G02*
X264975000Y-74850000I0J-150000D01*
G01*
X264975000Y-76300000D01*
G75*
G02*
X264825000Y-76450000I-150000J0D01*
G01*
G37*
G36*
G01*
X263555000Y-76450000D02*
X263255000Y-76450000D01*
G75*
G02*
X263105000Y-76300000I0J150000D01*
G01*
X263105000Y-74850000D01*
G75*
G02*
X263255000Y-74700000I150000J0D01*
G01*
X263555000Y-74700000D01*
G75*
G02*
X263705000Y-74850000I0J-150000D01*
G01*
X263705000Y-76300000D01*
G75*
G02*
X263555000Y-76450000I-150000J0D01*
G01*
G37*
G36*
G01*
X262285000Y-76450000D02*
X261985000Y-76450000D01*
G75*
G02*
X261835000Y-76300000I0J150000D01*
G01*
X261835000Y-74850000D01*
G75*
G02*
X261985000Y-74700000I150000J0D01*
G01*
X262285000Y-74700000D01*
G75*
G02*
X262435000Y-74850000I0J-150000D01*
G01*
X262435000Y-76300000D01*
G75*
G02*
X262285000Y-76450000I-150000J0D01*
G01*
G37*
G36*
G01*
X261015000Y-76450000D02*
X260715000Y-76450000D01*
G75*
G02*
X260565000Y-76300000I0J150000D01*
G01*
X260565000Y-74850000D01*
G75*
G02*
X260715000Y-74700000I150000J0D01*
G01*
X261015000Y-74700000D01*
G75*
G02*
X261165000Y-74850000I0J-150000D01*
G01*
X261165000Y-76300000D01*
G75*
G02*
X261015000Y-76450000I-150000J0D01*
G01*
G37*
G36*
G01*
X259745000Y-76450000D02*
X259445000Y-76450000D01*
G75*
G02*
X259295000Y-76300000I0J150000D01*
G01*
X259295000Y-74850000D01*
G75*
G02*
X259445000Y-74700000I150000J0D01*
G01*
X259745000Y-74700000D01*
G75*
G02*
X259895000Y-74850000I0J-150000D01*
G01*
X259895000Y-76300000D01*
G75*
G02*
X259745000Y-76450000I-150000J0D01*
G01*
G37*
G36*
G01*
X258475000Y-76450000D02*
X258175000Y-76450000D01*
G75*
G02*
X258025000Y-76300000I0J150000D01*
G01*
X258025000Y-74850000D01*
G75*
G02*
X258175000Y-74700000I150000J0D01*
G01*
X258475000Y-74700000D01*
G75*
G02*
X258625000Y-74850000I0J-150000D01*
G01*
X258625000Y-76300000D01*
G75*
G02*
X258475000Y-76450000I-150000J0D01*
G01*
G37*
G36*
G01*
X257205000Y-76450000D02*
X256905000Y-76450000D01*
G75*
G02*
X256755000Y-76300000I0J150000D01*
G01*
X256755000Y-74850000D01*
G75*
G02*
X256905000Y-74700000I150000J0D01*
G01*
X257205000Y-74700000D01*
G75*
G02*
X257355000Y-74850000I0J-150000D01*
G01*
X257355000Y-76300000D01*
G75*
G02*
X257205000Y-76450000I-150000J0D01*
G01*
G37*
D19*
X284350000Y-134460000D03*
X286890000Y-134460000D03*
D20*
X274675000Y-146400000D03*
D19*
X279270000Y-134460000D03*
D21*
X278000000Y-137000000D03*
D19*
X285620000Y-137000000D03*
X281810000Y-134460000D03*
X283080000Y-137000000D03*
X280540000Y-137000000D03*
D22*
X276730000Y-143350000D03*
D20*
X290215000Y-146400000D03*
D22*
X288160000Y-143350000D03*
D19*
X264350000Y-134460000D03*
X266890000Y-134460000D03*
D20*
X254675000Y-146400000D03*
D19*
X259270000Y-134460000D03*
D21*
X258000000Y-137000000D03*
D19*
X265620000Y-137000000D03*
X261810000Y-134460000D03*
X263080000Y-137000000D03*
X260540000Y-137000000D03*
D22*
X256730000Y-143350000D03*
D20*
X270215000Y-146400000D03*
D22*
X268160000Y-143350000D03*
D19*
X244350000Y-134460000D03*
X246890000Y-134460000D03*
D20*
X234675000Y-146400000D03*
D19*
X239270000Y-134460000D03*
D21*
X238000000Y-137000000D03*
D19*
X245620000Y-137000000D03*
X241810000Y-134460000D03*
X243080000Y-137000000D03*
X240540000Y-137000000D03*
D22*
X236730000Y-143350000D03*
D20*
X250215000Y-146400000D03*
D22*
X248160000Y-143350000D03*
D19*
X224350000Y-134460000D03*
X226890000Y-134460000D03*
D20*
X214675000Y-146400000D03*
D19*
X219270000Y-134460000D03*
D21*
X218000000Y-137000000D03*
D19*
X225620000Y-137000000D03*
X221810000Y-134460000D03*
X223080000Y-137000000D03*
X220540000Y-137000000D03*
D22*
X216730000Y-143350000D03*
D20*
X230215000Y-146400000D03*
D22*
X228160000Y-143350000D03*
D23*
X287750000Y-101870000D03*
X287750000Y-99330000D03*
X287750000Y-96790000D03*
D24*
X287750000Y-94250000D03*
D23*
X284000000Y-101870000D03*
X284000000Y-99330000D03*
X284000000Y-96790000D03*
D24*
X284000000Y-94250000D03*
D23*
X280250000Y-101870000D03*
X280250000Y-99330000D03*
X280250000Y-96790000D03*
D24*
X280250000Y-94250000D03*
D23*
X276500000Y-101870000D03*
X276500000Y-99330000D03*
X276500000Y-96790000D03*
D24*
X276500000Y-94250000D03*
D23*
X266000000Y-101870000D03*
X266000000Y-99330000D03*
X266000000Y-96790000D03*
D24*
X266000000Y-94250000D03*
D23*
X262250000Y-101870000D03*
X262250000Y-99330000D03*
X262250000Y-96790000D03*
D24*
X262250000Y-94250000D03*
D23*
X258500000Y-101870000D03*
X258500000Y-99330000D03*
X258500000Y-96790000D03*
D24*
X258500000Y-94250000D03*
D23*
X254750000Y-101870000D03*
X254750000Y-99330000D03*
X254750000Y-96790000D03*
D24*
X254750000Y-94250000D03*
D25*
X287990000Y-130080000D03*
X288000000Y-125000000D03*
X267990000Y-130080000D03*
X268000000Y-125000000D03*
X247990000Y-130080000D03*
X248000000Y-125000000D03*
X227990000Y-130080000D03*
X228000000Y-125000000D03*
X217920000Y-74490000D03*
X223000000Y-74500000D03*
X202990000Y-132580000D03*
X203000000Y-127500000D03*
D26*
X287750000Y-86350000D03*
X287750000Y-89650000D03*
X284000000Y-86350000D03*
X284000000Y-89650000D03*
X280250000Y-86350000D03*
X280250000Y-89650000D03*
X276500000Y-86350000D03*
X276500000Y-89650000D03*
X265750000Y-86350000D03*
X265750000Y-89650000D03*
X262000000Y-86350000D03*
X262000000Y-89650000D03*
X258500000Y-86350000D03*
X258500000Y-89650000D03*
X254750000Y-86350000D03*
X254750000Y-89650000D03*
D27*
X233500000Y-88000000D03*
X233500000Y-84000000D03*
G36*
G01*
X232325000Y-73025000D02*
X232325000Y-70975000D01*
G75*
G02*
X232575000Y-70725000I250000J0D01*
G01*
X234150000Y-70725000D01*
G75*
G02*
X234400000Y-70975000I0J-250000D01*
G01*
X234400000Y-73025000D01*
G75*
G02*
X234150000Y-73275000I-250000J0D01*
G01*
X232575000Y-73275000D01*
G75*
G02*
X232325000Y-73025000I0J250000D01*
G01*
G37*
G36*
G01*
X226100000Y-73025000D02*
X226100000Y-70975000D01*
G75*
G02*
X226350000Y-70725000I250000J0D01*
G01*
X227925000Y-70725000D01*
G75*
G02*
X228175000Y-70975000I0J-250000D01*
G01*
X228175000Y-73025000D01*
G75*
G02*
X227925000Y-73275000I-250000J0D01*
G01*
X226350000Y-73275000D01*
G75*
G02*
X226100000Y-73025000I0J250000D01*
G01*
G37*
G36*
G01*
X236250000Y-85325000D02*
X236750000Y-85325000D01*
G75*
G02*
X236975000Y-85550000I0J-225000D01*
G01*
X236975000Y-86000000D01*
G75*
G02*
X236750000Y-86225000I-225000J0D01*
G01*
X236250000Y-86225000D01*
G75*
G02*
X236025000Y-86000000I0J225000D01*
G01*
X236025000Y-85550000D01*
G75*
G02*
X236250000Y-85325000I225000J0D01*
G01*
G37*
G36*
G01*
X236250000Y-83775000D02*
X236750000Y-83775000D01*
G75*
G02*
X236975000Y-84000000I0J-225000D01*
G01*
X236975000Y-84450000D01*
G75*
G02*
X236750000Y-84675000I-225000J0D01*
G01*
X236250000Y-84675000D01*
G75*
G02*
X236025000Y-84450000I0J225000D01*
G01*
X236025000Y-84000000D01*
G75*
G02*
X236250000Y-83775000I225000J0D01*
G01*
G37*
G36*
G01*
X241400001Y-89350000D02*
X240099999Y-89350000D01*
G75*
G02*
X239850000Y-89100001I0J249999D01*
G01*
X239850000Y-88449999D01*
G75*
G02*
X240099999Y-88200000I249999J0D01*
G01*
X241400001Y-88200000D01*
G75*
G02*
X241650000Y-88449999I0J-249999D01*
G01*
X241650000Y-89100001D01*
G75*
G02*
X241400001Y-89350000I-249999J0D01*
G01*
G37*
G36*
G01*
X241400001Y-92300000D02*
X240099999Y-92300000D01*
G75*
G02*
X239850000Y-92050001I0J249999D01*
G01*
X239850000Y-91399999D01*
G75*
G02*
X240099999Y-91150000I249999J0D01*
G01*
X241400001Y-91150000D01*
G75*
G02*
X241650000Y-91399999I0J-249999D01*
G01*
X241650000Y-92050001D01*
G75*
G02*
X241400001Y-92300000I-249999J0D01*
G01*
G37*
G36*
G01*
X231175000Y-91975000D02*
X231175000Y-94025000D01*
G75*
G02*
X230925000Y-94275000I-250000J0D01*
G01*
X229350000Y-94275000D01*
G75*
G02*
X229100000Y-94025000I0J250000D01*
G01*
X229100000Y-91975000D01*
G75*
G02*
X229350000Y-91725000I250000J0D01*
G01*
X230925000Y-91725000D01*
G75*
G02*
X231175000Y-91975000I0J-250000D01*
G01*
G37*
G36*
G01*
X237400000Y-91975000D02*
X237400000Y-94025000D01*
G75*
G02*
X237150000Y-94275000I-250000J0D01*
G01*
X235575000Y-94275000D01*
G75*
G02*
X235325000Y-94025000I0J250000D01*
G01*
X235325000Y-91975000D01*
G75*
G02*
X235575000Y-91725000I250000J0D01*
G01*
X237150000Y-91725000D01*
G75*
G02*
X237400000Y-91975000I0J-250000D01*
G01*
G37*
G36*
G01*
X231175000Y-96975000D02*
X231175000Y-99025000D01*
G75*
G02*
X230925000Y-99275000I-250000J0D01*
G01*
X229350000Y-99275000D01*
G75*
G02*
X229100000Y-99025000I0J250000D01*
G01*
X229100000Y-96975000D01*
G75*
G02*
X229350000Y-96725000I250000J0D01*
G01*
X230925000Y-96725000D01*
G75*
G02*
X231175000Y-96975000I0J-250000D01*
G01*
G37*
G36*
G01*
X237400000Y-96975000D02*
X237400000Y-99025000D01*
G75*
G02*
X237150000Y-99275000I-250000J0D01*
G01*
X235575000Y-99275000D01*
G75*
G02*
X235325000Y-99025000I0J250000D01*
G01*
X235325000Y-96975000D01*
G75*
G02*
X235575000Y-96725000I250000J0D01*
G01*
X237150000Y-96725000D01*
G75*
G02*
X237400000Y-96975000I0J-250000D01*
G01*
G37*
G36*
G01*
X277675000Y-67750000D02*
X277675000Y-68250000D01*
G75*
G02*
X277450000Y-68475000I-225000J0D01*
G01*
X277000000Y-68475000D01*
G75*
G02*
X276775000Y-68250000I0J225000D01*
G01*
X276775000Y-67750000D01*
G75*
G02*
X277000000Y-67525000I225000J0D01*
G01*
X277450000Y-67525000D01*
G75*
G02*
X277675000Y-67750000I0J-225000D01*
G01*
G37*
G36*
G01*
X279225000Y-67750000D02*
X279225000Y-68250000D01*
G75*
G02*
X279000000Y-68475000I-225000J0D01*
G01*
X278550000Y-68475000D01*
G75*
G02*
X278325000Y-68250000I0J225000D01*
G01*
X278325000Y-67750000D01*
G75*
G02*
X278550000Y-67525000I225000J0D01*
G01*
X279000000Y-67525000D01*
G75*
G02*
X279225000Y-67750000I0J-225000D01*
G01*
G37*
G36*
G01*
X284750000Y-78925000D02*
X284250000Y-78925000D01*
G75*
G02*
X284025000Y-78700000I0J225000D01*
G01*
X284025000Y-78250000D01*
G75*
G02*
X284250000Y-78025000I225000J0D01*
G01*
X284750000Y-78025000D01*
G75*
G02*
X284975000Y-78250000I0J-225000D01*
G01*
X284975000Y-78700000D01*
G75*
G02*
X284750000Y-78925000I-225000J0D01*
G01*
G37*
G36*
G01*
X284750000Y-80475000D02*
X284250000Y-80475000D01*
G75*
G02*
X284025000Y-80250000I0J225000D01*
G01*
X284025000Y-79800000D01*
G75*
G02*
X284250000Y-79575000I225000J0D01*
G01*
X284750000Y-79575000D01*
G75*
G02*
X284975000Y-79800000I0J-225000D01*
G01*
X284975000Y-80250000D01*
G75*
G02*
X284750000Y-80475000I-225000J0D01*
G01*
G37*
G36*
G01*
X275325000Y-75750000D02*
X275325000Y-75250000D01*
G75*
G02*
X275550000Y-75025000I225000J0D01*
G01*
X276000000Y-75025000D01*
G75*
G02*
X276225000Y-75250000I0J-225000D01*
G01*
X276225000Y-75750000D01*
G75*
G02*
X276000000Y-75975000I-225000J0D01*
G01*
X275550000Y-75975000D01*
G75*
G02*
X275325000Y-75750000I0J225000D01*
G01*
G37*
G36*
G01*
X273775000Y-75750000D02*
X273775000Y-75250000D01*
G75*
G02*
X274000000Y-75025000I225000J0D01*
G01*
X274450000Y-75025000D01*
G75*
G02*
X274675000Y-75250000I0J-225000D01*
G01*
X274675000Y-75750000D01*
G75*
G02*
X274450000Y-75975000I-225000J0D01*
G01*
X274000000Y-75975000D01*
G75*
G02*
X273775000Y-75750000I0J225000D01*
G01*
G37*
G36*
G01*
X282075000Y-79500000D02*
X282075000Y-79000000D01*
G75*
G02*
X282300000Y-78775000I225000J0D01*
G01*
X282750000Y-78775000D01*
G75*
G02*
X282975000Y-79000000I0J-225000D01*
G01*
X282975000Y-79500000D01*
G75*
G02*
X282750000Y-79725000I-225000J0D01*
G01*
X282300000Y-79725000D01*
G75*
G02*
X282075000Y-79500000I0J225000D01*
G01*
G37*
G36*
G01*
X280525000Y-79500000D02*
X280525000Y-79000000D01*
G75*
G02*
X280750000Y-78775000I225000J0D01*
G01*
X281200000Y-78775000D01*
G75*
G02*
X281425000Y-79000000I0J-225000D01*
G01*
X281425000Y-79500000D01*
G75*
G02*
X281200000Y-79725000I-225000J0D01*
G01*
X280750000Y-79725000D01*
G75*
G02*
X280525000Y-79500000I0J225000D01*
G01*
G37*
G36*
G01*
X278575000Y-79500000D02*
X278575000Y-79000000D01*
G75*
G02*
X278800000Y-78775000I225000J0D01*
G01*
X279250000Y-78775000D01*
G75*
G02*
X279475000Y-79000000I0J-225000D01*
G01*
X279475000Y-79500000D01*
G75*
G02*
X279250000Y-79725000I-225000J0D01*
G01*
X278800000Y-79725000D01*
G75*
G02*
X278575000Y-79500000I0J225000D01*
G01*
G37*
G36*
G01*
X277025000Y-79500000D02*
X277025000Y-79000000D01*
G75*
G02*
X277250000Y-78775000I225000J0D01*
G01*
X277700000Y-78775000D01*
G75*
G02*
X277925000Y-79000000I0J-225000D01*
G01*
X277925000Y-79500000D01*
G75*
G02*
X277700000Y-79725000I-225000J0D01*
G01*
X277250000Y-79725000D01*
G75*
G02*
X277025000Y-79500000I0J225000D01*
G01*
G37*
G36*
G01*
X257175000Y-67750000D02*
X257175000Y-68250000D01*
G75*
G02*
X256950000Y-68475000I-225000J0D01*
G01*
X256500000Y-68475000D01*
G75*
G02*
X256275000Y-68250000I0J225000D01*
G01*
X256275000Y-67750000D01*
G75*
G02*
X256500000Y-67525000I225000J0D01*
G01*
X256950000Y-67525000D01*
G75*
G02*
X257175000Y-67750000I0J-225000D01*
G01*
G37*
G36*
G01*
X258725000Y-67750000D02*
X258725000Y-68250000D01*
G75*
G02*
X258500000Y-68475000I-225000J0D01*
G01*
X258050000Y-68475000D01*
G75*
G02*
X257825000Y-68250000I0J225000D01*
G01*
X257825000Y-67750000D01*
G75*
G02*
X258050000Y-67525000I225000J0D01*
G01*
X258500000Y-67525000D01*
G75*
G02*
X258725000Y-67750000I0J-225000D01*
G01*
G37*
G36*
G01*
X264000000Y-78925000D02*
X263500000Y-78925000D01*
G75*
G02*
X263275000Y-78700000I0J225000D01*
G01*
X263275000Y-78250000D01*
G75*
G02*
X263500000Y-78025000I225000J0D01*
G01*
X264000000Y-78025000D01*
G75*
G02*
X264225000Y-78250000I0J-225000D01*
G01*
X264225000Y-78700000D01*
G75*
G02*
X264000000Y-78925000I-225000J0D01*
G01*
G37*
G36*
G01*
X264000000Y-80475000D02*
X263500000Y-80475000D01*
G75*
G02*
X263275000Y-80250000I0J225000D01*
G01*
X263275000Y-79800000D01*
G75*
G02*
X263500000Y-79575000I225000J0D01*
G01*
X264000000Y-79575000D01*
G75*
G02*
X264225000Y-79800000I0J-225000D01*
G01*
X264225000Y-80250000D01*
G75*
G02*
X264000000Y-80475000I-225000J0D01*
G01*
G37*
G36*
G01*
X254825000Y-75750000D02*
X254825000Y-75250000D01*
G75*
G02*
X255050000Y-75025000I225000J0D01*
G01*
X255500000Y-75025000D01*
G75*
G02*
X255725000Y-75250000I0J-225000D01*
G01*
X255725000Y-75750000D01*
G75*
G02*
X255500000Y-75975000I-225000J0D01*
G01*
X255050000Y-75975000D01*
G75*
G02*
X254825000Y-75750000I0J225000D01*
G01*
G37*
G36*
G01*
X253275000Y-75750000D02*
X253275000Y-75250000D01*
G75*
G02*
X253500000Y-75025000I225000J0D01*
G01*
X253950000Y-75025000D01*
G75*
G02*
X254175000Y-75250000I0J-225000D01*
G01*
X254175000Y-75750000D01*
G75*
G02*
X253950000Y-75975000I-225000J0D01*
G01*
X253500000Y-75975000D01*
G75*
G02*
X253275000Y-75750000I0J225000D01*
G01*
G37*
G36*
G01*
X261575000Y-79500000D02*
X261575000Y-79000000D01*
G75*
G02*
X261800000Y-78775000I225000J0D01*
G01*
X262250000Y-78775000D01*
G75*
G02*
X262475000Y-79000000I0J-225000D01*
G01*
X262475000Y-79500000D01*
G75*
G02*
X262250000Y-79725000I-225000J0D01*
G01*
X261800000Y-79725000D01*
G75*
G02*
X261575000Y-79500000I0J225000D01*
G01*
G37*
G36*
G01*
X260025000Y-79500000D02*
X260025000Y-79000000D01*
G75*
G02*
X260250000Y-78775000I225000J0D01*
G01*
X260700000Y-78775000D01*
G75*
G02*
X260925000Y-79000000I0J-225000D01*
G01*
X260925000Y-79500000D01*
G75*
G02*
X260700000Y-79725000I-225000J0D01*
G01*
X260250000Y-79725000D01*
G75*
G02*
X260025000Y-79500000I0J225000D01*
G01*
G37*
G36*
G01*
X258325000Y-79500000D02*
X258325000Y-79000000D01*
G75*
G02*
X258550000Y-78775000I225000J0D01*
G01*
X259000000Y-78775000D01*
G75*
G02*
X259225000Y-79000000I0J-225000D01*
G01*
X259225000Y-79500000D01*
G75*
G02*
X259000000Y-79725000I-225000J0D01*
G01*
X258550000Y-79725000D01*
G75*
G02*
X258325000Y-79500000I0J225000D01*
G01*
G37*
G36*
G01*
X256775000Y-79500000D02*
X256775000Y-79000000D01*
G75*
G02*
X257000000Y-78775000I225000J0D01*
G01*
X257450000Y-78775000D01*
G75*
G02*
X257675000Y-79000000I0J-225000D01*
G01*
X257675000Y-79500000D01*
G75*
G02*
X257450000Y-79725000I-225000J0D01*
G01*
X257000000Y-79725000D01*
G75*
G02*
X256775000Y-79500000I0J225000D01*
G01*
G37*
D23*
X204790000Y-121150000D03*
X202250000Y-121150000D03*
X204790000Y-118610000D03*
X202250000Y-118610000D03*
X204790000Y-116070000D03*
X202250000Y-116070000D03*
X204790000Y-113530000D03*
X202250000Y-113530000D03*
X204790000Y-110990000D03*
X202250000Y-110990000D03*
X204790000Y-108450000D03*
X202250000Y-108450000D03*
X204790000Y-105910000D03*
X202250000Y-105910000D03*
X204790000Y-103370000D03*
X202250000Y-103370000D03*
X204790000Y-100830000D03*
X202250000Y-100830000D03*
X204790000Y-98290000D03*
X202250000Y-98290000D03*
X204790000Y-95750000D03*
X202250000Y-95750000D03*
X204790000Y-93210000D03*
X202250000Y-93210000D03*
X204790000Y-90670000D03*
X202250000Y-90670000D03*
X204790000Y-88130000D03*
X202250000Y-88130000D03*
X204790000Y-85590000D03*
X202250000Y-85590000D03*
X204790000Y-83050000D03*
X202250000Y-83050000D03*
X204790000Y-80510000D03*
X202250000Y-80510000D03*
X204790000Y-77970000D03*
X202250000Y-77970000D03*
X204790000Y-75430000D03*
X202250000Y-75430000D03*
X204790000Y-72890000D03*
D24*
X202250000Y-72890000D03*
M02*
