G04 #@! TF.GenerationSoftware,KiCad,Pcbnew,5.1.9*
G04 #@! TF.CreationDate,2021-02-24T22:30:28+01:00*
G04 #@! TF.ProjectId,rpi_module,7270695f-6d6f-4647-956c-652e6b696361,rev?*
G04 #@! TF.SameCoordinates,Original*
G04 #@! TF.FileFunction,Legend,Top*
G04 #@! TF.FilePolarity,Positive*
%FSLAX46Y46*%
G04 Gerber Fmt 4.6, Leading zero omitted, Abs format (unit mm)*
G04 Created by KiCad (PCBNEW 5.1.9) date 2021-02-24 22:30:28*
%MOMM*%
%LPD*%
G01*
G04 APERTURE LIST*
%ADD10C,0.150000*%
%ADD11C,0.200000*%
%ADD12C,0.127000*%
%ADD13C,0.120000*%
%ADD14C,0.254000*%
G04 APERTURE END LIST*
D10*
X329452380Y-106119047D02*
X330166666Y-106119047D01*
X330309523Y-106166666D01*
X330404761Y-106261904D01*
X330452380Y-106404761D01*
X330452380Y-106500000D01*
X330452380Y-105166666D02*
X330452380Y-105642857D01*
X329452380Y-105642857D01*
X330357142Y-104261904D02*
X330404761Y-104309523D01*
X330452380Y-104452380D01*
X330452380Y-104547619D01*
X330404761Y-104690476D01*
X330309523Y-104785714D01*
X330214285Y-104833333D01*
X330023809Y-104880952D01*
X329880952Y-104880952D01*
X329690476Y-104833333D01*
X329595238Y-104785714D01*
X329500000Y-104690476D01*
X329452380Y-104547619D01*
X329452380Y-104452380D01*
X329500000Y-104309523D01*
X329547619Y-104261904D01*
X329452380Y-103547619D02*
X330166666Y-103547619D01*
X330309523Y-103595238D01*
X330404761Y-103690476D01*
X330452380Y-103833333D01*
X330452380Y-103928571D01*
X330452380Y-102595238D02*
X330452380Y-103071428D01*
X329452380Y-103071428D01*
X330357142Y-101690476D02*
X330404761Y-101738095D01*
X330452380Y-101880952D01*
X330452380Y-101976190D01*
X330404761Y-102119047D01*
X330309523Y-102214285D01*
X330214285Y-102261904D01*
X330023809Y-102309523D01*
X329880952Y-102309523D01*
X329690476Y-102261904D01*
X329595238Y-102214285D01*
X329500000Y-102119047D01*
X329452380Y-101976190D01*
X329452380Y-101880952D01*
X329500000Y-101738095D01*
X329547619Y-101690476D01*
X329452380Y-100976190D02*
X330166666Y-100976190D01*
X330309523Y-101023809D01*
X330404761Y-101119047D01*
X330452380Y-101261904D01*
X330452380Y-101357142D01*
X330452380Y-100023809D02*
X330452380Y-100500000D01*
X329452380Y-100500000D01*
X330357142Y-99119047D02*
X330404761Y-99166666D01*
X330452380Y-99309523D01*
X330452380Y-99404761D01*
X330404761Y-99547619D01*
X330309523Y-99642857D01*
X330214285Y-99690476D01*
X330023809Y-99738095D01*
X329880952Y-99738095D01*
X329690476Y-99690476D01*
X329595238Y-99642857D01*
X329500000Y-99547619D01*
X329452380Y-99404761D01*
X329452380Y-99309523D01*
X329500000Y-99166666D01*
X329547619Y-99119047D01*
X329452380Y-98404761D02*
X330166666Y-98404761D01*
X330309523Y-98452380D01*
X330404761Y-98547619D01*
X330452380Y-98690476D01*
X330452380Y-98785714D01*
X330452380Y-97452380D02*
X330452380Y-97928571D01*
X329452380Y-97928571D01*
X330357142Y-96547619D02*
X330404761Y-96595238D01*
X330452380Y-96738095D01*
X330452380Y-96833333D01*
X330404761Y-96976190D01*
X330309523Y-97071428D01*
X330214285Y-97119047D01*
X330023809Y-97166666D01*
X329880952Y-97166666D01*
X329690476Y-97119047D01*
X329595238Y-97071428D01*
X329500000Y-96976190D01*
X329452380Y-96833333D01*
X329452380Y-96738095D01*
X329500000Y-96595238D01*
X329547619Y-96547619D01*
X238476190Y-113452380D02*
X238476190Y-112928571D01*
X238428571Y-112833333D01*
X238333333Y-112785714D01*
X238142857Y-112785714D01*
X238047619Y-112833333D01*
X238476190Y-113404761D02*
X238380952Y-113452380D01*
X238142857Y-113452380D01*
X238047619Y-113404761D01*
X238000000Y-113309523D01*
X238000000Y-113214285D01*
X238047619Y-113119047D01*
X238142857Y-113071428D01*
X238380952Y-113071428D01*
X238476190Y-113023809D01*
X238809523Y-112785714D02*
X239190476Y-112785714D01*
X238952380Y-112452380D02*
X238952380Y-113309523D01*
X239000000Y-113404761D01*
X239095238Y-113452380D01*
X239190476Y-113452380D01*
X239523809Y-113452380D02*
X239523809Y-112785714D01*
X239523809Y-112452380D02*
X239476190Y-112500000D01*
X239523809Y-112547619D01*
X239571428Y-112500000D01*
X239523809Y-112452380D01*
X239523809Y-112547619D01*
X240428571Y-113452380D02*
X240428571Y-112928571D01*
X240380952Y-112833333D01*
X240285714Y-112785714D01*
X240095238Y-112785714D01*
X240000000Y-112833333D01*
X240428571Y-113404761D02*
X240333333Y-113452380D01*
X240095238Y-113452380D01*
X240000000Y-113404761D01*
X239952380Y-113309523D01*
X239952380Y-113214285D01*
X240000000Y-113119047D01*
X240095238Y-113071428D01*
X240333333Y-113071428D01*
X240428571Y-113023809D01*
X241619047Y-113404761D02*
X241714285Y-113452380D01*
X241904761Y-113452380D01*
X242000000Y-113404761D01*
X242047619Y-113309523D01*
X242047619Y-113261904D01*
X242000000Y-113166666D01*
X241904761Y-113119047D01*
X241761904Y-113119047D01*
X241666666Y-113071428D01*
X241619047Y-112976190D01*
X241619047Y-112928571D01*
X241666666Y-112833333D01*
X241761904Y-112785714D01*
X241904761Y-112785714D01*
X242000000Y-112833333D01*
X242476190Y-113357142D02*
X242523809Y-113404761D01*
X242476190Y-113452380D01*
X242428571Y-113404761D01*
X242476190Y-113357142D01*
X242476190Y-113452380D01*
X242952380Y-113452380D02*
X242952380Y-112785714D01*
X242952380Y-112976190D02*
X243000000Y-112880952D01*
X243047619Y-112833333D01*
X243142857Y-112785714D01*
X243238095Y-112785714D01*
X243571428Y-113357142D02*
X243619047Y-113404761D01*
X243571428Y-113452380D01*
X243523809Y-113404761D01*
X243571428Y-113357142D01*
X243571428Y-113452380D01*
X244190476Y-113452380D02*
X244095238Y-113404761D01*
X244047619Y-113357142D01*
X244000000Y-113261904D01*
X244000000Y-112976190D01*
X244047619Y-112880952D01*
X244095238Y-112833333D01*
X244190476Y-112785714D01*
X244333333Y-112785714D01*
X244428571Y-112833333D01*
X244476190Y-112880952D01*
X244523809Y-112976190D01*
X244523809Y-113261904D01*
X244476190Y-113357142D01*
X244428571Y-113404761D01*
X244333333Y-113452380D01*
X244190476Y-113452380D01*
X244952380Y-113357142D02*
X245000000Y-113404761D01*
X244952380Y-113452380D01*
X244904761Y-113404761D01*
X244952380Y-113357142D01*
X244952380Y-113452380D01*
X238238095Y-109833333D02*
X239190476Y-109833333D01*
X238047619Y-110404761D02*
X238714285Y-108404761D01*
X239380952Y-110404761D01*
X241190476Y-110214285D02*
X241095238Y-110309523D01*
X240809523Y-110404761D01*
X240619047Y-110404761D01*
X240333333Y-110309523D01*
X240142857Y-110119047D01*
X240047619Y-109928571D01*
X239952380Y-109547619D01*
X239952380Y-109261904D01*
X240047619Y-108880952D01*
X240142857Y-108690476D01*
X240333333Y-108500000D01*
X240619047Y-108404761D01*
X240809523Y-108404761D01*
X241095238Y-108500000D01*
X241190476Y-108595238D01*
X241952380Y-110309523D02*
X242238095Y-110404761D01*
X242714285Y-110404761D01*
X242904761Y-110309523D01*
X243000000Y-110214285D01*
X243095238Y-110023809D01*
X243095238Y-109833333D01*
X243000000Y-109642857D01*
X242904761Y-109547619D01*
X242714285Y-109452380D01*
X242333333Y-109357142D01*
X242142857Y-109261904D01*
X242047619Y-109166666D01*
X241952380Y-108976190D01*
X241952380Y-108785714D01*
X242047619Y-108595238D01*
X242142857Y-108500000D01*
X242333333Y-108404761D01*
X242809523Y-108404761D01*
X243095238Y-108500000D01*
X246619047Y-110404761D02*
X245952380Y-109452380D01*
X245476190Y-110404761D02*
X245476190Y-108404761D01*
X246238095Y-108404761D01*
X246428571Y-108500000D01*
X246523809Y-108595238D01*
X246619047Y-108785714D01*
X246619047Y-109071428D01*
X246523809Y-109261904D01*
X246428571Y-109357142D01*
X246238095Y-109452380D01*
X245476190Y-109452380D01*
X247476190Y-110404761D02*
X247476190Y-108404761D01*
X248238095Y-108404761D01*
X248428571Y-108500000D01*
X248523809Y-108595238D01*
X248619047Y-108785714D01*
X248619047Y-109071428D01*
X248523809Y-109261904D01*
X248428571Y-109357142D01*
X248238095Y-109452380D01*
X247476190Y-109452380D01*
X249476190Y-110404761D02*
X249476190Y-109071428D01*
X249476190Y-108404761D02*
X249380952Y-108500000D01*
X249476190Y-108595238D01*
X249571428Y-108500000D01*
X249476190Y-108404761D01*
X249476190Y-108595238D01*
X251952380Y-110404761D02*
X251952380Y-109071428D01*
X251952380Y-109261904D02*
X252047619Y-109166666D01*
X252238095Y-109071428D01*
X252523809Y-109071428D01*
X252714285Y-109166666D01*
X252809523Y-109357142D01*
X252809523Y-110404761D01*
X252809523Y-109357142D02*
X252904761Y-109166666D01*
X253095238Y-109071428D01*
X253380952Y-109071428D01*
X253571428Y-109166666D01*
X253666666Y-109357142D01*
X253666666Y-110404761D01*
X254904761Y-110404761D02*
X254714285Y-110309523D01*
X254619047Y-110214285D01*
X254523809Y-110023809D01*
X254523809Y-109452380D01*
X254619047Y-109261904D01*
X254714285Y-109166666D01*
X254904761Y-109071428D01*
X255190476Y-109071428D01*
X255380952Y-109166666D01*
X255476190Y-109261904D01*
X255571428Y-109452380D01*
X255571428Y-110023809D01*
X255476190Y-110214285D01*
X255380952Y-110309523D01*
X255190476Y-110404761D01*
X254904761Y-110404761D01*
X257285714Y-110404761D02*
X257285714Y-108404761D01*
X257285714Y-110309523D02*
X257095238Y-110404761D01*
X256714285Y-110404761D01*
X256523809Y-110309523D01*
X256428571Y-110214285D01*
X256333333Y-110023809D01*
X256333333Y-109452380D01*
X256428571Y-109261904D01*
X256523809Y-109166666D01*
X256714285Y-109071428D01*
X257095238Y-109071428D01*
X257285714Y-109166666D01*
X259095238Y-109071428D02*
X259095238Y-110404761D01*
X258238095Y-109071428D02*
X258238095Y-110119047D01*
X258333333Y-110309523D01*
X258523809Y-110404761D01*
X258809523Y-110404761D01*
X259000000Y-110309523D01*
X259095238Y-110214285D01*
X260333333Y-110404761D02*
X260142857Y-110309523D01*
X260047619Y-110119047D01*
X260047619Y-108404761D01*
X261857142Y-110309523D02*
X261666666Y-110404761D01*
X261285714Y-110404761D01*
X261095238Y-110309523D01*
X261000000Y-110119047D01*
X261000000Y-109357142D01*
X261095238Y-109166666D01*
X261285714Y-109071428D01*
X261666666Y-109071428D01*
X261857142Y-109166666D01*
X261952380Y-109357142D01*
X261952380Y-109547619D01*
X261000000Y-109738095D01*
X264142857Y-109071428D02*
X264619047Y-110404761D01*
X265095238Y-109071428D01*
X266904761Y-110404761D02*
X265761904Y-110404761D01*
X266333333Y-110404761D02*
X266333333Y-108404761D01*
X266142857Y-108690476D01*
X265952380Y-108880952D01*
X265761904Y-108976190D01*
X267761904Y-110214285D02*
X267857142Y-110309523D01*
X267761904Y-110404761D01*
X267666666Y-110309523D01*
X267761904Y-110214285D01*
X267761904Y-110404761D01*
X269095238Y-108404761D02*
X269285714Y-108404761D01*
X269476190Y-108500000D01*
X269571428Y-108595238D01*
X269666666Y-108785714D01*
X269761904Y-109166666D01*
X269761904Y-109642857D01*
X269666666Y-110023809D01*
X269571428Y-110214285D01*
X269476190Y-110309523D01*
X269285714Y-110404761D01*
X269095238Y-110404761D01*
X268904761Y-110309523D01*
X268809523Y-110214285D01*
X268714285Y-110023809D01*
X268619047Y-109642857D01*
X268619047Y-109166666D01*
X268714285Y-108785714D01*
X268809523Y-108595238D01*
X268904761Y-108500000D01*
X269095238Y-108404761D01*
X303071428Y-140678571D02*
X302571428Y-139964285D01*
X302214285Y-140678571D02*
X302214285Y-139178571D01*
X302785714Y-139178571D01*
X302928571Y-139250000D01*
X303000000Y-139321428D01*
X303071428Y-139464285D01*
X303071428Y-139678571D01*
X303000000Y-139821428D01*
X302928571Y-139892857D01*
X302785714Y-139964285D01*
X302214285Y-139964285D01*
X304500000Y-140678571D02*
X303642857Y-140678571D01*
X304071428Y-140678571D02*
X304071428Y-139178571D01*
X303928571Y-139392857D01*
X303785714Y-139535714D01*
X303642857Y-139607142D01*
X307357142Y-139107142D02*
X306071428Y-141035714D01*
X309857142Y-140678571D02*
X309357142Y-139964285D01*
X309000000Y-140678571D02*
X309000000Y-139178571D01*
X309571428Y-139178571D01*
X309714285Y-139250000D01*
X309785714Y-139321428D01*
X309857142Y-139464285D01*
X309857142Y-139678571D01*
X309785714Y-139821428D01*
X309714285Y-139892857D01*
X309571428Y-139964285D01*
X309000000Y-139964285D01*
X310428571Y-139321428D02*
X310500000Y-139250000D01*
X310642857Y-139178571D01*
X311000000Y-139178571D01*
X311142857Y-139250000D01*
X311214285Y-139321428D01*
X311285714Y-139464285D01*
X311285714Y-139607142D01*
X311214285Y-139821428D01*
X310357142Y-140678571D01*
X311285714Y-140678571D01*
X314142857Y-139107142D02*
X312857142Y-141035714D01*
X316642857Y-140678571D02*
X316142857Y-139964285D01*
X315785714Y-140678571D02*
X315785714Y-139178571D01*
X316357142Y-139178571D01*
X316500000Y-139250000D01*
X316571428Y-139321428D01*
X316642857Y-139464285D01*
X316642857Y-139678571D01*
X316571428Y-139821428D01*
X316500000Y-139892857D01*
X316357142Y-139964285D01*
X315785714Y-139964285D01*
X317142857Y-139178571D02*
X318071428Y-139178571D01*
X317571428Y-139750000D01*
X317785714Y-139750000D01*
X317928571Y-139821428D01*
X318000000Y-139892857D01*
X318071428Y-140035714D01*
X318071428Y-140392857D01*
X318000000Y-140535714D01*
X317928571Y-140607142D01*
X317785714Y-140678571D01*
X317357142Y-140678571D01*
X317214285Y-140607142D01*
X317142857Y-140535714D01*
X320928571Y-139107142D02*
X319642857Y-141035714D01*
X323428571Y-140678571D02*
X322928571Y-139964285D01*
X322571428Y-140678571D02*
X322571428Y-139178571D01*
X323142857Y-139178571D01*
X323285714Y-139250000D01*
X323357142Y-139321428D01*
X323428571Y-139464285D01*
X323428571Y-139678571D01*
X323357142Y-139821428D01*
X323285714Y-139892857D01*
X323142857Y-139964285D01*
X322571428Y-139964285D01*
X324714285Y-139678571D02*
X324714285Y-140678571D01*
X324357142Y-139107142D02*
X324000000Y-140178571D01*
X324928571Y-140178571D01*
X269952380Y-100333333D02*
X269476190Y-100666666D01*
X269952380Y-100904761D02*
X268952380Y-100904761D01*
X268952380Y-100523809D01*
X269000000Y-100428571D01*
X269047619Y-100380952D01*
X269142857Y-100333333D01*
X269285714Y-100333333D01*
X269380952Y-100380952D01*
X269428571Y-100428571D01*
X269476190Y-100523809D01*
X269476190Y-100904761D01*
X269904761Y-99952380D02*
X269952380Y-99809523D01*
X269952380Y-99571428D01*
X269904761Y-99476190D01*
X269857142Y-99428571D01*
X269761904Y-99380952D01*
X269666666Y-99380952D01*
X269571428Y-99428571D01*
X269523809Y-99476190D01*
X269476190Y-99571428D01*
X269428571Y-99761904D01*
X269380952Y-99857142D01*
X269333333Y-99904761D01*
X269238095Y-99952380D01*
X269142857Y-99952380D01*
X269047619Y-99904761D01*
X269000000Y-99857142D01*
X268952380Y-99761904D01*
X268952380Y-99523809D01*
X269000000Y-99380952D01*
X269047619Y-99000000D02*
X269000000Y-98952380D01*
X268952380Y-98857142D01*
X268952380Y-98619047D01*
X269000000Y-98523809D01*
X269047619Y-98476190D01*
X269142857Y-98428571D01*
X269238095Y-98428571D01*
X269380952Y-98476190D01*
X269952380Y-99047619D01*
X269952380Y-98428571D01*
X268952380Y-98095238D02*
X268952380Y-97476190D01*
X269333333Y-97809523D01*
X269333333Y-97666666D01*
X269380952Y-97571428D01*
X269428571Y-97523809D01*
X269523809Y-97476190D01*
X269761904Y-97476190D01*
X269857142Y-97523809D01*
X269904761Y-97571428D01*
X269952380Y-97666666D01*
X269952380Y-97952380D01*
X269904761Y-98047619D01*
X269857142Y-98095238D01*
X269047619Y-97095238D02*
X269000000Y-97047619D01*
X268952380Y-96952380D01*
X268952380Y-96714285D01*
X269000000Y-96619047D01*
X269047619Y-96571428D01*
X269142857Y-96523809D01*
X269238095Y-96523809D01*
X269380952Y-96571428D01*
X269952380Y-97142857D01*
X269952380Y-96523809D01*
X269857142Y-96095238D02*
X269904761Y-96047619D01*
X269952380Y-96095238D01*
X269904761Y-96142857D01*
X269857142Y-96095238D01*
X269952380Y-96095238D01*
X269333333Y-96095238D02*
X269380952Y-96047619D01*
X269428571Y-96095238D01*
X269380952Y-96142857D01*
X269333333Y-96095238D01*
X269428571Y-96095238D01*
X274500000Y-99500000D02*
X273500000Y-99500000D01*
X271500000Y-97000000D02*
X270500000Y-97000000D01*
X273500000Y-99500000D02*
X273500000Y-97000000D01*
X271500000Y-102500000D02*
X270500000Y-102500000D01*
X270500000Y-94000000D02*
X271500000Y-94000000D01*
X273500000Y-97000000D02*
X274500000Y-97000000D01*
X270500000Y-99500000D02*
X271500000Y-99500000D01*
X271952380Y-100333333D02*
X272761904Y-100333333D01*
X272857142Y-100285714D01*
X272904761Y-100238095D01*
X272952380Y-100142857D01*
X272952380Y-99952380D01*
X272904761Y-99857142D01*
X272857142Y-99809523D01*
X272761904Y-99761904D01*
X271952380Y-99761904D01*
X272666666Y-99333333D02*
X272666666Y-98857142D01*
X272952380Y-99428571D02*
X271952380Y-99095238D01*
X272952380Y-98761904D01*
X272952380Y-97857142D02*
X272476190Y-98190476D01*
X272952380Y-98428571D02*
X271952380Y-98428571D01*
X271952380Y-98047619D01*
X272000000Y-97952380D01*
X272047619Y-97904761D01*
X272142857Y-97857142D01*
X272285714Y-97857142D01*
X272380952Y-97904761D01*
X272428571Y-97952380D01*
X272476190Y-98047619D01*
X272476190Y-98428571D01*
X271952380Y-97571428D02*
X271952380Y-97000000D01*
X272952380Y-97285714D02*
X271952380Y-97285714D01*
X272857142Y-96666666D02*
X272904761Y-96619047D01*
X272952380Y-96666666D01*
X272904761Y-96714285D01*
X272857142Y-96666666D01*
X272952380Y-96666666D01*
X272333333Y-96666666D02*
X272380952Y-96619047D01*
X272428571Y-96666666D01*
X272380952Y-96714285D01*
X272333333Y-96666666D01*
X272428571Y-96666666D01*
X270500000Y-102500000D02*
X270500000Y-99500000D01*
X270500000Y-97000000D02*
X270500000Y-94000000D01*
X248452380Y-100333333D02*
X247976190Y-100666666D01*
X248452380Y-100904761D02*
X247452380Y-100904761D01*
X247452380Y-100523809D01*
X247500000Y-100428571D01*
X247547619Y-100380952D01*
X247642857Y-100333333D01*
X247785714Y-100333333D01*
X247880952Y-100380952D01*
X247928571Y-100428571D01*
X247976190Y-100523809D01*
X247976190Y-100904761D01*
X248404761Y-99952380D02*
X248452380Y-99809523D01*
X248452380Y-99571428D01*
X248404761Y-99476190D01*
X248357142Y-99428571D01*
X248261904Y-99380952D01*
X248166666Y-99380952D01*
X248071428Y-99428571D01*
X248023809Y-99476190D01*
X247976190Y-99571428D01*
X247928571Y-99761904D01*
X247880952Y-99857142D01*
X247833333Y-99904761D01*
X247738095Y-99952380D01*
X247642857Y-99952380D01*
X247547619Y-99904761D01*
X247500000Y-99857142D01*
X247452380Y-99761904D01*
X247452380Y-99523809D01*
X247500000Y-99380952D01*
X247547619Y-99000000D02*
X247500000Y-98952380D01*
X247452380Y-98857142D01*
X247452380Y-98619047D01*
X247500000Y-98523809D01*
X247547619Y-98476190D01*
X247642857Y-98428571D01*
X247738095Y-98428571D01*
X247880952Y-98476190D01*
X248452380Y-99047619D01*
X248452380Y-98428571D01*
X247452380Y-98095238D02*
X247452380Y-97476190D01*
X247833333Y-97809523D01*
X247833333Y-97666666D01*
X247880952Y-97571428D01*
X247928571Y-97523809D01*
X248023809Y-97476190D01*
X248261904Y-97476190D01*
X248357142Y-97523809D01*
X248404761Y-97571428D01*
X248452380Y-97666666D01*
X248452380Y-97952380D01*
X248404761Y-98047619D01*
X248357142Y-98095238D01*
X247547619Y-97095238D02*
X247500000Y-97047619D01*
X247452380Y-96952380D01*
X247452380Y-96714285D01*
X247500000Y-96619047D01*
X247547619Y-96571428D01*
X247642857Y-96523809D01*
X247738095Y-96523809D01*
X247880952Y-96571428D01*
X248452380Y-97142857D01*
X248452380Y-96523809D01*
X248357142Y-96095238D02*
X248404761Y-96047619D01*
X248452380Y-96095238D01*
X248404761Y-96142857D01*
X248357142Y-96095238D01*
X248452380Y-96095238D01*
X247833333Y-96095238D02*
X247880952Y-96047619D01*
X247928571Y-96095238D01*
X247880952Y-96142857D01*
X247833333Y-96095238D01*
X247928571Y-96095238D01*
X249000000Y-94000000D02*
X250000000Y-94000000D01*
X249000000Y-97000000D02*
X249000000Y-94000000D01*
X250000000Y-97000000D02*
X249000000Y-97000000D01*
X249000000Y-99500000D02*
X250000000Y-99500000D01*
X249000000Y-102500000D02*
X249000000Y-99500000D01*
X250000000Y-102500000D02*
X249000000Y-102500000D01*
X250452380Y-100333333D02*
X251261904Y-100333333D01*
X251357142Y-100285714D01*
X251404761Y-100238095D01*
X251452380Y-100142857D01*
X251452380Y-99952380D01*
X251404761Y-99857142D01*
X251357142Y-99809523D01*
X251261904Y-99761904D01*
X250452380Y-99761904D01*
X251166666Y-99333333D02*
X251166666Y-98857142D01*
X251452380Y-99428571D02*
X250452380Y-99095238D01*
X251452380Y-98761904D01*
X251452380Y-97857142D02*
X250976190Y-98190476D01*
X251452380Y-98428571D02*
X250452380Y-98428571D01*
X250452380Y-98047619D01*
X250500000Y-97952380D01*
X250547619Y-97904761D01*
X250642857Y-97857142D01*
X250785714Y-97857142D01*
X250880952Y-97904761D01*
X250928571Y-97952380D01*
X250976190Y-98047619D01*
X250976190Y-98428571D01*
X250452380Y-97571428D02*
X250452380Y-97000000D01*
X251452380Y-97285714D02*
X250452380Y-97285714D01*
X251357142Y-96666666D02*
X251404761Y-96619047D01*
X251452380Y-96666666D01*
X251404761Y-96714285D01*
X251357142Y-96666666D01*
X251452380Y-96666666D01*
X250833333Y-96666666D02*
X250880952Y-96619047D01*
X250928571Y-96666666D01*
X250880952Y-96714285D01*
X250833333Y-96666666D01*
X250928571Y-96666666D01*
X252000000Y-97000000D02*
X253000000Y-97000000D01*
X252000000Y-99500000D02*
X252000000Y-97000000D01*
X253000000Y-99500000D02*
X252000000Y-99500000D01*
X202452380Y-137500000D02*
X202357142Y-137452380D01*
X202214285Y-137452380D01*
X202071428Y-137500000D01*
X201976190Y-137595238D01*
X201928571Y-137690476D01*
X201880952Y-137880952D01*
X201880952Y-138023809D01*
X201928571Y-138214285D01*
X201976190Y-138309523D01*
X202071428Y-138404761D01*
X202214285Y-138452380D01*
X202309523Y-138452380D01*
X202452380Y-138404761D01*
X202500000Y-138357142D01*
X202500000Y-138023809D01*
X202309523Y-138023809D01*
X202928571Y-138452380D02*
X202928571Y-137452380D01*
X203500000Y-138452380D01*
X203500000Y-137452380D01*
X203976190Y-138452380D02*
X203976190Y-137452380D01*
X204214285Y-137452380D01*
X204357142Y-137500000D01*
X204452380Y-137595238D01*
X204500000Y-137690476D01*
X204547619Y-137880952D01*
X204547619Y-138023809D01*
X204500000Y-138214285D01*
X204452380Y-138309523D01*
X204357142Y-138404761D01*
X204214285Y-138452380D01*
X203976190Y-138452380D01*
X206452380Y-137404761D02*
X205595238Y-138690476D01*
X207547619Y-138071428D02*
X208309523Y-138071428D01*
X207928571Y-138452380D02*
X207928571Y-137690476D01*
X209309523Y-138452380D02*
X208738095Y-138452380D01*
X209023809Y-138452380D02*
X209023809Y-137452380D01*
X208928571Y-137595238D01*
X208833333Y-137690476D01*
X208738095Y-137738095D01*
X209690476Y-137547619D02*
X209738095Y-137500000D01*
X209833333Y-137452380D01*
X210071428Y-137452380D01*
X210166666Y-137500000D01*
X210214285Y-137547619D01*
X210261904Y-137642857D01*
X210261904Y-137738095D01*
X210214285Y-137880952D01*
X209642857Y-138452380D01*
X210261904Y-138452380D01*
X210547619Y-137452380D02*
X210880952Y-138452380D01*
X211214285Y-137452380D01*
D11*
X218500000Y-89500000D02*
X230500000Y-89500000D01*
X230500000Y-77500000D02*
X218500000Y-77500000D01*
D12*
X211080000Y-139500000D02*
X211080000Y-151500000D01*
X200920000Y-151500000D02*
X200920000Y-139500000D01*
X211080000Y-151500000D02*
X200920000Y-151500000D01*
X200920000Y-139500000D02*
X211080000Y-139500000D01*
D11*
X208640000Y-138500000D02*
G75*
G03*
X208640000Y-138500000I-100000J0D01*
G01*
D12*
X329245000Y-142300000D02*
X329245000Y-151500000D01*
X297755000Y-151500000D02*
X297755000Y-142300000D01*
X329245000Y-151500000D02*
X297755000Y-151500000D01*
X298845000Y-142300000D02*
X297755000Y-142300000D01*
X329245000Y-142300000D02*
X328155000Y-142300000D01*
D11*
X326935000Y-141700000D02*
G75*
G03*
X326935000Y-141700000I-100000J0D01*
G01*
D13*
X300095500Y-83000000D02*
X300095500Y-93500000D01*
X300095500Y-93500000D02*
X324095500Y-93500000D01*
X324095500Y-93500000D02*
X324095500Y-83000000D01*
X324095500Y-83000000D02*
X300095500Y-83000000D01*
X300095500Y-93500000D02*
X304444000Y-93500000D01*
X300000000Y-95500000D02*
X300000000Y-106000000D01*
X300000000Y-106000000D02*
X324000000Y-106000000D01*
X324000000Y-106000000D02*
X324000000Y-95500000D01*
X324000000Y-95500000D02*
X300000000Y-95500000D01*
X300000000Y-106000000D02*
X304348500Y-106000000D01*
X300000000Y-108000000D02*
X300000000Y-118500000D01*
X300000000Y-118500000D02*
X324000000Y-118500000D01*
X324000000Y-118500000D02*
X324000000Y-108000000D01*
X324000000Y-108000000D02*
X300000000Y-108000000D01*
X300000000Y-118500000D02*
X304348500Y-118500000D01*
X300000000Y-120500000D02*
X300000000Y-131000000D01*
X300000000Y-131000000D02*
X324000000Y-131000000D01*
X324000000Y-131000000D02*
X324000000Y-120500000D01*
X324000000Y-120500000D02*
X300000000Y-120500000D01*
X300000000Y-131000000D02*
X304348500Y-131000000D01*
X302000000Y-78060000D02*
X303950000Y-78060000D01*
X302000000Y-78060000D02*
X300050000Y-78060000D01*
X302000000Y-67940000D02*
X303950000Y-67940000D01*
X302000000Y-67940000D02*
X298550000Y-67940000D01*
D11*
X238350000Y-85050000D02*
G75*
G03*
X238350000Y-85050000I-100000J0D01*
G01*
D12*
X238170000Y-78450000D02*
X238170000Y-81325000D01*
X238170000Y-81325000D02*
X248330000Y-81325000D01*
X248330000Y-81325000D02*
X248330000Y-78450000D01*
D13*
X287060000Y-73000000D02*
X287060000Y-71050000D01*
X287060000Y-73000000D02*
X287060000Y-74950000D01*
X276940000Y-73000000D02*
X276940000Y-71050000D01*
X276940000Y-73000000D02*
X276940000Y-76450000D01*
X266560000Y-73000000D02*
X266560000Y-71050000D01*
X266560000Y-73000000D02*
X266560000Y-74950000D01*
X256440000Y-73000000D02*
X256440000Y-71050000D01*
X256440000Y-73000000D02*
X256440000Y-76450000D01*
X290455000Y-132720000D02*
X290455000Y-144650000D01*
X290455000Y-132720000D02*
X274435000Y-132720000D01*
X274435000Y-132720000D02*
X274435000Y-144650000D01*
X290455000Y-151590000D02*
X274435000Y-151590000D01*
X290455000Y-148150000D02*
X290455000Y-151590000D01*
X274067000Y-137000000D02*
X273559000Y-136492000D01*
X273559000Y-136492000D02*
X273559000Y-137508000D01*
X273559000Y-137508000D02*
X274067000Y-137000000D01*
X274435000Y-148150000D02*
X274435000Y-151590000D01*
X270455000Y-132720000D02*
X270455000Y-144650000D01*
X270455000Y-132720000D02*
X254435000Y-132720000D01*
X254435000Y-132720000D02*
X254435000Y-144650000D01*
X270455000Y-151590000D02*
X254435000Y-151590000D01*
X270455000Y-148150000D02*
X270455000Y-151590000D01*
X254067000Y-137000000D02*
X253559000Y-136492000D01*
X253559000Y-136492000D02*
X253559000Y-137508000D01*
X253559000Y-137508000D02*
X254067000Y-137000000D01*
X254435000Y-148150000D02*
X254435000Y-151590000D01*
X250455000Y-132720000D02*
X250455000Y-144650000D01*
X250455000Y-132720000D02*
X234435000Y-132720000D01*
X234435000Y-132720000D02*
X234435000Y-144650000D01*
X250455000Y-151590000D02*
X234435000Y-151590000D01*
X250455000Y-148150000D02*
X250455000Y-151590000D01*
X234067000Y-137000000D02*
X233559000Y-136492000D01*
X233559000Y-136492000D02*
X233559000Y-137508000D01*
X233559000Y-137508000D02*
X234067000Y-137000000D01*
X234435000Y-148150000D02*
X234435000Y-151590000D01*
X230455000Y-132720000D02*
X230455000Y-144650000D01*
X230455000Y-132720000D02*
X214435000Y-132720000D01*
X214435000Y-132720000D02*
X214435000Y-144650000D01*
X230455000Y-151590000D02*
X214435000Y-151590000D01*
X230455000Y-148150000D02*
X230455000Y-151590000D01*
X214067000Y-137000000D02*
X213559000Y-136492000D01*
X213559000Y-136492000D02*
X213559000Y-137508000D01*
X213559000Y-137508000D02*
X214067000Y-137000000D01*
X214435000Y-148150000D02*
X214435000Y-151590000D01*
X286420000Y-103200000D02*
X289080000Y-103200000D01*
X286420000Y-95520000D02*
X286420000Y-103200000D01*
X289080000Y-95520000D02*
X289080000Y-103200000D01*
X286420000Y-95520000D02*
X289080000Y-95520000D01*
X286420000Y-94250000D02*
X286420000Y-92920000D01*
X286420000Y-92920000D02*
X287750000Y-92920000D01*
X282670000Y-103200000D02*
X285330000Y-103200000D01*
X282670000Y-95520000D02*
X282670000Y-103200000D01*
X285330000Y-95520000D02*
X285330000Y-103200000D01*
X282670000Y-95520000D02*
X285330000Y-95520000D01*
X282670000Y-94250000D02*
X282670000Y-92920000D01*
X282670000Y-92920000D02*
X284000000Y-92920000D01*
X278920000Y-103200000D02*
X281580000Y-103200000D01*
X278920000Y-95520000D02*
X278920000Y-103200000D01*
X281580000Y-95520000D02*
X281580000Y-103200000D01*
X278920000Y-95520000D02*
X281580000Y-95520000D01*
X278920000Y-94250000D02*
X278920000Y-92920000D01*
X278920000Y-92920000D02*
X280250000Y-92920000D01*
X275170000Y-103200000D02*
X277830000Y-103200000D01*
X275170000Y-95520000D02*
X275170000Y-103200000D01*
X277830000Y-95520000D02*
X277830000Y-103200000D01*
X275170000Y-95520000D02*
X277830000Y-95520000D01*
X275170000Y-94250000D02*
X275170000Y-92920000D01*
X275170000Y-92920000D02*
X276500000Y-92920000D01*
X264670000Y-103200000D02*
X267330000Y-103200000D01*
X264670000Y-95520000D02*
X264670000Y-103200000D01*
X267330000Y-95520000D02*
X267330000Y-103200000D01*
X264670000Y-95520000D02*
X267330000Y-95520000D01*
X264670000Y-94250000D02*
X264670000Y-92920000D01*
X264670000Y-92920000D02*
X266000000Y-92920000D01*
X260920000Y-103200000D02*
X263580000Y-103200000D01*
X260920000Y-95520000D02*
X260920000Y-103200000D01*
X263580000Y-95520000D02*
X263580000Y-103200000D01*
X260920000Y-95520000D02*
X263580000Y-95520000D01*
X260920000Y-94250000D02*
X260920000Y-92920000D01*
X260920000Y-92920000D02*
X262250000Y-92920000D01*
X257170000Y-103200000D02*
X259830000Y-103200000D01*
X257170000Y-95520000D02*
X257170000Y-103200000D01*
X259830000Y-95520000D02*
X259830000Y-103200000D01*
X257170000Y-95520000D02*
X259830000Y-95520000D01*
X257170000Y-94250000D02*
X257170000Y-92920000D01*
X257170000Y-92920000D02*
X258500000Y-92920000D01*
X253420000Y-103200000D02*
X256080000Y-103200000D01*
X253420000Y-95520000D02*
X253420000Y-103200000D01*
X256080000Y-95520000D02*
X256080000Y-103200000D01*
X253420000Y-95520000D02*
X256080000Y-95520000D01*
X253420000Y-94250000D02*
X253420000Y-92920000D01*
X253420000Y-92920000D02*
X254750000Y-92920000D01*
X290120000Y-123170000D02*
X290120000Y-131910000D01*
X290120000Y-123170000D02*
X285880000Y-123170000D01*
X285880000Y-131910000D02*
X290120000Y-131910000D01*
X285880000Y-131910000D02*
X285880000Y-123170000D01*
X270120000Y-123170000D02*
X270120000Y-131910000D01*
X270120000Y-123170000D02*
X265880000Y-123170000D01*
X265880000Y-131910000D02*
X270120000Y-131910000D01*
X265880000Y-131910000D02*
X265880000Y-123170000D01*
X250120000Y-123170000D02*
X250120000Y-131910000D01*
X250120000Y-123170000D02*
X245880000Y-123170000D01*
X245880000Y-131910000D02*
X250120000Y-131910000D01*
X245880000Y-131910000D02*
X245880000Y-123170000D01*
X230120000Y-123170000D02*
X230120000Y-131910000D01*
X230120000Y-123170000D02*
X225880000Y-123170000D01*
X225880000Y-131910000D02*
X230120000Y-131910000D01*
X225880000Y-131910000D02*
X225880000Y-123170000D01*
X224830000Y-76620000D02*
X216090000Y-76620000D01*
X224830000Y-76620000D02*
X224830000Y-72380000D01*
X216090000Y-72380000D02*
X216090000Y-76620000D01*
X216090000Y-72380000D02*
X224830000Y-72380000D01*
X205120000Y-125670000D02*
X205120000Y-134410000D01*
X205120000Y-125670000D02*
X200880000Y-125670000D01*
X200880000Y-134410000D02*
X205120000Y-134410000D01*
X200880000Y-134410000D02*
X200880000Y-125670000D01*
X286750000Y-90250000D02*
X288750000Y-90250000D01*
X288750000Y-90250000D02*
X288750000Y-86350000D01*
X286750000Y-90250000D02*
X286750000Y-86350000D01*
X283000000Y-90250000D02*
X285000000Y-90250000D01*
X285000000Y-90250000D02*
X285000000Y-86350000D01*
X283000000Y-90250000D02*
X283000000Y-86350000D01*
X279250000Y-90250000D02*
X281250000Y-90250000D01*
X281250000Y-90250000D02*
X281250000Y-86350000D01*
X279250000Y-90250000D02*
X279250000Y-86350000D01*
X275500000Y-90250000D02*
X277500000Y-90250000D01*
X277500000Y-90250000D02*
X277500000Y-86350000D01*
X275500000Y-90250000D02*
X275500000Y-86350000D01*
X264750000Y-90250000D02*
X266750000Y-90250000D01*
X266750000Y-90250000D02*
X266750000Y-86350000D01*
X264750000Y-90250000D02*
X264750000Y-86350000D01*
X261000000Y-90250000D02*
X263000000Y-90250000D01*
X263000000Y-90250000D02*
X263000000Y-86350000D01*
X261000000Y-90250000D02*
X261000000Y-86350000D01*
X257500000Y-90250000D02*
X259500000Y-90250000D01*
X259500000Y-90250000D02*
X259500000Y-86350000D01*
X257500000Y-90250000D02*
X257500000Y-86350000D01*
X253750000Y-90250000D02*
X255750000Y-90250000D01*
X255750000Y-90250000D02*
X255750000Y-86350000D01*
X253750000Y-90250000D02*
X253750000Y-86350000D01*
X235150000Y-82600000D02*
X231850000Y-82600000D01*
X231850000Y-82600000D02*
X231850000Y-88000000D01*
X235150000Y-82600000D02*
X235150000Y-88000000D01*
X233900000Y-69740000D02*
X225840000Y-69740000D01*
X225840000Y-69740000D02*
X225840000Y-74260000D01*
X225840000Y-74260000D02*
X233900000Y-74260000D01*
X237010000Y-84859420D02*
X237010000Y-85140580D01*
X235990000Y-84859420D02*
X235990000Y-85140580D01*
X239840000Y-90961252D02*
X239840000Y-89538748D01*
X241660000Y-90961252D02*
X241660000Y-89538748D01*
X229600000Y-95260000D02*
X237660000Y-95260000D01*
X237660000Y-95260000D02*
X237660000Y-90740000D01*
X237660000Y-90740000D02*
X229600000Y-90740000D01*
X229600000Y-100260000D02*
X237660000Y-100260000D01*
X237660000Y-100260000D02*
X237660000Y-95740000D01*
X237660000Y-95740000D02*
X229600000Y-95740000D01*
X278140580Y-68510000D02*
X277859420Y-68510000D01*
X278140580Y-67490000D02*
X277859420Y-67490000D01*
X283990000Y-79390580D02*
X283990000Y-79109420D01*
X285010000Y-79390580D02*
X285010000Y-79109420D01*
X274859420Y-74990000D02*
X275140580Y-74990000D01*
X274859420Y-76010000D02*
X275140580Y-76010000D01*
X281609420Y-78740000D02*
X281890580Y-78740000D01*
X281609420Y-79760000D02*
X281890580Y-79760000D01*
X278109420Y-78740000D02*
X278390580Y-78740000D01*
X278109420Y-79760000D02*
X278390580Y-79760000D01*
X257640580Y-68510000D02*
X257359420Y-68510000D01*
X257640580Y-67490000D02*
X257359420Y-67490000D01*
X263240000Y-79390580D02*
X263240000Y-79109420D01*
X264260000Y-79390580D02*
X264260000Y-79109420D01*
X254359420Y-74990000D02*
X254640580Y-74990000D01*
X254359420Y-76010000D02*
X254640580Y-76010000D01*
X261109420Y-78740000D02*
X261390580Y-78740000D01*
X261109420Y-79760000D02*
X261390580Y-79760000D01*
X257859420Y-78740000D02*
X258140580Y-78740000D01*
X257859420Y-79760000D02*
X258140580Y-79760000D01*
D14*
X224288333Y-84074523D02*
X223683571Y-84074523D01*
X223683571Y-82804523D01*
X225376904Y-84074523D02*
X224651190Y-84074523D01*
X225014047Y-84074523D02*
X225014047Y-82804523D01*
X224893095Y-82985952D01*
X224772142Y-83106904D01*
X224651190Y-83167380D01*
D10*
X207166666Y-135452380D02*
X207166666Y-136166666D01*
X207119047Y-136309523D01*
X207023809Y-136404761D01*
X206880952Y-136452380D01*
X206785714Y-136452380D01*
X208166666Y-136452380D02*
X207595238Y-136452380D01*
X207880952Y-136452380D02*
X207880952Y-135452380D01*
X207785714Y-135595238D01*
X207690476Y-135690476D01*
X207595238Y-135738095D01*
X318666666Y-134952380D02*
X318666666Y-135666666D01*
X318619047Y-135809523D01*
X318523809Y-135904761D01*
X318380952Y-135952380D01*
X318285714Y-135952380D01*
X319095238Y-135047619D02*
X319142857Y-135000000D01*
X319238095Y-134952380D01*
X319476190Y-134952380D01*
X319571428Y-135000000D01*
X319619047Y-135047619D01*
X319666666Y-135142857D01*
X319666666Y-135238095D01*
X319619047Y-135380952D01*
X319047619Y-135952380D01*
X319666666Y-135952380D01*
X297024071Y-88952380D02*
X296690738Y-88476190D01*
X296452642Y-88952380D02*
X296452642Y-87952380D01*
X296833595Y-87952380D01*
X296928833Y-88000000D01*
X296976452Y-88047619D01*
X297024071Y-88142857D01*
X297024071Y-88285714D01*
X296976452Y-88380952D01*
X296928833Y-88428571D01*
X296833595Y-88476190D01*
X296452642Y-88476190D01*
X297928833Y-88952380D02*
X297452642Y-88952380D01*
X297452642Y-87952380D01*
X298690738Y-88285714D02*
X298690738Y-88952380D01*
X298452642Y-87904761D02*
X298214547Y-88619047D01*
X298833595Y-88619047D01*
X316382285Y-92328428D02*
X317144190Y-92328428D01*
X316763238Y-92709380D02*
X316763238Y-91947476D01*
X319096571Y-91661761D02*
X318239428Y-92947476D01*
X320191809Y-92328428D02*
X320953714Y-92328428D01*
X305714142Y-92836380D02*
X305237952Y-92836380D01*
X305237952Y-91836380D01*
X306237952Y-91836380D02*
X306428428Y-91836380D01*
X306523666Y-91884000D01*
X306618904Y-91979238D01*
X306666523Y-92169714D01*
X306666523Y-92503047D01*
X306618904Y-92693523D01*
X306523666Y-92788761D01*
X306428428Y-92836380D01*
X306237952Y-92836380D01*
X306142714Y-92788761D01*
X306047476Y-92693523D01*
X305999857Y-92503047D01*
X305999857Y-92169714D01*
X306047476Y-91979238D01*
X306142714Y-91884000D01*
X306237952Y-91836380D01*
X307047476Y-92550666D02*
X307523666Y-92550666D01*
X306952238Y-92836380D02*
X307285571Y-91836380D01*
X307618904Y-92836380D01*
X307952238Y-92836380D02*
X307952238Y-91836380D01*
X308190333Y-91836380D01*
X308333190Y-91884000D01*
X308428428Y-91979238D01*
X308476047Y-92074476D01*
X308523666Y-92264952D01*
X308523666Y-92407809D01*
X308476047Y-92598285D01*
X308428428Y-92693523D01*
X308333190Y-92788761D01*
X308190333Y-92836380D01*
X307952238Y-92836380D01*
X296928571Y-101952380D02*
X296595238Y-101476190D01*
X296357142Y-101952380D02*
X296357142Y-100952380D01*
X296738095Y-100952380D01*
X296833333Y-101000000D01*
X296880952Y-101047619D01*
X296928571Y-101142857D01*
X296928571Y-101285714D01*
X296880952Y-101380952D01*
X296833333Y-101428571D01*
X296738095Y-101476190D01*
X296357142Y-101476190D01*
X297833333Y-101952380D02*
X297357142Y-101952380D01*
X297357142Y-100952380D01*
X298071428Y-100952380D02*
X298690476Y-100952380D01*
X298357142Y-101333333D01*
X298500000Y-101333333D01*
X298595238Y-101380952D01*
X298642857Y-101428571D01*
X298690476Y-101523809D01*
X298690476Y-101761904D01*
X298642857Y-101857142D01*
X298595238Y-101904761D01*
X298500000Y-101952380D01*
X298214285Y-101952380D01*
X298119047Y-101904761D01*
X298071428Y-101857142D01*
X316286785Y-104828428D02*
X317048690Y-104828428D01*
X316667738Y-105209380D02*
X316667738Y-104447476D01*
X319001071Y-104161761D02*
X318143928Y-105447476D01*
X320096309Y-104828428D02*
X320858214Y-104828428D01*
X305618642Y-105336380D02*
X305142452Y-105336380D01*
X305142452Y-104336380D01*
X306142452Y-104336380D02*
X306332928Y-104336380D01*
X306428166Y-104384000D01*
X306523404Y-104479238D01*
X306571023Y-104669714D01*
X306571023Y-105003047D01*
X306523404Y-105193523D01*
X306428166Y-105288761D01*
X306332928Y-105336380D01*
X306142452Y-105336380D01*
X306047214Y-105288761D01*
X305951976Y-105193523D01*
X305904357Y-105003047D01*
X305904357Y-104669714D01*
X305951976Y-104479238D01*
X306047214Y-104384000D01*
X306142452Y-104336380D01*
X306951976Y-105050666D02*
X307428166Y-105050666D01*
X306856738Y-105336380D02*
X307190071Y-104336380D01*
X307523404Y-105336380D01*
X307856738Y-105336380D02*
X307856738Y-104336380D01*
X308094833Y-104336380D01*
X308237690Y-104384000D01*
X308332928Y-104479238D01*
X308380547Y-104574476D01*
X308428166Y-104764952D01*
X308428166Y-104907809D01*
X308380547Y-105098285D01*
X308332928Y-105193523D01*
X308237690Y-105288761D01*
X308094833Y-105336380D01*
X307856738Y-105336380D01*
X296428571Y-114952380D02*
X296095238Y-114476190D01*
X295857142Y-114952380D02*
X295857142Y-113952380D01*
X296238095Y-113952380D01*
X296333333Y-114000000D01*
X296380952Y-114047619D01*
X296428571Y-114142857D01*
X296428571Y-114285714D01*
X296380952Y-114380952D01*
X296333333Y-114428571D01*
X296238095Y-114476190D01*
X295857142Y-114476190D01*
X297333333Y-114952380D02*
X296857142Y-114952380D01*
X296857142Y-113952380D01*
X297619047Y-114047619D02*
X297666666Y-114000000D01*
X297761904Y-113952380D01*
X298000000Y-113952380D01*
X298095238Y-114000000D01*
X298142857Y-114047619D01*
X298190476Y-114142857D01*
X298190476Y-114238095D01*
X298142857Y-114380952D01*
X297571428Y-114952380D01*
X298190476Y-114952380D01*
X316286785Y-117328428D02*
X317048690Y-117328428D01*
X316667738Y-117709380D02*
X316667738Y-116947476D01*
X319001071Y-116661761D02*
X318143928Y-117947476D01*
X320096309Y-117328428D02*
X320858214Y-117328428D01*
X305618642Y-117836380D02*
X305142452Y-117836380D01*
X305142452Y-116836380D01*
X306142452Y-116836380D02*
X306332928Y-116836380D01*
X306428166Y-116884000D01*
X306523404Y-116979238D01*
X306571023Y-117169714D01*
X306571023Y-117503047D01*
X306523404Y-117693523D01*
X306428166Y-117788761D01*
X306332928Y-117836380D01*
X306142452Y-117836380D01*
X306047214Y-117788761D01*
X305951976Y-117693523D01*
X305904357Y-117503047D01*
X305904357Y-117169714D01*
X305951976Y-116979238D01*
X306047214Y-116884000D01*
X306142452Y-116836380D01*
X306951976Y-117550666D02*
X307428166Y-117550666D01*
X306856738Y-117836380D02*
X307190071Y-116836380D01*
X307523404Y-117836380D01*
X307856738Y-117836380D02*
X307856738Y-116836380D01*
X308094833Y-116836380D01*
X308237690Y-116884000D01*
X308332928Y-116979238D01*
X308380547Y-117074476D01*
X308428166Y-117264952D01*
X308428166Y-117407809D01*
X308380547Y-117598285D01*
X308332928Y-117693523D01*
X308237690Y-117788761D01*
X308094833Y-117836380D01*
X307856738Y-117836380D01*
X296928571Y-126952380D02*
X296595238Y-126476190D01*
X296357142Y-126952380D02*
X296357142Y-125952380D01*
X296738095Y-125952380D01*
X296833333Y-126000000D01*
X296880952Y-126047619D01*
X296928571Y-126142857D01*
X296928571Y-126285714D01*
X296880952Y-126380952D01*
X296833333Y-126428571D01*
X296738095Y-126476190D01*
X296357142Y-126476190D01*
X297833333Y-126952380D02*
X297357142Y-126952380D01*
X297357142Y-125952380D01*
X298690476Y-126952380D02*
X298119047Y-126952380D01*
X298404761Y-126952380D02*
X298404761Y-125952380D01*
X298309523Y-126095238D01*
X298214285Y-126190476D01*
X298119047Y-126238095D01*
X316286785Y-129828428D02*
X317048690Y-129828428D01*
X316667738Y-130209380D02*
X316667738Y-129447476D01*
X319001071Y-129161761D02*
X318143928Y-130447476D01*
X320096309Y-129828428D02*
X320858214Y-129828428D01*
X305618642Y-130336380D02*
X305142452Y-130336380D01*
X305142452Y-129336380D01*
X306142452Y-129336380D02*
X306332928Y-129336380D01*
X306428166Y-129384000D01*
X306523404Y-129479238D01*
X306571023Y-129669714D01*
X306571023Y-130003047D01*
X306523404Y-130193523D01*
X306428166Y-130288761D01*
X306332928Y-130336380D01*
X306142452Y-130336380D01*
X306047214Y-130288761D01*
X305951976Y-130193523D01*
X305904357Y-130003047D01*
X305904357Y-129669714D01*
X305951976Y-129479238D01*
X306047214Y-129384000D01*
X306142452Y-129336380D01*
X306951976Y-130050666D02*
X307428166Y-130050666D01*
X306856738Y-130336380D02*
X307190071Y-129336380D01*
X307523404Y-130336380D01*
X307856738Y-130336380D02*
X307856738Y-129336380D01*
X308094833Y-129336380D01*
X308237690Y-129384000D01*
X308332928Y-129479238D01*
X308380547Y-129574476D01*
X308428166Y-129764952D01*
X308428166Y-129907809D01*
X308380547Y-130098285D01*
X308332928Y-130193523D01*
X308237690Y-130288761D01*
X308094833Y-130336380D01*
X307856738Y-130336380D01*
X327690476Y-126152380D02*
X327690476Y-125152380D01*
X328023809Y-125866666D01*
X328357142Y-125152380D01*
X328357142Y-126152380D01*
X328833333Y-126152380D02*
X328833333Y-125152380D01*
X329404761Y-126152380D02*
X328976190Y-125580952D01*
X329404761Y-125152380D02*
X328833333Y-125723809D01*
X330261904Y-125485714D02*
X330261904Y-126152380D01*
X330023809Y-125104761D02*
X329785714Y-125819047D01*
X330404761Y-125819047D01*
X327690476Y-74452380D02*
X327690476Y-73452380D01*
X328023809Y-74166666D01*
X328357142Y-73452380D01*
X328357142Y-74452380D01*
X328833333Y-74452380D02*
X328833333Y-73452380D01*
X329404761Y-74452380D02*
X328976190Y-73880952D01*
X329404761Y-73452380D02*
X328833333Y-74023809D01*
X329738095Y-73452380D02*
X330357142Y-73452380D01*
X330023809Y-73833333D01*
X330166666Y-73833333D01*
X330261904Y-73880952D01*
X330309523Y-73928571D01*
X330357142Y-74023809D01*
X330357142Y-74261904D01*
X330309523Y-74357142D01*
X330261904Y-74404761D01*
X330166666Y-74452380D01*
X329880952Y-74452380D01*
X329785714Y-74404761D01*
X329738095Y-74357142D01*
X208690476Y-73502380D02*
X208690476Y-72502380D01*
X209023809Y-73216666D01*
X209357142Y-72502380D01*
X209357142Y-73502380D01*
X209833333Y-73502380D02*
X209833333Y-72502380D01*
X210404761Y-73502380D02*
X209976190Y-72930952D01*
X210404761Y-72502380D02*
X209833333Y-73073809D01*
X210785714Y-72597619D02*
X210833333Y-72550000D01*
X210928571Y-72502380D01*
X211166666Y-72502380D01*
X211261904Y-72550000D01*
X211309523Y-72597619D01*
X211357142Y-72692857D01*
X211357142Y-72788095D01*
X211309523Y-72930952D01*
X210738095Y-73502380D01*
X211357142Y-73502380D01*
X208690476Y-133752380D02*
X208690476Y-132752380D01*
X209023809Y-133466666D01*
X209357142Y-132752380D01*
X209357142Y-133752380D01*
X209833333Y-133752380D02*
X209833333Y-132752380D01*
X210404761Y-133752380D02*
X209976190Y-133180952D01*
X210404761Y-132752380D02*
X209833333Y-133323809D01*
X211357142Y-133752380D02*
X210785714Y-133752380D01*
X211071428Y-133752380D02*
X211071428Y-132752380D01*
X210976190Y-132895238D01*
X210880952Y-132990476D01*
X210785714Y-133038095D01*
X301238095Y-66552380D02*
X301238095Y-67361904D01*
X301285714Y-67457142D01*
X301333333Y-67504761D01*
X301428571Y-67552380D01*
X301619047Y-67552380D01*
X301714285Y-67504761D01*
X301761904Y-67457142D01*
X301809523Y-67361904D01*
X301809523Y-66552380D01*
X302714285Y-66885714D02*
X302714285Y-67552380D01*
X302476190Y-66504761D02*
X302238095Y-67219047D01*
X302857142Y-67219047D01*
X239603095Y-69527380D02*
X239603095Y-70336904D01*
X239650714Y-70432142D01*
X239698333Y-70479761D01*
X239793571Y-70527380D01*
X239984047Y-70527380D01*
X240079285Y-70479761D01*
X240126904Y-70432142D01*
X240174523Y-70336904D01*
X240174523Y-69527380D01*
X240555476Y-69527380D02*
X241174523Y-69527380D01*
X240841190Y-69908333D01*
X240984047Y-69908333D01*
X241079285Y-69955952D01*
X241126904Y-70003571D01*
X241174523Y-70098809D01*
X241174523Y-70336904D01*
X241126904Y-70432142D01*
X241079285Y-70479761D01*
X240984047Y-70527380D01*
X240698333Y-70527380D01*
X240603095Y-70479761D01*
X240555476Y-70432142D01*
X275552380Y-73011904D02*
X276361904Y-73011904D01*
X276457142Y-72964285D01*
X276504761Y-72916666D01*
X276552380Y-72821428D01*
X276552380Y-72630952D01*
X276504761Y-72535714D01*
X276457142Y-72488095D01*
X276361904Y-72440476D01*
X275552380Y-72440476D01*
X275647619Y-72011904D02*
X275600000Y-71964285D01*
X275552380Y-71869047D01*
X275552380Y-71630952D01*
X275600000Y-71535714D01*
X275647619Y-71488095D01*
X275742857Y-71440476D01*
X275838095Y-71440476D01*
X275980952Y-71488095D01*
X276552380Y-72059523D01*
X276552380Y-71440476D01*
X254952380Y-73011904D02*
X255761904Y-73011904D01*
X255857142Y-72964285D01*
X255904761Y-72916666D01*
X255952380Y-72821428D01*
X255952380Y-72630952D01*
X255904761Y-72535714D01*
X255857142Y-72488095D01*
X255761904Y-72440476D01*
X254952380Y-72440476D01*
X255952380Y-71440476D02*
X255952380Y-72011904D01*
X255952380Y-71726190D02*
X254952380Y-71726190D01*
X255095238Y-71821428D01*
X255190476Y-71916666D01*
X255238095Y-72011904D01*
X281635476Y-131112380D02*
X281635476Y-131826666D01*
X281587857Y-131969523D01*
X281492619Y-132064761D01*
X281349761Y-132112380D01*
X281254523Y-132112380D01*
X282635476Y-132112380D02*
X282064047Y-132112380D01*
X282349761Y-132112380D02*
X282349761Y-131112380D01*
X282254523Y-131255238D01*
X282159285Y-131350476D01*
X282064047Y-131398095D01*
X283492619Y-131445714D02*
X283492619Y-132112380D01*
X283254523Y-131064761D02*
X283016428Y-131779047D01*
X283635476Y-131779047D01*
X261635476Y-131112380D02*
X261635476Y-131826666D01*
X261587857Y-131969523D01*
X261492619Y-132064761D01*
X261349761Y-132112380D01*
X261254523Y-132112380D01*
X262635476Y-132112380D02*
X262064047Y-132112380D01*
X262349761Y-132112380D02*
X262349761Y-131112380D01*
X262254523Y-131255238D01*
X262159285Y-131350476D01*
X262064047Y-131398095D01*
X262968809Y-131112380D02*
X263587857Y-131112380D01*
X263254523Y-131493333D01*
X263397380Y-131493333D01*
X263492619Y-131540952D01*
X263540238Y-131588571D01*
X263587857Y-131683809D01*
X263587857Y-131921904D01*
X263540238Y-132017142D01*
X263492619Y-132064761D01*
X263397380Y-132112380D01*
X263111666Y-132112380D01*
X263016428Y-132064761D01*
X262968809Y-132017142D01*
X241635476Y-131112380D02*
X241635476Y-131826666D01*
X241587857Y-131969523D01*
X241492619Y-132064761D01*
X241349761Y-132112380D01*
X241254523Y-132112380D01*
X242635476Y-132112380D02*
X242064047Y-132112380D01*
X242349761Y-132112380D02*
X242349761Y-131112380D01*
X242254523Y-131255238D01*
X242159285Y-131350476D01*
X242064047Y-131398095D01*
X243016428Y-131207619D02*
X243064047Y-131160000D01*
X243159285Y-131112380D01*
X243397380Y-131112380D01*
X243492619Y-131160000D01*
X243540238Y-131207619D01*
X243587857Y-131302857D01*
X243587857Y-131398095D01*
X243540238Y-131540952D01*
X242968809Y-132112380D01*
X243587857Y-132112380D01*
X221635476Y-131112380D02*
X221635476Y-131826666D01*
X221587857Y-131969523D01*
X221492619Y-132064761D01*
X221349761Y-132112380D01*
X221254523Y-132112380D01*
X222635476Y-132112380D02*
X222064047Y-132112380D01*
X222349761Y-132112380D02*
X222349761Y-131112380D01*
X222254523Y-131255238D01*
X222159285Y-131350476D01*
X222064047Y-131398095D01*
X223587857Y-132112380D02*
X223016428Y-132112380D01*
X223302142Y-132112380D02*
X223302142Y-131112380D01*
X223206904Y-131255238D01*
X223111666Y-131350476D01*
X223016428Y-131398095D01*
X286940476Y-91372380D02*
X286940476Y-92086666D01*
X286892857Y-92229523D01*
X286797619Y-92324761D01*
X286654761Y-92372380D01*
X286559523Y-92372380D01*
X287940476Y-92372380D02*
X287369047Y-92372380D01*
X287654761Y-92372380D02*
X287654761Y-91372380D01*
X287559523Y-91515238D01*
X287464285Y-91610476D01*
X287369047Y-91658095D01*
X288559523Y-91372380D02*
X288654761Y-91372380D01*
X288750000Y-91420000D01*
X288797619Y-91467619D01*
X288845238Y-91562857D01*
X288892857Y-91753333D01*
X288892857Y-91991428D01*
X288845238Y-92181904D01*
X288797619Y-92277142D01*
X288750000Y-92324761D01*
X288654761Y-92372380D01*
X288559523Y-92372380D01*
X288464285Y-92324761D01*
X288416666Y-92277142D01*
X288369047Y-92181904D01*
X288321428Y-91991428D01*
X288321428Y-91753333D01*
X288369047Y-91562857D01*
X288416666Y-91467619D01*
X288464285Y-91420000D01*
X288559523Y-91372380D01*
X283666666Y-91372380D02*
X283666666Y-92086666D01*
X283619047Y-92229523D01*
X283523809Y-92324761D01*
X283380952Y-92372380D01*
X283285714Y-92372380D01*
X284190476Y-92372380D02*
X284380952Y-92372380D01*
X284476190Y-92324761D01*
X284523809Y-92277142D01*
X284619047Y-92134285D01*
X284666666Y-91943809D01*
X284666666Y-91562857D01*
X284619047Y-91467619D01*
X284571428Y-91420000D01*
X284476190Y-91372380D01*
X284285714Y-91372380D01*
X284190476Y-91420000D01*
X284142857Y-91467619D01*
X284095238Y-91562857D01*
X284095238Y-91800952D01*
X284142857Y-91896190D01*
X284190476Y-91943809D01*
X284285714Y-91991428D01*
X284476190Y-91991428D01*
X284571428Y-91943809D01*
X284619047Y-91896190D01*
X284666666Y-91800952D01*
X279916666Y-91372380D02*
X279916666Y-92086666D01*
X279869047Y-92229523D01*
X279773809Y-92324761D01*
X279630952Y-92372380D01*
X279535714Y-92372380D01*
X280535714Y-91800952D02*
X280440476Y-91753333D01*
X280392857Y-91705714D01*
X280345238Y-91610476D01*
X280345238Y-91562857D01*
X280392857Y-91467619D01*
X280440476Y-91420000D01*
X280535714Y-91372380D01*
X280726190Y-91372380D01*
X280821428Y-91420000D01*
X280869047Y-91467619D01*
X280916666Y-91562857D01*
X280916666Y-91610476D01*
X280869047Y-91705714D01*
X280821428Y-91753333D01*
X280726190Y-91800952D01*
X280535714Y-91800952D01*
X280440476Y-91848571D01*
X280392857Y-91896190D01*
X280345238Y-91991428D01*
X280345238Y-92181904D01*
X280392857Y-92277142D01*
X280440476Y-92324761D01*
X280535714Y-92372380D01*
X280726190Y-92372380D01*
X280821428Y-92324761D01*
X280869047Y-92277142D01*
X280916666Y-92181904D01*
X280916666Y-91991428D01*
X280869047Y-91896190D01*
X280821428Y-91848571D01*
X280726190Y-91800952D01*
X276166666Y-91372380D02*
X276166666Y-92086666D01*
X276119047Y-92229523D01*
X276023809Y-92324761D01*
X275880952Y-92372380D01*
X275785714Y-92372380D01*
X276547619Y-91372380D02*
X277214285Y-91372380D01*
X276785714Y-92372380D01*
X265666666Y-91372380D02*
X265666666Y-92086666D01*
X265619047Y-92229523D01*
X265523809Y-92324761D01*
X265380952Y-92372380D01*
X265285714Y-92372380D01*
X266571428Y-91372380D02*
X266380952Y-91372380D01*
X266285714Y-91420000D01*
X266238095Y-91467619D01*
X266142857Y-91610476D01*
X266095238Y-91800952D01*
X266095238Y-92181904D01*
X266142857Y-92277142D01*
X266190476Y-92324761D01*
X266285714Y-92372380D01*
X266476190Y-92372380D01*
X266571428Y-92324761D01*
X266619047Y-92277142D01*
X266666666Y-92181904D01*
X266666666Y-91943809D01*
X266619047Y-91848571D01*
X266571428Y-91800952D01*
X266476190Y-91753333D01*
X266285714Y-91753333D01*
X266190476Y-91800952D01*
X266142857Y-91848571D01*
X266095238Y-91943809D01*
X261916666Y-91372380D02*
X261916666Y-92086666D01*
X261869047Y-92229523D01*
X261773809Y-92324761D01*
X261630952Y-92372380D01*
X261535714Y-92372380D01*
X262869047Y-91372380D02*
X262392857Y-91372380D01*
X262345238Y-91848571D01*
X262392857Y-91800952D01*
X262488095Y-91753333D01*
X262726190Y-91753333D01*
X262821428Y-91800952D01*
X262869047Y-91848571D01*
X262916666Y-91943809D01*
X262916666Y-92181904D01*
X262869047Y-92277142D01*
X262821428Y-92324761D01*
X262726190Y-92372380D01*
X262488095Y-92372380D01*
X262392857Y-92324761D01*
X262345238Y-92277142D01*
X258166666Y-91372380D02*
X258166666Y-92086666D01*
X258119047Y-92229523D01*
X258023809Y-92324761D01*
X257880952Y-92372380D01*
X257785714Y-92372380D01*
X259071428Y-91705714D02*
X259071428Y-92372380D01*
X258833333Y-91324761D02*
X258595238Y-92039047D01*
X259214285Y-92039047D01*
X254416666Y-91372380D02*
X254416666Y-92086666D01*
X254369047Y-92229523D01*
X254273809Y-92324761D01*
X254130952Y-92372380D01*
X254035714Y-92372380D01*
X254797619Y-91372380D02*
X255416666Y-91372380D01*
X255083333Y-91753333D01*
X255226190Y-91753333D01*
X255321428Y-91800952D01*
X255369047Y-91848571D01*
X255416666Y-91943809D01*
X255416666Y-92181904D01*
X255369047Y-92277142D01*
X255321428Y-92324761D01*
X255226190Y-92372380D01*
X254940476Y-92372380D01*
X254845238Y-92324761D01*
X254797619Y-92277142D01*
X290878571Y-127983333D02*
X290878571Y-128316666D01*
X291402380Y-128316666D02*
X290402380Y-128316666D01*
X290402380Y-127840476D01*
X290402380Y-127030952D02*
X290402380Y-127221428D01*
X290450000Y-127316666D01*
X290497619Y-127364285D01*
X290640476Y-127459523D01*
X290830952Y-127507142D01*
X291211904Y-127507142D01*
X291307142Y-127459523D01*
X291354761Y-127411904D01*
X291402380Y-127316666D01*
X291402380Y-127126190D01*
X291354761Y-127030952D01*
X291307142Y-126983333D01*
X291211904Y-126935714D01*
X290973809Y-126935714D01*
X290878571Y-126983333D01*
X290830952Y-127030952D01*
X290783333Y-127126190D01*
X290783333Y-127316666D01*
X290830952Y-127411904D01*
X290878571Y-127459523D01*
X290973809Y-127507142D01*
X270878571Y-127983333D02*
X270878571Y-128316666D01*
X271402380Y-128316666D02*
X270402380Y-128316666D01*
X270402380Y-127840476D01*
X270402380Y-126983333D02*
X270402380Y-127459523D01*
X270878571Y-127507142D01*
X270830952Y-127459523D01*
X270783333Y-127364285D01*
X270783333Y-127126190D01*
X270830952Y-127030952D01*
X270878571Y-126983333D01*
X270973809Y-126935714D01*
X271211904Y-126935714D01*
X271307142Y-126983333D01*
X271354761Y-127030952D01*
X271402380Y-127126190D01*
X271402380Y-127364285D01*
X271354761Y-127459523D01*
X271307142Y-127507142D01*
X250878571Y-127983333D02*
X250878571Y-128316666D01*
X251402380Y-128316666D02*
X250402380Y-128316666D01*
X250402380Y-127840476D01*
X250735714Y-127030952D02*
X251402380Y-127030952D01*
X250354761Y-127269047D02*
X251069047Y-127507142D01*
X251069047Y-126888095D01*
X230878571Y-127983333D02*
X230878571Y-128316666D01*
X231402380Y-128316666D02*
X230402380Y-128316666D01*
X230402380Y-127840476D01*
X230402380Y-127554761D02*
X230402380Y-126935714D01*
X230783333Y-127269047D01*
X230783333Y-127126190D01*
X230830952Y-127030952D01*
X230878571Y-126983333D01*
X230973809Y-126935714D01*
X231211904Y-126935714D01*
X231307142Y-126983333D01*
X231354761Y-127030952D01*
X231402380Y-127126190D01*
X231402380Y-127411904D01*
X231354761Y-127507142D01*
X231307142Y-127554761D01*
X220666666Y-70928571D02*
X220333333Y-70928571D01*
X220333333Y-71452380D02*
X220333333Y-70452380D01*
X220809523Y-70452380D01*
X221142857Y-70547619D02*
X221190476Y-70500000D01*
X221285714Y-70452380D01*
X221523809Y-70452380D01*
X221619047Y-70500000D01*
X221666666Y-70547619D01*
X221714285Y-70642857D01*
X221714285Y-70738095D01*
X221666666Y-70880952D01*
X221095238Y-71452380D01*
X221714285Y-71452380D01*
X205878571Y-130483333D02*
X205878571Y-130816666D01*
X206402380Y-130816666D02*
X205402380Y-130816666D01*
X205402380Y-130340476D01*
X206402380Y-129435714D02*
X206402380Y-130007142D01*
X206402380Y-129721428D02*
X205402380Y-129721428D01*
X205545238Y-129816666D01*
X205640476Y-129911904D01*
X205688095Y-130007142D01*
X286202380Y-88738095D02*
X285202380Y-88738095D01*
X285202380Y-88500000D01*
X285250000Y-88357142D01*
X285345238Y-88261904D01*
X285440476Y-88214285D01*
X285630952Y-88166666D01*
X285773809Y-88166666D01*
X285964285Y-88214285D01*
X286059523Y-88261904D01*
X286154761Y-88357142D01*
X286202380Y-88500000D01*
X286202380Y-88738095D01*
X286202380Y-87690476D02*
X286202380Y-87500000D01*
X286154761Y-87404761D01*
X286107142Y-87357142D01*
X285964285Y-87261904D01*
X285773809Y-87214285D01*
X285392857Y-87214285D01*
X285297619Y-87261904D01*
X285250000Y-87309523D01*
X285202380Y-87404761D01*
X285202380Y-87595238D01*
X285250000Y-87690476D01*
X285297619Y-87738095D01*
X285392857Y-87785714D01*
X285630952Y-87785714D01*
X285726190Y-87738095D01*
X285773809Y-87690476D01*
X285821428Y-87595238D01*
X285821428Y-87404761D01*
X285773809Y-87309523D01*
X285726190Y-87261904D01*
X285630952Y-87214285D01*
X282452380Y-88738095D02*
X281452380Y-88738095D01*
X281452380Y-88500000D01*
X281500000Y-88357142D01*
X281595238Y-88261904D01*
X281690476Y-88214285D01*
X281880952Y-88166666D01*
X282023809Y-88166666D01*
X282214285Y-88214285D01*
X282309523Y-88261904D01*
X282404761Y-88357142D01*
X282452380Y-88500000D01*
X282452380Y-88738095D01*
X281880952Y-87595238D02*
X281833333Y-87690476D01*
X281785714Y-87738095D01*
X281690476Y-87785714D01*
X281642857Y-87785714D01*
X281547619Y-87738095D01*
X281500000Y-87690476D01*
X281452380Y-87595238D01*
X281452380Y-87404761D01*
X281500000Y-87309523D01*
X281547619Y-87261904D01*
X281642857Y-87214285D01*
X281690476Y-87214285D01*
X281785714Y-87261904D01*
X281833333Y-87309523D01*
X281880952Y-87404761D01*
X281880952Y-87595238D01*
X281928571Y-87690476D01*
X281976190Y-87738095D01*
X282071428Y-87785714D01*
X282261904Y-87785714D01*
X282357142Y-87738095D01*
X282404761Y-87690476D01*
X282452380Y-87595238D01*
X282452380Y-87404761D01*
X282404761Y-87309523D01*
X282357142Y-87261904D01*
X282261904Y-87214285D01*
X282071428Y-87214285D01*
X281976190Y-87261904D01*
X281928571Y-87309523D01*
X281880952Y-87404761D01*
X278702380Y-88738095D02*
X277702380Y-88738095D01*
X277702380Y-88500000D01*
X277750000Y-88357142D01*
X277845238Y-88261904D01*
X277940476Y-88214285D01*
X278130952Y-88166666D01*
X278273809Y-88166666D01*
X278464285Y-88214285D01*
X278559523Y-88261904D01*
X278654761Y-88357142D01*
X278702380Y-88500000D01*
X278702380Y-88738095D01*
X277702380Y-87833333D02*
X277702380Y-87166666D01*
X278702380Y-87595238D01*
X274952380Y-88738095D02*
X273952380Y-88738095D01*
X273952380Y-88500000D01*
X274000000Y-88357142D01*
X274095238Y-88261904D01*
X274190476Y-88214285D01*
X274380952Y-88166666D01*
X274523809Y-88166666D01*
X274714285Y-88214285D01*
X274809523Y-88261904D01*
X274904761Y-88357142D01*
X274952380Y-88500000D01*
X274952380Y-88738095D01*
X273952380Y-87309523D02*
X273952380Y-87500000D01*
X274000000Y-87595238D01*
X274047619Y-87642857D01*
X274190476Y-87738095D01*
X274380952Y-87785714D01*
X274761904Y-87785714D01*
X274857142Y-87738095D01*
X274904761Y-87690476D01*
X274952380Y-87595238D01*
X274952380Y-87404761D01*
X274904761Y-87309523D01*
X274857142Y-87261904D01*
X274761904Y-87214285D01*
X274523809Y-87214285D01*
X274428571Y-87261904D01*
X274380952Y-87309523D01*
X274333333Y-87404761D01*
X274333333Y-87595238D01*
X274380952Y-87690476D01*
X274428571Y-87738095D01*
X274523809Y-87785714D01*
X264202380Y-88738095D02*
X263202380Y-88738095D01*
X263202380Y-88500000D01*
X263250000Y-88357142D01*
X263345238Y-88261904D01*
X263440476Y-88214285D01*
X263630952Y-88166666D01*
X263773809Y-88166666D01*
X263964285Y-88214285D01*
X264059523Y-88261904D01*
X264154761Y-88357142D01*
X264202380Y-88500000D01*
X264202380Y-88738095D01*
X263202380Y-87261904D02*
X263202380Y-87738095D01*
X263678571Y-87785714D01*
X263630952Y-87738095D01*
X263583333Y-87642857D01*
X263583333Y-87404761D01*
X263630952Y-87309523D01*
X263678571Y-87261904D01*
X263773809Y-87214285D01*
X264011904Y-87214285D01*
X264107142Y-87261904D01*
X264154761Y-87309523D01*
X264202380Y-87404761D01*
X264202380Y-87642857D01*
X264154761Y-87738095D01*
X264107142Y-87785714D01*
X260452380Y-88738095D02*
X259452380Y-88738095D01*
X259452380Y-88500000D01*
X259500000Y-88357142D01*
X259595238Y-88261904D01*
X259690476Y-88214285D01*
X259880952Y-88166666D01*
X260023809Y-88166666D01*
X260214285Y-88214285D01*
X260309523Y-88261904D01*
X260404761Y-88357142D01*
X260452380Y-88500000D01*
X260452380Y-88738095D01*
X259785714Y-87309523D02*
X260452380Y-87309523D01*
X259404761Y-87547619D02*
X260119047Y-87785714D01*
X260119047Y-87166666D01*
X256952380Y-88738095D02*
X255952380Y-88738095D01*
X255952380Y-88500000D01*
X256000000Y-88357142D01*
X256095238Y-88261904D01*
X256190476Y-88214285D01*
X256380952Y-88166666D01*
X256523809Y-88166666D01*
X256714285Y-88214285D01*
X256809523Y-88261904D01*
X256904761Y-88357142D01*
X256952380Y-88500000D01*
X256952380Y-88738095D01*
X255952380Y-87833333D02*
X255952380Y-87214285D01*
X256333333Y-87547619D01*
X256333333Y-87404761D01*
X256380952Y-87309523D01*
X256428571Y-87261904D01*
X256523809Y-87214285D01*
X256761904Y-87214285D01*
X256857142Y-87261904D01*
X256904761Y-87309523D01*
X256952380Y-87404761D01*
X256952380Y-87690476D01*
X256904761Y-87785714D01*
X256857142Y-87833333D01*
X253202380Y-88738095D02*
X252202380Y-88738095D01*
X252202380Y-88500000D01*
X252250000Y-88357142D01*
X252345238Y-88261904D01*
X252440476Y-88214285D01*
X252630952Y-88166666D01*
X252773809Y-88166666D01*
X252964285Y-88214285D01*
X253059523Y-88261904D01*
X253154761Y-88357142D01*
X253202380Y-88500000D01*
X253202380Y-88738095D01*
X252297619Y-87785714D02*
X252250000Y-87738095D01*
X252202380Y-87642857D01*
X252202380Y-87404761D01*
X252250000Y-87309523D01*
X252297619Y-87261904D01*
X252392857Y-87214285D01*
X252488095Y-87214285D01*
X252630952Y-87261904D01*
X253202380Y-87833333D01*
X253202380Y-87214285D01*
X233952380Y-81738095D02*
X232952380Y-81738095D01*
X232952380Y-81500000D01*
X233000000Y-81357142D01*
X233095238Y-81261904D01*
X233190476Y-81214285D01*
X233380952Y-81166666D01*
X233523809Y-81166666D01*
X233714285Y-81214285D01*
X233809523Y-81261904D01*
X233904761Y-81357142D01*
X233952380Y-81500000D01*
X233952380Y-81738095D01*
X233952380Y-80214285D02*
X233952380Y-80785714D01*
X233952380Y-80500000D02*
X232952380Y-80500000D01*
X233095238Y-80595238D01*
X233190476Y-80690476D01*
X233238095Y-80785714D01*
X229607142Y-69257142D02*
X229559523Y-69304761D01*
X229416666Y-69352380D01*
X229321428Y-69352380D01*
X229178571Y-69304761D01*
X229083333Y-69209523D01*
X229035714Y-69114285D01*
X228988095Y-68923809D01*
X228988095Y-68780952D01*
X229035714Y-68590476D01*
X229083333Y-68495238D01*
X229178571Y-68400000D01*
X229321428Y-68352380D01*
X229416666Y-68352380D01*
X229559523Y-68400000D01*
X229607142Y-68447619D01*
X230559523Y-69352380D02*
X229988095Y-69352380D01*
X230273809Y-69352380D02*
X230273809Y-68352380D01*
X230178571Y-68495238D01*
X230083333Y-68590476D01*
X229988095Y-68638095D01*
X230892857Y-68352380D02*
X231559523Y-68352380D01*
X231130952Y-69352380D01*
X236857142Y-82642857D02*
X236904761Y-82690476D01*
X236952380Y-82833333D01*
X236952380Y-82928571D01*
X236904761Y-83071428D01*
X236809523Y-83166666D01*
X236714285Y-83214285D01*
X236523809Y-83261904D01*
X236380952Y-83261904D01*
X236190476Y-83214285D01*
X236095238Y-83166666D01*
X236000000Y-83071428D01*
X235952380Y-82928571D01*
X235952380Y-82833333D01*
X236000000Y-82690476D01*
X236047619Y-82642857D01*
X236952380Y-81690476D02*
X236952380Y-82261904D01*
X236952380Y-81976190D02*
X235952380Y-81976190D01*
X236095238Y-82071428D01*
X236190476Y-82166666D01*
X236238095Y-82261904D01*
X236285714Y-80833333D02*
X236952380Y-80833333D01*
X235904761Y-81071428D02*
X236619047Y-81309523D01*
X236619047Y-80690476D01*
X239257142Y-90892857D02*
X239304761Y-90940476D01*
X239352380Y-91083333D01*
X239352380Y-91178571D01*
X239304761Y-91321428D01*
X239209523Y-91416666D01*
X239114285Y-91464285D01*
X238923809Y-91511904D01*
X238780952Y-91511904D01*
X238590476Y-91464285D01*
X238495238Y-91416666D01*
X238400000Y-91321428D01*
X238352380Y-91178571D01*
X238352380Y-91083333D01*
X238400000Y-90940476D01*
X238447619Y-90892857D01*
X239352380Y-89940476D02*
X239352380Y-90511904D01*
X239352380Y-90226190D02*
X238352380Y-90226190D01*
X238495238Y-90321428D01*
X238590476Y-90416666D01*
X238638095Y-90511904D01*
X238352380Y-89607142D02*
X238352380Y-88988095D01*
X238733333Y-89321428D01*
X238733333Y-89178571D01*
X238780952Y-89083333D01*
X238828571Y-89035714D01*
X238923809Y-88988095D01*
X239161904Y-88988095D01*
X239257142Y-89035714D01*
X239304761Y-89083333D01*
X239352380Y-89178571D01*
X239352380Y-89464285D01*
X239304761Y-89559523D01*
X239257142Y-89607142D01*
X226107142Y-93357142D02*
X226059523Y-93404761D01*
X225916666Y-93452380D01*
X225821428Y-93452380D01*
X225678571Y-93404761D01*
X225583333Y-93309523D01*
X225535714Y-93214285D01*
X225488095Y-93023809D01*
X225488095Y-92880952D01*
X225535714Y-92690476D01*
X225583333Y-92595238D01*
X225678571Y-92500000D01*
X225821428Y-92452380D01*
X225916666Y-92452380D01*
X226059523Y-92500000D01*
X226107142Y-92547619D01*
X227059523Y-93452380D02*
X226488095Y-93452380D01*
X226773809Y-93452380D02*
X226773809Y-92452380D01*
X226678571Y-92595238D01*
X226583333Y-92690476D01*
X226488095Y-92738095D01*
X227440476Y-92547619D02*
X227488095Y-92500000D01*
X227583333Y-92452380D01*
X227821428Y-92452380D01*
X227916666Y-92500000D01*
X227964285Y-92547619D01*
X228011904Y-92642857D01*
X228011904Y-92738095D01*
X227964285Y-92880952D01*
X227392857Y-93452380D01*
X228011904Y-93452380D01*
X225857142Y-98607142D02*
X225809523Y-98654761D01*
X225666666Y-98702380D01*
X225571428Y-98702380D01*
X225428571Y-98654761D01*
X225333333Y-98559523D01*
X225285714Y-98464285D01*
X225238095Y-98273809D01*
X225238095Y-98130952D01*
X225285714Y-97940476D01*
X225333333Y-97845238D01*
X225428571Y-97750000D01*
X225571428Y-97702380D01*
X225666666Y-97702380D01*
X225809523Y-97750000D01*
X225857142Y-97797619D01*
X226809523Y-98702380D02*
X226238095Y-98702380D01*
X226523809Y-98702380D02*
X226523809Y-97702380D01*
X226428571Y-97845238D01*
X226333333Y-97940476D01*
X226238095Y-97988095D01*
X227761904Y-98702380D02*
X227190476Y-98702380D01*
X227476190Y-98702380D02*
X227476190Y-97702380D01*
X227380952Y-97845238D01*
X227285714Y-97940476D01*
X227190476Y-97988095D01*
X277357142Y-66857142D02*
X277309523Y-66904761D01*
X277166666Y-66952380D01*
X277071428Y-66952380D01*
X276928571Y-66904761D01*
X276833333Y-66809523D01*
X276785714Y-66714285D01*
X276738095Y-66523809D01*
X276738095Y-66380952D01*
X276785714Y-66190476D01*
X276833333Y-66095238D01*
X276928571Y-66000000D01*
X277071428Y-65952380D01*
X277166666Y-65952380D01*
X277309523Y-66000000D01*
X277357142Y-66047619D01*
X278309523Y-66952380D02*
X277738095Y-66952380D01*
X278023809Y-66952380D02*
X278023809Y-65952380D01*
X277928571Y-66095238D01*
X277833333Y-66190476D01*
X277738095Y-66238095D01*
X278928571Y-65952380D02*
X279023809Y-65952380D01*
X279119047Y-66000000D01*
X279166666Y-66047619D01*
X279214285Y-66142857D01*
X279261904Y-66333333D01*
X279261904Y-66571428D01*
X279214285Y-66761904D01*
X279166666Y-66857142D01*
X279119047Y-66904761D01*
X279023809Y-66952380D01*
X278928571Y-66952380D01*
X278833333Y-66904761D01*
X278785714Y-66857142D01*
X278738095Y-66761904D01*
X278690476Y-66571428D01*
X278690476Y-66333333D01*
X278738095Y-66142857D01*
X278785714Y-66047619D01*
X278833333Y-66000000D01*
X278928571Y-65952380D01*
X285107142Y-81916666D02*
X285154761Y-81964285D01*
X285202380Y-82107142D01*
X285202380Y-82202380D01*
X285154761Y-82345238D01*
X285059523Y-82440476D01*
X284964285Y-82488095D01*
X284773809Y-82535714D01*
X284630952Y-82535714D01*
X284440476Y-82488095D01*
X284345238Y-82440476D01*
X284250000Y-82345238D01*
X284202380Y-82202380D01*
X284202380Y-82107142D01*
X284250000Y-81964285D01*
X284297619Y-81916666D01*
X285202380Y-81440476D02*
X285202380Y-81250000D01*
X285154761Y-81154761D01*
X285107142Y-81107142D01*
X284964285Y-81011904D01*
X284773809Y-80964285D01*
X284392857Y-80964285D01*
X284297619Y-81011904D01*
X284250000Y-81059523D01*
X284202380Y-81154761D01*
X284202380Y-81345238D01*
X284250000Y-81440476D01*
X284297619Y-81488095D01*
X284392857Y-81535714D01*
X284630952Y-81535714D01*
X284726190Y-81488095D01*
X284773809Y-81440476D01*
X284821428Y-81345238D01*
X284821428Y-81154761D01*
X284773809Y-81059523D01*
X284726190Y-81011904D01*
X284630952Y-80964285D01*
X274833333Y-74427142D02*
X274785714Y-74474761D01*
X274642857Y-74522380D01*
X274547619Y-74522380D01*
X274404761Y-74474761D01*
X274309523Y-74379523D01*
X274261904Y-74284285D01*
X274214285Y-74093809D01*
X274214285Y-73950952D01*
X274261904Y-73760476D01*
X274309523Y-73665238D01*
X274404761Y-73570000D01*
X274547619Y-73522380D01*
X274642857Y-73522380D01*
X274785714Y-73570000D01*
X274833333Y-73617619D01*
X275404761Y-73950952D02*
X275309523Y-73903333D01*
X275261904Y-73855714D01*
X275214285Y-73760476D01*
X275214285Y-73712857D01*
X275261904Y-73617619D01*
X275309523Y-73570000D01*
X275404761Y-73522380D01*
X275595238Y-73522380D01*
X275690476Y-73570000D01*
X275738095Y-73617619D01*
X275785714Y-73712857D01*
X275785714Y-73760476D01*
X275738095Y-73855714D01*
X275690476Y-73903333D01*
X275595238Y-73950952D01*
X275404761Y-73950952D01*
X275309523Y-73998571D01*
X275261904Y-74046190D01*
X275214285Y-74141428D01*
X275214285Y-74331904D01*
X275261904Y-74427142D01*
X275309523Y-74474761D01*
X275404761Y-74522380D01*
X275595238Y-74522380D01*
X275690476Y-74474761D01*
X275738095Y-74427142D01*
X275785714Y-74331904D01*
X275785714Y-74141428D01*
X275738095Y-74046190D01*
X275690476Y-73998571D01*
X275595238Y-73950952D01*
X281583333Y-78177142D02*
X281535714Y-78224761D01*
X281392857Y-78272380D01*
X281297619Y-78272380D01*
X281154761Y-78224761D01*
X281059523Y-78129523D01*
X281011904Y-78034285D01*
X280964285Y-77843809D01*
X280964285Y-77700952D01*
X281011904Y-77510476D01*
X281059523Y-77415238D01*
X281154761Y-77320000D01*
X281297619Y-77272380D01*
X281392857Y-77272380D01*
X281535714Y-77320000D01*
X281583333Y-77367619D01*
X281916666Y-77272380D02*
X282583333Y-77272380D01*
X282154761Y-78272380D01*
X278083333Y-78177142D02*
X278035714Y-78224761D01*
X277892857Y-78272380D01*
X277797619Y-78272380D01*
X277654761Y-78224761D01*
X277559523Y-78129523D01*
X277511904Y-78034285D01*
X277464285Y-77843809D01*
X277464285Y-77700952D01*
X277511904Y-77510476D01*
X277559523Y-77415238D01*
X277654761Y-77320000D01*
X277797619Y-77272380D01*
X277892857Y-77272380D01*
X278035714Y-77320000D01*
X278083333Y-77367619D01*
X278940476Y-77272380D02*
X278750000Y-77272380D01*
X278654761Y-77320000D01*
X278607142Y-77367619D01*
X278511904Y-77510476D01*
X278464285Y-77700952D01*
X278464285Y-78081904D01*
X278511904Y-78177142D01*
X278559523Y-78224761D01*
X278654761Y-78272380D01*
X278845238Y-78272380D01*
X278940476Y-78224761D01*
X278988095Y-78177142D01*
X279035714Y-78081904D01*
X279035714Y-77843809D01*
X278988095Y-77748571D01*
X278940476Y-77700952D01*
X278845238Y-77653333D01*
X278654761Y-77653333D01*
X278559523Y-77700952D01*
X278511904Y-77748571D01*
X278464285Y-77843809D01*
X257333333Y-66857142D02*
X257285714Y-66904761D01*
X257142857Y-66952380D01*
X257047619Y-66952380D01*
X256904761Y-66904761D01*
X256809523Y-66809523D01*
X256761904Y-66714285D01*
X256714285Y-66523809D01*
X256714285Y-66380952D01*
X256761904Y-66190476D01*
X256809523Y-66095238D01*
X256904761Y-66000000D01*
X257047619Y-65952380D01*
X257142857Y-65952380D01*
X257285714Y-66000000D01*
X257333333Y-66047619D01*
X258238095Y-65952380D02*
X257761904Y-65952380D01*
X257714285Y-66428571D01*
X257761904Y-66380952D01*
X257857142Y-66333333D01*
X258095238Y-66333333D01*
X258190476Y-66380952D01*
X258238095Y-66428571D01*
X258285714Y-66523809D01*
X258285714Y-66761904D01*
X258238095Y-66857142D01*
X258190476Y-66904761D01*
X258095238Y-66952380D01*
X257857142Y-66952380D01*
X257761904Y-66904761D01*
X257714285Y-66857142D01*
X265857142Y-79416666D02*
X265904761Y-79464285D01*
X265952380Y-79607142D01*
X265952380Y-79702380D01*
X265904761Y-79845238D01*
X265809523Y-79940476D01*
X265714285Y-79988095D01*
X265523809Y-80035714D01*
X265380952Y-80035714D01*
X265190476Y-79988095D01*
X265095238Y-79940476D01*
X265000000Y-79845238D01*
X264952380Y-79702380D01*
X264952380Y-79607142D01*
X265000000Y-79464285D01*
X265047619Y-79416666D01*
X265285714Y-78559523D02*
X265952380Y-78559523D01*
X264904761Y-78797619D02*
X265619047Y-79035714D01*
X265619047Y-78416666D01*
X254333333Y-74427142D02*
X254285714Y-74474761D01*
X254142857Y-74522380D01*
X254047619Y-74522380D01*
X253904761Y-74474761D01*
X253809523Y-74379523D01*
X253761904Y-74284285D01*
X253714285Y-74093809D01*
X253714285Y-73950952D01*
X253761904Y-73760476D01*
X253809523Y-73665238D01*
X253904761Y-73570000D01*
X254047619Y-73522380D01*
X254142857Y-73522380D01*
X254285714Y-73570000D01*
X254333333Y-73617619D01*
X254666666Y-73522380D02*
X255285714Y-73522380D01*
X254952380Y-73903333D01*
X255095238Y-73903333D01*
X255190476Y-73950952D01*
X255238095Y-73998571D01*
X255285714Y-74093809D01*
X255285714Y-74331904D01*
X255238095Y-74427142D01*
X255190476Y-74474761D01*
X255095238Y-74522380D01*
X254809523Y-74522380D01*
X254714285Y-74474761D01*
X254666666Y-74427142D01*
X261083333Y-78177142D02*
X261035714Y-78224761D01*
X260892857Y-78272380D01*
X260797619Y-78272380D01*
X260654761Y-78224761D01*
X260559523Y-78129523D01*
X260511904Y-78034285D01*
X260464285Y-77843809D01*
X260464285Y-77700952D01*
X260511904Y-77510476D01*
X260559523Y-77415238D01*
X260654761Y-77320000D01*
X260797619Y-77272380D01*
X260892857Y-77272380D01*
X261035714Y-77320000D01*
X261083333Y-77367619D01*
X261464285Y-77367619D02*
X261511904Y-77320000D01*
X261607142Y-77272380D01*
X261845238Y-77272380D01*
X261940476Y-77320000D01*
X261988095Y-77367619D01*
X262035714Y-77462857D01*
X262035714Y-77558095D01*
X261988095Y-77700952D01*
X261416666Y-78272380D01*
X262035714Y-78272380D01*
X257833333Y-78177142D02*
X257785714Y-78224761D01*
X257642857Y-78272380D01*
X257547619Y-78272380D01*
X257404761Y-78224761D01*
X257309523Y-78129523D01*
X257261904Y-78034285D01*
X257214285Y-77843809D01*
X257214285Y-77700952D01*
X257261904Y-77510476D01*
X257309523Y-77415238D01*
X257404761Y-77320000D01*
X257547619Y-77272380D01*
X257642857Y-77272380D01*
X257785714Y-77320000D01*
X257833333Y-77367619D01*
X258785714Y-78272380D02*
X258214285Y-78272380D01*
X258500000Y-78272380D02*
X258500000Y-77272380D01*
X258404761Y-77415238D01*
X258309523Y-77510476D01*
X258214285Y-77558095D01*
M02*
