G04 #@! TF.GenerationSoftware,KiCad,Pcbnew,5.1.9*
G04 #@! TF.CreationDate,2021-02-24T22:30:28+01:00*
G04 #@! TF.ProjectId,rpi_module,7270695f-6d6f-4647-956c-652e6b696361,rev?*
G04 #@! TF.SameCoordinates,Original*
G04 #@! TF.FileFunction,Soldermask,Bot*
G04 #@! TF.FilePolarity,Negative*
%FSLAX46Y46*%
G04 Gerber Fmt 4.6, Leading zero omitted, Abs format (unit mm)*
G04 Created by KiCad (PCBNEW 5.1.9) date 2021-02-24 22:30:28*
%MOMM*%
%LPD*%
G01*
G04 APERTURE LIST*
%ADD10C,2.100000*%
%ADD11R,2.100000X2.100000*%
%ADD12C,1.800000*%
%ADD13R,1.800000X1.800000*%
%ADD14C,2.200000*%
%ADD15C,5.600000*%
%ADD16C,1.500000*%
%ADD17C,3.000000*%
%ADD18R,1.500000X1.500000*%
%ADD19C,3.250000*%
%ADD20O,1.700000X1.700000*%
%ADD21R,1.700000X1.700000*%
%ADD22C,2.000000*%
G04 APERTURE END LIST*
D10*
X203460000Y-141500000D03*
D11*
X208540000Y-141500000D03*
D12*
X300165000Y-143500000D03*
X303975000Y-143500000D03*
X307785000Y-143500000D03*
X311595000Y-143500000D03*
X315405000Y-143500000D03*
X319215000Y-143500000D03*
X323025000Y-143500000D03*
D13*
X326835000Y-143500000D03*
D12*
X319660000Y-89010500D03*
X317120000Y-89010500D03*
D14*
X304420000Y-89010500D03*
X309500000Y-89010500D03*
D12*
X319564500Y-101510500D03*
X317024500Y-101510500D03*
D14*
X304324500Y-101510500D03*
X309404500Y-101510500D03*
D12*
X319564500Y-114010500D03*
X317024500Y-114010500D03*
D14*
X304324500Y-114010500D03*
X309404500Y-114010500D03*
D12*
X319564500Y-126510500D03*
X317024500Y-126510500D03*
D14*
X304324500Y-126510500D03*
X309404500Y-126510500D03*
D15*
X329000000Y-129500000D03*
X329000000Y-69250000D03*
X210000000Y-69250000D03*
X210000000Y-129500000D03*
D16*
X284350000Y-134460000D03*
X286890000Y-134460000D03*
D17*
X274675000Y-146400000D03*
D16*
X279270000Y-134460000D03*
D18*
X278000000Y-137000000D03*
D16*
X285620000Y-137000000D03*
X281810000Y-134460000D03*
X283080000Y-137000000D03*
X280540000Y-137000000D03*
D19*
X276730000Y-143350000D03*
D17*
X290215000Y-146400000D03*
D19*
X288160000Y-143350000D03*
D16*
X264350000Y-134460000D03*
X266890000Y-134460000D03*
D17*
X254675000Y-146400000D03*
D16*
X259270000Y-134460000D03*
D18*
X258000000Y-137000000D03*
D16*
X265620000Y-137000000D03*
X261810000Y-134460000D03*
X263080000Y-137000000D03*
X260540000Y-137000000D03*
D19*
X256730000Y-143350000D03*
D17*
X270215000Y-146400000D03*
D19*
X268160000Y-143350000D03*
D16*
X244350000Y-134460000D03*
X246890000Y-134460000D03*
D17*
X234675000Y-146400000D03*
D16*
X239270000Y-134460000D03*
D18*
X238000000Y-137000000D03*
D16*
X245620000Y-137000000D03*
X241810000Y-134460000D03*
X243080000Y-137000000D03*
X240540000Y-137000000D03*
D19*
X236730000Y-143350000D03*
D17*
X250215000Y-146400000D03*
D19*
X248160000Y-143350000D03*
D16*
X224350000Y-134460000D03*
X226890000Y-134460000D03*
D17*
X214675000Y-146400000D03*
D16*
X219270000Y-134460000D03*
D18*
X218000000Y-137000000D03*
D16*
X225620000Y-137000000D03*
X221810000Y-134460000D03*
X223080000Y-137000000D03*
X220540000Y-137000000D03*
D19*
X216730000Y-143350000D03*
D17*
X230215000Y-146400000D03*
D19*
X228160000Y-143350000D03*
D20*
X287750000Y-101870000D03*
X287750000Y-99330000D03*
X287750000Y-96790000D03*
D21*
X287750000Y-94250000D03*
D20*
X284000000Y-101870000D03*
X284000000Y-99330000D03*
X284000000Y-96790000D03*
D21*
X284000000Y-94250000D03*
D20*
X280250000Y-101870000D03*
X280250000Y-99330000D03*
X280250000Y-96790000D03*
D21*
X280250000Y-94250000D03*
D20*
X276500000Y-101870000D03*
X276500000Y-99330000D03*
X276500000Y-96790000D03*
D21*
X276500000Y-94250000D03*
D20*
X266000000Y-101870000D03*
X266000000Y-99330000D03*
X266000000Y-96790000D03*
D21*
X266000000Y-94250000D03*
D20*
X262250000Y-101870000D03*
X262250000Y-99330000D03*
X262250000Y-96790000D03*
D21*
X262250000Y-94250000D03*
D20*
X258500000Y-101870000D03*
X258500000Y-99330000D03*
X258500000Y-96790000D03*
D21*
X258500000Y-94250000D03*
D20*
X254750000Y-101870000D03*
X254750000Y-99330000D03*
X254750000Y-96790000D03*
D21*
X254750000Y-94250000D03*
D22*
X287990000Y-130080000D03*
X288000000Y-125000000D03*
X267990000Y-130080000D03*
X268000000Y-125000000D03*
X247990000Y-130080000D03*
X248000000Y-125000000D03*
X227990000Y-130080000D03*
X228000000Y-125000000D03*
X217920000Y-74490000D03*
X223000000Y-74500000D03*
X202990000Y-132580000D03*
X203000000Y-127500000D03*
D20*
X204790000Y-121150000D03*
X202250000Y-121150000D03*
X204790000Y-118610000D03*
X202250000Y-118610000D03*
X204790000Y-116070000D03*
X202250000Y-116070000D03*
X204790000Y-113530000D03*
X202250000Y-113530000D03*
X204790000Y-110990000D03*
X202250000Y-110990000D03*
X204790000Y-108450000D03*
X202250000Y-108450000D03*
X204790000Y-105910000D03*
X202250000Y-105910000D03*
X204790000Y-103370000D03*
X202250000Y-103370000D03*
X204790000Y-100830000D03*
X202250000Y-100830000D03*
X204790000Y-98290000D03*
X202250000Y-98290000D03*
X204790000Y-95750000D03*
X202250000Y-95750000D03*
X204790000Y-93210000D03*
X202250000Y-93210000D03*
X204790000Y-90670000D03*
X202250000Y-90670000D03*
X204790000Y-88130000D03*
X202250000Y-88130000D03*
X204790000Y-85590000D03*
X202250000Y-85590000D03*
X204790000Y-83050000D03*
X202250000Y-83050000D03*
X204790000Y-80510000D03*
X202250000Y-80510000D03*
X204790000Y-77970000D03*
X202250000Y-77970000D03*
X204790000Y-75430000D03*
X202250000Y-75430000D03*
X204790000Y-72890000D03*
D21*
X202250000Y-72890000D03*
M02*
